<svg xmlns="http://www.w3.org/2000/svg" width="2rem" height="2.7rem" version="1.0" viewBox="0 0 1450 1700"><path fill="#68CBED" d="M237.6 217.9c-6.5 2.7-14.8 7-18.5 9.5-3.6 2.5-7.8 4.9-9.2 5.5-4.7 1.7-13.8-.2-23.9-5.1-17.9-8.7-27-10.1-42.8-6.9-16.1 3.4-18.3 5.2-26.1 22.7-5.5 12.2-6.5 23-3.2 34.5 1.1 4.1 2.1 8.7 2.1 10.1 0 5.7 3.9 12.1 14.8 24.3 6.3 7.1 21.5 16.3 37.9 23 5.9 2.4 10.7 7.9 14.6 16.5 6.1 13.5 6.6 15.6 11.2 48 1.4 9.8 3.2 28.1 5.5 56.5.5 6.6 2.1 22.3 3.4 35 4.3 40.3 5.9 61.7 8.7 119.5.5 10.7 1.2 36.1 1.5 56.5.5 31.8.4 38.5-1.1 47.5-.9 5.8-2.3 15.2-3.1 21-1.6 11.9-2.8 18-4.8 23-.8 1.9-2.9 7.3-4.6 12-7.1 18.6-14.3 30.9-28.7 48.9-13.2 16.5-15.9 18.5-26.8 20.2-3.3.5-9.7 1.8-14.2 2.9s-9.2 2-10.5 2-4.5 1.1-7.2 2.5-6.5 2.5-8.4 2.5-6.6.7-10.6 1.6c-3.9.8-10.2 2.2-14.1 3.1-8.1 1.8-24.9 7.1-31.6 10.1-2.6 1.1-8.7 3-13.5 4.3-6.7 1.7-10.2 3.2-14.2 6.2-9.7 7.3-9.9 12.2-.5 14.7 2.7.7 13.5 1.4 24.3 1.7 18.9.4 19.8.5 31 3.9 23.3 7.2 37.9 15.9 62 37 10.8 9.5 37.4 34 44.5 40.9 1.6 1.7 7.5 9.3 12.9 17 5.5 7.7 12.2 17.1 15.1 21 2.8 3.8 6.9 9.9 9 13.5s6 9.7 8.6 13.6c5.6 8.4 9.5 15.8 17.9 34.4 3.4 7.4 9.5 19.6 13.6 27.1s7.4 13.9 7.4 14.3 3.9 7.1 8.6 14.9c4.8 7.8 12.5 21.4 17.1 30.2 4.7 8.8 12.7 21.8 17.7 29 5.1 7.1 10.7 15.2 12.6 18 11.3 17 25.3 32.8 52.6 59.6 15.3 15.1 38.7 36.4 50.8 46.2 1.9 1.5 10.6 7.6 19.3 13.4 37.5 25.3 40.9 27.3 45 27.3 1.5 0 3.4.7 4.2 1.5.9.7 5.7 3.5 10.6 6.1 5 2.6 10.1 5.6 11.5 6.6 5.2 4 16.7 11.1 21 12.9 2.5 1 12.2 5.7 21.5 10.5 9.4 4.8 19.3 9.8 22 11.2 2.8 1.3 6.1 3.2 7.5 4.2 1.4.9 4.2 2.3 6.3 3s10.3 4.3 18.2 8c16.3 7.8 33.4 14.6 55 22 16.2 5.5 36.3 11 40.4 11 4.4 0 15.7 3.7 23.3 7.6 4 2 15 8.1 24.4 13.5 19.1 10.9 20.8 11.9 31.4 17.7 8.1 4.5 9 5.1 23.1 15.9 22.4 17.1 52.4 45.8 56.9 54.6 1.2 2.3 2.9 5 3.8 5.9 2.2 2.6 6.4 2.2 9.2-.7 3.3-3.5 2.3-8.9-2.9-16.2-2.3-3.2-5.8-8.5-7.8-11.7-2.1-3.2-6.3-9.3-9.4-13.5-3-4.2-7.1-10.3-9-13.6-2-3.3-5-8-6.8-10.5s-6.2-8.8-9.8-14c-7.4-10.7-18.6-24.3-27.8-34-6.5-6.7-18.3-22.1-25-32.5-4.1-6.3-8.9-13-22.1-30.8-9-12.1-15-22.9-22.5-40.5-7.5-17.5-15.5-31.7-32.1-56.5-3.2-4.9-7.8-12.8-10.2-17.5-2.6-5.1-9.1-14.8-15.6-23.2-6.2-8-12.3-16.1-13.5-18.1-2.8-4.4-16.9-22.1-24.5-30.9-3.1-3.6-9.5-11.7-14.3-18-4.7-6.3-9.4-12.4-10.4-13.5s-4.8-5.7-8.5-10.1c-3.7-4.5-9.9-10.7-13.9-13.9-3.9-3.1-14.8-13.5-24.2-22.9-10.2-10.2-21.9-20.8-28.7-25.9-6.3-4.7-14.2-11.1-17.5-14.2-3.3-3-9-7.4-12.8-9.7-3.7-2.4-11.3-7.2-17-10.8-5.6-3.5-15.2-10.3-21.2-15-6.1-4.7-15-11-19.8-14s-14.5-9.2-21.5-13.8c-12.5-8.2-18.5-11.6-39.4-22.5-5.8-3-16-9-22.5-13.3-6.5-4.2-14-9.1-16.8-10.9-2.7-1.8-7.4-4.5-10.4-6s-8.9-5.7-13.2-9.4c-4.2-3.6-10.7-8.2-14.4-10.1-5.4-2.8-7.5-4.6-10.4-9-5.7-8.4-12.9-21.3-14.6-26.2-6.9-19-8.5-26.9-9.1-45.5-.5-15.4-.4-17.8 1.9-28.8 3.8-18.1 13.8-45.4 22.2-60.5 2.9-5.2 7.3-13.3 9.8-18s7.5-12.9 11.1-18.3c3.6-5.5 6.6-10.1 6.6-10.3 0-.3 2.7-4.7 5.9-9.8 7.8-12.2 14.7-23.9 17.8-30.1 1.4-2.8 5.3-9.3 8.7-14.5 7.7-11.7 15.7-26.6 18.9-35.1 1.4-3.5 4.5-10.8 7.1-16.2 2.5-5.5 4.6-10.1 4.6-10.3s4.2-9.3 9.4-20.3c11.8-24.6 16.4-36.4 23.6-60.1 1.8-5.8 4.4-12.7 5.7-15.5 1.4-2.7 3.6-7.7 4.8-11 1.3-3.4 5.5-12.6 9.3-20.6 8.1-16.7 7.4-14.7 19.6-53.9 2-6.3 4-12.1 4.5-12.9.5-.7 5.3-2.4 10.7-3.7 11.9-2.9 18-5.8 28.2-13.3 13.2-9.8 19.7-18.8 23.8-32.7 2.3-8 1.4-18.4-2.5-30.3-3.4-10.2-6.8-15.8-14.6-23.9-5.9-6.2-11.7-8.4-22.2-8.2-3.8 0-12.9-.2-20.3-.6l-13.5-.7-5.7-5.1c-12.7-11.5-23.3-15.1-35.1-12.1-10.2 2.5-19.8 7.8-28 15.5-8.5 7.9-11.5 13.4-14.2 25.2-1.9 8.5-1.7 14.7.8 27.5 2.1 10.4 3.9 14.8 8.2 19.3 1.8 1.9 6.6 7.3 10.5 11.8 4 4.6 10.1 10.6 13.6 13.4 3.8 2.9 6.7 6.1 7.2 7.6.4 1.5.7 11 .7 21.2 0 18.9-.3 20.7-5.2 38-.8 3-2.8 7.8-4.4 10.6s-2.9 5.6-2.9 6.3-3.4 9.9-7.6 20.4c-7.2 18.1-14 31.7-20.6 41.4-1.6 2.3-5.2 8.6-8 14s-7.2 13.6-9.8 18.3-7.7 14.6-11.3 22c-10.9 22.5-14.3 29.3-17.2 34.5-1.5 2.7-7.7 14.6-13.6 26.3-6 11.7-12.8 23.8-15.1 27-2.4 3.1-4.7 6.5-5.3 7.4-.5.9-3.9 6.5-7.5 12.5-3.6 5.9-6.7 11.2-7 11.8-.3.5-1.7 2.9-3.2 5.2-1.6 2.4-2.8 4.5-2.8 4.7 0 .3-1.4 2.9-3.1 5.8s-5 8.9-7.2 13.3c-4.8 9.4-12.8 18.5-16.4 18.5-1.3 0-3.5-1.1-4.9-2.5l-2.5-2.5.6-23.3c.4-12.7 1.1-25.4 1.6-28s.9-8.3 1-12.5c0-4.2.4-11.3.9-15.7 1.8-15.7 3-78.1 1.9-105-.5-14.3-1.4-40-1.9-57-.5-17.1-1.6-37.3-2.5-45-3-28.3-4.5-40.1-5.4-45.2-.6-2.9-1.5-14.2-2.1-25-.5-10.9-1.5-26.9-2.1-35.6-1.8-25.1-.5-32.6 6.5-36.1 1.7-.8 7.2-3 12.1-4.8 11.7-4.2 16.1-6.7 22-12.5 9.9-9.8 13.9-18 18-36.9 3.1-14.2 3.3-26.3.6-34.9-2.7-8.9-8.5-20.4-12.6-25.3-5.7-6.5-8.3-7.5-21.5-7.9l-11.5-.4zm30.7 798.3c6.6 2.8 23.5 12.5 26.5 15.2 2 1.8 2.3 2.7 1.7 6.4-.7 4.6-3.5 11.5-5.7 14.3-1.9 2.3-7.3 4.9-10.2 4.9-1.4 0-3.6-1-5-2.3-2.6-2.3-9.3-17.3-13.2-29.6-3.9-12-3.3-12.8 5.9-8.9m50.5 25.9c3.5 1.4 3.6 3.3.7 11.1-4.1 10.7-5.8 13.8-11 19.5-3.9 4.4-5.4 5.3-10 6.3-6.5 1.3-8.3.6-12-4.8-3.6-5.3-3.3-7.5 1.4-9.7 2.2-.9 5.3-3.1 6.9-4.9 3.8-3.9 10.2-14.4 10.2-16.7 0-1 1-2.5 2.2-3.3 1.9-1.3 2.5-1.3 5.7 0 2 .9 4.6 2 5.9 2.5m18.7 8.5c3 1.9 3.1 4.6 1 15.4-2.7 13.9-7.9 26.7-13.3 33.1-2.8 3.5-10.8 8.9-12.9 8.9-2.9 0-14.6-15-13.7-17.5.3-.8 2.9-2.7 5.8-4.4 9.5-5.3 18.6-17.5 24.1-32.4 1.4-3.8 2.2-4.7 4.2-4.7 1.3 0 3.5.7 4.8 1.6m19 9.6c2.8 2.2 2.8 2.2 2.2 11.7-1.1 18.8-7.5 39.2-15.1 48.1-4.8 5.6-11.3 11-13.2 11-1.5 0-10.1-9.4-11.7-12.9-1-2-.8-2.6 1.8-4.4 5.7-4 14.1-13.4 17.2-19.3 4.8-9 9.1-20.8 9.9-27.2 1.1-9.6 3.4-11.4 8.9-7m24.2 12.9c4.1 2.3 7.7 4.8 8 5.6.7 1.9-2 13.6-5.9 25.7-4.1 12.7-13.3 27-24.3 37.5-4.6 4.4-9.1 8.1-9.8 8.1-1.5 0-11.7-10.3-11.7-11.7 0-.4 3.8-4.7 8.5-9.5 4.6-4.8 9.4-10.6 10.5-12.8 4.6-9.1 12-33.7 12-40.1 0-3.2 1.9-6.9 3.6-6.9.9 0 5 1.8 9.1 4.1m24.9 15.4c3 1.9 5.7 4.2 6 5 .6 1.6-.5 5.7-4.3 15.5-10.2 26.2-34.6 61-42.8 61-2.4 0-7.3-5.2-9.6-10.4-1.3-2.7-1.1-3 5.4-9.2 8.3-8 16.5-18.1 23.4-28.8 4-6.1 6.4-11.6 9.9-22.3 2.5-7.9 5-14.3 5.5-14.3.6 0 3.5 1.6 6.5 3.5m21.4 13c5.5 3.4 5.3 6.1-1.4 21.6-14.1 32.6-27 53.6-38.9 63.6-5.5 4.6-7.4 4.3-12.4-2.2-2.4-3-4.3-6-4.3-6.6s3.3-4.3 7.4-8.2c7.5-7.3 9.6-10 21.6-28.2 7.9-12 15.4-27.1 20.3-40.8.9-2.4 3-2.1 7.7.8m18.7 13.1c2.1 1.6 3.3 3.4 3.3 4.8 0 4-9.5 30.5-16.4 45.6-3.7 8-9.5 18.8-13.1 24.1-7.3 11-16.9 20.9-20.2 20.9-2.6 0-12.3-9.4-12.3-12 0-1.1 2.2-3.8 4.9-6.1 5-4.1 12.3-13.2 19.8-24.4 3.7-5.6 19.5-36.4 23.8-46.5 2.5-5.9 4.5-9 5.8-9 .5 0 2.5 1.1 4.4 2.6m24.8 15.2c2.7 1.9 4.1 3.7 4.3 5.6.5 4-7.1 27-13.7 41.6-6.7 14.7-11.8 22.6-21.1 32.4-6.2 6.5-19.5 16.1-23.9 17.3-2.2.6-10.1-6.6-10.1-9.2 0-.9 3.3-5.3 7.4-9.6s9.8-11.4 12.6-15.6c8.6-13 26.7-51.6 29.4-62.8.4-1.7 1.4-3.8 2.3-4.7 1.4-1.6 1.7-1.6 5.2.2 2 1.1 5.4 3.2 7.6 4.8m23.1 17.3c4 3.4 7.6 6.9 7.9 7.9.9 2.8-2.9 16.7-7.5 27.7-8 18.8-13 26.7-28.7 45.4-7 8.4-19.6 19-23.9 20.3-2.9.9-18.4-11.7-18.4-14.9 0-1.5 2-3.4 7.3-6.7 3.9-2.6 9.8-7.3 13-10.4 5.4-5.2 14.7-16.5 14.7-17.8 0-.3 1.7-3.4 3.8-6.8 6.9-11.2 16.6-34.4 20.8-49.6.7-2.4 3.7-1.1 11 4.9m23.9 19.2 3.9 3.4-2.8 11.4c-4.9 20.6-13.5 39.6-27.3 60.6-8.9 13.5-25.8 27.8-30.3 25.7-2.8-1.3-13-11.4-13-12.9 0-.7 1.2-2.1 2.8-3.1 6.9-4.5 24.9-23.9 36.3-39.4 5.6-7.5 12.4-21.6 21-43.3 2.7-6.7 4-7.1 9.4-2.4m20.2 15.9c6.3 6.2 6.4 6.8 2.8 21.8-4.3 17.9-9.5 30.8-17.8 44.5-11 18.1-12.9 20.8-20.8 29-11.6 12.1-11.2 12-21.3 5.1-4.7-3.2-9-6.4-9.6-7.1-1.6-1.9-.4-3.7 4.3-6.7 4.1-2.7 13-11.3 15.8-15.4.8-1.2 3.7-5.5 6.6-9.7 9-13 16.2-25.7 20.5-36.1 5-12.3 8.8-22.7 8.8-24.3 0-2.8 2.1-6.3 3.7-6.3 1 0 4.1 2.3 7 5.2m22.1 20.4c5 4.4 5.2 4.7 5.2 9.8 0 11.4-10.1 35.8-22.3 54.1-8.5 12.7-30.4 32.5-35.9 32.5-1.4 0-4.2-1.5-6.3-3.3l-3.9-3.4 11-11.5c19.3-20.5 34.3-47.6 41.9-76.1 1.3-4.8 2.3-6.7 3.4-6.7.9 0 4 2.1 6.9 4.6m22.1 20.6c7.5 6.8 8.5 8.8 7.2 14.9-3.6 16.8-19 47.2-31.4 62-9.2 11-16.9 17.9-20 17.9-3.2 0-22.1-11-22.5-13.2-.2-.9 2.3-3.6 6.3-6.8 20.3-15.9 37.4-39.9 47.5-66.5 2.3-6 4.4-11.3 4.6-11.7 1.1-1.7 3.9-.6 8.3 3.4m22 24c6.9 7 6.9 7.4-2.7 27.8-1.4 3-3.6 7-5 9-1.3 1.9-2.8 4.5-3.2 5.7-1.6 3.9-14.2 23.7-18.2 28.5-4.6 5.6-12.8 11.8-15.4 11.8-2.8-.1-11.8-5.3-12.2-7.1-.1-.8 3.2-5 7.5-9.5 4.3-4.3 10.7-12 14.2-16.9 8.2-11.5 19.1-31.6 23-42.3 3.6-9.6 4.8-12.2 6-12.2.5 0 3.2 2.4 6 5.2m16.2 19c1.1 1.3 3.1 4.2 4.5 6.6l2.6 4.3-10.1 20c-11.6 22.8-11.1 22.1-20.5 35.1-3.8 5.4-7.7 9.9-8.5 9.9-3.4.3-5.5-.4-12.7-3.7-8.5-3.9-8.5-3.8-.8-10.7 6.2-5.6 17.1-21 24.9-35.2 2.1-3.9 4.4-7.7 5.1-8.5.7-.9 3.4-5.7 5.9-10.8 4.9-9.8 6.3-10.8 9.6-7m18.7 27.7c2.3 4.4 4.2 8.8 4.2 9.8 0 3-8.3 19.1-13.9 27-6.8 9.6-16.4 19.8-20.1 21.3-2.6 1.1-3.5.9-8.2-1.7-2.8-1.7-5.3-3.4-5.5-4-.2-.5 1.8-3.8 4.5-7.4 8.5-11.2 16.6-24.1 21.1-33.4 6.8-14.2 10.1-19.5 11.9-19.5 1.1 0 3.3 2.9 6 7.9m13.7 22.8c3 4.5 3 5.5.4 11.3-4.4 9.6-20.8 31.1-25.5 33.2-2.8 1.3-11.4-1.7-11.4-4 0-.8 3.8-5.4 8.4-10.2 8.1-8.4 13.8-16.3 20.5-28.3 1.8-3.1 3.6-5.7 4.1-5.7s2.1 1.7 3.5 3.7m12.6 19.4c1 2.1 1.9 4.6 1.9 5.5 0 1.7-17.3 25.6-21 28.9-1.9 1.7-2.1 1.7-6.7-.3-2.7-1.1-4.9-2.8-5.1-3.6-.2-.9 2.8-5.1 6.6-9.4 3.8-4.2 8.4-10.2 10.4-13.2 9.4-14.9 8.8-14.2 10.4-12.9.9.7 2.4 3 3.5 5m9.9 20.6c3.8 8.5 3.7 9.9-2 19-2.8 4.6-5.8 8.3-6.6 8.3-2.3 0-13.4-5.9-14-7.5-.3-.8.2-2.5 1.3-3.9 1-1.3 4.9-6.5 8.8-11.5 4-5.3 7.7-9.1 8.7-9.1 1.1 0 2.5 1.7 3.8 4.7m10.8 26.6c3.1 6.5 3.2 9.1.6 9.5s-11.4-3.4-11.4-4.9c0-2.3 5.5-9.9 7-9.6.8.1 2.5 2.4 3.8 5"/><path fill="#A7C8E9" d="M1385.9 80.6c-.9 1.1-1.3 6.3-1.4 19.2-.1 18.5 0 17.8-5.4 29.2-2 4.3-6.2 10.8-11.6 18-2.3 3-5.9 8.6-8 12.5-4.8 8.8-8.5 14.7-10 16-.6.5-2.7 3-4.7 5.5s-4.9 6-6.6 7.8c-1.6 1.8-4.7 5.4-6.8 8-8 9.8-17.3 18.8-29.4 28.5-6.9 5.5-13.2 10.7-14.1 11.6s-4.7 4.1-8.4 7.1c-3.8 3-7.6 6.2-8.4 7-1.8 1.7-15 11-15.6 11-.7 0-9.9 6.4-17.5 12.1-4.1 3.1-9.7 6.9-12.5 8.4-10.7 5.9-27.7 14.5-32.7 16.6-2.9 1.2-12 5.5-20.3 9.5-8.2 4-17 7.8-19.5 8.4-5.8 1.5-16.1 3.8-22.5 5.1-2.7.5-5.7 1.3-6.5 1.6-.8.4-5.1 1.2-9.5 1.9s-12.9 2-19 3c-15 2.4-28.8 2.3-39.5-.3-24.2-5.9-39.8-9.3-56-12.3-2.5-.4-8.1-1.7-12.5-2.8-14.4-3.6-30.7-6.1-50.5-7.6-10.7-.9-23.3-2.1-28-2.8-11.7-1.8-55.5-1.7-63.5 0-11.6 2.6-32.4 8.4-42 11.8-2.3.8-4.8 1.4-5.6 1.4-1.6 0-15.7 5.9-27.4 11.5-3.8 1.8-8.8 4.2-11 5.2-14.9 6.9-36.7 26-53 46.3-3.7 4.7-7.4 8.9-8.2 9.3-.7.4-1.3 1.2-1.3 1.8 0 .5-.8 2.2-1.9 3.7-7.6 11-15.3 23.7-17.5 29.1-1.5 3.4-3.1 7-3.6 8-3.7 7.2-9.4 19.3-10.6 22.6-2.7 7.6-5.1 15-6.7 21-.8 3.3-2.6 9.4-3.8 13.5-1.7 5.6-2.4 10.6-2.7 19.7l-.3 12.3h2.5c1.9 0 3.4-1.2 5.8-4.5 10.4-14.4 18.5-24.2 27.8-34 5.9-6.1 12.2-13 14.3-15.5 7-8.7 28.2-28.8 40.7-38.6 7.9-6.3 12.7-8.4 19-8.4 8.8 0 26.2 7.2 34.8 14.5 3.6 3 8.2 4.1 10.9 2.7 1.1-.6 2.7-3 3.7-5.4 7.3-17.8 11.9-23.7 22.7-28.8 3.3-1.5 6.5-3.2 7.2-3.8 3.3-2.8 13.8-4.2 30.9-4.2 19.7 0 24 .8 34.1 6.7 8.3 4.8 10.6 6.7 14.6 11.6l3.3 4.2-.6 11.8c-.4 7.4-.2 12.6.4 13.8 1.7 3.1 6.5 4.9 16.3 5.9 14.8 1.6 22.9 4.3 28.2 9.5 3.5 3.6 9.5 11 9.5 11.9 0 .3 1.4 2.5 3 4.8 1.7 2.2 3 4.7 3 5.4s.6 2.5 1.4 4.1c2.6 5.2 6.3 14.3 7.6 18.8 4.2 14.1 4.9 17.7 5 22.7 0 3.1-.5 6.9-1 8.5-.6 1.5-4.9 6.5-9.5 10.9-4.7 4.5-8.5 8.6-8.5 9 .1 2 2.9 5.7 10.8 14.1 13.6 14.6 19.4 23.5 22.3 34.5 1.4 5 1.2 6.1-2.8 16.3-5.3 13.7-10 19.5-20.4 24.9-10.5 5.5-12.3 5.9-19.2 3.9-9.5-2.6-9.5-1.2-.6 17.3 5.9 12.1 5.9 12.2 5.9 21.3 0 10.6-1.5 14.6-7.7 20.2-2.1 1.9-7.7 7.9-12.4 13.4-11.4 13.2-16 17.3-31.4 28.3-7.1 5.1-19.7 14.2-28 20.2-51.5 37.7-83.7 59.5-103.2 69.7-5.8 3.1-14.6 8.2-19.7 11.4-8.1 5.2-18.6 11.5-35.7 21.4-3.1 1.8-8.5 4.3-12 5.5s-7.3 3-8.4 4-4.8 3-8.2 4.4-7.9 3.6-10 4.8c-2.1 1.1-8.4 4.5-14 7.4s-11.9 6.4-14 7.8-4.3 2.6-5 2.6c-.6 0-1.5 1-1.9 2.2-.9 3.1 2.6 5.8 6.9 5.3 1.7-.2 6.2-.6 9.9-.9s9.3-1.3 12.5-2.2c5.1-1.5 9.3-1.6 32.8-1.1 25.9.5 31.8 1.2 41 4.3 2.3.8 5 1.4 6 1.4 2 0 4.5.7 20.5 6.2 12.4 4.2 29.4 11 35 14 2.6 1.3 20.1 12.8 21 13.8.3.3 2.3 1.9 4.5 3.6s7 5.3 10.6 8.1c7.5 5.8 19.7 14.3 20.6 14.3 1.2 0 26.9 24.8 31.2 30.2 6.4 7.9 11.1 14.4 11.1 15.3 0 .4 2.5 3.8 5.5 7.5s7.1 9.8 9 13.4c3.1 6.1 3.5 7.5 3.4 14.4-.1 14.9-3 34.3-6.4 42.9-1.9 4.9-2.3 7.1-1.7 10 .7 3.6 1.1 3.8 5.2 4.4 12.4 1.7 19.1 6.1 28.7 18.5 2.8 3.6 13.3 24.8 13.3 26.8 0 .8.4 1.7.9 2.1.5.3 1.7 2.9 2.5 5.8 1.3 4.6 1.3 5.9.1 9.9-2.2 7.4-3.8 9.7-14.4 20.6-5.6 5.7-10.1 10.8-10.1 11.2s-1 1-2.3 1.4c-1.3.3-3.5 1.6-5 3-2.2 2.1-2.5 3-2 6.3.7 5 4 8.4 11.6 11.7 3.4 1.6 7.8 3.5 9.7 4.4 3.9 1.8 15 9.9 15 11 0 .4 1.2 2 2.6 3.5 3.9 4.2 5.6 9.4 6.2 18.8.9 16.2-4.5 27.8-17.9 38.5-3.9 3.1-6.8 6.1-6.6 6.7s4.4 2.6 9.3 4.5 21.7 8.8 37.4 15.4 33.7 14.2 40 16.9c30.4 12.7 52.7 22.1 54.5 22.9 1.1.5 4 1.8 6.5 2.9 17.7 7.7 32.3 14.3 35.6 16 2.1 1.2 4.3 2.1 4.9 2.1 1 0 24.6 11.3 31.5 15.1 6.5 3.6 20 9.9 21.3 9.9 2.4 0 43.9 21.6 44.5 23.2.2.4.7.8 1.2.8 1.5 0 21.1 11.9 24.3 14.8 1.7 1.5 11 10.4 20.7 19.7 9.6 9.4 18.9 18.2 20.5 19.6 8.4 7.1 34.7 39.5 39.1 48 2.8 5.7 7 11.9 14.4 21.9 7.7 10.3 10.6 16.2 16.1 32.5 2.8 8.3 6.1 11.5 11.5 11.5 5.3 0 6.1-1.8 4-9.1-.9-2.9-1.6-7.4-1.6-10s-.5-6-1.1-7.6c-.7-1.7-1.4-15.5-1.9-36.3-.8-33.8-1.4-40.1-5.4-50.6-.8-2.3-2.2-8.6-3-14-.9-5.5-2.3-13.3-3.1-17.4-.9-4.1-2.3-10.7-3-14.5-.8-3.9-2.1-9.9-3-13.5s-2.2-9.2-3-12.5c-1.6-7-4.2-14.6-5.6-16-.5-.5-.9-1.9-.9-3.2 0-2.9-9.2-30.5-10.9-32.8-.5-.5-3-6.4-5.6-13s-5.1-12.5-5.6-13c-1.5-1.9-10.9-21.3-10.9-22.5 0-1.3-4-8.7-7.9-14.5-1.5-2.2-5.3-9.2-8.5-15.5s-6.6-12.9-7.7-14.5c-1-1.7-2.3-3.9-2.9-5s-1.9-3.4-3-5c-1.1-1.7-2.3-3.7-2.7-4.6-.5-.8-7.1-10.9-14.8-22.3s-14.5-21.6-15.1-22.7c-1.7-3-17.1-17.7-19.2-18.3-2-.7-8.4-7.9-14.9-16.6-4.3-5.9-11.1-12.6-15.9-15.6-10-6.3-40.9-34.9-56.1-51.9-5.4-6.1-16-17.3-23.5-25-14.3-14.6-34.2-38.6-51.3-62-10.1-13.8-12.9-17.8-14.2-20.5-.4-.8-2.4-3.9-4.5-7-2.1-3-5.5-8-7.5-11s-6.2-8.9-9.3-13-6.3-9.1-7.2-11-2.5-5.6-3.7-8.1c-1.2-2.6-3.9-7.3-6.1-10.5-2.2-3.3-4-6.5-4-7.3s-1.3-3.5-2.8-6-3.6-6.6-4.7-9.1c-3.7-8.4-14.1-28.5-18-34.5-5.9-8.9-7.7-12.7-6.8-13.5.4-.4 3.5-2.2 6.8-4 10-5.5 38.7-23 43.5-26.5 6.6-4.9 30.2-29.1 42.1-43.3 25.1-29.8 33.4-40.1 37.5-46.4 2.4-3.6 4.4-6.9 4.4-7.2s4-7.2 8.8-15.3c11.5-19.2 18.8-37.1 22.7-55.8 1.8-8.3 10.7-36.7 12.5-39.7.5-1 1-2.2 1-2.7s3.4-7.8 7.5-16.4c4.1-8.5 7.5-16 7.5-16.7s.6-2.4 1.4-3.8c.8-1.5 5.1-10.1 9.6-19.2s9-17.9 10-19.5c3-4.7 13.3-25.9 18-37 2.3-5.5 5.2-12.3 6.5-15 1.2-2.8 3.1-7 4-9.5 1.8-4.6 3.8-8.8 7.4-15.2 1.1-2.1 3.8-7.9 6-13s6.4-14 9.3-19.8 6.4-12.9 7.6-15.8c1.8-4.1 10.5-19.4 17.2-30.2.5-.8 1.9-3.5 3.1-6 9.5-19.5 13.9-29 13.9-29.8 0-1 5.5-14.5 7-17.2.5-.8 3.7-7.4 7.3-14.5 7.3-14.8 10.5-22.6 14.1-34 .9-2.8 2.9-9.1 4.5-14 1.6-5 3.6-11.7 4.6-15s3.1-9.1 4.6-12.9c1.6-3.8 2.9-7.7 2.9-8.7 0-1.9 2.3-8.6 4.4-12.9.7-1.4 2-5.2 3-8.5s3.6-11.4 5.8-18 4.4-13.8 4.9-16c.4-2.2 2.2-7.8 4-12.5 1.7-4.7 4.2-11.9 5.5-16 1.4-4.1 3.8-10.6 5.3-14.5 4.1-10.2 6.7-20.5 8.5-33 2.1-15.5 1.4-18.8-7.3-33.5-7.2-12.2-11-15.2-14.2-11.4"/></svg>