<svg xmlns="http://www.w3.org/2000/svg" width="450" height="225" viewBox="0 0 301 120"><path fill="none" stroke="#A7C8E9" stroke-linecap="round" stroke-linejoin="round" stroke-width="1.5" d="M166.727 9.184c-2.29.25-2.997.367-4 .66-.45.133-1.563.449-2.47.703-2.878.808-5.484 2.16-7.109 3.683-.91.852-1.015 1.07-1.144 2.352-.129 1.32-.078 1.531.824 3.285 1.211 2.356 3.488 5.055 5.55 6.586.517.383 1.079.832 1.25.996.173.168.411.305.528.305.344 0 .258-.473-.113-.613-1.023-.391-4.758-4.703-5.746-6.625-1.59-3.102-.844-4.887 2.812-6.758 4.567-2.336 8.961-3.176 16.606-3.176 5.347 0 9.363.5 17.172 2.129 2.008.422 6.125 1.7 8.761 2.723 5.665 2.199 9.493 4.445 12.965 7.609 1.582 1.441 3.73 4.125 3.73 4.66 0 .11.259.547.575.973.316.43.644 1.113.727 1.515.085.407.312 1.215.511 1.797.551 1.64.492 5.586-.12 7.762-1.911 6.793-6.536 12.664-13.86 17.605-.809.547-1.473 1.094-1.473 1.22a.223.223 0 0 1-.219.226c-.125 0-1.398.687-2.836 1.527s-2.648 1.527-2.687 1.527c-.043 0-.149-.87-.234-1.937-.61-7.336-1.567-15.82-2.149-19.11-1.066-5.995-2.476-14.734-2.605-16.132-.11-1.153-.075-1.625.117-1.625.148 0 .27.156.27.351 0 .196.117.352.265.352.336 0 .125-1.414-.344-2.3l-.82-1.536c-.852-1.594-2.356-2.41-2.23-1.211.316 3.023 1.402 10.746 1.835 13.043 1.051 5.559 1.762 9.766 2.121 12.586.645 5.066 1.485 13.113 1.645 15.777l.16 2.606-1.183.761c-.653.415-1.98 1.067-2.957 1.442-.973.375-2.211.906-2.747 1.18-.535.273-2.082.859-3.43 1.3-2.698.883-4.527 1.032-5.636.453-1.523-.793-2.297-.207-1.426 1.082.387.567 1.028.97 2.516 1.583l2 .82 7.062 7.129 7.067 7.129.304 3.593c.38 4.508.813 7.075 1.594 9.473 1.164 3.563 1.973 4.738 3.414 4.973.95.156 1.184-.075 1.59-1.563.258-.949.375-1.62.832-4.761.176-1.208-.262-1.122-.601.117-.66 2.398-1.586 4.644-1.914 4.644-.555 0-1.774-3.722-2.512-7.699-.328-1.746-.633-6.883-.41-6.883.132 0 2.882 1.723 4.855 3.043.961.64 2.574 1.426 2.938 1.426.187 0 .687.148 1.109.332 3.07 1.316 3.813 1.574 5.094 1.785.793.129 2.101.352 2.91.488 4.766.82 11.367-1.511 14.98-5.285.446-.465.883-.847.977-.847.09 0 .336.496.543 1.105.469 1.375 1.215 2.188 2.004 2.188.586 0 .824-.22 3.492-3.27.477-.543 1.059-2.117 1.273-3.434.067-.398.18-.335.778.442 3.008 3.898 4.015 4.715 5.168 4.191.512-.234.594-.422.59-1.394V87.14l-.465.765c-.258.418-.582.762-.723.762-.781 0-3.984-4.367-3.984-5.43 0-.62-.93-1.625-1.504-1.625-.477 0-.555.18-.824 1.825-.164 1-.528 2.374-.809 3.05-.492 1.192-2.547 3.828-2.984 3.828-.817 0-1.266-3.73-.735-6.117.594-2.664-.226-8.234-1.703-11.57-.617-1.39-1.52-2.223-2.144-1.984-.61.234-.645.777-.164 2.433.77 2.645 1.683 8.629 1.691 11.094.008 1.578-.492 2.469-2.477 4.406-3.136 3.067-7.8 4.75-12.425 4.492-4.989-.28-10.524-2.484-15.711-6.257-.996-.727-1.883-1.477-1.965-1.672-.086-.192-.297-3.262-.469-6.82-.176-3.56-.43-8.04-.57-9.958-.145-1.922-.2-3.68-.125-3.906.113-.367.664-.738 3.129-2.137.351-.199.953-.558 1.343-.8.387-.247 1.102-.692 1.586-.993 2.32-1.449 3.07-1.984 5.586-3.996 4.703-3.758 6.196-5.566 8.989-10.902 1.109-2.125 1.476-3.121 2.207-6 .195-.77.097-5.649-.133-6.742-.324-1.532-1.367-4.446-1.742-4.875a2.8 2.8 0 0 1-.485-.88c-.082-.277-.426-.8-.761-1.163a9.6 9.6 0 0 1-.993-1.278c-.836-1.363-4.105-4.464-4.707-4.464-.14 0-.261-.09-.261-.204 0-.27-2.711-2.066-4.938-3.28-2-1.087-7.406-3.337-8.02-3.337-.222 0-.445-.117-.492-.258-.047-.14-.504-.343-1.02-.453-.51-.105-1.671-.402-2.577-.652-1.93-.54-6.13-1.594-7.645-1.922-1.125-.246-3.777-.586-7.054-.902-2.66-.258-10.254-.278-12.461-.035M45.613 22.48c-.656 1.528-.62 2.028.125 1.84l.586-.144v2.672c0 2.601-.46 5.988-1.285 9.492-.215.902-.898 4.183-1.527 7.289-.625 3.105-1.242 5.91-1.371 6.238-.125.324-2.176 2.547-4.551 4.938Q29.937 62.5 27.969 65.16c-.524.707-1.555 2.059-2.29 3.008-1.581 2.031-3.366 4.957-4.327 7.094a315 315 0 0 1-1.04 2.297c-2.148 4.71-1.953 11.664.458 16.441 1.347 2.672 5.761 6.863 8.882 8.438.7.351 1.575.851 1.946 1.113l.672.476-.16 2.727c-.09 1.504-.262 3.394-.387 4.207-.121.812-.223 3.117-.227 5.121 0 3.082.067 3.805.45 4.66.757 1.715 2.136 2.57 2.796 1.738.13-.164.293-1.43.367-2.82.133-2.469.125-2.52-.363-2.469-.406.043-.535-.12-.703-.886-.113-.516-.145-1.68-.074-2.586.074-.906.187-2.653.254-3.883.273-5.055.414-5.398 2.02-4.922 1.374.406 4.898.754 8.616.852 2.918.078 4.02.007 5.88-.368 1.257-.253 2.66-.523 3.113-.601.84-.14 3.476-.969 7.054-2.211 1.098-.383 3.11-1.223 4.469-1.867 1.355-.645 2.695-1.242 2.977-1.328.277-.086.636-.309.793-.5.156-.188.5-.344.765-.344.266 0 .649-.14.852-.313.207-.171.93-.535 1.605-.808.68-.274 1.801-.875 2.492-1.332.696-.461 1.375-.84 1.516-.84.137 0 .39-.133.563-.297.171-.164 1.027-.758 1.898-1.32.875-.563 1.586-1.106 1.586-1.207 0-.102.293-.309.648-.461 1.512-.645 2.657-1.364 3.7-2.328 1.34-1.239 1.523-1.13 2.093 1.214.774 3.176 2.782 6.391 4.567 7.317.375.191 1.172.476 1.773.625 1.008.254 1.195.226 2.367-.344 1.364-.668 3.903-3.348 3.903-4.121 0-.23.21-.66.468-.957.258-.3.47-.617.47-.707s.214-.406.472-.707c.258-.297.469-.691.469-.879 0-.184.316-1.023.707-1.863.789-1.707.882-2.168.351-1.727-.195.164-.351.422-.351.582 0 .156-.227.489-.504.735-.278.246-.7.87-.934 1.39-.234.516-.75 1.242-1.148 1.614-.399.37-.883.98-1.075 1.355-.355.687-1.894 2.21-3.226 3.195-.883.653-1.922.688-2.875.098-1.664-1.031-3.406-5.434-3.406-8.61 0-1.464.086-1.831.629-2.617 1.69-2.457 2.19-3.289 2.19-3.66 0-.222.114-.472.255-.562.469-.29 1.074-2.086 1.383-4.114.273-1.804.265-2.09-.09-2.777-.445-.863-2.168-2.621-2.574-2.625-.149 0-.496-.062-.778-.14-.406-.11-.633.05-1.101.769-1.137 1.73-1.75 4.496-2.29 10.313l-.285 3.058-1.55 1.531c-1.387 1.368-2.446 2.203-5.196 4.094-3.082 2.121-14.238 7.79-17.168 8.723-.71.226-1.558.554-1.882.73-.852.461-2.82 1.121-6.934 2.317-2.285.664-8.14 1.535-10.305 1.535-2.328 0-6.472-.54-7.218-.942-.899-.48-.942-.941-.457-4.726.253-1.992.62-4.574.816-5.738.191-1.165.457-3.176.586-4.47.133-1.292.3-2.507.375-2.702.148-.407.465-2.196.805-4.586.25-1.79 1.226-7.074 1.753-9.528.184-.84.555-2.683.825-4.093.27-1.414.539-2.645.597-2.739.055-.09.524-2.277 1.035-4.855.516-2.582 1.047-4.98 1.18-5.336.137-.356.25-.984.254-1.395.012-1.05.375-1.597 1.992-2.98.778-.664 2.035-1.758 2.797-2.43 1.508-1.324 2.254-1.789 6.082-3.777 3.84-1.988 6.645-2.52 8.551-1.617.691.328.996.707 1.527 1.883.364.808.809 1.468.993 1.468 1.355 0 .578-2.699-1.196-4.152-1.57-1.285-2.504-1.727-3.652-1.727-1.305 0-3.528.578-4.871 1.27l-3.293 1.68c-1.23.629-2.563 1.382-2.961 1.683-.403.297-.797.54-.883.54-.082 0-.809.53-1.613 1.175-.801.648-1.532 1.18-1.621 1.18-.32 0-.41-.668-.211-1.563.113-.5.379-2.058.593-3.465.215-1.406.7-3.789 1.075-5.293 1.84-7.359 1.8-13.757-.094-15.343-.738-.614-.836-.567-1.348.632m199.559 17.938c-.152.25-.149.27 1.39 8.031 2.137 10.75 3.223 16.75 3.852 21.285 1.61 11.61 2.215 15.082 3.313 19.051.25.906.511 1.938.585 2.29.208 1.003 1.004 1.593 2.16 1.593.997 0 2.2-.39 2.2-.715 0-.094.308-.297.687-.453.579-.242 2.84-2.445 3.664-3.566.13-.18.551-.746.938-1.262 1.008-1.336 1.25-1.86 1.555-3.367.355-1.746.039-2.907-1.2-4.426-1.441-1.77-3.035-2.742-4.68-2.863-1.226-.09-1.425-.036-1.988.527-.34.344-.62.664-.62.719 0 .05-.16.71-.356 1.46s-.52 3.157-.719 5.348c-.203 2.192-.45 4.133-.55 4.313-.118.21-.329-.336-.587-1.516-.902-4.129-1.34-7.074-2.726-18.426-.348-2.84-2.582-14.945-3.41-18.46-.285-1.211-.285-1.434.004-1.594.379-.215.277-1.153-.29-2.64-.195-.52-.609-1.778-.917-2.806-.309-1.023-.739-2.054-.954-2.293-.402-.449-1.136-.574-1.351-.23M91.375 48.16c-.254.254-.133.754.559 2.266.433.945.879 1.57 1.183 1.668.27.086.985.586 1.59 1.11.606.523 1.137.835 1.184.694.05-.144-.286-.824-.743-1.511a23 23 0 0 1-1.445-2.594c-.34-.738-.637-1.344-.66-1.344s-.379-.094-.785-.21c-.41-.118-.809-.153-.883-.079m-53.516 9.531a118 118 0 0 0-4.82 5.09 567 567 0 0 1-2.594 2.934c-.836.894-2.988 3.863-5.172 7.129-1.085 1.62-2.578 5.094-3.316 7.707-2.434 8.62.938 16.976 8.34 20.664 1.535.765 2.105.789 2.355.097.106-.292.328-1.746.493-3.234.343-3.117 1.378-10.531 1.542-11.055.06-.195.266-1.359.458-2.585.902-5.833 1.921-10.833 4.714-23.168 1.2-5.293 1.29-6 .766-5.997-.164 0-1.406 1.09-2.766 2.418m156.028 8.036c-.707.28-1.61.695-5.715 2.628-1.203.567-2.313 1.028-2.469 1.028-.734-.004-2.516.828-2.5 1.164.008.2.508.766 1.117 1.254.606.488 3.45 3.238 6.32 6.11 2.872 2.87 5.294 5.144 5.383 5.054.172-.172-.535-15.832-.765-16.934-.145-.703-.301-.738-1.371-.304m-36.551 4.347c-.48.305-.695 2.395-.93 8.953-.207 5.88-.336 6.649-1.261 7.582-.227.227-.41.57-.41.762s-.294.535-.645.766c-.356.226-.969.734-1.367 1.12-1.63 1.595-3.196 2.47-4.414 2.47-.727 0-.836-.094-1.176-1-.457-1.22-.98-4.668-1.332-8.762-.36-4.2-.45-4.664-1.047-5.414-.43-.54-.637-.625-1.18-.489-.637.16-.652.204-.523 1.387.07.676.238 1.965.37 2.871.735 4.996-.066 8.758-2.538 11.88-1.04 1.312-1.153 1.398-3.317 2.55-2.48 1.316-4.02 1.484-5.77.629-3.616-1.77-5.218-7.719-3.355-12.469.98-2.492 3.774-5.547 5.602-6.117.32-.098.848-.367 1.172-.594.738-.52 2.906-1.172 3.894-1.172q.751.002 1.075.485c.218.336.457.437.746.324.687-.262.41-1.297-.516-1.918-1.379-.926-3.437-.723-6.781.66-.688.285-.82.266-1.453-.203-2.707-2-5.825-2.656-9.899-2.074-4.722.668-6.527 1.386-7.707 3.054-.851 1.211-1.691 2.957-1.836 3.829a55 55 0 0 1-.476 2.312c-.34 1.516-.461 3.238-.535 7.488-.02 1.164-.11 1.579-.32 1.508-.567-.187-.864-2.262-1.333-9.347-.636-9.532-.867-10.551-2.515-10.965-1.012-.254-1.125.136-.707 2.418.207 1.144.636 5.304.957 9.25.437 5.457.718 7.722 1.168 9.46.773 3.012 1.918 5.715 2.66 6.297.672.532 1.586.618 1.87.18.204-.316.208-.367.415-9 .219-9.066.648-11.148 2.64-12.789 2.376-1.96 9.786-2.926 13.118-1.715 2.164.79 2.277 1.012 1.074 2.086-2.07 1.848-4.07 4.957-4.95 7.7-.406 1.269-.132 5.203.505 7.23.722 2.289 2.52 4.36 4.64 5.336 2.613 1.207 3.836 1.222 6.735.082 1.144-.45 4.23-2.676 5.097-3.672.344-.402.864-1.227 1.153-1.832.71-1.504 1.078-1.586 1.609-.363.836 1.918 2.394 2.816 3.84 2.21.804-.34 4.879-4.128 4.879-4.538 0-.13.265-.489.59-.79.32-.304.585-.695.585-.867s.153-.312.336-.312c.457 0 .774 1.16.946 3.496.172 2.316.59 3.46 1.398 3.828.844.387 1.274.117 1.434-.902.187-1.192.62-2.883 1.644-6.422a266 266 0 0 0 1.43-5.117c1.125-4.274 2.293-5.75 3.113-3.946.14.305.637 1.059 1.11 1.68 1.613 2.11 4.093 7.562 5.504 12.09 1.109 3.562 1.882 5.594 2.652 6.972 1.117 2.004 2.473 3.07 3.094 2.442.203-.207.109-.39-.387-.754-1.047-.77-1.922-2.89-3.574-8.66-.992-3.469-3.133-8.137-5.285-11.54-.774-1.222-1.489-2.327-1.594-2.456-.102-.13-.551-.711-1-1.293-1.02-1.317-1.403-1.63-2.016-1.64-1.12-.016-2.054 1.577-3.027 5.167-.856 3.149-2.04 6.918-2.246 7.137-.77.812-.688-3.301.125-6.313 1.59-5.89.59-11.73-1.758-10.246m-66.734 4.442c-.332.207-1.22 3.847-1.301 5.336-.117 2.191.894 1.28 1.605-1.454.364-1.382.45-3.742.149-3.93-.106-.062-.309-.042-.453.048m168.714 3.129c-.191.109-.464.488-.605.847-.395.996-.977 4.719-.98 6.25 0 .754-.122 2.367-.274 3.59-.148 1.223-.207 2.285-.129 2.367.574.574 4.676-3.277 6.05-5.683.665-1.157.79-1.614.802-2.914.02-1.735-.407-2.567-1.887-3.696-.883-.676-2.426-1.07-2.977-.761m11.399 1.054c-1.09.555-2.582 2.313-3.375 3.973-1.992 4.172.703 7.574 4.492 5.672.617-.313 1.441-.633 1.836-.719.39-.09 1.316-.629 2.059-1.203 1.183-.922 1.484-1.047 2.535-1.047 1.12 0 3.925-1.035 3.925-1.445 0-.086-.925-.153-2.058-.145-1.129.008-2.438-.062-2.906-.16-.746-.152-.907-.098-1.356.477-.703.894-2.527 2.054-4.422 2.812-1.289.516-1.75.598-2.422.434-.793-.2-.832-.254-.902-1.383-.043-.649.035-1.559.176-2.024.371-1.257 1.922-2.882 3.32-3.484 1.125-.488 1.238-.496 1.785-.137 1.317.864.977 2.446-.675 3.153-1.051.449-1.164.965-.211.965.441 0 1.09-.34 1.879-.985 1.02-.828 1.207-1.105 1.207-1.773 0-2.457-2.696-4.098-4.887-2.98m.539 27.862c-.649.106-2.766.313-4.703.454-1.942.144-4.586.359-5.88.476-1.292.121-3.991.324-5.995.45-2.008.124-3.965.28-4.352.347s-1.605.18-2.703.254a68 68 0 0 0-3.644.355c-.907.122-2.282.278-3.059.34-.777.067-2.469.227-3.762.36-6.496.668-14.746 1.418-18.11 1.64-2.066.14-4.288.352-4.937.477-.644.125-2.71.336-4.586.476-1.875.137-4.73.352-6.347.477s-3.84.281-4.938.34c-1.101.062-2.847.176-3.883.246-3.222.23-17.054.824-24.808 1.066-13.274.418-14.383.442-21.164.47-3.684.01-7.707.124-8.934.245-1.23.125-5.62.332-9.762.457-12.761.399-19.847.676-23.28.91-3.454.243-5.91.184-11.169-.254-3.195-.265-4.105-.527-5.68-1.636-.863-.61-1.374-.567-1.374.117 0 1.203 1.925 2.707 4.289 3.344 1.527.41 11.109.613 15.582.324 1.68-.106 4.855-.246 7.054-.313 2.2-.066 5.371-.171 7.055-.234 1.68-.062 5.86-.187 9.29-.277 3.425-.09 6.292-.2 6.37-.246.078-.047 3.781-.145 8.23-.215 4.45-.075 8.407-.184 8.798-.242.648-.098 3.062-.176 14.93-.461 6.655-.16 16.687-.575 20.226-.836 1.746-.13 5.238-.34 7.758-.465 2.523-.13 5.222-.281 5.996-.34 7.687-.578 10.515-.844 13.758-1.29.84-.112 1.738-.21 2-.218.257-.004 1.738-.11 3.292-.238 1.551-.125 4.356-.344 6.231-.484 1.875-.145 3.832-.36 4.348-.477.52-.121 1.843-.285 2.941-.363 2.613-.192 3.742-.301 5.879-.575 2.684-.343 6.46-.71 8.82-.863 3.313-.207 6.918-.484 11.637-.887a684 684 0 0 1 7.996-.636c2.809-.203 3.715-.352 3.941-.637.391-.492.368-.875-.078-1.32-.398-.403-1.375-.438-3.273-.118m7.75.704c-.086.136-.024.562.137.945.23.555.386.668.785.547.804-.242.957-.504.66-1.149-.281-.62-1.277-.836-1.582-.343" class="signature-path"/></svg>