<svg xmlns="http://www.w3.org/2000/svg" viewBox="0 0 500 500"><path d="M59.4 385.07a3 3 0 0 1 3.09 0l.79.46.82.41a2.91 2.91 0 0 1 1.72 2.55l.12 3.81 12.39-.39-.12-3.8a3 3 0 0 1 1.56-2.67 17 17 0 0 0 1.57-1 3 3 0 0 1 3.07-.2l3.35 1.8 5.86-10.93-3.35-1.79a3 3 0 0 1-1.54-2.67 14 14 0 0 0-.06-1.85 3 3 0 0 1 1.33-2.72l3.23-2-6.53-10.53-3.25 2a2.92 2.92 0 0 1-3.08 0c-.26-.16-.52-.31-.79-.45l-.82-.41a2.94 2.94 0 0 1-1.72-2.56L77 348.3l-12.38.38.12 3.8a3 3 0 0 1-1.56 2.67 17 17 0 0 0-1.57 1 2.93 2.93 0 0 1-3.08.2l-3.34-1.79-5.86 10.93 3.34 1.79a3 3 0 0 1 1.54 2.67 16 16 0 0 0 .06 1.85 3 3 0 0 1-1.37 2.78l-3.23 2 6.54 10.53Zm3.1-19.56a10.15 10.15 0 1 1 4.15 13.74 10.16 10.16 0 0 1-4.15-13.74M94.46 341a2.06 2.06 0 0 1 1.92-1h1.28a2.06 2.06 0 0 1 1.91 1l1.33 2.31 7.52-4.34-1.33-2.31a2.07 2.07 0 0 1 .07-2.16 10 10 0 0 0 .65-1.12 2.08 2.08 0 0 1 1.84-1.14h2.66v-8.68h-2.66a2.08 2.08 0 0 1-1.84-1.14 10 10 0 0 0-.65-1.12 2.09 2.09 0 0 1-.07-2.17l1.33-2.3-7.52-4.34-1.34 2.31a2.05 2.05 0 0 1-1.91 1h-1.27a2.06 2.06 0 0 1-1.92-1l-1.33-2.31-7.52 4.34 1.33 2.3a2.07 2.07 0 0 1-.07 2.16 10 10 0 0 0-.65 1.13 2.08 2.08 0 0 1-1.84 1.14h-2.66v8.68h2.66a2.08 2.08 0 0 1 1.84 1.14 10 10 0 0 0 .65 1.13 2.07 2.07 0 0 1 .07 2.16l-1.33 2.3 7.52 4.34Zm-4.56-13.13A7.11 7.11 0 1 1 97 335a7.12 7.12 0 0 1-7.1-7.13M422.19 75.07a2.05 2.05 0 0 1 1 1.91v1.29a2.06 2.06 0 0 1-1 1.91l-2.31 1.33 4.35 7.49 2.3-1.33a2.07 2.07 0 0 1 2.17.07 11 11 0 0 0 1.12.65 2.07 2.07 0 0 1 1.18 1.86v2.66h8.68v-2.66a2.07 2.07 0 0 1 1.14-1.83 11 11 0 0 0 1.12-.65 2.07 2.07 0 0 1 2.17-.07l2.3 1.33 4.34-7.52-2.32-1.34a2.06 2.06 0 0 1-1-1.91v-1.28a2.05 2.05 0 0 1 1-1.91l2.31-1.33-4.34-7.52-2.3 1.33a2.05 2.05 0 0 1-2.16-.08c-.36-.23-.74-.45-1.13-.65a2.06 2.06 0 0 1-1.17-1.82v-2.67H431V65a2.06 2.06 0 0 1-1.14 1.83c-.39.2-.77.42-1.13.65a2.05 2.05 0 0 1-2.16.08l-2.3-1.33-4.34 7.52Zm13.11-4.56a7.11 7.11 0 1 1-7.11 7.11 7.12 7.12 0 0 1 7.11-7.11M407 134.25a35.75 35.75 0 1 1-35.36-41V129Z" style="fill:#a7c8e9"/><path d="M414.61 121.73a35 35 0 0 1-.39 5.24l-35.35-5.24V86a35.71 35.71 0 0 1 35.74 35.74Z" style="fill:#dbdbdb"/><path d="M74.13 193v29.47L55 244.88A29.47 29.47 0 0 1 74.13 193" style="fill:#a7c8e9"/><path d="M109.6 225.47A29.47 29.47 0 0 1 61 247.88l19.12-22.41V196a29.45 29.45 0 0 1 29.47 29.47Z" style="fill:#a7c8e9"/><path d="M109.6 225.47A29.47 29.47 0 0 1 61 247.88l19.12-22.41V196a29.45 29.45 0 0 1 29.47 29.47Z" style="fill:#dbdbdb"/><path d="M60.51 170.09h1v38.01h-1z" style="fill:#a7c8e9"/><path d="M61 170.59a3.17 3.17 0 1 1 3.17-3.16 3.17 3.17 0 0 1-3.17 3.16m0-5.33a2.17 2.17 0 1 0 2.17 2.17 2.17 2.17 0 0 0-2.17-2.17M69.09 164.76h29.53v1.33H69.09zM69.09 167.43H85.8v1.33H69.09zM375.46 141.7h38.01v1h-38.01z" style="fill:#a7c8e9"/><path d="M416.14 145.37a3.17 3.17 0 1 1 3.16-3.17 3.16 3.16 0 0 1-3.16 3.17m0-5.33a2.17 2.17 0 1 0 2.16 2.16 2.16 2.16 0 0 0-2.16-2.2ZM425.8 140.2h29.53v1.33H425.8zM425.8 142.87h16.71v1.33H425.8zM210.77 132H73.35V42.56h137.42Zm-136.42-1h135.42V43.56H74.35Z" style="fill:#a7c8e9"/><path d="M210.77 55.32H73.35V42.56h137.42Zm-136.42-1h135.42V43.56H74.35Z" style="fill:#a7c8e9"/><path d="M84.88 49a3 3 0 1 1-3-3 3 3 0 0 1 3 3M97 49a3 3 0 1 1-3-3 3 3 0 0 1 3 3" style="fill:#a7c8e9"/><path d="M109 49a3 3 0 1 1-3-3 3 3 0 0 1 3 3" style="fill:#c9990e"/><ellipse cx="364.95" cy="447.51" rx="106.25" ry="18.45" style="fill:#a7c8e9"/><path d="m29.71 423.48 55.07-.24 55.07-.09 110.15-.17 110.15.17 55.07.08 55.07.25-55.07.24-55.07.09-110.15.17-110.15-.17-55.07-.09z" style="fill:#042536"/><path d="M100.56 69.96h298.89v334.76H100.56z" style="fill:#37474f"/><path d="M105.75 75.26h289.27V288.7H105.75z" style="fill:#042536"/><path d="M190.88 94.55h119v2.64h-119zM211.23 100.05h78.31v2.64h-78.31z" style="fill:#031326"/><path d="M291.27 250.49a21.73 21.73 0 1 1-10.46-40.77v21.72Z" style="fill:#fff"/><path d="m293.69 214-12.88 17.48v-21.76a21.53 21.53 0 0 1 12.88 4.28" style="fill:#c9990e"/><path d="M302.53 231.44a21.6 21.6 0 0 1-5.76 14.73l-16-14.73L293.69 214a21.66 21.66 0 0 1 8.84 17.44" style="fill:#abb7c4"/><path d="M304.58 256.25a21.8 21.8 0 0 1-5.49 4.32l-10.46-19Z" style="fill:#031326"/><path d="m222.17 210.55-6 20.89v21.73a21.73 21.73 0 0 1 0-43.45 22 22 0 0 1 6 .83" style="fill:#abb7c4"/><path d="M229.07 248.94a21.57 21.57 0 0 1-12.86 4.23v-21.73Z" style="fill:#fff"/><path d="M237.93 231.44a21.67 21.67 0 0 1-8.86 17.5l-12.86-17.5 16.89-13.65a21.62 21.62 0 0 1 4.83 13.65" style="fill:#031326"/><path d="M237.93 210.75 221 224.41l6-20.9a21.8 21.8 0 0 1 10.93 7.24" style="fill:#c9990e"/><path d="M151.6 209.72v21.72L137 247.5a21.72 21.72 0 0 1 14.63-37.78Z" style="fill:#031326"/><path d="m167.16 216.27-15.56 15.17v-21.72a21.7 21.7 0 0 1 15.56 6.55" style="fill:#c9990e"/><path d="M173.33 231.44a21.69 21.69 0 0 1-8 16.84l-13.73-16.84 15.56-15.17a21.7 21.7 0 0 1 6.17 15.17" style="fill:#abb7c4"/><path d="M165.33 254a21.73 21.73 0 0 1-28.36-.79l14.63-16.05Z" style="fill:#fff"/><path d="M345.42 209.72v43.45a21.73 21.73 0 0 1 0-43.45" style="fill:#c9990e"/><path d="m350.9 210.42-5.48 21v-21.7a22 22 0 0 1 5.48.7" style="fill:#042536"/><path d="M370.88 230.19a21.8 21.8 0 0 1-1.5 8l-20.22-8 5.49-21a21.71 21.71 0 0 1 16.23 21" style="fill:#031326"/><path d="M365.63 239.41a21.74 21.74 0 0 1-20.21 13.76v-21.73Z" style="fill:#abb7c4"/><path d="M141.59 265.95h25.36v2.44h-25.36zM141.59 271.03h16.83v2.44h-16.83zM129.88 265.91h7.59v7.59h-7.59zM206.19 265.95h25.36v2.44h-25.36zM206.19 271.03h16.83v2.44h-16.83z" style="fill:#031326"/><path d="M194.49 265.91h7.59v7.59h-7.59z" style="fill:#abb7c4"/><path d="M270.8 265.95h25.36v2.44H270.8zM270.8 271.03h16.83v2.44H270.8z" style="fill:#031326"/><path d="M259.09 265.91h7.59v7.59h-7.59z" style="fill:#fff"/><path d="M335.4 265.95h25.36v2.44H335.4zM335.4 271.03h16.83v2.44H335.4z" style="fill:#031326"/><path d="M323.7 265.91h7.59v7.59h-7.59z" style="fill:#c9990e"/><path d="m129.88 115.88 60.25-.15c20.09 0 40.17 0 60.25.15-20.08.14-40.16.1-60.25.16ZM129.88 120.67l60.25-.15c20.09 0 40.17 0 60.25.15-20.08.14-40.16.1-60.25.16ZM129.88 125.46l60.25-.16c20.09.06 40.17 0 60.25.16-20.08.14-40.16.1-60.25.16ZM129.88 130.25l60.25-.16c20.09.06 40.17 0 60.25.16-20.08.13-40.16.1-60.25.15ZM129.88 135l60.25-.16c20.09.06 40.17 0 60.25.16-20.08.13-40.16.1-60.25.15ZM129.88 139.83l60.25-.16c20.09.06 40.17 0 60.25.16-20.08.13-40.16.1-60.25.15ZM129.88 144.61l60.25-.15c20.09 0 40.17 0 60.25.15-20.08.14-40.16.11-60.25.16ZM129.88 149.4l60.25-.15c20.09.05 40.17 0 60.25.15-20.08.14-40.16.1-60.25.16ZM129.88 154.19l60.25-.15c20.09.05 40.17 0 60.25.15-20.08.14-40.16.1-60.25.16ZM129.88 159l60.25-.16c20.09.06 40.17 0 60.25.16-20.08.13-40.16.1-60.25.16ZM129.88 163.77l60.25-.16c20.09.06 40.17 0 60.25.16-20.08.13-40.16.1-60.25.15ZM129.88 168.56l60.25-.16c20.09.06 40.17 0 60.25.16-20.08.13-40.16.1-60.25.15ZM129.88 173.35l60.25-.16c20.09.05 40.17 0 60.25.16-20.08.13-40.16.1-60.25.15ZM129.88 178.13l60.25-.15c20.09.05 40.17 0 60.25.15-20.08.14-40.16.1-60.25.16ZM129.88 182.92l60.25-.15c20.09 0 40.17 0 60.25.15-20.08.14-40.16.1-60.25.16Z" style="fill:#031326"/><path d="M142.62 149.4h9.14v39.1h-9.14z" style="fill:#c9990e"/><path d="M159.58 132.86h9.14v55.64h-9.14z" style="fill:#fff"/><path d="M176.53 144.78h9.14v43.72h-9.14z" style="fill:#abb7c4"/><path d="M193.48 130.25h9.14v58.26h-9.14z" style="fill:#c9990e"/><path d="M210.43 138.06h9.14v50.44h-9.14z" style="fill:#fff"/><path d="M227.38 166.64h9.14v21.86h-9.14z" style="fill:#abb7c4"/><path d="m133.15 112.52.25 19 .17 19c.12 12.67.15 25.33.17 38l-.59-.57h29.31l29.31.07 29.3.19 29.31.34-29.31.35-29.3.19-29.31.07h-29.9v-.58c0-12.66.05-25.32.17-38l.17-19ZM142.62 192.52h9.14v.81h-9.14zM159.58 192.52h9.14v.81h-9.14zM176.53 192.52h9.14v.81h-9.14zM193.48 192.52h9.14v.81h-9.14zM210.43 192.52h9.14v.81h-9.14zM227.38 192.52h9.14v.81h-9.14z" style="fill:#031326"/><path d="M318 145.16a25.2 25.2 0 0 1-15.35 23.18l-9.84-23.18Z" style="fill:#c9990e"/><path d="m289.6 143.43 9.84 23.19h-.05c-.77.31-1.54.6-2.31.84a25.16 25.16 0 0 1-32.64-24 25.7 25.7 0 0 1 1.13-7.48 25.14 25.14 0 0 1 16.55-16.55 25.3 25.3 0 0 1 15 0 25.12 25.12 0 0 1 17.7 24Z" style="fill:#c9990e"/><path d="m289.6 143.43 9.84 23.19h-.05c-.77.31-1.54.6-2.31.84a25.16 25.16 0 0 1-32.64-24 25.18 25.18 0 0 1 49.21-7.46 25.4 25.4 0 0 1 1.13 7.48Z" style="fill:#abb7c4"/><path d="m289.61 143.44-16.41 19.08a25.17 25.17 0 1 1 41.58-19.08Z" style="fill:#031326"/><path d="M331.03 176.79h-19.02l-23.55-23.55.34-.34 23.41 23.41h18.82z" style="fill:#042536"/><path d="M287.3 151.75h2.65v2.65h-2.65zM331.03 158.57H309.6l-10.18-10.17.34-.34 10.04 10.03h21.23z" style="fill:#042536"/><path d="M298.27 146.9h2.65v2.65h-2.65zM298.62 140.54h32.41v.49h-32.41z" style="fill:#042536"/><path d="M296.95 139.46h2.65v2.65h-2.65z" style="fill:#042536"/><path d="M338.4 138.13h23.54v2.19H338.4zM338.4 142.7h30.55v2.19H338.4zM338.4 147.27h16.33v2.19H338.4zM328.37 138.13h5.31v5.31h-5.31zM338.4 155.82h26.41v2.19H338.4zM338.4 160.4h22.02v2.19H338.4zM338.4 164.97h30.55v2.19H338.4z" style="fill:#031326"/><path d="M328.37 155.82h5.31v5.31h-5.31z" style="fill:#c9990e"/><path d="M338.4 173.52h26.41v2.19H338.4zM338.4 178.09h22.02v2.19H338.4zM338.4 182.67h30.55v2.19H338.4z" style="fill:#031326"/><path d="M328.37 173.52h5.31v5.31h-5.31z" style="fill:#abb7c4"/><path d="M105.75 294.29h133.42V399H105.75z" style="fill:#042536"/><path d="M124.89 303.42h95.12v2.11h-95.12zM141.16 307.82h62.59v2.11h-62.59z" style="fill:#031326"/><path d="M130.02 384.54h5.33v5.33h-5.33z" style="fill:#c9990e"/><path d="M139.06 384.54h58.4v1.58h-58.4zM139.06 388.3h37.73v1.58h-37.73zM126.49 331c15.32-.1 30.64-.07 46-.11s30.64 0 46 .11c-15.32.09-30.64.07-46 .11s-30.68-.04-46-.11M126.49 340.06c15.32-.1 30.64-.07 46-.11s30.64 0 46 .11c-15.32.1-30.64.07-46 .11s-30.68-.02-46-.11M126.49 349.14c15.32-.09 30.64-.07 46-.11s30.64 0 46 .11c-15.32.1-30.64.07-46 .11s-30.68-.01-46-.11M126.49 358.22c15.32-.09 30.64-.07 46-.11s30.64 0 46 .11c-15.32.1-30.64.08-46 .12s-30.68-.02-46-.12M126.49 367.31c15.32-.1 30.64-.07 46-.11s30.64 0 46 .11c-15.32.09-30.64.07-46 .11s-30.68-.02-46-.11" style="fill:#031326"/><path d="M145 325.07c.14 8.49.1 17 .16 25.46s0 17-.16 25.46c-.14-8.49-.1-17-.16-25.46s.03-16.97.16-25.46M160.9 325.07c.13 8.49.1 17 .15 25.46s0 17-.15 25.46c-.14-8.49-.11-17-.16-25.46s.02-16.97.16-25.46M176.79 325.07c.14 8.49.1 17 .16 25.46s0 17-.16 25.46c-.13-8.49-.1-17-.15-25.46s.02-16.97.15-25.46M192.69 325.07c.13 8.49.1 17 .15 25.46s0 17-.15 25.46c-.14-8.49-.1-17-.16-25.46s.02-16.97.16-25.46M208.58 325.07c.14 8.49.1 17 .16 25.46s0 17-.16 25.46c-.13-8.49-.1-17-.15-25.46s.02-16.97.15-25.46" style="fill:#031326"/><path d="M128.81 360.72c2.8 0 4.48-9.23 8.45-9.23s4.39 6.73 7.74 6.73 3.24-11.82 7.74-11.82 3.45 4.8 8.16 4.8 2.92-11.14 7.84-11.14 2.93 15.35 8 15.35c3.24 0 4.5-4.88 8.37-4.88 2.56 0 4.07 2.44 7.42 2.44s4.08-9.37 8.27-9.37 4.66 5.54 7.73 5.54 4.19-9.08 9.83-9.08V376h-89.6Z" style="fill:#c9990e;opacity:.5"/><path d="M128.81 361.16v-.88c.85 0 2-2.16 2.87-3.73 1.47-2.71 3-5.5 5.58-5.5s3.73 2.05 4.82 3.85c.85 1.42 1.73 2.88 2.92 2.88s1.95-2.84 2.62-4.91c1.08-3.4 2.2-6.91 5.12-6.91 2.6 0 3.63 1.38 4.53 2.59s1.63 2.2 3.63 2.2c1.8 0 2.51-2.6 3.2-5.11.8-3 1.64-6 4.64-6s3.74 3.85 4.55 7.93c.65 3.3 1.46 7.41 3.5 7.41 1.22 0 2.22-1 3.27-2.08 1.29-1.31 2.75-2.79 5.1-2.79a7.23 7.23 0 0 1 3.58 1.19 7.64 7.64 0 0 0 3.84 1.25c1.16 0 2.22-2.23 3.07-4 1.25-2.63 2.54-5.35 5.2-5.35s3.93 1.77 5.07 3.33c.84 1.14 1.63 2.22 2.66 2.22s1.89-1.73 2.77-3.25c1.51-2.6 3.39-5.83 7.06-5.83v.88c-2.82 0-4.45 2.81-5.89 5.29-1.23 2.12-2.21 3.8-3.94 3.8s-2.76-1.31-3.78-2.7-2.09-2.85-4-2.85-2.95 2.52-4 4.75c-1.18 2.48-2.19 4.62-4.26 4.62A9.1 9.1 0 0 1 188 352a5.9 5.9 0 0 0-2.8-1c-1.69 0-2.9 1.23-4.06 2.41s-2.43 2.47-4.31 2.47c-3.13 0-3.92-4-4.75-8.18-.63-3.19-1.42-7.17-3.3-7.17s-2.73 2.82-3.41 5.3c-.82 3-1.59 5.84-4.43 5.84a5.26 5.26 0 0 1-4.75-2.68c-.84-1.13-1.57-2.12-3.41-2.12s-3 3.45-3.9 6.22c-1 3.13-1.79 5.61-3.84 5.61s-3-1.66-4.08-3.42-2-3.31-3.66-3.31-3.21 2.73-4.4 4.92c-1.35 2.38-2.38 4.27-4.09 4.27" style="fill:#c9990e"/><path d="M128.81 325.62c.1 8.4.19 16.79.2 25.19l.09 25.19-.29-.21 44.8.06h22.4l22.4.11-22.4.11h-22.4l-44.8.06h-.3V376l.1-25.18c.01-8.41.1-16.82.2-25.2" style="fill:#031326"/><path d="M244.72 294.29h150.3V399h-150.3z" style="fill:#042536"/><path d="M272.31 303.42h95.12v2.11h-95.12zM288.57 307.82h62.59v2.11h-62.59z" style="fill:#031326"/><path d="M261.11 362h6.67v6.67h-6.67z" style="fill:#c9990e"/><path d="M272.42 362h35.93v1.97h-35.93zM272.42 366.7h47.21v1.97h-47.21zM261.11 374.64h6.67v6.67h-6.67zM272.42 374.64h27.3v1.97h-27.3zM272.42 379.34h47.21v1.97h-47.21zM282.53 336.1a11.63 11.63 0 1 1-1.54-5.79 11.64 11.64 0 0 1 1.54 5.79" style="fill:#031326"/><path d="m281 330.31-10.1 5.79v-11.64a11.65 11.65 0 0 1 10.1 5.85" style="fill:#c9990e"/><circle cx="270.89" cy="336.1" r="8.05" style="fill:#fff" transform="rotate(-80.81 270.87 336.094)"/><path d="M267.55 334.31h6.7v.95h-6.7z" style="fill:#042536"/><path d="M265.89 336.94h10.02v.95h-10.02z" style="fill:#abb7c4"/><path d="M315.09 336.1a10.6 10.6 0 0 1-.13 1.7 11.55 11.55 0 1 1 .13-1.7" style="fill:#031326"/><path d="M315.09 336.1a10.6 10.6 0 0 1-.13 1.7l-11.51-1.7v-11.64a11.63 11.63 0 0 1 11.64 11.64" style="fill:#c9990e"/><circle cx="303.45" cy="336.1" r="8.05" style="fill:#fff" transform="rotate(-76.76 303.479 336.107)"/><path d="M300.1 334.31h6.7v.95h-6.7z" style="fill:#042536"/><path d="M298.44 336.94h10.02v.95h-10.02z" style="fill:#abb7c4"/><path d="M347.87 336.1a11.63 11.63 0 1 1-1.54-5.79 11.64 11.64 0 0 1 1.54 5.79" style="fill:#031326"/><path d="M347.87 336.1a11.64 11.64 0 0 1-7.46 10.9l-4.17-10.86v-11.68a11.63 11.63 0 0 1 11.63 11.64" style="fill:#c9990e"/><path d="M344.28 336.1a8 8 0 1 1-8-8.05 8 8 0 0 1 8 8.05" style="fill:#fff"/><path d="M332.89 334.31h6.7v.95h-6.7z" style="fill:#042536"/><path d="M331.23 336.94h10.02v.95h-10.02z" style="fill:#abb7c4"/><path d="M380.48 336.1a11.63 11.63 0 1 1-1.54-5.79 11.6 11.6 0 0 1 1.54 5.79" style="fill:#031326"/><path d="M380.48 336.1a11.64 11.64 0 0 1-19.19 8.9l7.55-8.85v-11.69a11.63 11.63 0 0 1 11.64 11.64" style="fill:#c9990e"/><circle cx="368.84" cy="336.1" r="8.05" style="fill:#fff" transform="rotate(-80.04 368.823 336.097)"/><path d="M365.49 334.31h6.7v.95h-6.7z" style="fill:#042536"/><path d="M363.83 336.94h10.02v.95h-10.02zM100.56 61.69h298.89v8.27H100.56z" style="fill:#abb7c4"/><path d="M107.13 65.83a2 2 0 1 1-2-2 2.05 2.05 0 0 1 2 2" style="fill:#a7c8e9"/><path d="M115.5 65.83a2 2 0 1 1-2-2 2.05 2.05 0 0 1 2 2" style="fill:#fff"/><path d="M123.87 65.83a2.05 2.05 0 1 1-2.05-2 2.05 2.05 0 0 1 2.05 2M73.43 370.2a223 223 0 0 0-.33-23.67 302.4 302.4 0 0 0-7.41-48.23c-2.07-8.92-4.62-17.69-7.27-26.46-.08-.26-.5-.19-.43.09 8.2 30.89 14.94 62.78 14.47 94.9-.13 9-1.17 17.81-2 26.74 0 .24.37.34.42.09a134 134 0 0 0 2.55-23.46" style="fill:#c9990e"/><path d="M58 271.93s-12.43 31.55-9.65 39 8.52 9 8.52 9-7.6 10.86-2.29 21 17.12 9.71 17.91 21.25c-.01 0 .65-48.28-14.49-90.25" style="fill:#c9990e"/><path d="M71.13 342.25a.25.25 0 0 0 0-.17 289 289 0 0 0-12-63.47c0-.06-.12 0-.1 0q3.69 13.85 6.52 27.84a13.7 13.7 0 0 0-5.93-3.31s-.06 0 0 .07a15.6 15.6 0 0 1 6.12 4.09q.55 2.74 1.06 5.49c-2.78-3.1-6.63-4.65-10.49-6.11 0 0-.08.06 0 .09 4 1.63 8 3.74 10.74 7.2q1.42 7.85 2.49 15.76A14.94 14.94 0 0 0 62 325.5c-.08 0-.13.1 0 .13a15.57 15.57 0 0 1 7.52 4.82q.38 2.77.7 5.57a19 19 0 0 0-5.22-3.1c-.05 0-.08.05 0 .07a17.9 17.9 0 0 1 5.2 3.45s.05 0 .07 0c.2 1.76.41 3.53.59 5.3a25.3 25.3 0 0 0-10.54-7.53c-.08 0-.13.1 0 .13a27.36 27.36 0 0 1 10.39 8 .24.24 0 0 0 .26.09q.41 4.07.71 8.16s.07 0 .06 0c-.19-2.77-.39-5.59-.61-8.34" style="fill:#042536"/><path d="M61.14 300a15.54 15.54 0 0 0-7.47-2.33c-.06 0-.07.09 0 .09a29.5 29.5 0 0 1 7.39 2.42.1.1 0 0 0 .08-.18M62.65 333.43a15.9 15.9 0 0 0-5.65-1.92c-.07 0-.07.1 0 .11a21 21 0 0 1 5.54 1.95.08.08 0 0 0 .11-.14" style="fill:#042536"/><path d="M106.1 311.41A84.4 84.4 0 0 0 91.72 324a51.6 51.6 0 0 0-10.09 17.1 127.5 127.5 0 0 0-7.52 40.9 100 100 0 0 0 2.21 23 .22.22 0 0 0 .43-.08 129.3 129.3 0 0 1 .25-40.2c2.14-13.05 5.49-27.25 13.79-37.85 4.51-5.78 10.15-10.32 15.72-15 .27-.27-.11-.67-.41-.46" style="fill:#c9990e"/><path d="M75.94 372.62a77.2 77.2 0 0 1 10.49-13.4c6.21-6.22 11.45-10.64 12.26-14.75s-6.23-7.14-6.23-7.14 8.61 1.55 11-2.07 3.49-24.52 3.49-24.52-15.65 11.17-23 26.84-8.01 35.04-8.01 35.04" style="fill:#c9990e"/><path d="M101.5 316.1c-6.59 6.47-13.22 13.36-17.1 21.86a85 85 0 0 0-3.46 9c-.2.62-.41 1.24-.59 1.86a.3.3 0 0 0 0 .1 178 178 0 0 0-4.44 19.32c0 .05 0 .07.06 0 .68-3.27 1.42-6.56 2.25-9.85a.15.15 0 0 0 .09 0 13.7 13.7 0 0 1 4.11-1 .09.09 0 0 0 0-.17 15.6 15.6 0 0 0-4.06.74c.76-3 1.58-5.91 2.51-8.82a43.4 43.4 0 0 1 9.28-1.22s0-.05 0-.05a35.4 35.4 0 0 0-9.13.78c.16-.5.33-1 .5-1.5a50 50 0 0 1 6.17-1v-.06a30 30 0 0 0-6.05.73c.85-2.52 1.77-5 2.79-7.42a45 45 0 0 1 3-5.74 37 37 0 0 1 5-.89s0-.08 0-.09a13.5 13.5 0 0 0-4.69.47 58 58 0 0 1 2.62-3.9c3.51-.78 7.07-1.5 10.66-.82.06 0 .08-.1 0-.11-3.42-.9-6.81-.38-10.21.29l1.13-1.47a23.5 23.5 0 0 1 6.56-1v-.07a17.1 17.1 0 0 0-6.12.54c2.9-3.6 6.11-7 9.28-10.34.11-.27-.01-.33-.16-.17" style="fill:#042536"/><path d="M101.32 330.36a14 14 0 0 0-3.11-.11.11.11 0 0 0 0 .22c1 0 2.06-.05 3.09 0 .09.01.1-.11.02-.11M90.05 350.65a14 14 0 0 0-4.82 1s0 .07 0 .06c1.59-.37 3.21-.53 4.81-.79.16-.06.15-.27.01-.27M86.68 343.64a10 10 0 0 0-2.05.18.07.07 0 0 0 0 .13 11 11 0 0 0 2.06-.1c.11-.02.11-.21-.01-.21" style="fill:#042536"/><path d="M30.05 333.61a71.3 71.3 0 0 1 14.55 6.85A43.7 43.7 0 0 1 56.72 352a107.8 107.8 0 0 1 15.54 31.39 83.6 83.6 0 0 1 3.53 19.13.19.19 0 0 1-.37 0A108.5 108.5 0 0 0 65.94 370C61.19 360 55.2 349.24 46 342.57c-5-3.63-10.6-6-16.19-8.52-.27-.13-.06-.55.24-.44" style="fill:#c9990e"/><path d="M68.61 376.17A65 65 0 0 0 57 367.75c-6.47-3.59-11.73-6-13.33-9.1s3.39-7.22 3.39-7.22-6.61 3.24-9.35.86-8.49-19-8.49-19 15.27 5.39 24.78 16.38 14.61 26.5 14.61 26.5" style="fill:#c9990e"/><path d="M67.81 372.74c-7.63-14.32-17.8-27.28-31.75-35.83a70 70 0 0 1 10.21 8 16.15 16.15 0 0 0-8.2 1.73v.09a22.5 22.5 0 0 1 8.44-1.43.2.2 0 0 0 .09 0c.5.47 1 .94 1.47 1.42a27 27 0 0 0-4.38.59s0 .06 0 .06a22 22 0 0 1 4.63-.38 95 95 0 0 1 7.19 8.16 7.35 7.35 0 0 0-3.06.23.06.06 0 0 0 0 .11 16.3 16.3 0 0 1 3.27 0c.42.53.84 1.06 1.25 1.6a29.5 29.5 0 0 0-9.26.9v.07a37 37 0 0 1 9.51-.62l1.13 1.57a19.8 19.8 0 0 0-5.51.63.06.06 0 1 0 0 .11 21 21 0 0 1 5.7-.45q2.46 3.4 4.72 6.92a5.1 5.1 0 0 0-2.42.14s0 .07 0 .07a10.4 10.4 0 0 1 2.61.12c1.36 2.12 2.68 4.25 3.94 6.4.23.11.52-.02.42-.21" style="fill:#042536"/><path d="M56 360.86a11.9 11.9 0 0 0-4.44.54v.07a32.5 32.5 0 0 1 4.4-.45c.04-.02.09-.15.04-.16M42.64 343.41a7.4 7.4 0 0 0-2 .12c-.08 0-.06.13 0 .12.67-.07 1.34 0 2-.07a.09.09 0 1 0 0-.17" style="fill:#042536"/><path d="M88.28 423.52H53.85l4.91-35.96 1.25-9.22h22.11l1.25 9.22z" style="fill:#031326"/><path d="M83.37 387.56H58.76l1.25-9.22h22.11z" style="fill:#042536"/><path d="M56.85 375.14h28.42v7.81H56.85z" style="fill:#031326"/><path d="M345.06 455.81c2 .65 59.27-.1 61.43-1.51.83-.52 1.2-8.87 1.37-19v-.3c0-2.08.07-4.23.07-6.4v-.89L405.17 398l-38.31.38 3.78 29.43.05 1.17.23 6.09v.62s-21.79 10.09-24 11.9-3.87 7.58-1.86 8.22" style="fill:#eb9481"/><path d="M345.06 455.81c2 .65 59.27-.1 61.43-1.51.83-.52 1.2-8.87 1.37-19v-.3c0-2.08.07-4.23.07-6.4v-.89l-37.3.1.05 1.17.23 6.09v.62s-21.79 10.09-24 11.9-3.86 7.58-1.85 8.22" style="fill:#a7c8e9"/><path d="M345.05 455.81c1 .33 16.59.29 31.8 0 3.06-.06 6.1-.13 9-.21 10.85-.3 19.81-.75 20.64-1.29s1.2-8.64 1.37-18.55V435l-36.9.07v.63s-21.8 10.08-24 11.89-3.91 7.58-1.91 8.22" style="fill:#c9990e"/><path d="M345.68 453.58c9.65-.36 48.6-.91 58.16-.54.08 0 .08.06 0 .06-9.55.57-48.51.81-58.16.64-.2 0-.21-.15 0-.16M366.81 435.23c3.79-.75 8.44-.23 11.38 2.44.11.1 0 .26-.16.22a54 54 0 0 0-11.2-2.18.24.24 0 0 1-.02-.48M364.09 436.92c3.79-.76 8.44-.23 11.38 2.44.11.1 0 .26-.16.22a54 54 0 0 0-11.2-2.18.24.24 0 0 1-.02-.48M361.37 438.61c3.79-.76 8.44-.23 11.38 2.43.11.11 0 .27-.16.23a53.2 53.2 0 0 0-11.2-2.18.24.24 0 0 1-.02-.48" style="fill:#042536"/><path d="M376.85 455.8c3.06-.06 6.1-.13 9-.21 10.85-.3 19.81-.75 20.64-1.29s1.2-8.64 1.37-18.55V435c-5.09 3.55-22.86 15.41-31.01 20.8" style="fill:#042536"/><path d="M368.41 435.2h41.23s-8.3-96.31-8-98c.42-2.16 2.85-11.91 6.09-24.64 1-4 2.11-8.26 3.25-12.69 3.08-12 6.46-25.08 9.42-36.48 4.43-17.07 7.89-30.33 7.89-30.33h-34.93s-4.07 12.91-9.21 29.71c-8.36 27.3-19.54 64.88-20.64 74-1.79 14.78 4.9 98.43 4.9 98.43" style="fill:#031326"/><path d="M370.23 428.17c6.3-.13 4.49-.18 10.79-.25 3.08 0 23.34-.2 26.22.28a.06.06 0 0 1 0 .12c-2.88.48-23.14.3-26.22.27-6.3-.06-4.49-.11-10.79-.24a.09.09 0 1 1 0-.18M393.9 331.32c1.36-6 3.38-11.8 5.14-17.65q5.35-17.84 10.78-35.65 2.71-8.91 5.44-17.81c.92-3 1.84-6 2.78-9s2-5.83 2.79-8.79c.34-1.2.52-.54.09 1-.87 3.07-1.73 6.15-2.62 9.22q-2.67 9.12-5.36 18.22-5.37 18.12-10.82 36.22l-5.46 18.14a74 74 0 0 0-2.23 8.78 40.4 40.4 0 0 0-.36 9.39c.39 6.31 1.12 12.61 1.7 18.91s1.17 12.61 1.76 18.92q1.74 18.82 3.45 37.66c.14 1.59.28 3.18.41 4.78 0 .53-.77.49-.83 0-1.35-12.42-2.4-24.87-3.56-37.3l-3.48-37.11c-.29-3.11-.62-6.22-.62-9.34a38.7 38.7 0 0 1 1-8.59" style="fill:#042536"/><path d="M397.33 233.07c2.42 18.77 7.05 54 10.42 79.5 7.88-30.94 20.56-79.5 20.56-79.5Z" style="fill:#042536"/><path d="M388.74 456.36c2 .66 59.27.12 61.44-1.28.83-.52 1.24-8.87 1.44-19v-.32c.05-2.08.09-4.22.1-6.4v-.89c.13-14.58-.92-29.71-.92-29.71l-37.43.25 1.05 29.43v1.16l.21 6.09v.63s-21.83 10-24.05 11.8-3.84 7.59-1.84 8.24" style="fill:#eb9481"/><path d="M388.74 456.36c2 .66 59.27.12 61.44-1.28.83-.52 1.24-8.87 1.44-19v-.32c.05-2.08.09-4.22.1-6.4v-.89h-37.3v1.16l.21 6.09v.63s-21.83 10-24.05 11.8-3.84 7.56-1.84 8.21" style="fill:#a7c8e9"/><path d="M388.74 456.36c2 .66 59.27.12 61.44-1.28.83-.52 1.24-8.87 1.44-19v-.32l-36.94-.07v.63s-21.83 10-24.05 11.8-3.89 7.59-1.89 8.24" style="fill:#c9990e"/><path d="M389.37 454.13c9.65-.32 48.6-.73 58.17-.32.08 0 .08.06 0 .06-9.56.53-48.51.63-58.17.42-.2 0-.2-.15 0-.16M410.57 435.87c3.79-.75 8.44-.21 11.37 2.47.11.1 0 .26-.16.23a52.7 52.7 0 0 0-11.19-2.22.24.24 0 0 1-.02-.48M407.84 437.54c3.79-.74 8.44-.2 11.37 2.48.12.1 0 .26-.16.22a54 54 0 0 0-11.19-2.24.24.24 0 0 1-.02-.46M405.11 439.22c3.8-.74 8.45-.2 11.38 2.48.11.1 0 .26-.16.22a54 54 0 0 0-11.2-2.22.24.24 0 0 1-.02-.48" style="fill:#042536"/><path d="M394.49 233.07s.81 16.72 4.63 30c.31 1.1.64 2.18 1 3.21a62.2 62.2 0 0 1 10.07 5.18s.41 13.45.81 28.46c.45 16.77.91 35.48.82 39.45-.36 14.84 1.85 96.48 1.85 96.48l41.23.16s-7.45-91.16-7.4-96.6c.08-8.74-2-47.38-3.6-75.56-1-17.36-1.79-30.74-1.79-30.74Z" style="fill:#031326"/><path d="M415.08 428.47c6.3-.1 4.49-.16 10.79-.19 3.09 0 23.34-.11 26.22.38.06 0 .06.12 0 .13-2.88.46-23.14.2-26.22.16-6.3-.09-4.49-.13-10.79-.29a.1.1 0 0 1 0-.19M438.65 239c.76 23 1.56 46 2.59 69s2.42 46.14 4.35 69.15c1.08 12.86 2.1 30.95 3.49 43.77 0 .09-.13.12-.14 0-3-22.81-4.67-51-6.15-74s-2.48-46-3.26-68.95c-.44-13-.78-26-1.17-39 0-.13.28-.11.29.03M398.41 265.24a77.3 77.3 0 0 1 11.78 6.18.13.13 0 0 1-.12.24c-4-1.93-8-3.79-11.9-5.94a.27.27 0 0 1 .24-.48" style="fill:#042536"/><path d="M398.18 251.06c.27 1.46.62 2.91.94 4.37s.52 2.76.88 4.11a7.07 7.07 0 0 0 1.91 3.45c.54.5 1.13.94 1.7 1.39.31.25.64.49 1 .74 0-.2-.07-.39-.11-.59-.1-.56-.19-1.11-.28-1.67-.21-1.24-.41-2.47-.6-3.71-.37-2.43-.71-4.89-1.22-7.29 0-.1.13-.14.15 0 .61 2.38 1.28 4.74 1.81 7.15.25 1.18 1.18 7 1.22 7.42s.08.85.09 1.28a4.7 4.7 0 0 1 0 1.3c0 .11-.15.09-.2 0a5.1 5.1 0 0 1-.37-1.27c-.11-.42-.2-.84-.28-1.26 0-.15 0-.31-.07-.47-.57-.34-1.11-.8-1.64-1.19s-1.17-.83-1.72-1.29a6.6 6.6 0 0 1-2.09-3.27 23.6 23.6 0 0 1-.68-4.19c-.19-1.65-.32-3.31-.56-5-.06-.07.1-.07.12-.01" style="fill:#042536"/><path d="M416.77 189.33c-5.57 9.56-29.57 30.37-38.13 31-6.18.44-26.92-16.49-32.78-22.38-5.64-5.68 13.35-21.38 16.89-18.28 5 4.39 16 17.07 18.4 17.45 1.68.26 11.94-4.73 27.85-14.09 8.8-5.21 11.09.59 7.77 6.3" style="fill:#eb9481"/><path d="M333.74 185.78c2.49 4.69 11.34 12.28 14.18 13.29s16.24-13.61 15.72-16.66-10.14-18.18-15.12-20.32-17.37 18.83-14.78 23.69" style="fill:#eb9481"/><path d="M362.45 179.55a44.2 44.2 0 0 1 .49-12.8c1.12-5 3.33-12.28.67-13-5.46-1.43-11 16.75-11 16.75s-1.15 8.41 4.14 10.31a5.59 5.59 0 0 0 5.7-1.26" style="fill:#eb9481"/><path d="M355.51 166.92c-1.5 2.38-3.37 1-3.37 1s4 3.7 2.73 6.53-5.05.43-5.33.27c.21.2 3.82 3.69 2.24 6.4s-5.08-.14-5.3-.33c.14.24 1.94 3.57.27 5.36-2.86 3.07-7.71-5.29-11-6 0 0-1.9 5.49-2 5.64 0 0-4.78-7.86-3.53-12.29a2.92 2.92 0 0 1 3-2.18s-1.82-2.37-.64-4.55c.6-1.11 2.93-1.14 2.93-1.14a3.66 3.66 0 0 1-.21-3.82c.92-1.5 3.11-1.29 3.11-1.29s-10.75-8.6-8.83-11.19c3.31-4.45 23.18 14.74 25.6 14.39 1.15-.19.99 2.17.33 3.2" style="fill:#eb9481"/><path d="M338.71 160.49v-.08a26.2 26.2 0 0 1 13.61 7.59c.11.13.23.9.09.77-3.41-3.29-8.65-6.32-13.7-8.28M335.41 165.56c-.06 0 0-.11 0-.09a24.44 24.44 0 0 1 14.3 9.22c.12.16.06.43-.09.25-2.5-3.07-9.62-7.63-14.21-9.38M346.6 181.23c-3.48-4.55-8.06-7.52-13.21-9.89-.07 0 0-.12 0-.11 2.84.47 6 2.33 8.27 4a15.1 15.1 0 0 1 5.06 5.9c.09.07-.04.2-.12.1" style="fill:#042536"/><path d="M352.23 167.93c.14.15-.49.19-.36.35 1.4 1.69 3.77 4.84 2.65 6.3-.9 1.16-3.09.76-3.87.28l-2-1.22 1.42 1.82a9.7 9.7 0 0 1 1.49 2.68 3.43 3.43 0 0 1-.06 2.76 1.93 1.93 0 0 1-2.2 1 5.7 5.7 0 0 1-2.54-1.44l-2-1.83 1.31 2.38a8.7 8.7 0 0 1 .83 2.11 3.7 3.7 0 0 1 0 2.11 1.75 1.75 0 0 1-1.43 1.14 3.85 3.85 0 0 1-2.05-.66 32 32 0 0 1-3.74-2.91c-.61-.52-1.22-1-1.86-1.53a5.8 5.8 0 0 0-2.1-1.15 6.2 6.2 0 0 1 2 1.32c.59.54 1.16 1.1 1.73 1.66a26 26 0 0 0 3.67 3.17 4.53 4.53 0 0 0 2.42.87 2.48 2.48 0 0 0 2.18-1.61 4.4 4.4 0 0 0 .08-2.61 9.6 9.6 0 0 0-.88-2.36l-.72.55a6.73 6.73 0 0 0 3 1.74 2.74 2.74 0 0 0 1.88-.21 3.1 3.1 0 0 0 1.33-1.32 4.25 4.25 0 0 0 .07-3.49 9.8 9.8 0 0 0-1.68-2.91l-.54.6c1 .58 3.41 1.3 5-.33 1.74-2.42-2.26-6.55-3.03-7.26" style="fill:#042536"/><path d="m363.22 179.85-15.65 28.24s23.41 13.8 31 13 29.61-18.64 38.23-30.34c5.24-7.12 1.55-13.15-8.68-7.81-10.51 5.48-25.25 13-26.3 13.21s-18.6-16.3-18.6-16.3" style="fill:#c9990e"/><path d="M361.65 198.1c1-2.15 5.06-10.75 5.9-13 0 0 0-.07-.06 0-1.21 2-5.45 10.33-6.48 12.48a130 130 0 0 0-5.78 13c0 .08.09.16.14.08 2.37-4.03 4.26-8.33 6.28-12.56" style="fill:#042536"/><path d="M416.77 190.8c-7 9.48-22.79 23-32.55 28.22l29.94-38c5.4-.49 6.63 4.32 2.61 9.78" style="opacity:.1"/><path d="M443.72 253.17c-.15.15-54.15-5.67-54.66-6.33-.71-.92 14.69-55.89 19.49-64.91 2-3.84 11.81-4.4 15.67-.76 9.67 9.09 16.4 38.49 17.81 47.3 2.35 14.53 2.23 24.17 1.69 24.7" style="fill:#fff"/><path d="m409.6 180.29-13.24 76-10.2-5.29s16.91-55.93 18-59.81 3.39-9.45 5.44-10.9M421 178.72c-.67-.28-1.26 30-1.33 35s-.57 44.34-.57 44.34l26.49-3.44s-1.91-35.47-11.39-56.86c-5.31-12.11-8.2-16.97-13.2-19.04" style="fill:#c9990e"/><path d="M408.18 182.91s.05 0 0 0c-.36 2.73-1 9.07 3.32 9a9.24 9.24 0 0 0 4.79-2 24 24 0 0 0 3.9-3.45A35.7 35.7 0 0 0 424 182c0-.07.15 0 .1.08-1.14 1.6-2.1 3.29-3.39 4.78a21.3 21.3 0 0 1-4.22 3.83 9.15 9.15 0 0 1-5.08 1.9 3.47 3.47 0 0 1-3.41-2.89 15.4 15.4 0 0 1 .18-6.79" style="fill:#042536"/><path d="M421.22 190.35C422.68 197.18 434 249.51 438 250c11.7 1.55 24.27.43 24.34-9 .11-14.8-20.23-43.41-33.17-56.74-8.54-8.72-9.39-.65-7.95 6.09" style="fill:#c9990e"/><path d="M424.63 204.18c-.76-2.88-1.55-5.76-2.39-8.62 0-.08-.13 0-.12 0 .78 3.85 1.65 7.68 2.56 11.5a42 42 0 0 1-1.93-5 .08.08 0 0 0-.16 0 24 24 0 0 0 2.29 5.79l.78 3.2c1.26 5.15 2.47 10.32 3.87 15.44.79 2.87 1.54 5.76 2.36 8.63 0 .09.17.05.15 0-2.19-10.35-4.71-20.68-7.41-30.94" style="fill:#042536"/><path d="M409.53 202.89h48.9v37.56h-48.9z" style="fill:#031326" transform="rotate(-73.58 433.966 221.675)"/><path d="M432.09 195.75h17.8v5.4h-17.8z" style="fill:#abb7c4" transform="rotate(16.49 440.94 198.394)"/><path d="m446.42 197.24-2.11-.62.71-2.39-5.11-1.51-.71 2.38-2.1-.62 1.29-4.34 9.34 2.76z" style="fill:#abb7c4"/><path d="M416.2 210.82a3.88 3.88 0 0 0-.67 4.38 5.74 5.74 0 0 0-3.3 2.1c-1.36 1.94 1.08 4.93 1.08 4.93a7.06 7.06 0 0 0-3.13 2.77c-1.12 2 .92 5.35.92 5.35a6.24 6.24 0 0 0-1.22 4.17c.44 4 5.95 6.62 9.43 8.34s15 3.31 17.13 3.84l11.2-22.26s-13.43-12.13-17.81-13.57c-3.69-1.21-11.47-2.17-13.63-.05" style="fill:#eb9481"/><path d="M446.05 223c4 3 16.05 14.49 13.35 20.49s-12.24 5.54-25.53 2.69Z" style="fill:#eb9481"/><path d="M446.05 223c4 3 16.66 14.2 13.62 21.89-2.42 6.12-13.63 7-26.91 4.18Z" style="fill:#c9990e"/><path d="M439.57 249.21c4-9.9 9.68-19.69 10.55-21.47a.07.07 0 1 1 .13.07c-.95 1.7-6.24 13.61-10.54 21.49-.05.09-.18.01-.14-.09" style="fill:#042536"/><path d="M445.43 250.53a96 96 0 0 1-12.53-1.41 31 31 0 0 1 1.35-2.94c.06-.09-.1-.17-.15-.06a28 28 0 0 1-1.73 3.09.24.24 0 0 0 .15.34 43 43 0 0 0 12.88 1.22c.14-.02.17-.24.03-.24M446.58 223.22a38 38 0 0 1 4 3.29l.94.94.4.25c.57.36 1.13.74 1.66 1.15a30 30 0 0 1 2.91 2.62c.06.06 0 .16-.11.1a25 25 0 0 0-3.09-2.44l-.43-.28c.52.57 1 1.14 1.51 1.74a48 48 0 0 1 3.54 5c.05.08-.08.15-.13.07-2-3.07-9.59-10.84-11.43-12.19-1.15-.84-.48-.8.23-.25M415.87 214.92c4.23.35 8.13 1.92 12.11 3.27.09 0 0 .17 0 .14-3.95-1.39-8.12-2-12.11-3.21a.1.1 0 0 1 0-.2M413.53 222a11.2 11.2 0 0 1 2.76.88c.95.38 1.9.77 2.84 1.18q2.83 1.23 5.59 2.6c.08 0 0 .18-.05.14-1.88-.81-3.77-1.6-5.68-2.33l-2.88-1.08a13.6 13.6 0 0 1-2.67-1.12.15.15 0 0 1 .09-.27M411.18 230.38a7.5 7.5 0 0 1 2.44.93l2.56 1.16c1.71.76 3.42 1.52 5.16 2.23.08 0 0 .17 0 .13-1.77-.7-3.54-1.38-5.3-2.1l-2.59-1.08a7.3 7.3 0 0 1-2.26-1.18.06.06 0 0 1-.01-.09" style="fill:#042536"/><path d="M411.51 189c3.07.51 8.6-4.88 10.41-8.76a63 63 0 0 0-1-6.24c-.32-2-.63-4.23-.76-6.29l-12.7 4a32.8 32.8 0 0 1 1.76 7.82 4 4 0 0 1 0 .85v.15c-.22 1.57-.68 7.93 2.29 8.47" style="fill:#eb9481"/><path d="M419.71 167.82c0 2.29-.65 11.86-9.2 12.64a8.6 8.6 0 0 1-1.33 0v-.15a4 4 0 0 0 0-.85 32.8 32.8 0 0 0-1.76-7.82Z" style="fill:#042536"/><path d="M422.56 154.67c1.06 4.68-2.34 17.72-5.81 20.42-5 3.92-12.79 3.76-16-2.18-3.11-5.76 1.62-22.67 5.45-25.08 5.65-3.54 14.8-.07 16.36 6.84" style="fill:#eb9481"/><path d="M410.92 162.34s.06.06.05.09c-.25.87-.39 1.91.33 2.41 0 0 0 .06 0 0-.96-.34-.76-1.72-.38-2.5" style="fill:#042536"/><path d="M411.94 161.62c1.44.25.83 3.12-.51 2.88s-.7-3.09.51-2.88M406 161.07s-.07 0-.08.06c-.16.9-.5 1.89-1.36 2 .98.14 1.44-1.19 1.44-2.06" style="fill:#042536"/><path d="M405.39 160c-1.4-.41-2.13 2.43-.83 2.81s2.01-2.49.83-2.81M413.35 160.55a10 10 0 0 1-1-.63 2 2 0 0 1-.93-.84.63.63 0 0 1 .26-.71 1.51 1.51 0 0 1 1.54.17 2.2 2.2 0 0 1 1.07 1.23.66.66 0 0 1-.94.78M404.59 158.3a10 10 0 0 0 1.2-.06A1.93 1.93 0 0 0 407 158a.64.64 0 0 0 .12-.75 1.53 1.53 0 0 0-1.43-.6 2.28 2.28 0 0 0-1.53.55.67.67 0 0 0 .43 1.1M410 170.43c-.26.16-.53.4-.86.36a2.4 2.4 0 0 1-.9-.43s-.06 0-.05 0a1.21 1.21 0 0 0 1 .72 1 1 0 0 0 .87-.63c.05-.01-.01-.04-.06-.02" style="fill:#042536"/><path d="M409.65 167.58a3.12 3.12 0 0 1-2.31.91 3.7 3.7 0 0 1-1.09-.19l-.21-.06-.18-.08a.22.22 0 0 1-.14-.23v-.17c.13-.69.42-1.71.42-1.71-.28.07-1.68.37-1.58 0a47 47 0 0 1 3.13-8.9c0-.09.19 0 .16.06-.67 2.84-1.83 5.53-2.54 8.37a5.4 5.4 0 0 1 1.51-.13c.1 0-.59 2-.62 2.28a4.3 4.3 0 0 0 3.33-.3c.13.01.19.09.12.15" style="fill:#042536"/><path d="M406.72 168a3.63 3.63 0 0 0 1.2 1.42 1.6 1.6 0 0 0 1 .27c.75 0 .9-.68.89-1.26a4.3 4.3 0 0 0-.13-.92 4.74 4.74 0 0 1-2.96.49" style="fill:#042536"/><path d="M407.92 169.46a1.6 1.6 0 0 0 1 .27c.75 0 .9-.68.89-1.26a1.7 1.7 0 0 0-1.89.99" style="fill:#ff98b9"/><path d="M418.21 161.23c-.81-2.59.78-6.86-.47-8-2.72-2.57-8.53 2.06-12.43 2s-5-2.55-4.22-5.6 3.42-5.05 7.69-5.57a16 16 0 0 1 10.5 2.79s-.91-1.56-.54-2 2.18 1.06 2.73 1.7a5.8 5.8 0 0 1 .88 1.85 6 6 0 0 1 1.73-.13 3.6 3.6 0 0 1 2.22 1.06c.06.23-1.32.37-2.29.39 0 0 1.74 2.44 1.65 4.48s-3.53 11.68-4.3 11.77c-.99.03-2.83-3.69-3.15-4.74" style="fill:#042536"/><path d="M423.65 149.38s-.08 0 0 .06a6.45 6.45 0 0 1 2 2.95 8.13 8.13 0 0 1-.07 4.21 39 39 0 0 1-3.25 7.53c0 .07.08.13.12.06a28.4 28.4 0 0 0 3.51-8.1c.43-2.44-.06-5.28-2.31-6.71M417.91 152.2a9.3 9.3 0 0 0-3.44.13 13.6 13.6 0 0 0-3 1.38 13.1 13.1 0 0 1-7 1.74s0 0 0 .05a11.53 11.53 0 0 0 6.54-1.23 29 29 0 0 1 3.09-1.53 12 12 0 0 1 3.82-.34.1.1 0 0 0-.01-.2M417 145.66a18.2 18.2 0 0 0-4.81-1.73 14.4 14.4 0 0 0-4.89-.3 7.09 7.09 0 0 0-6.18 5 6.13 6.13 0 0 0 .46 4.39.08.08 0 0 0 .14-.07 6.34 6.34 0 0 1 1.64-7.4c2.35-1.93 5.58-2 8.44-1.47a26.3 26.3 0 0 1 5.19 1.64s.01-.05.01-.06" style="fill:#042536"/><path d="M418.94 165.23s3.38-4 5.22-2.73-1 7.21-3.35 7.85a2.33 2.33 0 0 1-3-1.54Z" style="fill:#eb9481"/><path d="M423.3 164.19v.06a5.9 5.9 0 0 0-3.37 3.37 1.29 1.29 0 0 1 1.95-.17s0 .1-.05.08a1.45 1.45 0 0 0-1.62.35 7.2 7.2 0 0 0-.86 1.19c-.09.14-.34 0-.27-.12.18-2.07 2.02-4.76 4.22-4.76" style="fill:#042536"/><path d="m409.13 180.25 3.15 7.59 9.37-9.75 2.72 3.06s-9.1 15.44-9.16 14.75l-3.21-6.54-4.49 4.64.23-11.48Z" style="fill:#fff"/><path d="M407.3 188.3c.1-1.9.16-3.81.35-5.69 0-.07.11-.1.12 0 .4 1.82 0 9.06 0 10.8.19-.2 4.16-4.07 4.2-4 .69 1 3.06 5.79 3.22 6.23 1.44-2.45 7-11.37 8.66-13.69a.07.07 0 0 1 .12.06c-1.27 2.59-8.57 14.59-8.68 14.56a75 75 0 0 1-3.37-6.91c-.67.84-4.67 5.21-4.69 4.92a62 62 0 0 1 .07-6.28" style="fill:#042536"/></svg>