<svg xmlns="http://www.w3.org/2000/svg" width="512" height="512"><path fill="#68CBED" d="M416 200h64v304H176v-41l-7-1c-45.092-12.184-88.765-44.306-116-82l-1.385-1.905a245.6 245.6 0 0 1-17.617-28.225 497 497 0 0 0-2.795-5.143C15.301 314.6 8.775 281.727 7 248h65l4 26c9.578 42.692 33.934 81.083 71 105 2.873 1.81 5.77 3.575 8.688 5.313l2.012 1.201c5.653 3.285 11.263 5.742 17.3 8.486l1-82h64v176h16V248h64v240h16V280h64v208h16zm16 16v272h32V216zM25 264c4.929 37.513 17.393 72.437 40 103l1.315 1.79c5.38 7.263 11.211 14.036 17.373 20.647l1.834 1.971C98.962 405.583 115.142 417.236 132 427l1.981 1.155C147.026 435.66 161.368 442.342 176 446v-33l-8.875-3.875C152.373 402.542 138.592 395.179 126 385l-2.648-2.035c-34.767-27.273-56.259-66.565-64.793-109.5-.723-3.187-1.661-6.322-2.559-9.465zm247 0v224h32V264zm80 32v192h32V296zm-160 32v160h32V328z"/><path fill="#38EAFA" d="M232 8v65l-24 3c-8.703.95-8.703.95-11.562 5.188C194.763 84.794 194.677 88.04 195 92l2.055.332 2.82.48 2.742.458c4.527.977 8.947 2.4 13.383 3.73v46c-18 5-18 5-21 5-.704 7.28 2.154 11.32 5.977 17.303l1.25 2.052 1.174 1.833c.599 1.812.599 1.812-.183 3.73-1.206 2.062-2.416 3.522-4.107 5.198l-1.76 1.759-1.89 1.86-1.942 1.933a2466 2466 0 0 1-6.144 6.082l-4.164 4.137A5099 5099 0 0 1 173 204c-4.453-1.411-7.996-3.108-11.937-5.625-4.729-2.844-7.603-4.244-13.063-3.375l-.332 2.055-.48 2.82-.458 2.742c-.977 4.527-2.4 8.947-3.73 13.383H97c-5-18-5-18-5-21-4.846-.396-8.225.058-12.433 2.604-2.94 2.62-3.27 5.958-3.88 9.708l-.431 2.167C73.833 216.93 73.002 224.487 72 232H7c0-30.855 8.642-60.555 20-89h-3V97c18-5 18-5 21-5 .704-7.28-2.154-11.32-5.977-17.303l-1.25-2.052-1.174-1.833C36 69 36 69 36.782 67.082c1.206-2.062 2.416-3.522 4.107-5.198l1.76-1.759 1.89-1.86 1.942-1.933c2.043-2.032 4.094-4.057 6.144-6.082q2.083-2.067 4.164-4.137Q61.887 41.05 67 36c4.453 1.411 7.996 3.108 11.938 5.625C83.666 44.469 86.54 45.869 92 45l.332-2.055.48-2.82.458-2.742c.633-2.932 1.405-5.727 2.276-8.594l.823-2.72L97 24a3213 3213 0 0 1 19.543-.165q3.326-.022 6.653-.061c3.182-.037 6.364-.054 9.546-.067.996-.015 1.992-.03 3.018-.047h2.79l2.463-.02L143 24l2 3c.526-.21 1.052-.422 1.594-.64C174.361 15.31 201.955 8 232 8m-32.875 20.25c-1.12.225-2.24.45-3.394.68-8.043 1.646-15.907 3.565-23.731 6.07a381 381 0 0 0 14.75 16.5l2.266 2.531c4.054 4.367 4.054 4.367 9.474 6.344 2.63-.228 4.954-.71 7.51-1.375l9-2V26c-5.459 0-10.537 1.172-15.875 2.25m-42.312 12.688-1.983.88A608 608 0 0 0 150 44l1 2c6.302-.332 10.852-3.673 16-7-4.093-1.364-6.47.234-10.187 1.938M111 40c-2.566 6.736-2.566 6.736-4.187 13.5l-.481 2.594L106 58l-1.906.516c-5.12 1.45-9.633 3.074-14.207 5.812-2.695.96-4.163.523-6.887-.328a118 118 0 0 1-6.312-3.562l-3.239-1.942L71 57a186 186 0 0 0-14 13q1.435 2.908 2.875 5.813l1.617 3.269c1.48 2.996 1.48 2.996 3.508 5.918-.506 4.713-3.109 9.32-4.916 13.688-1.547 3.54-1.547 3.54-2.084 7.312l-1.906.332-2.594.48-2.531.458c-3.75.922-7.353 2.374-10.969 3.73v18c6.736 2.566 6.736 2.566 13.5 4.188l2.594.48L58 134l.516 1.906c1.45 5.12 3.074 9.633 5.812 14.207.96 2.695.523 4.163-.328 6.887a118 118 0 0 1-3.562 6.313l-1.942 3.238L57 169a186 186 0 0 0 13 14q2.908-1.434 5.813-2.875l3.269-1.617c2.996-1.48 2.996-1.48 5.918-3.508 4.713.506 9.32 3.109 13.688 4.916 3.54 1.547 3.54 1.547 7.312 2.084l.332 1.906.48 2.594.458 2.531c.922 3.75 2.374 7.353 3.73 10.969h18c2.566-6.736 2.566-6.736 4.188-13.5l.48-2.594L134 182l1.906-.516c5.12-1.45 9.633-3.074 14.207-5.812 2.695-.96 4.163-.523 6.887.328 2.14 1.12 4.245 2.313 6.313 3.563l3.238 1.94L169 183a186 186 0 0 0 14-13q-1.434-2.908-2.875-5.812l-1.617-3.27c-1.48-2.996-1.48-2.996-3.508-5.918.506-4.713 3.109-9.32 4.916-13.687 1.547-3.54 1.547-3.54 2.084-7.313l1.906-.332 2.594-.48 2.531-.458c3.75-.922 7.353-2.374 10.969-3.73v-18c-6.736-2.566-6.736-2.566-13.5-4.187-.856-.16-1.712-.318-2.594-.481L182 106l-.516-1.906c-1.45-5.12-3.074-9.633-5.812-14.207-.96-2.695-.523-4.163.328-6.887 1.12-2.14 2.313-4.245 3.563-6.312l1.94-3.239L183 71a186 186 0 0 0-13-14q-2.908 1.435-5.812 2.875l-3.27 1.617c-2.996 1.48-2.996 1.48-5.918 3.508-4.713-.506-9.32-3.109-13.687-4.916-3.54-1.547-3.54-1.547-7.313-2.084l-.332-1.906-.48-2.594-.458-2.531c-.922-3.75-2.374-7.353-3.73-10.969zM44 149a1244 1244 0 0 0-4.062 9.313l-1.182 2.67-1.104 2.568-1.031 2.364c-.886 2.246-.886 2.246.379 5.085a605 605 0 0 0 4.563-7.625l1.326-2.16c2.103-3.611 3.158-5.468 2.888-9.738L45 149zm-9 22c-7.174 22.097-7.174 22.097-10 45h31l2-7 1.028-3.099c.92-3.54 1.321-6.246.972-9.901-3.024-4.874-6.982-8.411-11.25-12.187a686 686 0 0 1-3.3-3.096c-2.782-2.612-5.613-5.165-8.45-7.717z"/><path fill="#D4FAFE" d="m471 76 2.914 1.39c15.093 7.73 23.626 19.904 29.195 35.77 2.803 12.084 2.341 26.637-3.109 37.84l-1.39 2.914c-7.73 15.093-19.904 23.626-35.77 29.195-4.896 1.136-9.517 1.272-14.527 1.266l-2.951.006c-6.674-.094-11.978-.897-18.12-3.604-2.671-.926-3.628-.778-6.242.223-1.54 1.608-1.54 1.608-2.812 3.691l-1.553 2.34-1.635 2.531a1784 1784 0 0 1-3.473 5.215l-1.774 2.656c-2.61 3.823-5.385 7.51-8.19 11.192-4.743 6.24-4.743 6.24-9.375 12.563l-1.395 1.917c-1.445 3.452.074 6.496 1.207 9.895.612 7.901 1.173 15.558-4 22-4.804 5.045-9.162 8.606-16.27 9.336-8.516.094-14.406-.218-20.695-6.207-5.802-6.277-7.321-10.687-7.035-19.129l-2.07-.328c-3.465-.795-6.528-2.052-9.805-3.43l-3.984-1.644q-3.114-1.292-6.221-2.601a706 706 0 0 0-6.045-2.505l-3.633-1.52c-3.388-1.016-4.94-1.11-8.242.028a187 187 0 0 0-6 4c-3.413 1.138-6.154 1.204-9.75 1.25l-3.61.078C281 232 281 232 277.728 230.043c-3.562-1.42-3.562-1.42-6.159.017-2.924 1.878-5.68 3.895-8.443 6.002l-3.05 2.225a758 758 0 0 0-6.134 4.526c-4.206 3.127-8.475 6.16-12.754 9.187l-2.134 1.543C234.224 257 234.224 257 232 257l.14 2.781c.4 13.567.4 13.567-4.14 19.219-4.804 5.045-9.162 8.606-16.27 9.336-8.516.094-14.406-.218-20.695-6.207-6.382-6.904-7.515-12.33-7.34-21.684.696-7.862 4.353-11.995 10.207-17 4.577-3.153 8.456-3.74 13.973-3.757l3.555-.051c3.57.363 3.57.363 6.836 2.324 3.568 1.416 3.568 1.416 6.166-.021 2.924-1.879 5.68-3.895 8.443-6.002l3.05-2.225a758 758 0 0 0 6.134-4.526c4.206-3.127 8.475-6.16 12.754-9.187l2.134-1.543C261.776 215 261.776 215 264 215l-.14-2.781c-.4-13.567-.4-13.567 4.14-19.219 4.804-5.045 9.162-8.606 16.27-9.336 8.516-.094 14.406.218 20.695 6.207 5.802 6.277 7.321 10.687 7.035 19.129l2.07.328c3.465.795 6.528 2.052 9.805 3.43l3.984 1.644q3.114 1.292 6.221 2.601c2.01.847 4.027 1.677 6.045 2.505l3.633 1.52c3.388 1.016 4.94 1.11 8.242-.028a187 187 0 0 0 6-4c3-1 3-1 5.898-.648 4.019.316 7.445.413 11.102-1.352 4.836-4.605 8.02-10.749 11.412-16.437 2.414-3.896 5.165-7.5 7.963-11.125a2908 2908 0 0 0 2.941-3.895q2.508-3.312 5.024-6.617l1.973-2.676 1.675-2.234c1.198-1.952 1.198-1.952.848-4.098-.866-2.269-.866-2.269-3.524-4.856-10.874-12.131-12.28-27.874-11.55-43.35.93-10.597 5.587-19.529 12.238-27.712l1.898-2.523C420.868 71.835 450.295 65.927 471 76m-54.812 28.25c-7.095 9.817-8.342 19.965-7.188 31.75 2.258 10.78 8.745 19.111 17.574 25.492 9.976 6.201 21.198 7.231 32.578 4.848 11.185-3.624 19.65-11.529 25.168-21.797 4.051-9.448 4.28-20.719 1.118-30.48-4.577-10.674-12.827-18.924-23.5-23.5-17.417-5.643-34.144-.088-45.75 13.687m-133.563 98.375c-2.112 3.087-2.237 4.703-1.625 8.375 1.5 2.5 1.5 2.5 4 4 3.672.612 5.288.487 8.375-1.625 2.112-3.087 2.237-4.703 1.625-8.375-1.5-2.5-1.5-2.5-4-4-3.672-.612-5.288-.487-8.375 1.625m80 32c-2.112 3.087-2.237 4.703-1.625 8.375 1.5 2.5 1.5 2.5 4 4 3.672.612 5.288.487 8.375-1.625 2.112-3.087 2.237-4.703 1.625-8.375-1.5-2.5-1.5-2.5-4-4-3.672-.612-5.288-.487-8.375 1.625m-160 24c-2.112 3.087-2.237 4.703-1.625 8.375 1.5 2.5 1.5 2.5 4 4 3.672.612 5.288.487 8.375-1.625 2.112-3.087 2.237-4.703 1.625-8.375-1.5-2.5-1.5-2.5-4-4-3.672-.612-5.288-.487-8.375 1.625"/><path fill="#005AB0" d="M147.313 79.313C157.552 87.045 166.04 96.909 168 110c1.43 17.446-1.182 30.353-12.656 43.965-8.006 8.629-18.292 13.702-30 14.351-16.687.56-28.674-3.106-41.094-14.629-9.993-10.558-12.764-22.105-12.67-36.217.411-14.123 6.257-25.199 16.483-34.876 16.657-13.702 41.2-15.26 59.25-3.281M95 100c-5.957 8.772-6.809 16.465-6 27 2.184 9.247 7.159 15.431 15.125 20.375 7.86 4.58 16.924 5.03 25.77 2.941 9.883-3.658 15.5-9.953 20.105-19.316 2.775-8.139 1.87-18.146-1.75-25.824-4.336-7.548-10.805-12.979-19.14-15.82-13.292-2.24-25.073.361-34.11 10.644"/><path fill="#2A95DC" d="M248 104h112v16H248z"/><path fill="#209ED9" d="M248 72h112v16H248z"/><path fill="#2F91DD" d="M459.438 105.5c5.824 3.52 10.544 8.99 12.562 15.5.805 7.836 1.125 15.62-4 22-4.804 5.045-9.162 8.606-16.27 9.336-8.516.094-14.406-.218-20.695-6.207-6.382-6.904-7.515-12.33-7.34-21.684.696-7.862 4.353-11.995 10.207-17 7.065-4.867 17.692-5.421 25.536-1.945m-16.813 17.125c-2.112 3.087-2.237 4.703-1.625 8.375 1.5 2.5 1.5 2.5 4 4 3.672.612 5.288.487 8.375-1.625 2.112-3.087 2.237-4.703 1.625-8.375-1.5-2.5-1.5-2.5-4-4-3.672-.612-5.288-.487-8.375 1.625"/><path fill="#338DDF" d="M344 136h16v16h-16zM312 136h16v16h-16zM280 136h16v16h-16zM248 136h16v16h-16z"/></svg>