<svg xmlns="http://www.w3.org/2000/svg" width="512" height="512"><path fill="#68CBED" d="m332.414 27.797 2.923-.022c40.697-.23 40.697-.23 57.663 3.225l3.126.634c26.59 5.58 55.431 14.06 71.76 37.518C470.185 72.965 472 76.462 472 81l3.813.125c8.878 1.02 16.417 6.17 22.402 12.61 8.118 10.303 10.092 20.518 10.052 33.32l.014 3.275c.013 3.604.011 7.208.01 10.812q.008 3.886.02 7.773.023 9.446.023 18.893.002 7.684.012 15.368.026 21.817.025 43.636v4.749c-.001 12.7.018 25.401.046 38.102q.043 19.593.04 39.186c0 7.325.005 14.65.027 21.975q.029 10.336.005 20.674-.003 3.784.015 7.569c.14 31.286.14 31.286-10.504 42.933l-2.312 2.625c-11.78 10.41-23.137 11.824-38.337 11.807l-5 .031c-4.497.028-8.994.037-13.491.043-4.71.01-9.42.036-14.13.06-8.906.044-17.813.072-26.72.095-10.145.028-20.29.071-30.435.117q-31.288.137-62.575.222-1.224 3.592-2.437 7.188l-.698 2.04c-4.333 12.874-3.681 24.718.162 37.53.825 2.75 1.435 5.427 1.973 8.242l2.323-.063c3.476-.084 6.95-.136 10.427-.187l3.656-.102 3.516-.039 3.237-.063c3.553.568 4.737 1.575 6.841 4.454-.125 3.688-.125 3.688-1 7-2.722 1.36-4.867 1.132-7.915 1.14l-3.82.018-4.214.003-4.42.015q-6.012.019-12.024.024-3.754.005-7.507.012-11.736.02-23.472.027-13.562.007-27.124.05-10.474.033-20.948.034-6.26 0-12.52.025-5.887.023-11.773.01-2.163-.002-4.326.013c-1.965.013-3.93.005-5.895-.004l-3.336.005C181 484 181 484 179.115 482.7c-1.115-1.7-1.115-1.7-.99-5.262C179 474 179 474 182 472c2.727-.227 2.727-.227 5.98-.195l3.526.02 3.682.05 3.716.027q4.548.036 9.096.098l.44-2.295c.68-3.28 1.666-6.432 2.623-9.642 4.084-14.883 1.703-28.966-4.063-43.063l-2.606-.004q-31.439-.056-62.877-.18c-10.136-.04-20.271-.072-30.407-.087a7679 7679 0 0 1-26.514-.084c-4.677-.022-9.353-.038-14.03-.037q-6.614 0-13.227-.05-2.415-.012-4.832-.004C38.615 416.596 26.777 414.45 16 405c-9.382-10.09-12.312-21.482-12.26-34.948-.005-1.082-.008-2.163-.012-3.277-.01-3.612-.007-7.223-.003-10.835l-.015-7.782q-.018-9.463-.012-18.926a13077 13077 0 0 0-.01-22.064q-.013-20.883-.003-41.767c.006-12.721-.006-25.442-.025-38.164q-.03-19.617-.024-39.234.005-11.004-.014-22.008c-.014-6.9-.01-13.8.002-20.7q.004-3.794-.009-7.587c-.01-3.46-.002-6.919.01-10.379l-.022-3.01c.098-12.692 3.968-23.646 12.585-33.069 12.01-11.215 25.91-11.546 41.357-11.477h5.324c4.797-.002 9.594.01 14.39.024 5.022.013 10.042.014 15.063.016q14.248.011 28.495.043c10.817.022 21.635.033 32.452.043q33.365.032 66.731.101l.427-2.842c1.895-10.446 10.348-17.99 18.604-23.85C247.228 47.687 255.705 43.479 265 40l2.105-.796c20.622-7.597 43.358-11.3 65.31-11.407m-94.3 42.863c-4.374 4.842-6.806 9.404-7.278 16.008.467 6.635 4.362 12.884 9.164 17.332 33.648 28.457 85.713 31.406 127.688 28.313 28.786-2.436 65.922-9.147 86.652-31.282 4.238-5.185 6.385-10.03 6.047-16.8-1.316-7.591-6.38-13.756-12.192-18.54-51.586-35.769-162.59-41.803-210.082 4.97M23.187 102.875c-6.866 8.32-7.338 17.094-7.322 27.505l-.007 3.164q-.007 5.247-.004 10.494l-.01 7.526q-.011 9.159-.012 18.318 0 7.447-.006 14.895-.014 21.129-.012 42.257v4.602q-.002 18.468-.023 36.937-.023 18.975-.02 37.952.001 10.648-.014 21.297-.014 10.015-.003 20.031.003 3.674-.007 7.347c-.008 3.346-.003 6.693.005 10.04l-.016 2.926C15.79 378.315 17.527 386.929 24 395c7.687 6.967 15.396 9.248 25.64 9.254l2.21.01c2.43.008 4.862.003 7.293-.003l5.296.011c4.842.01 9.685.008 14.527.004 5.226-.002 10.452.007 15.678.014q15.351.018 30.703.012 12.478-.002 24.957.005l3.587.001 7.215.004q33.833.014 67.667.003c20.634-.006 41.267.006 61.901.025q31.782.03 63.564.024c11.895-.002 23.79 0 35.685.014q15.19.019 30.379.002a4480 4480 0 0 1 15.497.005q7.096.014 14.193-.007 2.565-.004 5.128.008c11.274.05 21.918-.05 31.06-7.527 8.778-8.967 10.13-19.597 10.074-31.6l.01-3.171c.007-3.49.001-6.978-.005-10.467l.01-7.526c.009-6.096.007-12.192.002-18.288q-.007-7.435-.003-14.869v-2.141l.003-4.308q.006-20.173-.012-40.346-.012-17.292.002-34.583a31980 31980 0 0 0 .007-44.498l-.001-2.132q-.003-7.422.006-14.843.008-9.998-.01-19.995-.004-3.666.002-7.332c.006-3.34-.001-6.68-.011-10.02l.013-2.92c-.06-10.476-1.788-18.965-9.091-26.77-3.282-3.074-6.088-5.104-10.323-6.646l-2.186-.802L473 93l-.004 1.916q-.056 23.153-.18 46.304c-.04 7.465-.072 14.929-.087 22.394q-.019 9.766-.084 19.534c-.022 3.443-.038 6.885-.037 10.328-.002 3.858-.03 7.716-.062 11.574l.015 3.4c-.165 12.717-3.371 23.512-12.561 32.55-8.401 7.476-17.827 12.404-28 17l-3.031 1.398c-49.321 20.816-116.977 19.337-166.418-.093-17.185-7.104-33.036-16.214-41.102-33.66-2.094-5.695-1.889-11.393-1.881-17.395l-.031-3.816c-.028-3.432-.037-6.863-.043-10.294-.01-3.594-.036-7.188-.06-10.782-.044-6.796-.072-13.592-.095-20.389-.028-7.74-.071-15.482-.117-23.223Q219.086 115.874 219 92q-33.771-.07-67.542-.104-15.681-.014-31.363-.047-13.671-.03-27.342-.037-7.236-.003-14.472-.023-6.817-.02-13.636-.015-2.494 0-4.99-.012c-14.238-.063-26.24.072-36.467 11.113M231 112q-.112 8.539-.165 17.078a1016 1016 0 0 1-.061 5.801c-.037 2.79-.054 5.58-.067 8.371-.015.856-.03 1.711-.047 2.593-.003 9.569 3.183 15.856 9.778 22.778 30.093 27.938 81.056 29.706 119.553 28.46 30.33-1.219 68.947-7.368 92.009-29.081 6.47-7.292 8.307-13.04 8.195-22.676l-.008-2.803a1817 1817 0 0 0-.062-8.833q-.016-3.002-.027-6.002-.035-7.343-.098-14.686l-1.802 1.207c-48.358 32.33-110.566 35.885-166.526 24.956C271.23 134.899 251.694 127.779 235 115zm0 65q-.149 8.27-.22 16.54-.03 2.808-.082 5.616c-.399 16.272-.399 16.272 6.388 30.727C254.18 246.627 277.999 253.759 301 258l2.502.496c27.56 5.307 60.013 5.097 87.498-.496l2.65-.52c21.255-4.281 49.518-11.437 62.64-30.338 3.628-5.954 4.397-10.53 4.198-17.427l-.021-2.854c-.028-2.975-.09-5.949-.154-8.923q-.038-3.047-.069-6.092c-.055-4.95-.14-9.897-.244-14.846l-1.64 1.24-2.164 1.632-2.14 1.615c-26.671 19.623-63.564 26.55-96.068 26.716l-2.796.021c-2.96.018-5.92.024-8.88.026l-3.063.002c-14.631-.015-28.855-.414-43.249-3.252l-2.843-.52c-22.702-4.188-44.634-11.283-62.927-25.757-1.892-1.825-1.892-1.825-3.23-1.723m-10 239 4 18c.34 3.85.571 7.313.5 11.125.015.834.03 1.668.047 2.527-.053 8.826-2.272 15.25-4.547 24.348h70l-4-16c-.349-3.767-.57-7.143-.5-10.875l-.047-2.504c.057-9.44 2.398-16.952 4.547-26.621z"/><path fill="#005AB0" d="m160.674 347.733 2.066-.014c2.289-.013 4.578-.011 6.867-.01q2.46-.008 4.918-.02c4.457-.018 8.913-.022 13.37-.024 3.717-.001 7.435-.009 11.153-.016q13.155-.023 26.309-.02c9.053.002 18.105-.02 27.158-.051q11.651-.038 23.302-.036c4.642 0 9.283-.005 13.924-.026q6.546-.029 13.092-.005 2.404.003 4.809-.015c2.186-.015 4.371-.006 6.557.01l3.71-.004c3.687.594 4.87 1.547 7.091 4.498.482 2.821.514 4.242-1.105 6.629-2.844 2.058-5.169 1.749-8.651 1.752l-2.093.014c-2.32.012-4.638.003-6.958-.007q-2.49.006-4.981.016c-4.515.014-9.029.008-13.543-.001-4.72-.008-9.439 0-14.158.004-7.926.006-15.851-.002-23.777-.016-9.17-.016-18.34-.01-27.51.006q-11.798.02-23.597.007c-4.701-.004-9.402-.005-14.103.005q-6.63.013-13.258-.015a748 748 0 0 0-4.872.004c-2.213.008-4.425-.002-6.638-.017l-3.756-.003c-3-.378-3-.378-4.93-1.68-1.07-1.698-1.07-1.698-.945-5.26 1.543-6.06 5.003-5.69 10.549-5.705"/><path fill="#D4FAFE" d="m345.041 305.612 3.08-.03 3.361.014 3.554-.02q4.819-.022 9.638-.012c2.684.003 5.368-.003 8.052-.009q9.499-.02 18.998-.001c6.529.011 13.058-.003 19.587-.03q8.415-.032 16.828-.022c3.349.003 6.697 0 10.046-.017 3.735-.014 7.469-.004 11.203.013l3.356-.029c7.476.072 7.476.072 11.443 2.406C466 310 466 310 466.625 312.5c-.625 2.5-.625 2.5-2.438 4.625-4.819 2.835-9.304 2.425-14.799 2.377l-3.559.016q-4.819.013-9.638-.014c-3.365-.014-6.73-.007-10.096-.003q-8.475.002-16.95-.034c-6.529-.027-13.058-.029-19.588-.017q-9.429.014-18.858-.01-4.01-.007-8.02 0c-3.733.002-7.464-.014-11.197-.036l-3.361.014-3.08-.03-2.673-.008c-2.908-.467-4.28-1.32-6.368-3.38-.5-3.5-.5-3.5 0-7 2.9-2.863 5.034-3.377 9.041-3.388"/><path fill="#38EAFA" d="M163.895 186.156c3.414.928 5.12 2.057 7.792 4.344l2.61 2.191L177 195q2.715 2.224 5.438 4.438a5198 5198 0 0 1 8.386 6.886c5.097 4.187 10.226 8.3 15.496 12.266 2.353 1.975 2.642 3.147 3.078 6.2-.53 4.28-2.613 5.96-5.773 8.585l-1.654 1.44c-4.067 3.515-8.24 6.905-12.471 10.22-2.72 2.138-5.392 4.328-8.062 6.528Q178.72 253.783 176 256l-2.555 2.09-2.382 1.91-2.09 1.688c-2.063 1.372-3.517 2.021-5.973 2.312-2.244-1.148-4.21-2.21-6-4-.065-3.707.042-5.89 2.503-8.741 2.062-1.807 4.184-3.48 6.372-5.134l2.333-1.838a625 625 0 0 1 4.645-3.621c2.824-2.19 5.579-4.453 8.334-6.728l2.563-2.094A983 983 0 0 0 192 225c-5.65-5.193-11.388-10.196-17.41-14.953a796 796 0 0 1-8.465-6.797l-2.68-2.172c-4.57-3.884-4.57-3.884-6.445-6.078.063-3.625.063-3.625 1-7 3-2 3-2 5.895-1.844M96 187c2 3 2 3 1.93 6.414-1.113 4.293-2.285 5.359-5.805 7.961-1.497 1.14-1.497 1.14-3.023 2.305L86 206a676 676 0 0 0-5.5 4.5L64 224c1.47 3.601 3.367 5.344 6.438 7.688l2.714 2.105L76 236c2.76 2.243 5.504 4.504 8.242 6.773a144 144 0 0 0 5.64 4.329c7.636 5.633 7.636 5.633 8.43 9.71C98 260 98 260 96.813 261.876c-3.311 2.056-3.311 2.056-5.812 2.125-5.141-2.624-9.277-5.73-13.562-9.562a306 306 0 0 0-14.688-12.125c-4.252-3.322-8.498-6.65-12.625-10.125l-2.43-2.02C46 228 46 228 45.43 225.051c.769-4.115 2.407-5.359 5.57-8.051l2.98-2.613a838 838 0 0 1 3.208-2.7l1.728-1.454c4.15-3.482 8.355-6.89 12.604-10.253 3.69-2.946 7.312-5.974 10.937-9 7.518-5.854 7.518-5.854 13.543-3.98"/><path fill="#6186EA" d="m62.203 305.612 2.82-.016c3.076-.013 6.151-.005 9.227.006q3.206-.003 6.411-.01 6.719-.005 13.437.017c5.743.017 11.487.007 17.23-.01a3139 3139 0 0 1 13.239 0q3.177.003 6.354-.008c2.959-.007 5.917.004 8.876.02l2.657-.018c3.526.037 5.92.086 9.09 1.713C153 309 153 309 153.5 312.5c-.5 3.5-.5 3.5-1.957 5.193-3.848 1.978-7.462 1.741-11.73 1.727l-2.815.026c-3.071.023-6.142.024-9.213.023l-6.404.023q-6.711.019-13.424.009c-5.735-.006-11.468.025-17.203.065-4.409.026-8.817.029-13.226.025q-3.172.003-6.343.03c-2.957.021-5.912.012-8.868-.006l-2.647.04c-4.404-.06-6.148-.253-9.748-3.03C48 314 48 314 47.938 311.376c2.86-6.393 8.115-5.806 14.265-5.763"/><path fill="#38EAFA" d="M141 181c1.938 1.5 1.938 1.5 3 4-.458 5.296-1.45 10.219-2.826 15.362l-.552 2.083q-.896 3.365-1.806 6.727l-1.259 4.712q-1.316 4.92-2.64 9.834-1.695 6.296-3.373 12.596-1.297 4.858-2.602 9.713-.623 2.322-1.242 4.646-.867 3.243-1.745 6.482l-1 3.722c-1.519 4.967-1.519 4.967-2.955 7.123-3.375 1-3.375 1-7 1-2.5-1.437-2.5-1.437-4-4 .419-5.3 1.45-10.22 2.826-15.362l.552-2.083q.896-3.365 1.806-6.727l1.259-4.712q1.316-4.92 2.64-9.834 1.695-6.296 3.373-12.596 1.297-4.858 2.602-9.713.623-2.322 1.242-4.646.867-3.243 1.745-6.482l1-3.722c.793-2.594 1.54-4.817 2.955-7.123 2.829-1.414 4.874-1.319 8-1"/><path fill="#005AB0" d="m58.795 347.725 2.08-.015c2.27-.014 4.539-.013 6.809-.01l4.733-.014q4.962-.01 9.924-.002c4.238.006 8.476-.01 12.714-.034 3.26-.015 6.518-.016 9.777-.013q2.344 0 4.688-.015c2.186-.013 4.37-.006 6.556.006l3.768-.002c3.388.401 4.814.924 7.156 3.374.51 4.082.314 5.53-2 9-3.03.388-3.03.388-6.972.404l-2.174.02c-2.377.02-4.754.015-7.131.01q-2.474.007-4.948.015-5.188.013-10.377-.003c-4.437-.011-8.873.009-13.31.038-3.407.018-6.813.018-10.22.012q-2.454 0-4.907.019c-2.287.014-4.572.004-6.86-.013h-3.944C51 360 51 360 49.048 358.163c-1.492-3.08-1.029-4.942-.048-8.164 3.66-2.44 5.432-2.258 9.795-2.275"/><path fill="#3CA6E5" d="m127.81 135.612 2.086-.016c2.274-.013 4.548-.005 6.823.006q2.37-.003 4.74-.01 4.97-.005 9.937.017c4.247.017 8.494.007 12.741-.01 3.264-.012 6.527-.008 9.79 0q2.349.004 4.699-.008a590 590 0 0 1 6.563.02l3.775.008c3.036.381 3.036.381 4.938 1.718 1.722 2.609 1.478 4.626 1.098 7.663-1.098 1.663-1.098 1.663-3 3-3.036.381-3.036.381-6.81.388l-2.086.016c-2.274.013-4.548.005-6.823-.006q-2.37.003-4.74.01-4.97.005-9.937-.017c-4.247-.017-8.494-.007-12.741.01-3.264.012-6.527.008-9.79 0q-2.349-.004-4.699.008a590 590 0 0 1-6.563-.02l-3.775-.008C121 148 121 148 119.098 146.663c-1.722-2.609-1.478-4.626-1.098-7.663 2.512-3.806 5.525-3.38 9.81-3.388"/><path fill="#005AB0" d="m282.344 305.602 2.442-.01q2.553-.002 5.104.017c2.601.016 5.2 0 7.801-.02q2.483.004 4.965.013l2.352-.019c3.218.042 5.608.215 8.482 1.723C315 309 315 309 315.5 312.5c-.5 3.5-.5 3.5-2.012 5.19-3.528 1.858-6.9 1.778-10.797 1.779l-2.435.023q-2.546.015-5.091.009c-2.59-.001-5.178.04-7.769.085q-2.477.008-4.955.008l-2.336.05c-4.054-.052-5.901-.484-9.129-3.017C269 314 269 314 268.938 311.375c2.684-6.002 7.482-5.82 13.406-5.773"/><path fill="#D4FAFE" d="m186.344 305.602 2.442-.01q2.553-.002 5.104.017c2.601.016 5.2 0 7.801-.02q2.483.004 4.965.013l2.352-.019c3.27.043 5.586.185 8.455 1.825 1.875 1.942 2.457 2.881 2.537 5.592-2.262 4.63-2.262 4.63-5 6-2.725.123-5.423.188-8.148.203l-2.452.017q-2.57.014-5.14.02c-2.618.01-5.235.041-7.854.072q-2.496.01-4.992.016l-2.37.038c-3.241-.014-5.64-.155-8.539-1.668C174 316 174 316 173.5 312.5c.5-3.5.5-3.5 2.01-5.194 3.545-1.86 6.925-1.735 10.834-1.704"/><path fill="#38EAFA" d="m60.059 135.664 2.727-.02q2.858-.015 5.717-.015c2.92-.004 5.838-.04 8.757-.078q2.774-.009 5.549-.012l2.651-.043c6.018.045 6.018.045 8.626 2.337 1.29 3.057.803 5.02-.086 8.167-3.11 3.11-6.884 2.325-11.059 2.336l-2.727.02q-2.859.015-5.717.015c-2.92.004-5.838.04-8.757.078q-2.774.009-5.549.012l-2.651.043c-6.018-.045-6.018-.045-8.626-2.337-1.29-3.057-.803-5.02.086-8.167 3.11-3.11 6.884-2.325 11.059-2.336M366.59 347.664l2.245-.02q2.349-.015 4.698-.015c2.393-.004 4.784-.04 7.176-.078q2.285-.009 4.568-.012l2.163-.043c3.418.03 5.266.288 8.05 2.337C397 352 397 352 396.875 355.125 396 358 396 358 394 360c-2.69.212-5.274.304-7.965.3l-2.391.014q-2.505.008-5.01.002c-2.558-.003-5.114.02-7.671.045q-2.433.004-4.865.002l-2.32.028c-5.243-.046-5.243-.046-7.792-1.691-1.728-2.98-.8-5.505.014-8.7 3.637-2.425 6.381-2.323 10.59-2.336"/><path fill="#D4FAFE" d="m435.492 347.797 2.25-.017q2.358-.014 4.716-.02c2.4-.01 4.801-.041 7.202-.072q2.291-.01 4.582-.016l2.172-.038c3.115.014 5.286.204 8.047 1.699C466 351 466 351 466.375 354c-.375 3-.375 3-2.375 6a68 68 0 0 1-8.184.469l-2.458.023q-2.576.015-5.152.009c-2.63-.001-5.258.04-7.888.085q-2.5.008-5.002.008l-2.386.05c-2.225-.029-2.225-.029-5.93-.644-2.063-2.334-2.063-2.334-3-5 .688-3.25.688-3.25 2-6 3.026-1.513 6.171-1.184 9.492-1.203"/></svg>