<svg xmlns="http://www.w3.org/2000/svg" viewBox="0 0 500 500"><path d="M468.49 446.1c0 3.38-93.52 6.13-208.88 6.13s-208.87-2.75-208.87-6.13 93.51-6.1 208.87-6.1 208.88 2.71 208.88 6.1" style="fill:#a7c8e9"/><path d="M283.09 146.1h153.68v16H283.09z" style="fill:#031326"/><path d="m295.36 162.09 7.03 15.87h10.38v-15.87z" style="fill:#031326"/><path d="m295.36 162.09 7.03 15.87h10.38v-15.87z" style="fill:#031326"/><path d="m295.36 162.09 7.03 15.87h10.38v-15.87z" style="opacity:.30000000000000004"/><path d="m424.5 162.09-7.04 15.87h-10.37v-15.87z" style="fill:#031326"/><path d="m424.5 162.09-7.04 15.87h-10.37v-15.87z" style="opacity:.30000000000000004"/><path d="M330.73 106.25V76.41a.72.72 0 1 0-1.44 0v29.84Z" style="fill:#031326"/><path d="M330.73 106.25V76.41a.72.72 0 1 0-1.44 0v29.84Z" style="opacity:.30000000000000004"/><path d="m317.92 140.55.73 2.71.16.58.6 2.24h21.19l.6-2.24.16-.58.73-2.71.16-.57 7.24-26.87.16-.58.73-2.7.15-.58.81-3h-42.67l.81 3 .15.58.74 2.7.15.58 7.25 26.87z" style="fill:#263238"/><path d="M327.43 86.69a2 2 0 0 0 2.18-.81 1.9 1.9 0 0 0 .35-.77 2 2 0 0 0 0-.44 2.07 2.07 0 0 0-.48-1.33c-2.75-3.34-16.7-19.47-23.24-12.73-7.86 8.15 13.57 14.23 21.19 16.08" style="fill:#031326"/><path d="m315.09 77.29 14.52 8.59a1.9 1.9 0 0 0 .35-.77l-14.44-8.54a.42.42 0 1 0-.43.72" style="opacity:.30000000000000004"/><path d="M330 92.65a2.2 2.2 0 0 0 .05.45 2.2 2.2 0 0 0 .35.77 2.07 2.07 0 0 0 2.18.81c7.62-1.86 29.05-7.93 21.15-16.08-6.54-6.75-20.49 9.38-23.25 12.72a2.1 2.1 0 0 0-.48 1.33" style="fill:#031326"/><path d="M330.05 93.1a2.2 2.2 0 0 0 .35.77l14.52-8.6a.42.42 0 0 0 .15-.57.42.42 0 0 0-.58-.15Z" style="opacity:.30000000000000004"/><path d="M328.42 76.29a2.1 2.1 0 0 0 .63 1.27 3 3 0 0 0 .35.27 2 2 0 0 0 .8.28 2.07 2.07 0 0 0 2.09-1c3.92-6.79 14.3-26.5 2.95-26.4-9.4.06-7.34 21.29-6.82 25.58" style="fill:#031326"/><path d="M329.4 77.83a2 2 0 0 0 .8.28l3.8-16.44a.41.41 0 0 0-.31-.5.42.42 0 0 0-.5.32Z" style="opacity:.30000000000000004"/><path d="M327.43 103.83a2.07 2.07 0 0 0 2.18-.81 2 2 0 0 0 .35-.77 2.2 2.2 0 0 0 0-.45 2.1 2.1 0 0 0-.48-1.33c-2.75-3.34-16.7-19.47-23.24-12.72-7.86 8.15 13.57 14.25 21.19 16.08" style="fill:#031326"/><path d="m315.09 94.43 14.52 8.57a2 2 0 0 0 .35-.77l-14.44-8.53a.42.42 0 0 0-.58.15.43.43 0 0 0 .15.58" style="opacity:.30000000000000004"/><path d="M359.76 134.43h-1.54v-2.29h58.14a7 7 0 0 1 0 14h-58.14v-2h1.54Z" style="fill:#031326"/><path d="M359.36 134.43v9.68h53.34a4.78 4.78 0 0 0 4.72-4.84 4.9 4.9 0 0 0-1.38-3.42 4.64 4.64 0 0 0-3.34-1.42Z" style="fill:#68cbed"/><path d="M359.36 136.88v1.48h52a.74.74 0 0 0 .73-.74.74.74 0 0 0-.73-.74ZM359.36 140.52V142h52a.73.73 0 0 0 .73-.73.74.74 0 0 0-.73-.74Z" style="fill:#68cbed"/><path d="M359.76 120.47h-1.54v-2.29h58.14a7 7 0 0 1 0 14h-58.14v-2h1.54Z" style="fill:#031326"/><path d="M359.76 120.47h-1.54v-2.29h58.14a7 7 0 0 1 0 14h-58.14v-2h1.54Z" style="opacity:.30000000000000004"/><path d="M359.36 120.47v9.68h53.34a4.78 4.78 0 0 0 4.72-4.84 4.9 4.9 0 0 0-1.38-3.42 4.64 4.64 0 0 0-3.34-1.42Z" style="fill:#68cbed"/><path d="M359.36 122.92v1.48h52a.74.74 0 0 0 .73-.74.74.74 0 0 0-.73-.74ZM359.36 126.56V128h52a.73.73 0 0 0 .73-.73.74.74 0 0 0-.73-.74Z" style="fill:#68cbed"/><path d="M369.6 401.65c-.27.63-4.07 14.87-2.35 20.47s4.47 7.66 3.72 11.1-7.54 15.88-4.74 21.41 5.21.38 5.21.38 3.24-12.13 7.6-15.67 5.58-6.1 5.58-6.1l3.38-19.15Z" style="fill:#031326"/><path d="M369.6 401.65c-.27.63-4.07 14.87-2.35 20.47s4.47 7.66 3.72 11.1-7.54 15.88-4.74 21.41 5.21.38 5.21.38 3.24-12.13 7.6-15.67 5.58-6.1 5.58-6.1l3.38-19.15Z" style="opacity:.4"/><path d="M404.29 421.85c-.06.67-4.06 8.2 1.72 13.3a78 78 0 0 0 11 8.15s-4.63 6.14-4.19 8.39 3.12.86 5.17-.76 8.31-4.53 8.92-8-3-4.54-3.1-7.7 5.55-4.81 4.15-11.06-5.08-9-5.08-9Z" style="fill:#031326"/><path d="M404.29 421.85c-.06.67-4.06 8.2 1.72 13.3a78 78 0 0 0 11 8.15s-4.63 6.14-4.19 8.39 3.12.86 5.17-.76 8.31-4.53 8.92-8-3-4.54-3.1-7.7 5.55-4.81 4.15-11.06-5.08-9-5.08-9Z" style="opacity:.4"/><path d="M359.58 387.22c1.61-5-1.46 13.83 4 26.47s11.8 16.82 19.1 19.43 45.41-3.67 45.41-3.67 24.93-7.61 25.37-13.19-1.57-13.21-5.48-19.57-13.69-11.16-26.55-10-20.3 2.45-25.82-2.35-6.83-7.21-6.83-7.21Z" style="fill:#031326"/><path d="M389.5 425.72c-11.47-.9-10.63-7.83-15.16-15.68S360.87 403 360.87 403v.18a41.5 41.5 0 0 0 2.78 10.54c5.49 12.63 11.8 16.82 19.1 19.43 4.6 1.64 21.45-.25 33.28-1.87.53-3.28-15.1-4.65-26.53-5.56" style="fill:#68cbed;opacity:.30000000000000004"/><path d="M441.3 391.31c2.29-4.61 1.23-10.27.32-15.44a83.2 83.2 0 0 1-1.53-20.39c.49-6.81 2.39-13.61 6.22-19a16.3 16.3 0 0 1 7.12-6 8.88 8.88 0 0 1 8.75 1.11c3.28 2.65 4.19 7.82 3.13 12.12s-3.7 7.88-6.43 11.15-5.68 6.44-7.57 10.37a34.4 34.4 0 0 0-2.88 13.5c-.18 4.67.13 9.34.05 14 0 2.42-.29 5.08-1.89 6.72M419.94 421.71c.36.44 13.27 15.25 23.68 15.38s13.38-2.61 13.38-2.61 6.07 11.84 7 12 4.1.39 3.58-3.67-2.22-14.89-3.65-16.66-4.2.12-6-1.94-3.86-13.69-4.92-14.84-33.07 12.34-33.07 12.34" style="fill:#031326"/><path d="M379.42 431.6a5.7 5.7 0 0 0 .93-5.23c-.82-3.38-2.27-4.68-1.78-9.7s6.21-14.82 6.21-14.82.94 27.22.79 27.57-4.24 3.63-4.24 3.63Z" style="opacity:.30000000000000004"/><path d="M386.06 399.29c-.38.55-6.84 13.57-6.24 19.43s2.91 8.51 1.51 11.69-10.43 13.76-8.75 19.8 5 1.58 5 1.58 5.5-11.1 10.46-13.54 6.63-4.67 6.63-4.67l7-17.9Z" style="fill:#031326"/><path d="m397.26 433.36 4.06-16.65-6.63 16.87zM428.13 429.45l-9-13.75s.77 10.06 9 13.75M441.62 390.62s4.86 3.11 6.66 6.51l.07-2.17-6.38-5.3ZM366.44 366.45s9.19-4.71 17.41 1.75c4.71 3.7 12.07 9 14.13 14.62 1.53 4.19.72 11.08-.9 13.13-3.3 4.16-7.3 11-18.86 14.8s-20.94-2.8-25.12-7.05-2.42-7.42-1.52-9.93-1.81-16.44 3.77-21.39a25.24 25.24 0 0 1 11.09-5.93" style="opacity:.30000000000000004"/><path d="M377.6 357.76s11.91-13.18 14.94-12.26 8 19.52 2.4 28.34l-4.46 2.57L380 365.85ZM361.1 359.66c-.23-.3-15.59-17.43-19.84-10.93s0 27.18 3.1 31.82 16.74-20.89 16.74-20.89" style="fill:#031326"/><path d="M368.23 357.29s12.26-2.17 19.55 7.08c4.17 5.3 10.86 13.08 11.3 19.6.33 4.87-3 11.86-5.56 13.52-5.25 3.38-12.23 9.33-26.91 9.86s-23.26-9.23-26.64-15-.24-8.51 1.67-10.88 3.55-17.81 11.72-21.33a33.4 33.4 0 0 1 14.87-2.85" style="fill:#031326"/><path d="M378 389.27c10.61-1.57 21.76-1.49 32.13 1.47-10.62-1.6-21.41-1.68-32.13-1.47M378 391.79c9.35.85 19 2.49 27.37 6.94-8.59-3.09-18.48-4.81-27.37-6.94M343.78 388.42a55.9 55.9 0 0 0-18 2.12 24.1 24.1 0 0 1 18-2.12M343.82 391.44a141 141 0 0 0-15.49 3.35 25.65 25.65 0 0 1 15.49-3.35M354.59 371.66a.72.72 0 0 1-.59.06 5.68 5.68 0 0 0-5.35.7.7.7 0 0 1-1-.13.84.84 0 0 1 .15-1.12 7.12 7.12 0 0 1 6.75-1 .8.8 0 0 1 .44 1 .78.78 0 0 1-.4.49M354.16 380.37c-.05 2.72-1.49 5-3.23 5.09s-3.12-2-3.07-4.75 1.49-5 3.23-5.09 3.11 2.04 3.07 4.75" style="fill:#263238"/><path d="M350.81 378.54c-.09.92-.45 1.63-.81 1.6s-.57-.8-.48-1.72.44-1.63.8-1.59.57.8.49 1.71" style="fill:#68cbed"/><path d="M375.44 372.4a.7.7 0 0 1-.58-.07 5.68 5.68 0 0 0-5.38-.46.71.71 0 0 1-1-.35.84.84 0 0 1 .39-1.06 7.1 7.1 0 0 1 6.8.5.79.79 0 0 1 .22 1.08.8.8 0 0 1-.45.36M375.16 380.4c-.05 2.72-1.49 5-3.23 5.09s-3.11-2-3.07-4.76 1.49-5 3.23-5.09 3.11 2.04 3.07 4.76" style="fill:#263238"/><path d="M371.81 378.57c-.09.91-.45 1.63-.81 1.59s-.57-.8-.48-1.72.44-1.62.8-1.59.58.8.49 1.72" style="fill:#68cbed"/><path d="M358.15 385a5.4 5.4 0 0 1 1.39-.37c2-.37 4.87-.31 4.92.59a5.17 5.17 0 0 1-1.68 2.15 2.63 2.63 0 0 1-2 .47 3.2 3.2 0 0 1-1.38-.57c-.4-.3-.61-.57-1-.87a2.5 2.5 0 0 1-.54-.53.72.72 0 0 1 .29-.87" style="fill:#263238"/><path d="M366.58 390.7s-3 2.48-4.1 1.24l-1.13-1.23s-1.43 2.25-3.26 1.45a3.89 3.89 0 0 1-2.18-2.65s1.42 2 3 1.43 2.24-4.39 2.24-4.39.65 3.9 2.68 4.29 2.75-.14 2.75-.14" style="opacity:.30000000000000004"/><path d="M367.42 388.94c-1.74 4.3-5.5 3-6.54-.92h.95a8.8 8.8 0 0 1-.94 2.25c-1 1.59-3.3 2.11-4.41.38a15.5 15.5 0 0 0-1.33-1.89 9.8 9.8 0 0 1 1.7 1.56 1.94 1.94 0 0 0 3.24-.57 19.6 19.6 0 0 0 1.24-3.53 19 19 0 0 0 1.31 3.43c1.45 2.33 3.5 1.12 4.78-.69Z" style="fill:#263238"/><path d="M390 370.4s-2.89-2.73-3-4.45a5 5 0 0 1 .67-2.84l-2.89 1.75-2.62-4.17s6-11.09 7.51-8.93 4.34 9.36 3.29 14.4-2.96 4.24-2.96 4.24M354 358.91a39.6 39.6 0 0 0-8.55 10.41 40.2 40.2 0 0 1-2.13-15.32 2.6 2.6 0 0 1 .65-1.88 2.47 2.47 0 0 1 2.42-.05" style="opacity:.30000000000000004"/><path d="M374.25 387.86c.34 1 2.1 1.27 3.92.63s3-1.95 2.69-2.93-2.1-1.26-3.92-.63-3.03 1.95-2.69 2.93M345.58 388.42c0 1 1.51 1.94 3.44 2s3.53-.72 3.56-1.76-1.5-1.94-3.43-2-3.53.72-3.57 1.76" style="fill:#e28888"/><path d="M367.42 367.42a1.3 1.3 0 0 0-.62-.13 35 35 0 0 0-4 0 5.6 5.6 0 0 0-1.68.28c-.15.05-.31.13-.33.28s.55.8.86.95l-.07-.06a3.7 3.7 0 0 0 2.94.77 6.3 6.3 0 0 0 2.84-1.26.7.7 0 0 0 .28-.33.48.48 0 0 0-.22-.5M370.06 360.27a2.2 2.2 0 0 0-1-.22 59 59 0 0 0-6.67 0 10.5 10.5 0 0 0-2.83.46c-.24.09-.5.23-.55.48-.08.48.93 1.35 1.46 1.6l-.12-.1a6.24 6.24 0 0 0 4.94 1.3 10.6 10.6 0 0 0 4.71-2.09 1.14 1.14 0 0 0 .47-.55.8.8 0 0 0-.41-.88" style="opacity:.30000000000000004"/><path d="M191 433.71a17.12 17.12 0 0 1-8.92-6.84 17.7 17.7 0 0 1-2.19-10.47c.2-3.58 1-7.12 1.22-10.69.09-1.25.05-2.64-1-3.54-1.49-1.25-4.28-.82-5.75.42a7.94 7.94 0 0 0-2.34 4.72 36.84 36.84 0 0 0 0 17.06 26.3 26.3 0 0 0 10.22 14.78 28.63 28.63 0 0 0 19.89 4.92l1.31-9.7a22.66 22.66 0 0 1-12.44-.66" style="fill:#031326"/><g style="opacity:.30000000000000004"><path d="M191 433.71a17.12 17.12 0 0 1-8.92-6.84 17.7 17.7 0 0 1-2.19-10.47c.2-3.58 1-7.12 1.22-10.69.09-1.25.05-2.64-1-3.54-1.49-1.25-4.28-.82-5.75.42a7.94 7.94 0 0 0-2.34 4.72 36.84 36.84 0 0 0 0 17.06 26.3 26.3 0 0 0 10.22 14.78 28.63 28.63 0 0 0 19.89 4.92l1.31-9.7a22.66 22.66 0 0 1-12.44-.66" style="fill:#68cbed"/></g><path d="M196.14 434.82s3.27 4.75 3 4.92-3.05 4.81-3.05 4.81l-1.9-.39v-9.61Z" style="opacity:.30000000000000004"/><path d="M198.75 439.54c.13.35-3.38 2.33-2.65 5s.36 2.56 1.28 2.79 17.79 2.39 18.81 1.58 21.06-3.26 21.2-2.91 7.46 2.09 10 2.09 5.84.58 6.58-1.86-.15-3.81-2.64-5.63-3.36-2.41-3.36-2.41 5.05-.35 4.64-4.31a31.7 31.7 0 0 0-2-8.27c-.43-1.07-7.16-16.54-7.16-16.54l7-19.8s-.88-5.24-.15-8.5 1.17-4.9 1.17-4.9h-35s-6.29 14.05-9.54 21.95S194.2 409.45 194.2 427c0 6.08 4.55 12.54 4.55 12.54" style="fill:#031326"/><path d="M198.75 439.54c.13.35-3.38 2.33-2.65 5s.36 2.56 1.28 2.79 17.79 2.39 18.81 1.58 21.06-3.26 21.2-2.91 7.46 2.09 10 2.09 5.84.58 6.58-1.86-.15-3.81-2.64-5.63-3.36-2.41-3.36-2.41 5.05-.35 4.64-4.31a31.7 31.7 0 0 0-2-8.27c-.43-1.07-7.16-16.54-7.16-16.54l7-19.8s-.88-5.24-.15-8.5 1.17-4.9 1.17-4.9h-35s-6.29 14.05-9.54 21.95S194.2 409.45 194.2 427c0 6.08 4.55 12.54 4.55 12.54" style="fill:#68cbed;opacity:.30000000000000004"/><path d="M233.36 446.28c.09 0-.82-32.43-.86-32.79-.34-3.5-4.54-1.69-3.9 1.92l.61 31.1Z" style="opacity:.30000000000000004"/><path d="M250.81 389.84s1.39 2.89 1.7 10-.62 21.35-3.08 26.5-7.4 13-7.09 17.43c0 0 2.17 3.91.59 5.94s-6.56.48-6.56.48a34 34 0 0 1-3-3.91c-1-1.6-1.2-19.38-1.2-19.38l1.23-20.23Z" style="fill:#031326"/><path d="M250.81 389.84s1.39 2.89 1.7 10-.62 21.35-3.08 26.5-7.4 13-7.09 17.43c0 0 2.17 3.91.59 5.94s-6.56.48-6.56.48a34 34 0 0 1-3-3.91c-1-1.6-1.2-19.38-1.2-19.38l1.23-20.23Z" style="fill:#68cbed;opacity:.30000000000000004"/><path d="M215.1 381.72s-11.76 21.16-12.67 28.85 0 30 0 30" style="fill:none"/><path d="M218.38 444.89c-5-12.55-10.29-25.25-11.84-38.67-2.27 7.12-.44 14.9 2.37 21.82s8.13 13.48 10 20.71Z" style="opacity:.30000000000000004"/><path d="M228.59 415s.92 25.19 2.34 29.54 2.68 4.5 0 7.08-12.77 1.35-12.77-.89.52-6.32 0-6.73-6.49-15.93-7.69-21.51-2.9-6.94-1-11.57 3.59-9.94 4.1-10.08S228.59 415 228.59 415" style="fill:#031326"/><path d="M228.59 415s.92 25.19 2.34 29.54 2.68 4.5 0 7.08-12.77 1.35-12.77-.89.52-6.32 0-6.73-6.49-15.93-7.69-21.51-2.9-6.94-1-11.57 3.59-9.94 4.1-10.08S228.59 415 228.59 415" style="fill:#68cbed;opacity:.30000000000000004"/><path d="M245.27 447.9a13.3 13.3 0 0 1-.68-4.95 25.2 25.2 0 0 1 3.2-10.34 25.1 25.1 0 0 0 3.21-11.43l-1.2 4.05a14 14 0 0 1-.88 2.24c-2.53 5.11-6.39 12.19-6.11 16.3l.73 3.83ZM231.8 354.5s-9.68-1.34-15 7c-3.06 4.77-8 11.79-8.07 17.45-.07 4.22 2.8 10.12 4.88 11.44 4.24 2.7 9.94 7.54 21.45 7.36s17.83-9 20.25-14.11-.16-7.37-1.74-9.34-3.49-15.25-10-17.93a23.75 23.75 0 0 0-11.77-1.87" style="opacity:.30000000000000004"/><path d="M219.13 350.22s-14.74-8.07-17.16-6.32-1.1 19.94 6.67 26.06l4.78.91 6.05-12.68Z" style="fill:#031326"/><path d="M219.13 350.22s-14.74-8.07-17.16-6.32-1.1 19.94 6.67 26.06l4.78.91 6.05-12.68Z" style="fill:#68cbed;opacity:.30000000000000004"/><path d="M234.45 346.78c.11-.34 8.51-20.42 14.33-15.93s8.46 24.27 7.12 29.38-21.45-13.45-21.45-13.45" style="fill:#031326"/><path d="M234.45 346.78c.11-.34 8.51-20.42 14.33-15.93s8.46 24.27 7.12 29.38-21.45-13.45-21.45-13.45" style="fill:#68cbed;opacity:.30000000000000004"/><path d="M227.35 346.88s-11.62 1.87-15.26 12.4c-2.08 6-5.63 15.06-4 21 1.22 4.45 6.35 9.66 9.17 10.35 5.74 1.38 13.82 4.52 27.1.44s17.91-15.49 19.15-21.65-2.44-7.68-4.88-9.2-8.71-14.8-17.1-15.4a31.6 31.6 0 0 0-14.18 2.06" style="fill:#031326"/><path d="M227.35 346.88s-11.62 1.87-15.26 12.4c-2.08 6-5.63 15.06-4 21 1.22 4.45 6.35 9.66 9.17 10.35 5.74 1.38 13.82 4.52 27.1.44s17.91-15.49 19.15-21.65-2.44-7.68-4.88-9.2-8.71-14.8-17.1-15.4a31.6 31.6 0 0 0-14.18 2.06" style="fill:#68cbed;opacity:.30000000000000004"/><g style="opacity:.30000000000000004"><path d="M232.56 346.21a46.6 46.6 0 0 0 3.44 10.55 17.27 17.27 0 0 0 7.48 7.93 10.67 10.67 0 0 0 10.58-.43 5.39 5.39 0 0 0 2.59-4.69c-.16-1.64-1.35-3-2.49-4.17-3-3.13-6.16-6.22-10-8.24s-8.52-2.83-12.56-1.24" style="fill:#68cbed"/></g><path d="M228.54 378.49c-9.63 3.18-19.24 6.61-28.25 11.31 8.32-5.9 18.27-9.45 28.25-11.31M229.38 380.72c-6.62 4.27-16.26 9.79-22.29 14.71 6.06-6.6 14.18-11.08 22.29-14.71M258.87 367.08a22.45 22.45 0 0 1 16.7-3.7 55 55 0 0 0-16.7 3.7M259.77 369.79a23.7 23.7 0 0 1 14.88-1.79 149 149 0 0 0-14.88 1.82ZM244 355.47a.7.7 0 0 0 .54-.13 5.39 5.39 0 0 1 5-1 .66.66 0 0 0 .89-.44.78.78 0 0 0-.48-.95 6.71 6.71 0 0 0-6.33 1.23.76.76 0 0 0-.09 1 .8.8 0 0 0 .47.29M247.1 363.12c.88 2.41 2.88 4 4.46 3.54s2.15-2.79 1.26-5.2-2.88-4-4.46-3.54-2.15 2.78-1.26 5.2" style="fill:#263238"/><path d="M249.52 360.44c.36.79.91 1.32 1.21 1.18s.27-.9-.1-1.69-.9-1.32-1.21-1.17-.26.89.1 1.68" style="fill:#68cbed"/><path d="M225.61 362.62a.64.64 0 0 0 .49-.25 5.37 5.37 0 0 1 4.66-2.08.68.68 0 0 0 .78-.62.79.79 0 0 0-.67-.83 6.73 6.73 0 0 0-5.93 2.56.75.75 0 0 0 .15 1 .8.8 0 0 0 .52.22M228.35 369.67c.88 2.41 2.88 4 4.46 3.54s2.15-2.79 1.26-5.2-2.88-4-4.46-3.54-2.15 2.79-1.26 5.2" style="fill:#263238"/><path d="M230.77 367c.36.79.91 1.32 1.21 1.18s.27-.9-.1-1.69-.9-1.31-1.21-1.17-.26.88.1 1.68" style="fill:#68cbed"/><path d="M245 368.47a5.2 5.2 0 0 0-1.35.11c-1.88.28-4.45 1.23-4.21 2.05a4.8 4.8 0 0 0 2.16 1.4 2.5 2.5 0 0 0 2-.21 3.2 3.2 0 0 0 1.06-.94c.27-.39.36-.71.63-1.1a2 2 0 0 0 .31-.64.67.67 0 0 0-.6-.67" style="fill:#263238"/><path d="M239.21 376.21s3.42 1.29 4-.17l.62-1.46s2 1.57 3.37.29a3.7 3.7 0 0 0 1.13-3.05s-.65 2.25-2.26 2.22-3.36-3.22-3.36-3.22.63 3.68-1.07 4.66-2.43.73-2.43.73" style="opacity:.30000000000000004"/><path d="M237.92 374.89c1.7 1.2 3.89 1.65 4.46-.87a20 20 0 0 0 .09-3.56 17.7 17.7 0 0 0 2.26 2.84 1.82 1.82 0 0 0 3-.48 8.6 8.6 0 0 1 1-1.92 13 13 0 0 0-.59 2.11c-.46 1.91-2.73 2.17-4.1 1a8 8 0 0 1-1.53-1.72l.9-.29c.3 3.87-2.71 6.19-5.58 2.85Z" style="fill:#263238"/><path d="M212 365.36s1.73-3.34 1.27-4.9a4.63 4.63 0 0 0-1.48-2.32l3.13.65 1-4.53s-10.49-7.75-11.14-5.36.7 9.43 3.21 13.61 4.01 2.85 4.01 2.85M248.57 336.18a2.48 2.48 0 0 0-1.17-1.48 2.3 2.3 0 0 0-2.17.7c-2.28 1.89-4.07 5.6-4.65 8.5a37.5 37.5 0 0 1 10.87 6.63 38 38 0 0 0-2.88-14.35" style="opacity:.30000000000000004"/><path d="M231.48 376.06c0 1-1.48 1.78-3.31 1.78s-3.31-.8-3.31-1.78 1.48-1.79 3.31-1.79 3.31.8 3.31 1.79M257.25 367.64c.36.92-.74 2.2-2.44 2.86s-3.38.45-3.73-.47.74-2.2 2.44-2.86 3.38-.45 3.73.47" style="fill:#e28888"/><path d="M171.14 413.07a5.7 5.7 0 0 0 .77.71 7.37 7.37 0 0 0 5.47 1.18 11.4 11.4 0 0 0 2.73-.79c.31-2.82.82-5.63 1-8.46.09-1.25.05-2.64-1-3.54-1.49-1.25-4.28-.82-5.75.42a7.94 7.94 0 0 0-2.34 4.72 47 47 0 0 0-.88 5.76M180.08 421a17.64 17.64 0 0 0-7.91 4 25.7 25.7 0 0 0 1.83 4.7 45 45 0 0 0 7.45-4 15.5 15.5 0 0 1-1.37-4.7M189 432.86a17.5 17.5 0 0 1-4.54-3.1 29 29 0 0 0-3.76 3 17.7 17.7 0 0 0-2.51 3 26 26 0 0 0 4 3.47c.42.3.86.59 1.3.86a29.2 29.2 0 0 0 5.51-7.23" style="opacity:.30000000000000004"/><path d="M81.67 399.4S84.71 426 92.15 428s25.62 2 22.82-1.66-14-7.32-13.75-8.42 4.23-16.83 4.23-16.83Z" style="fill:#031326"/><path d="M81.67 399.4S84.71 426 92.15 428s25.62 2 22.82-1.66-14-7.32-13.75-8.42 4.23-16.83 4.23-16.83Z" style="opacity:.30000000000000004"/><path d="M100.5 316.32c-1.13-.23-17.45-9.19-30-7.06-34.22 5.79-33.35 49.22-29.5 68.62 4.37 22.33 14.47 25.86 17.95 35s10 17.8 11.74 18.28 17.72 2.27 13.31-2.86-8.74-7.47-9.36-8.85S79 397.66 79 397.66l23.45 10.2 8.55 22.59s-5.16 3.9-4.1 8.9 12.49 5.52 19.24-.39 4.29-32.33 4.29-32.33l10.67.38s3.06 25.11 9.39 28.76 15.9 3.66 18-.89c2.56-5.57-7.91-7.3-7.91-7.3s15.29-33.87 17-46 1-16.31.34-24.42-3.69-32.93-7.49-42.86-62.59-1.19-65.38-.79a7.63 7.63 0 0 0-4.55 2.81" style="fill:#031326"/><path d="M141 407.06a26.7 26.7 0 0 0 17.32-5.17 33.67 33.67 0 0 0 11-14c-6.39 9.43-17.2 16.51-28.32 19.17M102.07 406.6q-5.37-12.74-10.75-25.45a39.4 39.4 0 0 0 2.77 15.17 25 25 0 0 0 7.98 10.28" style="opacity:.30000000000000004"/><path d="M71 231.91a36.05 36.05 0 0 0-33.64-8.67c6.71 7.29 7 18.51 4.69 28.14s-6.83 18.69-8.48 28.46a51.16 51.16 0 0 0 18.55 47.81l20.38-6.83c-5.18-4.29-7-11.62-6.27-18.3s3.75-12.88 6.85-18.85 6.41-11.93 7.9-18.49A36.05 36.05 0 0 0 71 231.91" style="fill:#031326"/><path d="M120.63 328.91 107.72 324c1.16 6 4.91 11.23 9.58 15s10.21 6.17 15.83 8.05c7.49 2.49 15.39 4.14 23.21 3.22s15.56-4.67 20.17-11.27a437 437 0 0 1-55.88-10.09" style="opacity:.30000000000000004"/><path d="M135.87 271.14s-17.73-20.14-22.33-18.86-12.54 29.36-4.21 42.8l6.68 4 16-15.75ZM160.78 274.35c.35-.46 23.93-26 30.23-16.12s-.55 41.1-5.35 48-24.88-31.88-24.88-31.88" style="fill:#031326"/><path d="M150.05 270.62s-18.48-3.54-29.7 10.3c-6.42 7.93-16.69 19.56-17.5 29.41-.59 7.34 4.26 18 8.13 20.54 7.87 5.23 18.3 14.36 40.49 15.47s35.36-13.48 40.59-22.07.53-12.86-2.3-16.49-5-27-17.29-32.48-22.42-4.68-22.42-4.68" style="fill:#031326"/><path d="M156.2 263.57a.6.6 0 0 0-.12-.27c-.16-.16-.43-.1-.64 0a8 8 0 0 0-5 4.92c-.32-1.78-.63-3.55-.95-5.32a7.83 7.83 0 0 0-2.9 4.66 6.58 6.58 0 0 0 1.31 5.28l6.47.7c-.54-3.37 2.76-6.68 1.83-9.97M154.43 273.74a.6.6 0 0 0 .63-.16l-.66-.07a2 2 0 0 0 .03.23" style="fill:#031326"/><g style="opacity:.30000000000000004"><path d="M137.46 344a111 111 0 0 1 6.54-13.62c2.43-4.28 5.24-8.5 9.25-11.35s9.49-4.08 14-2a14.5 14.5 0 0 1 6.76 7.4 38.9 38.9 0 0 1 2.53 9.89c.38 2.39.76 3.73-.33 5.89 0 0-5.29 2.89-7.27 3.63-10.48 4-26.23 2.56-31.44.16" style="fill:#68cbed"/></g><path d="M126.11 318.1a162.7 162.7 0 0 0-37.67 1.81c-.82.15-1.66.29-2.49.42a90.7 90.7 0 0 1 40.16-2.23M123.6 323.42a162.4 162.4 0 0 0-30.51 9.09 71 71 0 0 1 30.51-9.09M186.38 318.19a40.64 40.64 0 0 1 24 2.08c1.07.47 2.13.93 3.15 1.49q-.84-.25-1.65-.54l-1.66-.49a67.9 67.9 0 0 0-23.81-2.54ZM186.25 322.75a44.84 44.84 0 0 1 23.36 5.39 119.2 119.2 0 0 0-23.36-5.39M168.59 293a1.08 1.08 0 0 0 .91.1 8.9 8.9 0 0 1 8.34 1.21 1.11 1.11 0 0 0 1.63-.17 1.31 1.31 0 0 0-.21-1.75 11.06 11.06 0 0 0-10.52-1.66 1.23 1.23 0 0 0-.72 1.56 1.3 1.3 0 0 0 .57.71M169.07 306.58c0 4.25 2.22 7.83 4.94 8s4.9-3.11 4.88-7.36-2.22-7.83-4.93-8-4.9 3.12-4.89 7.36" style="fill:#263238"/><path d="M175.18 306.87c-.05 1.43.36 2.61.92 2.63s1.05-1.12 1.11-2.55-.36-2.62-.92-2.64-1.05 1.13-1.11 2.56" style="fill:#68cbed"/><path d="M136.87 295a1.12 1.12 0 0 0 .91-.1 8.89 8.89 0 0 1 8.4-.61 1.12 1.12 0 0 0 1.56-.52 1.34 1.34 0 0 0-.58-1.67 11.14 11.14 0 0 0-10.63.64 1.24 1.24 0 0 0-.37 1.68 1.3 1.3 0 0 0 .71.58M137.14 307.45c0 4.25 2.22 7.84 4.94 8s4.9-3.12 4.88-7.36-2.22-7.83-4.93-8-4.9 3.12-4.89 7.36" style="fill:#263238"/><path d="M143.49 306.85c-.07 1.44.32 2.62.87 2.65s1.08-1.1 1.15-2.54-.31-2.62-.87-2.65-1.07 1.11-1.15 2.54" style="fill:#68cbed"/><path d="M154.33 325.31s5 4.29 6.95 2.21l1.95-2.08s2.38 3.87 5.51 2.56a6.63 6.63 0 0 0 3.78-4.46s-2.47 3.4-5.17 2.35-3.71-7.51-3.71-7.51-1.2 6.62-4.66 7.23-4.65-.3-4.65-.3" style="opacity:.30000000000000004"/><path d="M153 322.3c2.14 3.42 5.61 5.54 8.39 1.47a24.8 24.8 0 0 0 2-4.81 22.5 22.5 0 0 0 1.77 5c.86 1.52 2.7 2.74 4.43 2.06s2.61-2.81 4.28-3.81a22 22 0 0 0-2.43 3.07c-2 2.7-5.55 1.81-7.09-.82a14.5 14.5 0 0 1-1.49-3.76h1c-1.88 6.58-7.69 8.49-10.82 1.53Z" style="fill:#263238"/><path d="M116.84 290s4.43-4.07 4.59-6.66a7.46 7.46 0 0 0-1-4.3l4.34 2.7 4-6.26s-11.45-17.39-13.77-14.15-4.09 14.54-2.61 22.19 4.45 6.48 4.45 6.48M187.78 266.13a3.88 3.88 0 0 0-.95-2.86c-1-.84-2.44-.56-3.64-.13-4.45 1.6-9.17 6.19-11.63 10.22 5.79 5.09 8.85 9.51 12.71 15.91a60.6 60.6 0 0 0 3.51-23.14" style="opacity:.30000000000000004"/><path d="M167.47 315.28a9.3 9.3 0 0 0-2.42-.32c-3.42-.2-8.29.52-8.17 2.05 1.68 2.41 2.31 2.66 3.28 3.27a4.48 4.48 0 0 0 3.55.35 5.4 5.4 0 0 0 2.21-1.26c.61-.59.9-1.1 1.52-1.69a3.8 3.8 0 0 0 .79-1 1.22 1.22 0 0 0-.76-1.4" style="fill:#263238"/><path d="M79 397.66 62 387.5s12.22 12.81 16.12 13.73ZM96.33 320.33s-3.8 14.11 2.13 26.95c0 0-7.19-8.09-6.37-17.29s4.24-9.66 4.24-9.66M67.08 310s-15.2 5.5-19.48 14l-2.46-3.68s12-12.74 21-13.07Z" style="opacity:.30000000000000004"/><g style="opacity:.30000000000000004"><path d="M157.78 371.6c-4.73-2.73-11.08-.18-14.45 4.13s-4.53 9.88-5.77 15.2-3.26 11.85-7.13 15.7c7.47.43 17.51-1 23.16-5.18a23.9 23.9 0 0 0 9.46-18.14c.14-4.5-1.37-9.46-5.27-11.71" style="fill:#68cbed"/></g><g style="opacity:.30000000000000004"><path d="M71 231.91a36.05 36.05 0 0 0-33.64-8.67c5.72 6.21 6.77 15.28 5.52 23.78.09.39.15.62.15.62l-.48 19.57a2 2 0 0 0 .36 1.47c.63.65 1.73.17 2.46-.37A31.43 31.43 0 0 0 57 251.12a43.6 43.6 0 0 1 2.35 19.21 31.2 31.2 0 0 0 8.52-19.66 28 28 0 0 1 5.46 11.78 22.8 22.8 0 0 0 1.75-18.53l5.84 5.79a35.76 35.76 0 0 0-9.92-17.8" style="fill:#68cbed"/></g><g style="opacity:.30000000000000004"><path d="M78 339.91c6.42-6.53 9.3-16.5 17.18-21.14 1.16-.68 2.54-1.42 2.76-2.74a1.09 1.09 0 0 0-.56-1.09l-1.44-.63a7.4 7.4 0 0 1-2.06-.86c-4.69-1.91-11.24-4.11-17.57-4.46l-.87 1a43.36 43.36 0 0 0-10.62 21.81 15.8 15.8 0 0 0 0 6.5 7 7 0 0 0 4 4.9c3.18 1.24 6.75-.82 9.18-3.29" style="fill:#68cbed"/></g></svg>