<svg xmlns="http://www.w3.org/2000/svg" viewBox="0 0 500 500"><ellipse cx="265.17" cy="413.9" rx="193.89" ry="11.32" style="fill:#a7c8e9"/><path d="M105 371.07H69.9v7.77h6.43A37.27 37.27 0 0 0 105 407.47v6.43h13.67v-42.83Z" style="fill:#263238"/><path d="M105 371.07H69.9v7.77h6.43A37.27 37.27 0 0 0 105 407.47v6.43h13.67v-42.83Z" style="fill:#68cbed;opacity:.7000000000000001"/><path d="M113.63 371.07H78.57v7.77H85a37.25 37.25 0 0 0 28.63 28.63v6.43h7.77v-42.83Z" style="fill:#263238"/><path d="M113.63 371.07H78.57v7.77H85a37.25 37.25 0 0 0 28.63 28.63v6.43h7.77v-42.83Z" style="fill:#68cbed;opacity:.6000000000000001"/><path d="M418.83 371.07h-35.06v7.77h6.43a37.26 37.26 0 0 0 28.63 28.63v6.43h13.68v-42.83Z" style="fill:#263238"/><path d="M418.83 371.07h-35.06v7.77h6.43a37.26 37.26 0 0 0 28.63 28.63v6.43h13.68v-42.83Z" style="fill:#68cbed;opacity:.7000000000000001"/><path d="M427.5 371.07h-35.06v7.77h6.43a37.25 37.25 0 0 0 28.63 28.63v6.43h7.77v-42.83Z" style="fill:#263238"/><path d="M427.5 371.07h-35.06v7.77h6.43a37.25 37.25 0 0 0 28.63 28.63v6.43h7.77v-42.83Z" style="fill:#68cbed;opacity:.6000000000000001"/><path d="M54.39 359.51h380.88v12.67H54.39z" style="fill:#263238"/><path d="M54.39 359.51h380.88v12.67H54.39z" style="fill:#68cbed;opacity:.8"/><path d="M364.74 359.51h70.53v12.67h-70.53z" style="opacity:.1"/><path d="M287.88 232.98h135.94v126.61H287.88z" style="fill:#263238"/><path d="M287.88 232.98h89.98v126.61h-89.98z" style="fill:#68cbed;opacity:.2"/><path d="M287.88 232.98h135.94v126.61H287.88z" style="fill:#68cbed;opacity:.6000000000000001"/><path d="M297.66 242.75h70.43v31.53h-70.43z" style="fill:#263238"/><path d="M297.66 242.75h70.43v31.53h-70.43z" style="fill:#68cbed;opacity:.5"/><g style="opacity:.4"><path d="M361 271h-56.24v-.75a3.1 3.1 0 0 0-3.1-3.11h-.75v-17.28h.75a3.1 3.1 0 0 0 3.1-3.11V246H361v.75a3.11 3.11 0 0 0 3.11 3.11h.75v17.32h-.75a3.11 3.11 0 0 0-3.11 3.11Zm-54.78-1.5h53.34a4.63 4.63 0 0 1 3.8-3.8v-14.4a4.63 4.63 0 0 1-3.8-3.8H306.2a4.62 4.62 0 0 1-3.79 3.8v14.44a4.62 4.62 0 0 1 3.79 3.8Z" style="fill:#68cbed"/></g><path d="M335.69 259.51h-5.64a4.64 4.64 0 0 1-4.63-4.63v-1.27h-.6a1.5 1.5 0 0 1-1.5-1.5 1.5 1.5 0 0 1 1.5-1.5h1.41a2.19 2.19 0 0 1 2.19 2.2v2.07a1.63 1.63 0 0 0 1.63 1.63h5.64a1.63 1.63 0 0 0 1.63-1.63v-2.07a2.2 2.2 0 0 1 2.2-2.2h1.4a1.5 1.5 0 0 1 1.5 1.5 1.5 1.5 0 0 1-1.5 1.5h-.6v1.27a4.63 4.63 0 0 1-4.63 4.63M297.66 279.91h70.43v31.53h-70.43z" style="fill:#263238"/><path d="M297.66 279.91h70.43v31.53h-70.43z" style="fill:#68cbed;opacity:.5"/><g style="opacity:.4"><path d="M361 308.19h-56.24v-.75a3.11 3.11 0 0 0-3.1-3.11h-.75V287h.75a3.1 3.1 0 0 0 3.1-3.1v-.75H361v.75a3.1 3.1 0 0 0 3.11 3.1h.75v17.32h-.75a3.11 3.11 0 0 0-3.11 3.11Zm-54.78-1.5h53.34a4.63 4.63 0 0 1 3.8-3.8v-14.44a4.62 4.62 0 0 1-3.8-3.79H306.2a4.61 4.61 0 0 1-3.79 3.79v14.44a4.62 4.62 0 0 1 3.79 3.8Z" style="fill:#68cbed"/></g><path d="M335.69 296.66h-5.64a4.63 4.63 0 0 1-4.63-4.63v-1.27h-.6a1.5 1.5 0 0 1-1.5-1.5 1.5 1.5 0 0 1 1.5-1.5h1.41a2.2 2.2 0 0 1 2.19 2.2V292a1.63 1.63 0 0 0 1.63 1.63h5.64a1.63 1.63 0 0 0 1.63-1.63v-2a2.21 2.21 0 0 1 2.2-2.2h1.4a1.5 1.5 0 0 1 1.5 1.5 1.5 1.5 0 0 1-1.5 1.5h-.6v1.2a4.63 4.63 0 0 1-4.63 4.66M297.66 317.06h70.43v31.53h-70.43z" style="fill:#263238"/><path d="M297.66 317.06h70.43v31.53h-70.43z" style="fill:#68cbed;opacity:.5"/><g style="opacity:.4"><path d="M361 345.34h-56.24v-.75a3.1 3.1 0 0 0-3.1-3.1h-.75v-17.32h.75a3.11 3.11 0 0 0 3.1-3.11v-.75H361v.75a3.11 3.11 0 0 0 3.11 3.11h.75v17.32h-.75a3.1 3.1 0 0 0-3.11 3.1Zm-54.78-1.5h53.34a4.62 4.62 0 0 1 3.8-3.79v-14.44a4.63 4.63 0 0 1-3.8-3.8H306.2a4.62 4.62 0 0 1-3.79 3.8v14.44a4.61 4.61 0 0 1 3.79 3.79Z" style="fill:#68cbed"/></g><path d="M335.69 333.82h-5.64a4.64 4.64 0 0 1-4.63-4.64v-1.26h-.6a1.5 1.5 0 0 1-1.5-1.5 1.5 1.5 0 0 1 1.5-1.5h1.41a2.19 2.19 0 0 1 2.19 2.19v2.07a1.64 1.64 0 0 0 1.63 1.64h5.64a1.64 1.64 0 0 0 1.63-1.64v-2.07a2.2 2.2 0 0 1 2.2-2.19h1.4a1.5 1.5 0 0 1 1.5 1.5 1.5 1.5 0 0 1-1.5 1.5h-.6v1.26a4.63 4.63 0 0 1-4.63 4.64" style="fill:#263238"/><path d="M381.44 195.58c10.13 0 19.79 8.21 21.58 18.34l3.34 19h-36.67l-3.35-19Z" style="fill:#031326"/><path d="M363.75 213.92a18.34 18.34 0 0 1 36.68 0v19h-36.68Z" style="fill:#031326"/><path d="M363.75 213.92a18.34 18.34 0 0 1 36.68 0v19h-36.68Z" style="fill:#68cbed;opacity:.4"/><circle cx="382.09" cy="213.92" r="14.33" style="fill:#263238" transform="rotate(-76.72 382.072 213.926)"/><circle cx="382.09" cy="213.92" r="14.33" style="fill:#031326" transform="rotate(-76.72 382.072 213.926)"/><path d="M382.09 201.86a14.32 14.32 0 0 1 14.27 13.19c0-.37.06-.75.06-1.13a14.33 14.33 0 0 0-28.66 0c0 .38 0 .76.06 1.13a14.32 14.32 0 0 1 14.27-13.19" style="opacity:.2"/><path d="M391.14 213.91h-7.53v-7.53a1.52 1.52 0 0 0-3 0v9.05a1.52 1.52 0 0 0 1.52 1.52h9.05a1.52 1.52 0 0 0 0-3Z" style="opacity:.1"/><path d="M391.14 215.44a1.52 1.52 0 0 0 0-3h-9.05a1.52 1.52 0 1 0 0 3Z" style="fill:#031326"/><path d="M391.14 215.44a1.52 1.52 0 0 0 0-3h-9.05a1.52 1.52 0 1 0 0 3Z" style="fill:#68cbed;opacity:.30000000000000004"/><path d="M383.61 204.87a1.52 1.52 0 0 0-3 0v9a1.52 1.52 0 0 0 3 0Z" style="fill:#031326"/><path d="M383.61 204.87a1.52 1.52 0 0 0-3 0v9a1.52 1.52 0 0 0 3 0Z" style="fill:#68cbed;opacity:.6000000000000001"/><path d="M161.58 355.68v-22.33c2.75 0 2.75-4.27 0-4.27-8.51 0-17-.06-25.54-.11v31h25.54c2.75.03 2.75-4.29 0-4.29" style="fill:#263238"/><path d="M161.58 355.68v-22.33c2.75 0 2.75-4.27 0-4.27-8.51 0-17-.06-25.54-.11v31h25.54c2.75.03 2.75-4.29 0-4.29" style="fill:#68cbed;opacity:.30000000000000004"/><path d="M141.74 333.35h19.84v22.29h-19.84z" style="fill:#031326"/><path d="M141.74 333.35h19.84v22.29h-19.84z" style="fill:#68cbed;opacity:.8"/><path d="M145.91 357.81H77.14c-4.73 0-8.56-5.95-8.56-13.3s3.83-13.3 8.56-13.3h68.77Z" style="fill:#031326"/><path d="M145.91 357.81H77.14c-4.73 0-8.56-5.95-8.56-13.3s3.83-13.3 8.56-13.3h68.77Z" style="fill:#68cbed;opacity:.9"/><path d="M145.91 329.08c-22.52 0-45.07-.41-67.58 0-15.42.28-16.25 29.83-1.12 30.87 10.54.72 21.38 0 32 0h36.75c2.75 0 2.75-4.27 0-4.27h-64c-4.94 0-8.47-.06-10.38-5.89-1.65-5-1.13-15.32 5.63-16.44a15 15 0 0 1 2.31 0h66.46c2.75 0 2.75-4.27 0-4.27Z" style="fill:#263238"/><path d="M157.07 325.92v-17.81a1.71 1.71 0 0 0 0-3.41c-6.78 0-13.58-.05-20.37-.09v24.72h20.37a1.71 1.71 0 0 0 0-3.41" style="fill:#031326"/><path d="M157.07 325.92v-17.81a1.71 1.71 0 0 0 0-3.41c-6.78 0-13.58-.05-20.37-.09v24.72h20.37a1.71 1.71 0 0 0 0-3.41" style="fill:#68cbed;opacity:.30000000000000004"/><path d="M141.25 308.11h15.83v17.79h-15.83z" style="fill:#031326"/><path d="M141.25 308.11h15.83v17.79h-15.83z" style="fill:#68cbed;opacity:.8"/><path d="M144.57 327.62H89.7c-3.77 0-6.83-4.75-6.83-10.61s3.06-10.61 6.83-10.61h54.87Z" style="fill:#031326"/><path d="M144.57 327.62H89.7c-3.77 0-6.83-4.75-6.83-10.61s3.06-10.61 6.83-10.61h54.87Z" style="fill:#68cbed;opacity:.9"/><path d="M144.57 304.7c-18 0-36-.33-53.92 0-12.3.22-13 23.8-.89 24.63 8.41.57 17.06 0 25.49 0h29.32a1.71 1.71 0 0 0 0-3.41H93.49c-3.94 0-6.76-.05-8.28-4.7-1.32-4-.9-12.23 4.49-13.11a11.4 11.4 0 0 1 1.85 0h53a1.71 1.71 0 0 0 0-3.41Z" style="fill:#031326"/><path d="M149.51 277a5.1 5.1 0 0 0-5.09-5h-30.37a5.11 5.11 0 0 0-5.09 5v.37a11 11 0 0 0-3.38-.56c-5 0-8.33 3.89-8.33 9.68 0 5.53 5.82 9.67 11 9.67a8 8 0 0 0 1.57-.16 21.2 21.2 0 0 0 6.4 9.57h26a21 21 0 0 0 7.45-16.07c0-2.02-.06-6.73-.16-12.5m-41.23 15.92c-3.53 0-7.79-2.87-7.79-6.43 0-1.51.37-6.44 5.09-6.44a8.35 8.35 0 0 1 3.32.76c-.06 4-.1 7.15-.1 8.69a20.6 20.6 0 0 0 .3 3.36 5.4 5.4 0 0 1-.82.05Z" style="fill:#031326"/><path d="M149.51 277a5.1 5.1 0 0 0-5.09-5h-30.37a5.11 5.11 0 0 0-5.09 5v.37a11 11 0 0 0-3.38-.56c-5 0-8.33 3.89-8.33 9.68 0 5.53 5.82 9.67 11 9.67a8 8 0 0 0 1.57-.16 21.2 21.2 0 0 0 6.4 9.57h26a21 21 0 0 0 7.45-16.07c0-2.02-.06-6.73-.16-12.5m-41.23 15.92c-3.53 0-7.79-2.87-7.79-6.43 0-1.51.37-6.44 5.09-6.44a8.35 8.35 0 0 1 3.32.76c-.06 4-.1 7.15-.1 8.69a20.6 20.6 0 0 0 .3 3.36 5.4 5.4 0 0 1-.82.05Z" style="opacity:.2"/><path d="m137.12 285.28-3.81-8.45-2.4 5.35a9.5 9.5 0 0 0-2.61 0l-2.41-5.35-3.81 8.45a7.15 7.15 0 0 0-1.89 4.77c0 4.39 4.22 7.95 9.41 7.95s9.41-3.56 9.41-7.95a7.15 7.15 0 0 0-1.89-4.77m-11.7 3.31c0-.65.38-1.17.86-1.17s.87.52.87 1.17-.39 1.18-.87 1.18-.86-.53-.86-1.18m5.51 4.58a2 2 0 0 1-1.33-.52 1.94 1.94 0 0 1-1.32.52 2 2 0 0 1-2-2h.83a1.14 1.14 0 0 0 2.12.6l.35-.57.36.57a1.14 1.14 0 0 0 2.11-.6h.84a2 2 0 0 1-1.96 2m2-3.4c-.48 0-.86-.53-.86-1.18s.38-1.17.86-1.17.87.52.87 1.17-.4 1.18-.88 1.18Z" style="fill:#68cbed;opacity:.9"/><path d="M342.89 190.79c4-12.37 11.53-30.57 23.93-41.78l-39.2-11.93c4.06 16.22.19 35.55-3.39 48-8.62 2.46-16.6 10.82-20.08 22.25-4.84 15.91 5.21 17.47 17.09 21.08s21.1 7.91 25.94-8c3.47-11.41 1.5-22.78-4.29-29.62" style="fill:#031326"/><path d="M342.89 190.79c4-12.37 11.53-30.57 23.93-41.78l-39.2-11.93c4.06 16.22.19 35.55-3.39 48-8.62 2.46-16.6 10.82-20.08 22.25-4.84 15.91 5.21 17.47 17.09 21.08s21.1 7.91 25.94-8c3.47-11.41 1.5-22.78-4.29-29.62" style="fill:#68cbed;opacity:.5"/><path d="M344.31 219.58c3.05-10 1.59-20.58-3.71-26.85l-1.08-1.27.51-1.59c3.68-11.43 13-30.34 23-42l-31.69-9.64c1.83 15.28-1 36.18-4.27 47.72l-.45 1.6-1.61.46c-7.9 2.25-15 10.19-18 20.24-1.38 4.55-1.48 7.83-.29 10 1.77 3.28 6.85 4.78 12.73 6.51 1.74.51 3.57 1.07 5.3 1.61 5.85 1.84 10.91 3.42 14.2 1.69 2.22-1.15 3.97-3.93 5.36-8.48" style="fill:#68cbed;opacity:.4"/><path d="m340.6 192.73-1.08-1.27.51-1.59a122 122 0 0 1 5.63-13.87c-1.93.77-5 1.5-7.7-.32-3.09-2.1-6.87-.34-8.65.73-.67 3.57-1.41 6.83-2.2 9.55l-.45 1.6-1.61.46c-7.9 2.25-15 10.19-18 20.24-1.38 4.55-1.48 7.83-.29 10 1.77 3.28 6.85 4.78 12.73 6.51 1.74.51 3.57 1.07 5.3 1.61 5.85 1.84 10.91 3.42 14.2 1.69 2.21-1.17 4-4 5.35-8.5 3.02-10.03 1.56-20.57-3.74-26.84" style="fill:#031326"/><path d="m340.6 192.73-1.08-1.27.51-1.59a122 122 0 0 1 5.63-13.87c-1.93.77-5 1.5-7.7-.32-3.09-2.1-6.87-.34-8.65.73-.67 3.57-1.41 6.83-2.2 9.55l-.45 1.6-1.61.46c-7.9 2.25-15 10.19-18 20.24-1.38 4.55-1.48 7.83-.29 10 1.77 3.28 6.85 4.78 12.73 6.51 1.74.51 3.57 1.07 5.3 1.61 5.85 1.84 10.91 3.42 14.2 1.69 2.21-1.17 4-4 5.35-8.5 3.02-10.03 1.56-20.57-3.74-26.84" style="fill:#68cbed;opacity:.30000000000000004"/><path d="M330.51 181.26a101.2 101.2 0 0 0 4.06-27.69c-.07-14.66 10.37 5.43-4.06 27.69M337.28 145.27c-.08.9-2.27 2.62-3.09-1.93s3.17 1.02 3.09 1.93" style="fill:#68cbed;opacity:.5"/><g style="opacity:.2"><path d="M312.12 215.2a1.68 1.68 0 0 0-2.36 2.34c1.36 1.71 4.05 3.58 9.19 5.14 13.55 4.12 19.13 6.5 23-2.24 3.62-8.25-11.64 8.99-29.83-5.24M309.59 211.64c-1.39-.65-1.64-2 .81-6.1s2.29 7.55-.81 6.1"/></g><path d="M325.16 215.34a349 349 0 0 1 13.15-36.61c9.54-23 21.11-46.25 38-64.86.52-.56-.29-1.45-.81-.88-16.47 18.17-27.87 40.63-37.34 63.07A350 350 0 0 0 324 215a.6.6 0 0 0 1.15.35Z" style="fill:#031326"/><g style="opacity:.30000000000000004"><path d="M325.16 215.34a349 349 0 0 1 13.15-36.61c9.54-23 21.11-46.25 38-64.86.52-.56-.29-1.45-.81-.88-16.47 18.17-27.87 40.63-37.34 63.07A350 350 0 0 0 324 215a.6.6 0 0 0 1.15.35Z" style="fill:#68cbed"/></g><path d="M376.13 111.51s-7.52-.55-4.67 3.28 6.5-1.33 6.5-1.33-1.18 7.3 3.11 8.09.31-8.45.31-8.45 5.49 6.55 7.73 3.23-7.48-6.63-7.48-6.63 9.54 1 7.14-2-10-.42-10-.42 2.89-6.09-1.88-7-1.08 7-1.08 7-5.58-5.7-7.84-3.43 8.16 7.66 8.16 7.66M355.62 141.82s5.85-7.94 4.54-21.41-4.54 21.41-4.54 21.41M362.3 131s8.42-8.63 13-4.08-7 .08-13 4.08" style="fill:#031326"/><path d="M380.52 111.91c-.58.55-1.91.07-3-1.07s-1.46-2.49-.88-3 1.91-.07 3 1.07 1.46 2.46.88 3" style="fill:#68cbed;opacity:.6000000000000001"/><path d="M328.23 207.49a350 350 0 0 0 9.47-37.73c4.89-24.44 8.22-50.17 4.57-75-.11-.76 1.05-1 1.16-.28 3.57 24.26.52 49.27-4.1 73.18a349 349 0 0 1-10 40.19.6.6 0 0 1-1.14-.35Z" style="fill:#031326"/><g style="opacity:.30000000000000004"><path d="M328.23 207.49a350 350 0 0 0 9.47-37.73c4.89-24.44 8.22-50.17 4.57-75-.11-.76 1.05-1 1.16-.28 3.57 24.26.52 49.27-4.1 73.18a349 349 0 0 1-10 40.19.6.6 0 0 1-1.14-.35Z" style="fill:#68cbed"/></g><path d="M343.71 92.87s6.55 3.73 2.06 5.33-4.66-4.73-4.66-4.73-3.09 6.72-7.09 5 4.45-7.18 4.45-7.18-8.22 2.38-8.22-1.63 9.9-1.34 9.9-1.34-8.47-4.49-4.81-5.64 8.52 5.2 8.52 5.2 1-6.67 5.46-4.78-3 6.4-3 6.4 7.81-1.63 8.42 1.52-11.03 1.85-11.03 1.85" style="fill:#031326"/><path d="M343.71 92.87s6.55 3.73 2.06 5.33-4.66-4.73-4.66-4.73-3.09 6.72-7.09 5 4.45-7.18 4.45-7.18-8.22 2.38-8.22-1.63 9.9-1.34 9.9-1.34-8.47-4.49-4.81-5.64 8.52 5.2 8.52 5.2 1-6.67 5.46-4.78-3 6.4-3 6.4 7.81-1.63 8.42 1.52-11.03 1.85-11.03 1.85" style="fill:#68cbed;opacity:.5"/><path d="M343.86 129.47s-.43-9.86 8.15-20.31-8.15 20.31-8.15 20.31M344.33 116.78s-2.19-11.85-8.56-10.65 5.85 3.92 8.56 10.65M339.84 90.76c.18.78 1.55 1.12 3.07.77s2.59-1.27 2.41-2-1.55-1.12-3.06-.76-2.6 1.23-2.42 1.99M374.88 145.89a.75.75 0 0 1 1.43-.4 8.19 8.19 0 0 1-.43 7.51 45 45 0 0 1-3.48 5.38.52.52 0 0 1-.87-.56c1.94-3.58 3.68-7.99 3.35-11.93M370.74 165.65a42.7 42.7 0 0 0 8-8.08.69.69 0 0 1 1.22.61c-.88 2.71-3.07 6.34-8.45 8.76a.77.77 0 0 1-.77-1.29M243.37 216.75s5.5 1.8 12.22-4.6 20.16-20.76 25.66-22.9 10.7-9.47 15.28-11.3 3.73.92 3.73.92 5.76-2.22 4.82 2.14c0 0 2.95 1.22.1 3.66s-12.62 10.08-16 10.69c0 0-12.84 16.5-19.56 24.45s-12.31 9.45-12.26 26.87-13.99-29.93-13.99-29.93" style="fill:#031326"/><path d="M248.36 216.53a9.4 9.4 0 0 1-5 .22s14.05 47.35 14 29.93c0-13.34 3.24-17.35 7.79-22.07-8.07 6.06-14.78-4.43-16.79-8.08" style="opacity:.2"/><path d="M305.08 181c.94-4.36-4.82-2.14-4.82-2.14s.85-2.75-3.73-.92-9.78 9.17-15.28 11.3a21 21 0 0 0-4.72 3.06c.54 3.74 2.53 8.53 9.29 7.38l3.38-4.33c3.36-.61 13.13-8.24 16-10.69s-.12-3.66-.12-3.66" style="fill:#68cbed;opacity:.4"/><path d="M305.19 182s2-1.17 2.92-.17a3.82 3.82 0 0 0-2.52 1.26ZM302.7 179a3.84 3.84 0 0 1 4.64-1.51 3.48 3.48 0 0 0-3.18 2.81ZM298.28 177.91s1.21-3 3.53-2.26a3 3 0 0 0-2.15 2.81Z" style="fill:#031326"/><g style="opacity:.6000000000000001"><path d="M305.19 182s2-1.17 2.92-.17a3.82 3.82 0 0 0-2.52 1.26ZM302.7 179a3.84 3.84 0 0 1 4.64-1.51 3.48 3.48 0 0 0-3.18 2.81ZM298.28 177.91s1.21-3 3.53-2.26a3 3 0 0 0-2.15 2.81Z" style="fill:#68cbed"/></g><path d="M301.81 181.84s-4 .42-5.86 3c.05 0 .38-4.67 5.86-3" style="opacity:.2"/><path d="M191.78 320.4s1.51 23.52-19.74 24.77-37.67 7.5-40-13.75c-2.68-24.41-13.5-10.13-11.25 5.94s10.5 21.31 31 22.06 42.6-3 44.42-16.63Z" style="fill:#031326"/><path d="M131.64 328.49c-2.73-17.25-10.27-9.79-11.08 2.32a13.93 13.93 0 0 1 11.08-2.32M132.1 331.86c-3.21.26-8.06 1.3-11.37 5 0 .18 0 .35.06.52a40 40 0 0 0 1.24 5.89c1.59-2.83 4.75-6.12 11-6.82a28.5 28.5 0 0 1-.93-4.59" style="fill:#68cbed;opacity:.30000000000000004"/><g style="opacity:.30000000000000004"><path d="M140.41 345.56a11.76 11.76 0 0 1-4.34-3.1c-2.83 1.93-6.72 5.71-6.45 11.79a23.5 23.5 0 0 0 5.71 2.75 16.58 16.58 0 0 1 5.08-11.44M155.5 359.51c-.7-2.94-1.57-8.12-.56-12.78-2.22.18-4.32.28-6.28.25a20.7 20.7 0 0 0-1 12.21c1.33.1 2.7.18 4.14.23 1.2.05 2.46.08 3.7.09M184.91 340a17.8 17.8 0 0 1-5.92 3.72c1.54 3.17 4 6.72 7.4 6.62 4.82-.1.61-5.4-1.48-10.34M168.64 356.52c3.16-.1 2.13-6.54 1.67-11.23-2.29.16-4.51.37-6.67.59.48 3.9 1.78 10.74 5 10.64" style="fill:#68cbed"/></g><path d="M187.22 354c5-2.61 8.33-6.25 9-11.2l-4.43-22.39a31.6 31.6 0 0 1-2.46 13.26 48.3 48.3 0 0 0 1.73 11.54c1.12 3.96-1.18 6.85-3.84 8.79" style="opacity:.1"/><path d="M208.09 291.66s27-9 39.33 4.34-7.72 49.71 1.32 51.16 35.65-4.79 39.63 1a16 16 0 0 1 2.33 5 4.72 4.72 0 0 1-4.61 5.85H232s-3.26 0-1.09-4.34c-.04 0-47.41-13.47-22.82-63.01" style="fill:#031326"/><path d="M208.09 291.66s27-9 39.33 4.34-7.72 49.71 1.32 51.16 35.65-4.79 39.63 1a16 16 0 0 1 2.33 5 4.72 4.72 0 0 1-4.61 5.85H232s-3.26 0-1.09-4.34c-.04 0-47.41-13.47-22.82-63.01" style="opacity:.2"/><path d="M220.7 190s1.67-10.17 3.5-11.17 2 8.17 3.36 9.5Z" style="fill:#031326"/><path d="M220.7 190s1.67-10.17 3.5-11.17 2 8.17 3.36 9.5Z" style="opacity:.2"/><path d="M243.64 190.79a2.4 2.4 0 0 1-.17-1.16c.14-1.16 1.27-1.66 2.28-1.92.37-.09.21-.67-.16-.58a3.24 3.24 0 0 0-2.69 2.24 2.9 2.9 0 0 0 .22 1.72c.17.35.68 0 .52-.3M245.18 192.52c.43-1.91 2.71-2.41 4.36-2.33.38 0 .38-.58 0-.6-1.92-.09-4.45.6-4.94 2.77-.08.38.5.54.58.16M246.22 193.91c.65-1.09 2.32-.68 3.24-.31.36.14.51-.44.16-.58-1.21-.48-3.11-.75-3.92.58a.3.3 0 0 0 .52.31" style="fill:#031326"/><g style="opacity:.5"><path d="M243.64 190.79a2.4 2.4 0 0 1-.17-1.16c.14-1.16 1.27-1.66 2.28-1.92.37-.09.21-.67-.16-.58a3.24 3.24 0 0 0-2.69 2.24 2.9 2.9 0 0 0 .22 1.72c.17.35.68 0 .52-.3M245.18 192.52c.43-1.91 2.71-2.41 4.36-2.33.38 0 .38-.58 0-.6-1.92-.09-4.45.6-4.94 2.77-.08.38.5.54.58.16M246.22 193.91c.65-1.09 2.32-.68 3.24-.31.36.14.51-.44.16-.58-1.21-.48-3.11-.75-3.92.58a.3.3 0 0 0 .52.31" style="fill:#68cbed"/></g><path d="M244.35 208.65c-3.37 5 4 9 10.88 25.39s-2.87 39.65-3.68 67.65-13.16 32.22-13.16 32.22l-12.69 22.43s-31.33 3.33-34.33-19 5-44 11-60.33 17.67-29.34 14-39a91 91 0 0 1-4.67-21s-7-5.34-8.33-16.34c0 0-5.67-14-3-17s14 9 14 9 9.7-6.33 13.19-6 7.81 6.34 14.81 3.34c0-.01 10.3 6.29 1.98 18.64" style="fill:#031326"/><path d="M251.55 301.69c.81-28 10.59-51.28 3.68-67.65s-14.23-20.38-10.88-25.39c8.32-12.35-2-18.64-2-18.64-.41.17-.81.31-1.2.43-1.25.85-2.35 1.89-2.26 2.9.18 2.28 1.45 4.22-2.69 9.71-5.62 7.45 2.37 19.22 8.43 27.08s8.43 6.25 9 19.74c.69 15.67-10.42 34.82-14 47.25-3 10.49-7.42 30.94-5.32 43.83l4-7s12.43-4.26 13.24-32.26" style="fill:#68cbed;opacity:.2"/><path d="M242.37 191.05s-2.27.56-1.71 1.37 5.34 2 1.71-1.37" style="fill:#263238;opacity:.6000000000000001"/><path d="m208.54 198.67 4.25-4s-8.63-11-11.25-9.5 5.62 3.13 7 13.5" style="opacity:.2"/><path d="M226.78 191.09c.29-1-2.27-2.62-4.18-.37s3.89 1.38 4.18.37M229.51 189.47c-.54.3-2-1.34-1.06-2.26s1.61 1.95 1.06 2.26" style="fill:#68cbed;opacity:.2"/><g style="opacity:.6000000000000001"><path d="M237.58 197c-2.78-.33-5.37 1.54-6.93 3.64-.23.32.29.61.52.31 1.44-1.95 3.85-3.66 6.41-3.35.38 0 .38-.56 0-.6M237.92 198.72c-3.12.9-4.86 4.27-5.38 7.22-.07.37.51.54.58.16.48-2.74 2-6 4.95-6.8a.3.3 0 0 0-.15-.58M239.62 199.89a8.3 8.3 0 0 0-1.92 6.11c0 .38.61.38.6 0a7.78 7.78 0 0 1 1.74-5.71c.27-.27-.15-.7-.42-.42Z" style="fill:#68cbed"/></g><path d="M210.54 305.19 208 310l3.83 5.16 11.5 8.67s6.95 8.06 13.65 12.49l1.37-2.42s6-2.05 9.89-12.73c-6-23.17-37.7-15.98-37.7-15.98" style="opacity:.2"/><path d="M255.46 268.77 237.54 260l-6.67-7.34-1 5s-.14 23.64 15 26c3.5.56 6.13-.25 8.36-.6.7-4.96 1.5-9.73 2.23-14.29" style="opacity:.1"/><g style="opacity:.30000000000000004"><path d="M212.85 224.9c7.92-.22 20.11-9.45 11.35-7.89a48.4 48.4 0 0 1-12.43.64c.12 1.18.45 3.87 1.08 7.25M227.24 235.63a29.2 29.2 0 0 1-11.48.68c.19.57.4 1.14.61 1.7a13 13 0 0 1 .29 7.47c9.93-1.39 18.44-11.85 10.58-9.85M216.64 290.67c-9.06.71-14.61-2.87-17.3-5.3-1.06 3-2.12 6.2-3.12 9.47 18.59 5.16 33.09-5.15 20.42-4.17M224.2 264.63a23.87 23.87 0 0 1-13.9-4.4c-1.51 2.86-3.11 5.87-4.61 9 13.72 5.68 28.55-4.38 18.51-4.6" style="fill:#68cbed"/></g><path d="M231.26 193.41c.47.9.36 1.89-.27 2.17s-1.42-.17-1.89-1.09-.35-1.9.28-2.18 1.42.17 1.88 1.1M226.05 195.58a.55.55 0 0 0 .39-.39 5.06 5.06 0 0 1 3-3.26.6.6 0 0 0 .28-.81.62.62 0 0 0-.62-.33 6.14 6.14 0 0 0-3.78 4 .58.58 0 0 0 .37.75.5.5 0 0 0 .36.04" style="fill:#263238"/><path d="M257.11 257.27c-2.61-3.52-5.28-18-5.28-18l-1.2-2.66-2.75 5.75 2.25 14.64 6.21 6.09c.29-1.98.56-3.92.77-5.82" style="opacity:.2"/><path d="M237.29 235.68s10-8 13.67 0 .9 28.07 11.62 29.07 25.27 5.25 25.27 5.25 14 2.89 10.77 7.36c0 0 4.44 4.86-.24 6.65 0 0-1.13 4.67-7.12.61 0 0-1 4.05-9.57-3.11 0 0-12.77-6.28-32-1.38s-26.76-33.7-12.4-44.45" style="fill:#031326"/><path d="M298.62 277.32c3.27-4.47-10.77-7.36-10.77-7.36a193 193 0 0 0-19.32-4.42c-2.09.49-4.43 1.49-5.29 3.56-1.42 3.46 3.77 6.73 4.54 9.24 8.73.59 13.91 3.13 13.91 3.13 8.56 7.16 9.57 3.11 9.57 3.11 6 4.06 7.12-.61 7.12-.61 4.68-1.79.24-6.65.24-6.65" style="fill:#68cbed;opacity:.4"/><g style="opacity:.2"><path d="M292 279.68s4.12 1 5.38 3.32c-.04 0-.27-4.27-5.38-3.32M290.85 275.72s4.27-.66 6.49 1.11c0 0-2.69-3.96-6.49-1.11"/></g><path d="M199.59 307.66s26-9 38.33 4.34-.72 34.71 8.32 36.16 29.65-5.79 33.63 0a16 16 0 0 1 2.33 5 4.72 4.72 0 0 1-4.61 5.85h-54.13s-3.26 0-1.09-4.34c0 0-47.37 2.53-22.78-47.01" style="fill:#031326"/><path d="M219.5 314.88c-12.89 0-18.11-2.64-21.75-3.32a14.7 14.7 0 0 1-5.18-2.29 104 104 0 0 0-1.52 10.73c3.68 1.4 3.43.26 3.43.26 9.84 4.09 37.91-5.38 25.02-5.38" style="fill:#68cbed;opacity:.30000000000000004"/><path d="M220.43 350.37c-5.5-.28-19.42.53-26.17-9.18 6.39 14.63 28.11 13.48 28.11 13.48s3.56-4.01-1.94-4.3" style="opacity:.1"/></svg>