<svg xmlns="http://www.w3.org/2000/svg" width="512" height="512"><path fill="#68CBED" d="M32.227 16.606q2.027-.007 4.055-.019c3.705-.016 7.41-.014 11.114-.008 4 .002 7.999-.012 11.998-.025 7.832-.02 15.664-.025 23.495-.023a13925 13925 0 0 0 24.606-.017l2.767-.003c17.269-.019 34.537-.018 51.806-.01 15.79.005 31.581-.016 47.372-.05q24.33-.05 48.661-.043c9.104.002 18.208-.003 27.311-.028a4515 4515 0 0 1 23.253-.006c3.953.01 7.905.01 11.858-.01q5.434-.028 10.868.008a434 434 0 0 0 5.766-.031c9.22.094 16.585 2.113 23.218 8.784 6.113 8.01 7.211 17.187 7.08 26.956v3.492c-.002 3.772-.033 7.542-.064 11.314q-.012 3.945-.018 7.89c-.012 6.19-.045 12.38-.085 18.57-.045 7.055-.067 14.11-.087 21.164-.041 14.496-.112 28.993-.201 43.489l2.196.073q5.028.172 10.054.353l3.453.114C422.13 159.975 470.431 169.101 499 199c8.347 10.029 13.15 19.226 13.147 32.303l.011 2.561q.015 4.255.019 8.51l.02 6.095c.021 6.678.031 13.357.041 20.035l.013 6.901q.029 16.215.041 32.429.015 18.703.077 37.407.044 14.464.048 28.928c.002 5.756.011 11.513.036 17.27q.034 8.13.018 16.258 0 2.976.02 5.951c.12 18.48-3.607 30.225-16.553 43.915-6.055 5.856-12.623 10.296-19.938 14.437l-1.847 1.05c-35.499 19.795-76.597 22.424-116.327 22.371-4.54-.002-9.079.012-13.619.025-8.855.02-17.71.025-26.566.023a17845 17845 0 0 0-27.842.017l-3.142.003c-19.538.019-39.075.018-58.612.01-17.862-.005-35.724.016-53.586.05q-27.573.05-55.145.043c-10.304-.002-20.608.003-30.912.028q-13.14.033-26.277.006c-4.465-.01-8.93-.01-13.395.01q-6.135.028-12.27-.008-2.215-.006-4.428.013c-9.577.083-17.64-.67-24.936-7.396-7.11-7.508-7.54-15.075-7.516-24.998l-.026-3.856c-.022-3.475-.025-6.95-.023-10.426q-.002-4.365-.017-8.73-.027-10.305-.015-20.61c.007-7.067-.016-14.134-.053-21.2q-.045-9.129-.038-18.256c.002-3.627-.004-7.253-.028-10.88-.027-4.05-.013-8.098.005-12.148l-.04-3.598c.069-6.886 1.034-11.488 4.778-17.33 1.154-2.25 1.154-2.25.123-4.805a614 614 0 0 0-2.845-5.423c-2.275-5.334-1.835-11.038-1.82-16.738-.01-1.273-.018-2.545-.027-3.856-.022-3.475-.025-6.95-.023-10.426q-.002-4.365-.017-8.73-.027-10.305-.015-20.61c.007-7.067-.016-14.134-.053-21.2q-.045-9.129-.038-18.256c.002-3.627-.004-7.253-.028-10.88-.027-4.05-.013-8.098.005-12.148l-.04-3.598c.069-6.886 1.034-11.488 4.778-17.33 1.154-2.25 1.154-2.25.123-4.805a614 614 0 0 0-2.845-5.423c-2.275-5.334-1.835-11.038-1.82-16.738-.01-1.273-.018-2.545-.027-3.856-.022-3.475-.025-6.95-.023-10.426q-.002-4.365-.017-8.73-.027-10.305-.015-20.61c.007-7.067-.016-14.134-.053-21.2Q-.6 81.295-.592 72.168c.002-3.627-.004-7.253-.028-10.88-.027-4.05-.013-8.098.005-12.148l-.04-3.598c.083-8.297 1.664-15.197 7.41-21.455 7.673-7.228 15.355-7.526 25.472-7.482M18 38c-2.745 5.401-2.289 11.299-2.275 17.219l-.015 3.397c-.014 3.7-.013 7.399-.01 11.099l-.014 7.726q-.01 8.094-.002 16.188a4254 4254 0 0 1-.027 18.677c-.02 6.003-.023 12.007-.02 18.01q0 3.822-.015 7.645c-.013 3.564-.006 7.127.006 10.691l-.023 3.182c.041 5.835.568 10.022 3.395 15.166 3.715 3.596 7.498 4.122 12.52 4.137l2.748.015 3.007.002 3.204.013c3.555.014 7.11.02 10.664.026l7.634.025q11.47.034 22.94.052l6.488.011a42332 42332 0 0 0 52.02.071c12.51.013 25.02.046 37.531.088q19.294.063 38.59.071c7.214.004 14.428.015 21.643.048q10.195.045 20.39.025 3.728 0 7.453.025c12.482.084 23.816-.15 35.655-4.388 5.704-1.983 11.572-2.91 17.513-3.908l3.383-.604c6.503-1.13 13.01-2.027 19.566-2.779l2.359-.273q2.846-.33 5.692-.657.106-22.753.155-45.506c.016-7.043.037-14.086.071-21.129.033-6.795.05-13.59.059-20.385q.008-3.893.032-7.783c.022-3.63.025-7.26.024-10.89l.032-3.26c.058-7.059.058-7.059-3.373-13.047-3.175-2.877-5.223-3.376-9.476-3.38l-3.392-.026c-1.845.01-1.845.01-3.728.018l-3.96-.016c-3.63-.014-7.259-.01-10.889-.003-3.913.005-7.827-.008-11.74-.018a7857 7857 0 0 0-23.004-.013q-9.348.006-18.694-.002l-2.685-.003-5.4-.004c-16.89-.014-33.778-.009-50.667.003-15.458.01-30.916-.003-46.374-.027q-23.796-.037-47.593-.027-13.365.007-26.729-.017a5367 5367 0 0 0-22.754.002c-3.87.009-7.742.011-11.613-.004-4.193-.017-8.386-.002-12.58.016l-3.72-.03C24.101 33.385 24.101 33.385 18 38m233 173-1.812 1.777c-4.992 5.304-7.74 11.57-8.625 18.786 1.504 11.82 7.885 19.868 16.812 27.468C278.478 274.858 305.349 282.043 331 286l2.306.36c45.084 6.623 103.63 2.815 141.819-24.485A344 344 0 0 0 480 258l1.977-1.45c7.343-5.644 12.642-14.01 13.933-23.218.334-8.664-4.325-15.855-9.59-22.43C459.448 181.896 411.04 176.512 374 175c-41.119-.973-92.469 5.524-123 36M18.125 191.938c-1.954 3.582-2.251 6.86-2.265 10.9l-.018 2.943-.003 3.21-.015 3.397q-.021 5.565-.027 11.132l-.017 7.734q-.015 7.076-.019 14.15a5883 5883 0 0 1-.05 20.795c-.025 6.013-.033 12.026-.035 18.04q-.004 3.83-.024 7.66c-.017 3.574-.015 7.148-.008 10.721l-.028 3.192c.036 6.445.283 11.966 4.985 16.851 3.431 1.912 6.686 1.741 10.51 1.698l2.498.008c2.766.004 5.53-.012 8.296-.028h5.943c5.382.002 10.763-.016 16.145-.037 5.623-.019 11.246-.02 16.869-.024 10.65-.01 21.299-.034 31.948-.064 12.123-.033 24.246-.05 36.37-.065 24.94-.031 49.88-.086 74.82-.151v-60l-22.645-.113q-7.088-.045-14.177-.096c-7.506-.054-15.012-.105-22.518-.137a4482 4482 0 0 1-18.148-.117 1527 1527 0 0 0-6.934-.035c-3.23-.01-6.46-.037-9.69-.07l-2.915.005-2.664-.038-2.316-.014c-2.537-.49-3.41-1.38-4.993-3.385-1.05-3.072-1.113-4.618-.187-7.75C118 250 118 250 120 249a64 64 0 0 1 4.189-.158l2.66-.03 2.925-.017 3.075-.03q5.047-.046 10.096-.081l6.987-.063q9.207-.083 18.416-.153 9.39-.077 18.78-.161 18.437-.162 36.872-.307l.066-1.905c.104-2.883.218-5.764.332-8.646l.104-2.997c.637-15.48 6.09-27.876 17.432-38.663 2.753-2.384 5.622-4.56 8.597-6.66L252 188v-1a66433 66433 0 0 0-95.746-.165l-2.033-.002c-10.863-.013-21.725-.037-32.587-.064a17138 17138 0 0 0-33.443-.051q-9.39-.004-18.782-.035-8.838-.03-17.677-.022-3.244-.001-6.488-.019c-2.954-.015-5.907-.011-8.86-.003l-2.591-.026c-6.007.045-11.292.803-15.668 5.325M241 267q-.141 12.257-.207 24.516-.03 5.692-.095 11.386c-.044 3.67-.067 7.34-.078 11.01a403 403 0 0 1-.043 4.178c-.185 12.32 2.001 21.017 10.048 30.469 27.796 28.573 76.499 34.956 114.264 35.608 40.9.345 89.841-6.19 120.861-35.604 9.882-10.296 10.556-21.002 10.445-34.786l-.008-4.064q-.014-5.304-.05-10.608c-.02-3.62-.03-7.24-.04-10.86A7191 7191 0 0 0 496 267l-1.658 1.248-2.178 1.637-2.158 1.623c-34.285 25.493-79.273 32.74-121.006 32.68l-2.333-.002c-12.321-.026-24.454-.439-36.667-2.186l-2.711-.375c-28.98-4.134-62.129-12.563-83.969-33.41-1.144-1.328-1.144-1.328-2.32-1.215M18.75 344.813c-2.903 3.628-2.874 7.625-2.89 12.145l-.018 2.948-.003 3.199-.015 3.397q-.021 5.558-.027 11.115l-.017 7.73q-.015 7.069-.019 14.136-.007 10.384-.05 20.77a4807 4807 0 0 0-.035 18.024q-.004 3.827-.024 7.653c-.017 3.569-.015 7.137-.008 10.706l-.028 3.187c.037 6.48.363 11.792 4.869 16.84 4.015 2.134 8.01 1.738 12.487 1.698l3.104.008c3.443.004 6.885-.012 10.327-.028h7.391q7.965.002 15.928-.024a8578 8578 0 0 1 23.029-.036q18.681-.01 37.362-.055 18.148-.041 36.295-.061l2.26-.003 11.223-.011q46.555-.048 93.109-.151c-2.696-1.797-5.444-3.332-8.293-4.867-17.118-9.314-31.727-20.275-38.484-39.324-1.007-3.64-1.406-7.307-1.766-11.051l-.262-2.707L224 418l-3.928-.018q-18.299-.086-36.596-.218c-6.272-.044-12.544-.084-18.816-.11a4482 4482 0 0 1-18.148-.117 1527 1527 0 0 0-6.934-.035c-3.23-.01-6.46-.037-9.69-.07l-2.915.005-2.664-.038-2.316-.014c-2.537-.49-3.41-1.38-4.993-3.385-1.01-2.954-1.084-4.638-.375-7.687 1.835-3.086 2.92-3.315 6.375-4.313 3.28-.303 6.547-.311 9.84-.319l2.987-.03c3.251-.031 6.503-.048 9.755-.065q3.386-.028 6.772-.059c5.936-.051 11.873-.09 17.81-.128 7.124-.047 14.25-.109 21.375-.168 10.82-.088 21.64-.158 32.461-.231v-60q-38.595-.07-77.189-.104-17.92-.014-35.84-.047-15.615-.03-31.232-.037-8.271-.003-16.542-.023-7.782-.02-15.564-.015-2.858 0-5.717-.012c-2.6-.01-5.198-.008-7.798-.003l-2.29-.017c-5.297.03-8.935.733-13.078 4.07M241 363q-.141 12.062-.207 24.124-.03 5.603-.095 11.205a1168 1168 0 0 0-.078 10.835 390 390 0 0 1-.043 4.111c-.197 12.932 2.136 21.12 11.15 30.483L254 446l1.648 1.68c15.71 14.753 39.89 21.73 60.415 26.07l2.822.602c16.229 3.262 32.166 4.022 48.678 3.96l3.075-.005c14.97-.045 29.632-.383 44.362-3.307l2.673-.52C443.82 469.215 474.867 459.947 491 437c3.82-6.846 5.13-13.261 5.114-21.097v-3.578l-.016-3.817-.005-3.943a4873 4873 0 0 0-.024-10.327q-.014-5.28-.02-10.558-.016-10.34-.049-20.68a97 97 0 0 0-9.875 6.688C455.63 391.84 414.965 398.986 378 400l-2.264.066c-37.277.93-76.128-4.244-109.736-21.066l-3.125-1.523c-6.324-3.252-11.843-7.275-17.441-11.622-2.274-1.853-2.274-1.853-4.434-2.855"/><path fill="#38EAFA" d="m127.35 93.853 2.324-.011q3.873-.015 7.747-.019l5.538-.02q7.538-.025 15.075-.036 4.705-.007 9.41-.018 14.712-.029 29.422-.041 17.002-.015 34.003-.077 13.129-.044 26.258-.048c5.231-.002 10.463-.011 15.694-.036q7.38-.035 14.76-.018 2.71 0 5.423-.02a591 591 0 0 1 7.391.003l2.177-.033c3.393.044 5.133.291 7.845 2.403 1.9 2.542 2.507 3.936 2.583 7.118-1.192 3.377-1.938 5.428-5.15 7.16-3.479 1.025-6.728 1.12-10.32 1.1l-2.253.012c-2.485.01-4.97.007-7.456.003q-2.677.007-5.353.015c-4.843.014-9.686.014-14.528.012q-6.066 0-12.13.008-14.31.016-28.616.006c-9.84-.006-19.68.006-29.52.027q-12.675.026-25.349.02c-5.046-.001-10.092.001-15.138.015q-7.118.019-14.235-.002-2.61-.004-5.222.009c-2.378.01-4.755.002-7.133-.01l-2.082.022c-4.54-.051-7.691-.943-11.515-3.397-1.562-3.313-1.562-3.313-2-7 2.641-7.13 5.36-7.149 12.35-7.147"/><path fill="#D4FAFE" d="M89.254 389.676C94.85 393.92 98.403 399.149 100 406c.755 6.69-.6 12.158-4 18-4.656 5.38-9.34 8.468-16.465 9.281-7.18.403-12.695-1.013-18.535-5.281-6.418-6.705-7.368-12.335-7.273-21.48.509-6.554 2.889-10.484 7.648-14.895 7.772-6.022 19.276-7.046 27.879-1.95m-17.067 15.449c-1.739 2.747-1.585 4.693-1.187 7.875 1.063 1.98 1.063 1.98 3 3 2.457.667 2.457.667 5 0 2.504-2.088 2.504-2.088 4-5 .096-2.688.096-2.688-1-5-3.516-2.344-6.053-3.209-9.812-.875M86.813 80.563c5.848 2.982 9.513 7.369 12.062 13.374 2.28 7.114 1.454 12.915-1.477 19.66-2.917 5.012-7.104 8.23-12.21 10.84-8.092 1.428-14.658 1.262-21.954-2.804-4.47-3.267-7.49-7.4-9.234-12.633-1.22-15.747-1.22-15.747 4-22 8.243-7.675 17.979-10.709 28.813-6.437M72.187 97.125C70.449 99.872 70.603 101.818 71 105c.917 2.083.917 2.083 3 3 3.578 0 3.578 0 7-1 2.277-2.748 2.277-2.748 1.813-5.5-.888-2.731-1.442-3.891-3.813-5.5-2.855-.428-4.345-.407-6.812 1.125M85.75 234.125c6.93 3.998 10.93 7.65 13.59 15.367 1.963 7.458.54 13.843-3.34 20.508-4.656 5.38-9.34 8.468-16.465 9.281-7.18.403-12.695-1.013-18.535-5.281-6.416-6.703-7.373-12.336-7.27-21.48.44-5.736 1.93-9.34 6.141-13.262 7.992-6.315 15.99-8.1 25.879-5.133m-13.562 17c-1.74 2.747-1.586 4.693-1.188 7.875.917 2.083.917 2.083 3 3 3.578 0 3.578 0 7-1 2.32-2.826 2.32-2.826 1.813-6.062-.55-3.235-.55-3.235-3.813-4.938-2.83-.354-4.368-.392-6.812 1.125"/></svg>