<svg xmlns="http://www.w3.org/2000/svg" width="512" height="512"><path fill="#68CBED" d="M118.177 17.74c1.226-.005 2.45-.008 3.713-.012q5.085-.012 10.168-.004c3.66.002 7.32-.007 10.98-.014q10.747-.018 21.496-.012 8.736.002 17.473-.005l2.513-.001 5.055-.004q23.694-.014 47.388-.003c14.447.006 28.893-.006 43.34-.025q22.26-.03 44.52-.024 12.492.005 24.986-.014 10.635-.019 21.27-.002 5.425.011 10.849-.005c3.923-.012 7.845-.002 11.768.01l3.452-.022c8.002.055 14.798 1.07 21.102 6.46l1.89 1.535c5.845 7.55 6.423 15.739 6.25 24.972-.005 1.163-.01 2.325-.017 3.522-.022 3.678-.072 7.355-.123 11.033q-.03 3.762-.055 7.523A2753 2753 0 0 1 426 91l3.849-.048c4.763-.054 9.527-.089 14.29-.117q3.08-.022 6.157-.061c17.29-.215 31.448.218 44.993 12.261 7.461 7.699 11.82 17.894 11.845 28.651l.014 2.782v3.03l.01 3.24q.015 5.383.019 10.766l.02 7.712c.02 7.72.03 15.439.039 23.158q.007 5.46.015 10.918a45027 45027 0 0 1 .046 48.101c.008 12.63.033 25.26.066 37.89q.049 19.47.054 38.942c.002 7.282.01 14.564.036 21.847.025 6.855.028 13.71.018 20.565q0 3.765.02 7.53c.09 17.457-.079 32.427-12.456 45.985-8.62 8.371-19.113 11.977-30.976 11.968l-2.08.003q-3.438 0-6.877-.01l-4.938.001q-6.697-.001-13.393-.013c-4.667-.006-9.334-.006-14.002-.008q-13.254-.004-26.508-.021-15.09-.016-30.181-.022-31.04-.016-62.08-.05l-.615 2.259-.81 2.98-.803 2.946c-.47 1.713-.946 3.424-1.436 5.132-3.79 13.533-1.741 29.289 4.664 41.683l2.34.028c3.49.054 6.981.138 10.473.222l3.681.043 3.526.098 3.253.063c2.727.546 2.727.546 4.609 2.389 1.593 3.072 1.108 4.905.118 8.157-3.488 2.325-4.84 2.251-8.96 2.254l-3.772.017-4.147-.012q-2.18.003-4.361.01c-3.95.01-7.9.006-11.85 0-4.131-.005-8.262 0-12.393.002q-10.406.005-20.81-.01-12.038-.015-24.075.003-10.327.014-20.655.006-6.17-.007-12.343.003-5.801.007-11.602-.01a859 859 0 0 0-4.263.002c-1.937.006-3.873-.002-5.81-.011l-3.287-.002C182 494 182 494 179 492c-.99-3.252-1.475-5.085.118-8.157 2.598-2.544 4.266-2.382 7.862-2.452l3.526-.098 3.682-.043 3.716-.09q4.547-.105 9.096-.16.964-2.37 1.922-4.742l1.08-2.668c5.536-14.379 3.33-28.306-1.002-42.59q-.52-2.496-1-5l-2.572.011q-31.038.134-62.077.196c-10.007.02-20.013.049-30.02.095q-13.09.06-26.18.074c-4.616.006-9.232.018-13.849.047q-6.53.039-13.063.03-2.383 0-4.768.024c-14.705.136-27.469-2.259-38.623-12.442C9.317 406.28 4.89 396.18 4.866 385.314l-.014-2.782v-3.03l-.01-3.24q-.015-5.383-.019-10.766l-.02-7.712c-.02-7.72-.03-15.439-.039-23.158q-.007-5.46-.015-10.918a45027 45027 0 0 1-.044-45.737l-.002-2.364c-.008-12.63-.033-25.26-.066-37.89q-.049-19.47-.054-38.942c-.002-7.282-.01-14.564-.036-21.847-.025-6.855-.028-13.71-.018-20.565q0-3.765-.02-7.53c-.088-17.139-.119-32.537 12.304-45.763 10.277-9.656 21.962-12.42 35.69-12.265l2.922.008c3.046.011 6.092.036 9.138.062q3.117.016 6.236.027 7.6.035 15.201.098l-.027-1.945c-.089-6.716-.149-13.433-.193-20.15q-.03-3.753-.082-7.507c-.049-3.61-.071-7.218-.089-10.828l-.062-3.356c-.003-8.233 1.345-15.307 6.566-21.87l2.2-1.844 2.175-1.906c6.751-4.284 13.95-3.88 21.69-3.855M103 33c-10.652 13.316-4 33.948-4 51h314c4.908-41.412 4.908-41.412-5-52-5.466-2.882-11.728-2.281-17.76-2.26-1.192-.005-2.385-.008-3.614-.012q-4.953-.012-9.906-.004c-3.565.002-7.13-.007-10.694-.014q-10.47-.018-20.94-.012a15985 15985 0 0 1-24.389-.01q-23.076-.014-46.151-.003c-14.073.006-28.145-.006-42.218-.025q-21.678-.03-43.356-.024-12.169.005-24.338-.014-10.359-.019-20.718-.002-5.284.011-10.569-.005c-3.82-.012-7.64-.002-11.46.01l-3.369-.022c-5.936.042-10.365.331-15.518 3.397m-4 64v57h27l2-7c4.298-14.327 11.066-26.371 24.371-33.91 14.368-7.53 28.703-10.042 44.629-6.09 7.37 2.338 13.288 5.517 19.16 10.547 1.883 1.656 1.883 1.656 4.84 2.453a62 62 0 0 1 2 4 261 261 0 0 0 3.375 4.625c5.812 8.24 7.628 15.392 9.625 25.375h177V97zm-76 18c-2.986 4.695-5.126 9.5-5.123 15.117l-.006 2.553.009 2.802-.003 2.97q-.001 4.965.01 9.93v7.21q0 9.677.012 19.355.007 9.072.006 18.144c.006 17.702.02 35.404.033 53.106L18 366h476l.25-119.438.11-37.72c.014-11.153.014-11.153.022-22.305q.007-7.455.04-14.91.04-9.51.03-19.02.002-3.489.025-6.978c.02-3.146.015-6.29.004-9.435l.035-2.75c-.085-9.104-3.442-16.078-9.578-22.717-4.892-4.36-10.962-6.858-17.501-6.84h-2.79l-3.002.015-3.082.005c-3.25.005-6.5.018-9.75.03q-3.304.008-6.608.014-8.103.017-16.205.049l-.007 3.364q-.088 40.524-.229 81.05-.07 19.597-.11 39.195-.034 17.082-.103 34.164-.037 9.045-.049 18.088a3938 3938 0 0 1-.056 17.032q-.015 3.121-.011 6.244c.002 2.848-.015 5.695-.036 8.543l.014 2.479c-.1 8.222-2.132 15.339-7.804 21.403-5.176 4.624-11.153 5.56-17.853 5.57l-3.159.011-3.45-.003-3.682.01q-5.054.01-10.107.01c-3.635.002-7.27.01-10.904.016q-11.92.02-23.84.024l-14.888.012q-20.617.019-41.233.026h-5.337l-5.358.002h-2.685q-21.534.009-43.067.046-22.116.035-44.23.037-12.415-.001-24.829.025-10.57.023-21.142.012-5.391-.008-10.782.011c-3.9.015-7.8.007-11.701-.004l-3.424.025c-9.115-.057-16.703-1.426-23.5-7.783-5.582-6.249-5.587-13.561-5.596-21.448l-.015-2.699c-.016-2.983-.024-5.966-.032-8.95l-.03-6.415q-.04-8.712-.068-17.423c-.022-6.068-.05-12.137-.076-18.205q-.074-17.239-.138-34.477-.076-19.625-.16-39.25Q86.153 144.371 86 104a2268 2268 0 0 0-19.159-.22q-3.255-.03-6.509-.082c-3.13-.049-6.26-.071-9.39-.089l-2.909-.062C37.828 103.543 29.803 107.366 23 115m125.188 16.75c-7.54 9.281-10.61 20.575-10.032 32.457 1.074 8.043 3.708 16.194 9.844 21.793l1.375-2.063c3.669-4.105 8.054-6.91 12.625-9.937l-.84-1.645-1.097-2.168-1.09-2.144c-3.064-6.436-3.197-14.744-1.254-21.566 2.92-6.149 7.527-10.866 13.71-13.747 6.903-1.961 15.494-2.122 22.134.832 6.143 3.793 10.405 9.553 12.437 16.438.927 9.319-.837 15.746-5 24l2.082 1.645 2.73 2.167 2.708 2.145c1.95 1.607 3.743 3.213 5.48 5.043 3.098-.685 3.098-.685 4.316-3.04l1.247-2.585 1.253-2.54c4.58-10.974 4.837-22.847.575-33.983-5.496-11.27-13.766-19.21-25.391-23.852-17.805-5.865-35.098-.623-47.812 12.75M172 146c-2.777 3.327-3.898 6.275-4.5 10.562.716 4.92 2.847 7.785 6.313 11.25 3.147 1.71 5.607 2.067 9.187 2.188 5.132-1.566 8.291-3.312 11-8 1.246-4.16 1.302-7.126-.125-11.25-2.408-3.532-5.055-5.84-8.875-7.75-5.218-.401-8.652.004-13 3m-73 20q-.177 30.354-.26 60.709c-.025 9.396-.06 18.792-.117 28.188q-.076 12.285-.093 24.57c-.007 4.336-.022 8.672-.059 13.008q-.05 6.124-.037 12.248a378 378 0 0 1-.03 4.491c-.446 8.85-.446 8.85 3.006 16.661 3.5 2.871 5.072 3.25 9.505 3.262l3.167.015 3.507.002 3.705.013q5.107.016 10.213.022 5.502.01 11.002.029 13.294.034 26.588.052l7.507.011a56540 56540 0 0 0 60.102.071c14.493.013 28.987.046 43.481.088q22.31.063 44.62.071c8.354.004 16.707.015 25.061.048q10.67.044 21.341.028c3.63-.005 7.26-.002 10.89.022 3.935.027 7.869.015 11.804-.001l3.48.042c6.631-.009 6.631-.009 12.31-3.063 3.422-3.838 3.431-5.68 3.427-10.75l.004-3.977-.01-4.407v-4.687q-.001-6.29-.013-12.58-.007-5.897-.006-11.793c-.006-11.506-.02-23.012-.032-34.518L413 166H236l-4 15c-6.191 13.39-15.293 23.701-29.191 29.281-16.005 5.499-31.54 5.337-47.102-1.789-12.32-6.714-21.947-16.904-25.992-30.558-.727-2.65-1.364-5.3-1.988-7.977-.424-2.827-.424-2.827-1.727-3.957-2-.088-4.002-.107-6.004-.098l-3.682.01-3.876.025-3.89.014q-4.773.018-9.548.049m60 25c-1.255 2.085-1.255 2.085-2 4 8.76 6.514 18.709 8.58 29.566 7.82 7.114-1.119 13.17-4.397 19.434-7.82-5.149-6.91-11.404-11.319-20-13-10.205-1.015-19.25 2.3-27 9M18 378c0 13.338.047 18.752 8.688 27.95 7.873 6.982 16.462 8.173 26.705 8.179l2.164.005c2.387.005 4.775.002 7.162 0l5.194.007q7.13.008 14.26.004 7.694.002 15.386.01 15.067.012 30.136.012 12.248 0 24.496.006 34.725.014 69.45.012h7.567q30.379.002 60.758.023 31.192.023 62.384.02 17.513-.001 35.024.014 14.91.014 29.819.005 7.605-.007 15.211.005 6.967.011 13.933-.002 2.517-.003 5.033.005c13.698.043 24.938-.151 35.42-9.923 7.598-8.18 7.21-14.715 7.21-26.332zm203 48 4 16c.35 4.128.568 7.901.5 12 .015.938.03 1.877.047 2.844-.05 9.195-2.176 15.67-4.547 25.156h70l-4-16c-.35-4.128-.568-7.901-.5-12l-.047-2.844c.05-9.195 2.176-15.67 4.547-25.156z"/><path fill="#38EAFA" d="m269.862 230.726 2.884-.03 3.128-.002 3.323-.026c3.626-.024 7.251-.032 10.877-.04l7.575-.026q7.942-.025 15.885-.028c6.1-.003 12.2-.033 18.3-.075 5.888-.039 11.775-.05 17.663-.051q3.743-.006 7.486-.038c3.5-.027 6.997-.022 10.496-.01l3.098-.044c7.062.071 12.553 1.617 18.423 5.644 6.872 7.126 8.314 14.224 8.371 23.86.01.944.018 1.888.027 2.861q.022 2.99.028 5.981c.011 3.025.06 6.047.111 9.071.165 19.495.165 19.495-7.06 28.025-7.096 6.989-16.824 7.65-26.292 7.59l-3.123.016c-3.376.013-6.752.005-10.128-.006q-3.546.003-7.09.01-7.41.005-14.82-.017c-6.316-.017-12.633-.007-18.95.01-4.875.012-9.75.008-14.626 0q-3.493-.004-6.986.008c-3.26.008-6.518-.004-9.777-.02l-2.886.018c-7.647-.072-15.207-1.298-21.111-6.532l-1.864-1.57c-5.235-6.615-6.436-13.434-6.39-21.676l-.02-2.916a619 619 0 0 1 .01-6.069c.013-3.07-.02-6.138-.059-9.208q0-2.967.006-5.932l-.04-2.74c.097-6.78 1.851-12.125 5.669-17.764 5.14-4.896 10.614-8.233 17.862-8.274M263 246c-3.871 5.206-4.591 9.19-4.496 15.566l-.005 2.416q.003 2.513.034 5.025c.03 2.552.021 5.103.008 7.655q.01 2.453.025 4.904l-.008 2.293c.084 4.793.739 8.157 3.442 12.141 5.253 4.567 9.714 4.574 16.5 4.518l3.166.02c3.445.018 6.889.007 10.334-.007q3.598.005 7.195.012 7.536.008 15.07-.022c6.437-.022 12.872-.01 19.309.015 4.951.014 9.903.01 14.855 0q3.56-.005 7.119.01c3.318.01 6.634-.006 9.952-.028l2.966.024c5.818-.072 9.096-.684 13.534-4.542 3.151-4.643 3.455-8.97 3.434-14.434l.015-2.412q.01-2.516-.003-5.03a485 485 0 0 1 .052-7.65q.003-2.453-.002-4.908l.034-2.286c-.072-5.516-1.213-8.82-4.53-13.28-5.309-3.55-10.16-3.427-16.316-3.388l-3.107-.016c-3.38-.013-6.76-.005-10.14.006q-3.53-.003-7.06-.01-7.395-.005-14.788.017c-6.315.017-12.63.007-18.945-.01-4.86-.012-9.718-.008-14.577 0q-3.492.004-6.985-.008c-3.256-.008-6.51.004-9.766.02l-2.91-.018c-5.203.05-8.943.423-13.406 3.407"/><path fill="#D4FAFE" d="m268.744 194.619 2.957-.026 3.24.019 3.416-.016a1792 1792 0 0 1 11.205.006q3.885-.003 7.768-.01 8.146-.005 16.292.017c6.28.016 12.56.01 18.839-.006 6.04-.015 12.079-.013 18.118-.004q3.856.004 7.713-.008c3.589-.007 7.177.004 10.767.02l3.24-.018 2.957.026 2.572.003c2.682.467 3.57 1.205 5.172 3.378.641 5.13.641 5.13-1.227 7.664-2.304 1.736-3.647 1.713-6.517 1.717l-2.957.026-3.24-.019-3.416.016c-3.735.013-7.47.005-11.206-.006q-3.884.003-7.767.01-8.146.005-16.292-.017c-6.28-.016-12.56-.01-18.839.006-6.04.015-12.079.013-18.118.004q-3.857-.004-7.713.008c-3.589.007-7.177-.004-10.767-.02l-3.24.018-2.957-.026-2.572-.003c-2.682-.467-3.57-1.205-5.172-3.378-.641-5.13-.641-5.13 1.227-7.664 2.304-1.736 3.647-1.713 6.517-1.717"/><path fill="#005AB0" d="m128.846 295.596 3.026-.02c3.303-.02 6.606-.015 9.91-.01l6.881-.015q7.213-.014 14.425.003c6.168.011 12.335-.009 18.502-.038 4.737-.018 9.474-.018 14.211-.012q3.412 0 6.823-.019c3.177-.014 6.353-.004 9.53.013l2.856-.029c6.355.072 6.355.072 9.578 2.402 1.76 2.653 1.973 4.006 1.412 7.129-1.879 2.505-2.961 2.987-6 4-1.374.092-2.753.13-4.13.134l-2.545.013-2.782-.002-2.937.01q-4.817.013-9.633.013l-6.685.01q-7.01.009-14.02.007c-5.993 0-11.986.014-17.98.031q-6.904.015-13.807.013-3.315 0-6.63.013c-3.088.01-6.177.007-9.265 0-1.374.01-1.374.01-2.776.018l-2.553-.013-2.211.002c-2.4-.292-3.994-.982-6.046-2.249-1.414-2.829-1.319-4.874-1-8 3.58-4.247 8.753-3.428 13.846-3.404M124.124 264.86l2.54-.018 2.777-.003 2.933-.015q4.809-.021 9.618-.027l6.677-.017q7.004-.015 14.007-.02c5.985-.006 11.97-.03 17.954-.058 4.598-.019 9.196-.024 13.794-.026q3.31-.004 6.62-.024c3.085-.017 6.17-.015 9.256-.008l2.765-.028c5.273.034 9.015.464 12.935 4.384-.25 3.437-.25 3.437-1 7-3.094 2.063-3.745 2.251-7.244 2.26l-2.621.022-2.867-.007-3.026.015c-3.309.014-6.617.013-9.926.01l-6.886.014q-7.221.01-14.443.002c-6.175-.006-12.35.01-18.525.034-4.742.015-9.483.016-14.225.013q-3.416 0-6.83.015c-3.182.013-6.364.006-9.545-.006l-2.861.023c-6.333-.05-6.333-.05-9.594-1.73C115 275 115 275 114.625 272c.375-3 .375-3 2.375-6 2.725-.908 4.321-1.129 7.124-1.14M122.327 234.612l2.676-.03 2.929.014 3.09-.02c3.378-.02 6.756-.015 10.134-.01q3.515-.007 7.028-.015 7.37-.013 14.738.003c6.306.011 12.61-.009 18.916-.038 4.838-.018 9.677-.018 14.515-.012q3.487 0 6.976-.019c3.247-.014 6.493-.004 9.74.013l2.928-.029c6.47.072 6.47.072 9.135 2.367 1.225 3.054.75 5.04-.132 8.164-2.403 2.403-2.93 2.252-6.207 2.26l-2.672.022-2.94-.007-3.089.015c-3.383.014-6.767.013-10.15.01l-7.033.014q-7.378.01-14.756.002c-6.313-.006-12.626.01-18.94.034-4.842.015-9.684.016-14.527.013q-3.492 0-6.984.015c-3.252.013-6.503.006-9.754-.006l-2.934.023-2.68-.02h-2.33c-2.564-.48-3.45-1.31-5.004-3.375-.643-5.146-.643-5.146 1.253-7.663 2.186-1.673 3.34-1.716 6.074-1.725"/><path fill="#4D97E8" d="m275.383 50.612 2.234-.016c2.43-.013 4.862-.005 7.293.006q2.536-.003 5.073-.01 5.313-.005 10.625.017c4.542.017 9.083.007 13.625-.01 3.491-.012 6.982-.008 10.472 0q2.513.004 5.025-.008c2.34-.007 4.677.004 7.016.02l2.102-.018c2.807.038 4.717.112 7.074 1.713 1.875 2.947 1.559 5.33 1.078 8.694-3.94 3.21-7.231 3.375-12.205 3.372l-2.14.011c-2.324.008-4.648-.005-6.971-.02q-2.43 0-4.86.002-5.085 0-10.17-.029a1922 1922 0 0 0-13.03-.016c-3.344.003-6.687-.004-10.03-.013q-2.402-.006-4.805-.004-3.357-.002-6.713-.028l-3.857-.014c-3.03-.246-4.734-.562-7.219-2.261-1.414-2.829-1.319-4.874-1-8 3.298-3.529 6.836-3.428 11.383-3.388"/><path fill="#35ACE5" d="M239.875 42.063c4.157 3.42 6.577 7.674 7.469 12.984.23 4.947-.905 8.704-3.344 12.953-4.626 4.754-7.975 7.152-14.687 7.313-5.811-.077-8.797-.627-13.313-4.313-3.814-4.135-5.33-7.94-5.562-13.562.322-6.462 2.26-10.197 6.937-14.75 6.993-4.496 15.287-5.217 22.5-.626m-15.75 11.624c-1.337 2.279-1.337 2.279-1 4.938.732 2.705.732 2.705 3.875 4.375 3.322-.324 4.608-.608 7-3 .417-3 .417-3 0-6-3.693-2.462-6.352-3.484-9.875-.312"/><path fill="#26B9E3" d="M191.813 41.688c3.924 2.847 6.185 5.723 7.937 10.25.82 6.763.109 11.45-3.75 17.062-4.26 4.401-7.6 6.167-13.687 6.313-5.767-.056-8.756-.8-13.313-4.313-4.842-5.224-5.302-9.382-5.21-16.277.405-5.236 2.34-7.872 6.023-11.473 7.025-4.96 14.297-5.513 22-1.562M177 53.062c-1.516 2.939-.923 4.84 0 7.938 2.759 2.296 2.759 2.296 5.563 1.75 2.587-.588 2.587-.588 4.437-2.75-.323-3.597-.323-3.597-1-7-4.616-1.142-4.616-1.142-9 .063"/><path fill="#17C7E1" d="M143.75 41.188c4.706 3.79 8.074 7.815 9.25 13.812.087 6.063-1.028 10.256-5 15-5.514 4.857-8.782 5.297-16.02 5.21-4.45-.314-7.286-1.474-10.41-4.675-4.78-5.523-4.914-9.176-4.851-16.328.473-5.4 2.867-7.867 6.656-11.457 6.592-4.395 13.16-4.678 20.375-1.562m-13.687 11.937c-1.424 2.511-1.49 4.03-1.063 6.875 1.083 1.917 1.083 1.917 3 3 2.845.427 4.364.36 6.875-1.062 1.773-3.054.817-5.602.125-8.938-4.61-1.17-4.61-1.17-8.937.125"/><path fill="#6582EB" d="M384 42c2 2 2 2 2.125 5.625L386 51l2.75-.25c3.25.25 3.25.25 5.688 1.813C396 55 396 55 395.75 58.75L395 62c-3.371 1.498-5.204 2-9 2l.188 2.813C386 70 386 70 384.875 71.875c-2.756 1.654-4.726 1.519-7.875 1.125-1.875-1.125-1.875-1.125-3-3-.187-3.187-.187-3.187 0-6l-6.055-.488C366 63 366 63 364 60c.188-3.562.188-3.562 1-7 3.435-2.29 4.985-2.178 9-2l-.25-3.312C374 44 374 44 375.625 42c3.187-1.342 5.086-.93 8.375 0"/></svg>