<?xml version="1.0" encoding="UTF-8"?>
<svg version="1.1" xmlns="http://www.w3.org/2000/svg" width="512" height="512">
<path d="M0 0 C4.59335674 2.77185321 9.69288863 7.33698398 11.14672852 12.625 C11.3525354 13.553125 11.3525354 13.553125 11.5625 14.5 C12.29726311 14.49631283 13.03202621 14.49262566 13.78905487 14.48882675 C31.68392992 14.40041262 49.57876127 14.33425972 67.47380829 14.29275131 C76.12780105 14.27214357 84.78164783 14.24405728 93.43554688 14.19824219 C100.98004777 14.15831953 108.52444291 14.13255419 116.0690465 14.12364602 C120.06231308 14.11844042 124.0552772 14.10624302 128.04844666 14.07707977 C131.81102008 14.04982462 135.57316792 14.04157519 139.33583069 14.04756927 C141.36684614 14.04595311 143.39781578 14.02448336 145.42871094 14.00231934 C153.7387973 14.03969296 159.37834411 14.83339649 165.8046875 20.46484375 C166.34351563 21.11582031 166.88234375 21.76679688 167.4375 22.4375 C167.99179687 23.08589844 168.54609375 23.73429687 169.1171875 24.40234375 C172.36523457 29.11640126 172.80450278 33.09666251 172.7578125 38.76953125 C172.75356766 39.79103523 172.75356766 39.79103523 172.74923706 40.83317566 C172.73810525 42.99313455 172.71301457 45.15266794 172.6875 47.3125 C172.67746111 48.78319711 172.66833685 50.25390076 172.66015625 51.72460938 C172.63818913 55.31654286 172.6037082 58.90822985 172.5625 62.5 C173.68221191 62.47905273 174.80192383 62.45810547 175.95556641 62.43652344 C180.12633377 62.36389574 184.29704568 62.31811789 188.46826172 62.28027344 C190.27044081 62.26020967 192.07255521 62.23295187 193.87451172 62.19824219 C196.47119136 62.14949171 199.06700729 62.12697918 201.6640625 62.109375 C202.4642984 62.08872986 203.2645343 62.06808472 204.08901978 62.04681396 C209.38635322 62.04470904 212.429729 62.89384455 216.5625 66.5 C220.745583 71.55737502 221.14140365 75.25041774 221.08007812 81.53125 C221.09059204 82.86410034 221.09059204 82.86410034 221.10131836 84.22387695 C221.11886698 87.1495729 221.10728669 90.07429489 221.09375 93 C221.09644581 95.03971542 221.10032898 97.07942959 221.10534668 99.11914062 C221.11123749 103.38944765 221.10269207 107.6594195 221.08398438 111.9296875 C221.06119526 117.39744751 221.07432055 122.86442211 221.09827423 128.33215332 C221.11274337 132.54270319 221.10812105 136.75306752 221.09776306 140.96362305 C221.09509887 142.97941176 221.09835469 144.99521743 221.10768127 147.01098633 C221.11786511 149.83069337 221.10232006 152.64913682 221.08007812 155.46875 C221.08817505 156.29802002 221.09627197 157.12729004 221.10461426 157.98168945 C221.02727805 163.28640061 220.05389643 166.27887862 216.5625 170.5 C211.6624124 174.77569724 207.86127292 175.05050571 201.6640625 174.890625 C200.82910248 174.88496521 199.99414246 174.87930542 199.13388062 174.87347412 C196.48448734 174.85120223 193.83647984 174.80102523 191.1875 174.75 C189.38413421 174.72992302 187.58074708 174.71167435 185.77734375 174.6953125 C181.37186731 174.65136786 176.96741806 174.58240601 172.5625 174.5 C172.5625 179.78 172.5625 185.06 172.5625 190.5 C173.68221191 190.47905273 174.80192383 190.45810547 175.95556641 190.43652344 C180.12633377 190.36389574 184.29704568 190.31811789 188.46826172 190.28027344 C190.27044081 190.26020967 192.07255521 190.23295187 193.87451172 190.19824219 C196.47119136 190.14949171 199.06700729 190.12697918 201.6640625 190.109375 C202.4642984 190.08872986 203.2645343 190.06808472 204.08901978 190.04681396 C209.38635322 190.04470904 212.429729 190.89384455 216.5625 194.5 C220.745583 199.55737502 221.14140365 203.25041774 221.08007812 209.53125 C221.09059204 210.86410034 221.09059204 210.86410034 221.10131836 212.22387695 C221.11886698 215.1495729 221.10728669 218.07429489 221.09375 221 C221.09644581 223.03971542 221.10032898 225.07942959 221.10534668 227.11914062 C221.11123749 231.38944765 221.10269207 235.6594195 221.08398438 239.9296875 C221.06119526 245.39744751 221.07432055 250.86442211 221.09827423 256.33215332 C221.11274337 260.54270319 221.10812105 264.75306752 221.09776306 268.96362305 C221.09509887 270.97941176 221.09835469 272.99521743 221.10768127 275.01098633 C221.11786511 277.83069337 221.10232006 280.64913682 221.08007812 283.46875 C221.08817505 284.29802002 221.09627197 285.12729004 221.10461426 285.98168945 C221.02727805 291.28640061 220.05389643 294.27887862 216.5625 298.5 C211.6624124 302.77569724 207.86127292 303.05050571 201.6640625 302.890625 C200.82910248 302.88496521 199.99414246 302.87930542 199.13388062 302.87347412 C196.48448734 302.85120223 193.83647984 302.80102523 191.1875 302.75 C189.38413421 302.72992302 187.58074708 302.71167435 185.77734375 302.6953125 C181.37186731 302.65136786 176.96741806 302.58240601 172.5625 302.5 C172.5625 307.78 172.5625 313.06 172.5625 318.5 C173.68221191 318.47905273 174.80192383 318.45810547 175.95556641 318.43652344 C180.12633377 318.36389574 184.29704568 318.31811789 188.46826172 318.28027344 C190.27044081 318.26020967 192.07255521 318.23295187 193.87451172 318.19824219 C196.47119136 318.14949171 199.06700729 318.12697918 201.6640625 318.109375 C202.4642984 318.08872986 203.2645343 318.06808472 204.08901978 318.04681396 C209.38635322 318.04470904 212.429729 318.89384455 216.5625 322.5 C220.745583 327.55737502 221.14140365 331.25041774 221.08007812 337.53125 C221.0870874 338.41981689 221.09409668 339.30838379 221.10131836 340.22387695 C221.11886698 343.1495729 221.10728669 346.07429489 221.09375 349 C221.09644581 351.03971542 221.10032898 353.07942959 221.10534668 355.11914062 C221.11123749 359.38944765 221.10269207 363.6594195 221.08398438 367.9296875 C221.06119526 373.39744751 221.07432055 378.86442211 221.09827423 384.33215332 C221.11274337 388.54270319 221.10812105 392.75306752 221.09776306 396.96362305 C221.09509887 398.97941176 221.09835469 400.99521743 221.10768127 403.01098633 C221.11786511 405.83069337 221.10232006 408.64913682 221.08007812 411.46875 C221.08817505 412.29802002 221.09627197 413.12729004 221.10461426 413.98168945 C221.02727805 419.28640061 220.05389643 422.27887862 216.5625 426.5 C211.6624124 430.77569724 207.86127292 431.05050571 201.6640625 430.890625 C200.82910248 430.88496521 199.99414246 430.87930542 199.13388062 430.87347412 C196.48448734 430.85120223 193.83647984 430.80102523 191.1875 430.75 C189.38413421 430.72992302 187.58074708 430.71167435 185.77734375 430.6953125 C181.37186731 430.65136786 176.96741806 430.58240601 172.5625 430.5 C172.58344727 431.3971875 172.60439453 432.294375 172.62597656 433.21875 C172.69457616 436.58099859 172.74450294 439.94249235 172.78222656 443.30517578 C172.80221295 444.75418917 172.82941197 446.20312325 172.86425781 447.65185547 C173.08470504 457.05976527 173.14103743 464.2751879 166.59765625 471.7421875 C165.94667969 472.28101563 165.29570312 472.81984375 164.625 473.375 C163.97660156 473.92929687 163.32820313 474.48359375 162.66015625 475.0546875 C158.36607171 478.01336772 154.6646951 478.74952432 149.49443054 478.74050903 C147.66666328 478.74463303 147.66666328 478.74463303 145.80197144 478.74884033 C144.46002098 478.74176306 143.11807153 478.73449346 141.77612305 478.72705078 C140.35668445 478.72648636 138.93724527 478.72680383 137.51780701 478.72793579 C133.67106701 478.72850911 129.82445199 478.71675816 125.977741 478.70278788 C121.95520395 478.69027708 117.93266398 478.68910974 113.91011047 478.68673706 C106.29581642 478.68052332 98.68157986 478.66411393 91.06731111 478.64403808 C82.39747703 478.62167579 73.72764019 478.61068482 65.05778444 478.60064721 C47.22599037 478.57974762 29.39424981 478.54457369 11.5625 478.5 C11.26303467 479.28101074 10.96356934 480.06202148 10.6550293 480.86669922 C8.40666903 486.28587549 4.36334484 490.32393807 -0.5 493.5 C-7.24031398 495.83318561 -16.32693456 495.87756782 -22.875 493 C-27.46835674 490.22814679 -32.56788863 485.66301602 -34.02172852 480.375 C-34.15893311 479.75625 -34.2961377 479.1375 -34.4375 478.5 C-35.17226311 478.50368717 -35.90702621 478.50737434 -36.66405487 478.51117325 C-54.55892992 478.59958738 -72.45376127 478.66574028 -90.34880829 478.70724869 C-99.00280105 478.72785643 -107.65664783 478.75594272 -116.31054688 478.80175781 C-123.85504777 478.84168047 -131.39944291 478.86744581 -138.9440465 478.87635398 C-142.93731308 478.88155958 -146.9302772 478.89375698 -150.92344666 478.92292023 C-154.68602008 478.95017538 -158.44816792 478.95842481 -162.21083069 478.95243073 C-164.24184614 478.95404689 -166.27281578 478.97551664 -168.30371094 478.99768066 C-176.6137973 478.96030704 -182.25334411 478.16660351 -188.6796875 472.53515625 C-189.21851563 471.88417969 -189.75734375 471.23320312 -190.3125 470.5625 C-190.86679688 469.91410156 -191.42109375 469.26570313 -191.9921875 468.59765625 C-194.64617321 464.7457905 -195.68965446 461.27465217 -195.66455078 456.61791992 C-195.66439972 455.67732224 -195.66424866 454.73672455 -195.66409302 453.7676239 C-195.65377045 452.7653627 -195.64344788 451.7631015 -195.6328125 450.73046875 C-195.6299826 449.69432938 -195.62715271 448.65819 -195.62423706 447.59065247 C-195.61306454 444.28948293 -195.58796505 440.98858719 -195.5625 437.6875 C-195.55246643 435.44596747 -195.54334124 433.20443067 -195.53515625 430.96289062 C-195.51313478 425.4751674 -195.47968621 419.98760326 -195.4375 414.5 C-196.39994629 414.51377686 -197.36239258 414.52755371 -198.35400391 414.54174805 C-205.92768678 414.60424338 -213.31170638 414.46147197 -220.8125 413.3125 C-222.13785767 413.11394409 -222.13785767 413.11394409 -223.48999023 412.91137695 C-241.71847542 409.99422967 -259.8043525 404.5305415 -271.91015625 389.6953125 C-274.59530258 385.82639199 -275.56159697 382.55134678 -275.57172108 377.90527821 C-275.57617892 376.95675505 -275.58063676 376.0082319 -275.58522969 375.03096563 C-275.58504533 373.98682317 -275.58486097 372.94268072 -275.58467102 371.86689758 C-275.58834771 370.75925259 -275.5920244 369.6516076 -275.5958125 368.51039761 C-275.60687148 364.77946944 -275.61069694 361.04856909 -275.61450195 357.31762695 C-275.62076491 354.65039401 -275.6273986 351.98316407 -275.63441467 349.31593323 C-275.65417771 341.29779927 -275.66424521 333.27966406 -275.67314246 325.26151183 C-275.67752573 321.48546391 -275.68289245 317.7094174 -275.68813133 313.93337059 C-275.70514366 301.38055494 -275.7196377 288.82774015 -275.72688007 276.27491474 C-275.72878996 273.01734224 -275.7307103 269.75976974 -275.73266602 266.50219727 C-275.73314976 265.69254504 -275.7336335 264.88289281 -275.7341319 264.04870566 C-275.74243171 250.93367504 -275.76776776 237.81873565 -275.80024669 224.70374487 C-275.83332139 211.23838166 -275.85132921 197.7730648 -275.85452431 184.30766076 C-275.85668906 176.7475282 -275.86543247 169.18752865 -275.89098549 161.62743568 C-275.91269815 155.18867557 -275.9207402 148.75008079 -275.91101871 142.31128822 C-275.9064755 139.0271711 -275.91054538 135.74346609 -275.92778015 132.4593811 C-275.94543792 128.89530594 -275.93842187 125.332096 -275.92524719 121.76802063 C-275.93621644 120.73503178 -275.94718568 119.70204294 -275.95848733 118.6377514 C-275.88583043 110.4959289 -273.78858654 104.27575521 -267.9375 98.4375 C-254.99856969 86.3721836 -237.69126185 82.16821996 -220.625 79.625 C-219.42822632 79.44469238 -219.42822632 79.44469238 -218.20727539 79.26074219 C-210.63126515 78.2709348 -203.06237177 78.3968321 -195.4375 78.5 C-195.44638245 77.92894531 -195.45526489 77.35789062 -195.4644165 76.76953125 C-195.5532504 70.79941874 -195.61338306 64.8294955 -195.65722656 58.85888672 C-195.67728046 56.63387418 -195.70453065 54.40891393 -195.73925781 52.18408203 C-195.78804934 48.97675635 -195.81053162 45.77013049 -195.828125 42.5625 C-195.84877014 41.57572266 -195.86941528 40.58894531 -195.89068604 39.57226562 C-195.8930561 32.19535594 -194.37923561 26.85697065 -189.47265625 21.2578125 C-188.82167969 20.71898438 -188.17070312 20.18015625 -187.5 19.625 C-186.85160156 19.07070313 -186.20320313 18.51640625 -185.53515625 17.9453125 C-181.24107171 14.98663228 -177.5396951 14.25047568 -172.36943054 14.25949097 C-171.15091904 14.25674164 -169.93240753 14.25399231 -168.67697144 14.25115967 C-167.33502098 14.25823694 -165.99307153 14.26550654 -164.65112305 14.27294922 C-163.23168445 14.27351364 -161.81224527 14.27319617 -160.39280701 14.27206421 C-156.54606701 14.27149089 -152.69945199 14.28324184 -148.852741 14.29721212 C-144.83020395 14.30972292 -140.80766398 14.31089026 -136.78511047 14.31326294 C-129.17081642 14.31947668 -121.55657986 14.33588607 -113.94231111 14.35596192 C-105.27247703 14.37832421 -96.60264019 14.38931518 -87.93278444 14.39935279 C-70.10099037 14.42025238 -52.26924981 14.45542631 -34.4375 14.5 C-34.13279785 13.71375244 -33.8280957 12.92750488 -33.51416016 12.11743164 C-31.12158742 6.30092999 -26.6615857 1.71685346 -20.90625 -0.83984375 C-14.26214251 -2.61651173 -6.38219195 -2.78676607 0 0 Z M-16.8125 17.125 C-18.92456506 20.21186432 -19.04945145 21.8282913 -18.4375 25.5 C-16.9375 28 -16.9375 28 -14.4375 29.5 C-10.7657913 30.11195145 -9.14936432 29.98706506 -6.0625 27.875 C-3.95043494 24.78813568 -3.82554855 23.1717087 -4.4375 19.5 C-5.9375 17 -5.9375 17 -8.4375 15.5 C-12.1092087 14.88804855 -13.72563568 15.01293494 -16.8125 17.125 Z M-177.4375 33.5 C-180.21020212 37.79316811 -179.69286975 42.79791367 -179.6328125 47.73828125 C-179.6299826 48.61904831 -179.62715271 49.49981537 -179.62423706 50.40727234 C-179.61307833 53.20915545 -179.58798171 56.01071416 -179.5625 58.8125 C-179.55246463 60.71679225 -179.54333975 62.62108952 -179.53515625 64.52539062 C-179.51315309 69.18371797 -179.47865294 73.84180406 -179.4375 78.5 C-178.81520508 78.53963867 -178.19291016 78.57927734 -177.55175781 78.62011719 C-151.47709919 80.35204864 -122.43007307 82.44175052 -104.06640625 103.25390625 C-100.62207929 108.00327796 -100.16212395 112.18656482 -100.0234375 117.98828125 C-99.97002197 119.91861206 -99.97002197 119.91861206 -99.91552734 121.88793945 C-99.88152832 123.51304443 -99.8475293 125.13814941 -99.8125 126.8125 C-99.68875 131.989375 -99.565 137.16625 -99.4375 142.5 C-88.8775 142.5 -78.3175 142.5 -67.4375 142.5 C-67.4375 145.14 -67.4375 147.78 -67.4375 150.5 C-66.59684312 155.35958673 -65.1943687 159.2596065 -61.375 162.5 C-56.39122339 165.89320961 -52.41842865 166.44435716 -46.4375 165.5 C-43.40186885 163.86860639 -40.99194986 161.79231199 -38.4375 159.5 C-37.11258126 158.4888778 -35.78141421 157.48573443 -34.4375 156.5 C-23.13327621 166.87054159 -12.22367719 177.59279717 -1.4375 188.5 C-2.85095312 191.4333238 -4.32231859 193.69584187 -6.5 196.125 C-10.35391956 200.44063608 -10.77637799 203.20334217 -10.7265625 208.95703125 C-10.31003148 212.6213785 -8.80073907 214.73163423 -6.4375 217.5 C-6.025 218.0775 -5.6125 218.655 -5.1875 219.25 C0.08193856 223.01388469 6.38212894 222.5 12.5625 222.5 C12.5625 238.34 12.5625 254.18 12.5625 270.5 C9.9225 270.5 7.2825 270.5 4.5625 270.5 C-0.29708673 271.34065688 -4.1971065 272.7431313 -7.4375 276.5625 C-10.83070961 281.54627661 -11.38185716 285.51907135 -10.4375 291.5 C-8.80610639 294.53563115 -6.72981199 296.94555014 -4.4375 299.5 C-3.4263778 300.82491874 -2.42323443 302.15608579 -1.4375 303.5 C-11.80804159 314.80422379 -22.53029717 325.71382281 -33.4375 336.5 C-36.3708238 335.08654688 -38.63334187 333.61518141 -41.0625 331.4375 C-45.37813608 327.58358044 -48.14084217 327.16112201 -53.89453125 327.2109375 C-57.5588785 327.62746852 -59.66913423 329.13676093 -62.4375 331.5 C-63.015 331.9125 -63.5925 332.325 -64.1875 332.75 C-67.95138469 338.01943856 -67.4375 344.31962894 -67.4375 350.5 C-77.9975 350.5 -88.5575 350.5 -99.4375 350.5 C-99.60759844 360.67062307 -99.60759844 360.67062307 -99.73535156 370.84179688 C-99.95517726 380.02819699 -100.6312308 387.3330528 -107.5625 394.125 C-126.40990642 411.54996066 -155.20911776 412.80971832 -179.4375 414.5 C-179.51186251 420.08672194 -179.56620254 425.67315339 -179.60229492 431.26025391 C-179.61734691 433.15939353 -179.63779316 435.05849859 -179.66381836 436.95751953 C-179.70035992 439.69312081 -179.71726238 442.428261 -179.73046875 445.1640625 C-179.74595261 446.00804596 -179.76143646 446.85202942 -179.77738953 447.72158813 C-179.77879431 452.68360295 -179.39698214 456.30783657 -176.4375 460.5 C-172.7820919 462.3504601 -169.7425523 462.76094343 -165.67555237 462.80107117 C-163.94914017 462.82470482 -163.94914017 462.82470482 -162.18785095 462.84881592 C-160.93420242 462.85576477 -159.68055389 462.86271362 -158.38891602 462.86987305 C-157.04816928 462.88405138 -155.70743019 462.89896806 -154.36669922 462.91456604 C-149.97499967 462.96165882 -145.58328185 462.98746984 -141.19140625 463.01171875 C-139.67687365 463.02113078 -138.16234156 463.03062528 -136.64780998 463.04020119 C-130.34855652 463.07866486 -124.0493162 463.11188146 -117.74997044 463.13057232 C-108.7322163 463.15739876 -99.71589419 463.21503452 -90.69865853 463.31633729 C-84.35116514 463.38520484 -78.00405249 463.41953691 -71.65619415 463.42813712 C-67.8671348 463.43413822 -64.07955113 463.45507549 -60.29089546 463.51270103 C-56.72712439 463.56609217 -53.16575499 463.57660485 -49.60167694 463.55455589 C-47.67512362 463.5534995 -45.7487066 463.59704096 -43.82267761 463.64199829 C-37.53265883 463.70917942 -37.53265883 463.70917942 -32.42329216 460.5311985 C-30.81416137 458.1776449 -30.81416137 458.1776449 -29.64681911 455.72468281 C-27.26583932 451.34459426 -23.0905837 449.0510279 -18.4375 447.5 C-10.53776252 446.88769506 -2.89596426 446.34824828 3.5625 451.5 C7.0185235 454.83978952 9.45718336 458.19361989 11.5625 462.5 C29.32143336 462.57010427 47.08033077 462.62299511 64.83937263 462.65543652 C73.08534498 462.6709005 81.33123131 462.69198102 89.57714844 462.72631836 C96.76491761 462.75623511 103.95262447 462.77557842 111.14045417 462.78226548 C114.94580732 462.7861739 118.75098224 462.79534935 122.55627823 462.81719017 C126.13987042 462.83759137 129.7232114 462.84382653 133.30685616 462.83932304 C135.24519687 462.84053856 137.18351038 462.8566617 139.1217804 462.8732605 C147.29308544 462.93702223 147.29308544 462.93702223 154.5625 459.5 C156.64165475 455.94696218 156.80125914 452.82397997 156.7578125 448.76171875 C156.75136719 447.69501953 156.74492187 446.62832031 156.73828125 445.52929688 C156.72152344 444.42650391 156.70476562 443.32371094 156.6875 442.1875 C156.67396484 440.50430664 156.67396484 440.50430664 156.66015625 438.78710938 C156.63664486 436.02452091 156.60378155 433.26237068 156.5625 430.5 C155.44278809 430.4906543 154.32307617 430.48130859 153.16943359 430.47167969 C148.99813684 430.43167839 144.82756978 430.36589195 140.65673828 430.29248047 C138.85475061 430.26432947 137.05264081 430.24308578 135.25048828 430.22900391 C132.65333802 430.20749245 130.05764705 430.16080243 127.4609375 430.109375 C126.6607016 430.10814636 125.8604657 430.10691772 125.03598022 430.10565186 C119.78758686 429.9695394 116.67035686 429.05063968 112.5625 425.5 C109.03213979 421.00997808 109.12889125 417.05053412 109.15844727 411.58227539 C109.14815239 410.24964409 109.14815239 410.24964409 109.13764954 408.89009094 C109.11937796 405.95911589 109.1232196 403.02867593 109.12890625 400.09765625 C109.12434459 398.0565117 109.11903906 396.01536869 109.11302185 393.97422791 C109.10409001 389.69800575 109.10651472 385.42197035 109.11645508 381.14575195 C109.12794414 375.67014436 109.10773436 370.19518172 109.07853794 364.71965885 C109.06017762 360.50483618 109.0604681 356.2901681 109.06617546 352.07531548 C109.0663287 350.05672743 109.06028231 348.03812891 109.04788399 346.01957893 C109.03297933 343.19501604 109.04364731 340.37164515 109.06079102 337.54711914 C109.05112305 336.71627808 109.04145508 335.88543701 109.03149414 335.02941895 C109.09885317 329.72019596 110.06952251 326.72868214 113.5625 322.5 C117.84412694 318.91305052 122.02306846 319.03064985 127.36328125 318.98828125 C128.6178437 318.96135445 128.6178437 318.96135445 129.89775085 318.93388367 C132.55678334 318.87990491 135.21563761 318.84592539 137.875 318.8125 C139.68296744 318.77931589 141.4909114 318.74482522 143.29882812 318.70898438 C147.71992324 318.62418576 152.14096664 318.55731559 156.5625 318.5 C156.5625 313.22 156.5625 307.94 156.5625 302.5 C155.44278809 302.4906543 154.32307617 302.48130859 153.16943359 302.47167969 C148.99813684 302.43167839 144.82756978 302.36589195 140.65673828 302.29248047 C138.85475061 302.26432947 137.05264081 302.24308578 135.25048828 302.22900391 C132.65333802 302.20749245 130.05764705 302.16080243 127.4609375 302.109375 C126.6607016 302.10814636 125.8604657 302.10691772 125.03598022 302.10565186 C119.78758686 301.9695394 116.67035686 301.05063968 112.5625 297.5 C109.03213979 293.00997808 109.12889125 289.05053412 109.15844727 283.58227539 C109.14815239 282.24964409 109.14815239 282.24964409 109.13764954 280.89009094 C109.11937796 277.95911589 109.1232196 275.02867593 109.12890625 272.09765625 C109.12434459 270.0565117 109.11903906 268.01536869 109.11302185 265.97422791 C109.10409001 261.69800575 109.10651472 257.42197035 109.11645508 253.14575195 C109.12794414 247.67014436 109.10773436 242.19518172 109.07853794 236.71965885 C109.06017762 232.50483618 109.0604681 228.2901681 109.06617546 224.07531548 C109.0663287 222.05672743 109.06028231 220.03812891 109.04788399 218.01957893 C109.03297933 215.19501604 109.04364731 212.37164515 109.06079102 209.54711914 C109.05112305 208.71627808 109.04145508 207.88543701 109.03149414 207.02941895 C109.09885317 201.72019596 110.06952251 198.72868214 113.5625 194.5 C117.84412694 190.91305052 122.02306846 191.03064985 127.36328125 190.98828125 C128.19965622 190.97033005 129.03603119 190.95237885 129.89775085 190.93388367 C132.55678334 190.87990491 135.21563761 190.84592539 137.875 190.8125 C139.68296744 190.77931589 141.4909114 190.74482522 143.29882812 190.70898438 C147.71992324 190.62418576 152.14096664 190.55731559 156.5625 190.5 C156.5625 185.22 156.5625 179.94 156.5625 174.5 C155.44278809 174.4906543 154.32307617 174.48130859 153.16943359 174.47167969 C148.99813684 174.43167839 144.82756978 174.36589195 140.65673828 174.29248047 C138.85475061 174.26432947 137.05264081 174.24308578 135.25048828 174.22900391 C132.65333802 174.20749245 130.05764705 174.16080243 127.4609375 174.109375 C126.6607016 174.10814636 125.8604657 174.10691772 125.03598022 174.10565186 C119.78758686 173.9695394 116.67035686 173.05063968 112.5625 169.5 C109.03213979 165.00997808 109.12889125 161.05053412 109.15844727 155.58227539 C109.14815239 154.24964409 109.14815239 154.24964409 109.13764954 152.89009094 C109.11937796 149.95911589 109.1232196 147.02867593 109.12890625 144.09765625 C109.12434459 142.0565117 109.11903906 140.01536869 109.11302185 137.97422791 C109.10409001 133.69800575 109.10651472 129.42197035 109.11645508 125.14575195 C109.12794414 119.67014436 109.10773436 114.19518172 109.07853794 108.71965885 C109.06017762 104.50483618 109.0604681 100.2901681 109.06617546 96.07531548 C109.0663287 94.05672743 109.06028231 92.03812891 109.04788399 90.01957893 C109.03297933 87.19501604 109.04364731 84.37164515 109.06079102 81.54711914 C109.05112305 80.71627808 109.04145508 79.88543701 109.03149414 79.02941895 C109.09885317 73.72019596 110.06952251 70.72868214 113.5625 66.5 C117.84412694 62.91305052 122.02306846 63.03064985 127.36328125 62.98828125 C128.19965622 62.97033005 129.03603119 62.95237885 129.89775085 62.93388367 C132.55678334 62.87990491 135.21563761 62.84592539 137.875 62.8125 C139.68296744 62.77931589 141.4909114 62.74482522 143.29882812 62.70898438 C147.71992324 62.62418576 152.14096664 62.55731559 156.5625 62.5 C156.65001413 58.62514365 156.70306435 54.75054357 156.75 50.875 C156.77513672 49.78058594 156.80027344 48.68617187 156.82617188 47.55859375 C157.00692853 39.54668437 157.00692853 39.54668437 153.5625 32.5 C149.89822723 30.66470409 146.87095896 30.23909018 142.80055237 30.19892883 C141.07414017 30.17529518 141.07414017 30.17529518 139.31285095 30.15118408 C138.05920242 30.14423523 136.80555389 30.13728638 135.51391602 30.13012695 C134.17316928 30.11594862 132.83243019 30.10103194 131.49169922 30.08543396 C127.09999967 30.03834118 122.70828185 30.01253016 118.31640625 29.98828125 C116.80187365 29.97886922 115.28734156 29.96937472 113.77280998 29.95979881 C107.47355652 29.92133514 101.1743162 29.88811854 94.87497044 29.86942768 C85.8572163 29.84260124 76.84089419 29.78496548 67.82365853 29.68366271 C61.47616514 29.61479516 55.12905249 29.58046309 48.78119415 29.57186288 C44.9921348 29.56586178 41.20455113 29.54492451 37.41589546 29.48729897 C33.85212439 29.43390783 30.29075499 29.42339515 26.72667694 29.44544411 C24.80012362 29.4465005 22.8737066 29.40295904 20.94767761 29.35800171 C14.63954947 29.29888373 14.63954947 29.29888373 9.50874138 32.48857689 C7.99751979 34.7651334 6.79560424 37.06649674 5.5625 39.5 C-0.69163277 45.44905312 -6.61077042 45.95741056 -14.98828125 45.80859375 C-21.56359107 45.22031575 -25.45230686 42.8504541 -29.8125 38 C-31.74450021 35.62547461 -33.09588141 33.2442521 -34.4375 30.5 C-52.19643336 30.42989573 -69.95533077 30.37700489 -87.71437263 30.34456348 C-95.96034498 30.3290995 -104.20623131 30.30801898 -112.45214844 30.27368164 C-119.63991761 30.24376489 -126.82762447 30.22442158 -134.01545417 30.21773452 C-137.82080732 30.2138261 -141.62598224 30.20465065 -145.43127823 30.18280983 C-149.01487042 30.16240863 -152.5982114 30.15617347 -156.18185616 30.16067696 C-158.12019687 30.15946144 -160.05851038 30.1433383 -161.9967804 30.1267395 C-170.16330669 30.07060588 -170.16330669 30.07060588 -177.4375 33.5 Z M124.5625 78.5 C124.5625 104.9 124.5625 131.3 124.5625 158.5 C150.9625 158.5 177.3625 158.5 204.5625 158.5 C204.5625 132.1 204.5625 105.7 204.5625 78.5 C178.1625 78.5 151.7625 78.5 124.5625 78.5 Z M-218.8125 96.6875 C-219.607771 96.81987061 -220.40304199 96.95224121 -221.22241211 97.08862305 C-234.20381185 99.38933684 -247.07351783 102.83734946 -257.0625 111.875 C-258.97220096 115.52079273 -259.21028056 118.47167581 -258.4375 122.5 C-254.42679384 130.15680267 -244.80036425 133.67681765 -237 136.1875 C-204.08395466 146.08882108 -158.98069435 147.24570604 -127.36328125 132.01953125 C-122.96867893 129.52391037 -118.83483499 127.07673044 -116.4375 122.5 C-115.7012562 117.34629342 -115.52762036 115.78678234 -118.578125 111.47265625 C-129.21573419 99.48058645 -150.54301995 97.12485237 -165.4375 95.5 C-170.0575 95.5 -174.6775 95.5 -179.4375 95.5 C-179.4375 105.73 -179.4375 115.96 -179.4375 126.5 C-184.7175 126.5 -189.9975 126.5 -195.4375 126.5 C-195.4375 116.27 -195.4375 106.04 -195.4375 95.5 C-207.26640305 95.41879146 -207.26640305 95.41879146 -218.8125 96.6875 Z M-259.4375 144.5 C-259.51198116 149.78357911 -259.56625795 155.06684863 -259.60229492 160.35083008 C-259.61732716 162.14613167 -259.63775857 163.94139688 -259.66381836 165.73657227 C-259.70044786 168.32577526 -259.7172821 170.91449028 -259.73046875 173.50390625 C-259.74595261 174.29898087 -259.76143646 175.09405548 -259.77738953 175.91322327 C-259.7791449 181.80282579 -258.8754356 186.76246268 -254.81640625 191.3203125 C-228.45239838 210.25704073 -186.36349711 208.81909597 -155.6875 204.25 C-142.32538868 202.05833824 -127.64302148 198.88126591 -117.875 188.875 C-114.97930737 184.09081217 -115.30509241 179.25442822 -115.33984375 173.796875 C-115.3412587 172.95908508 -115.34267365 172.12129517 -115.34413147 171.25811768 C-115.34971803 168.58870843 -115.36226806 165.9193838 -115.375 163.25 C-115.38001674 161.43750121 -115.38457934 159.62500111 -115.38867188 157.8125 C-115.39968306 153.37496752 -115.41693845 148.93749809 -115.4375 144.5 C-116.37198975 144.90774658 -117.30647949 145.31549316 -118.26928711 145.7355957 C-119.52191037 146.27830133 -120.77459945 146.82085507 -122.02734375 147.36328125 C-122.64009155 147.63112427 -123.25283936 147.89896729 -123.88415527 148.17492676 C-143.09052579 156.46959486 -163.831745 158.02640836 -184.52148438 157.89111328 C-187.4366734 157.87500457 -190.35047685 157.89109341 -193.265625 157.91015625 C-216.64040591 157.93691068 -238.20517611 154.48566757 -259.4375 144.5 Z M-99.4375 158.5 C-99.4375 169.06 -99.4375 179.62 -99.4375 190.5 C-95.10625 190.62375 -95.10625 190.62375 -90.6875 190.75 C-76.27085089 191.39916644 -61.88163045 196.05586955 -51.4375 206.5 C-38.53386082 222.10260754 -34.92650053 237.64546701 -36.4375 257.5 C-37.24124156 261.84751117 -38.50521124 265.53434891 -40.4375 269.5 C-40.90800781 270.47324219 -41.37851563 271.44648438 -41.86328125 272.44921875 C-49.44040643 287.11399073 -61.2056386 295.32835421 -76.64453125 300.59375 C-81.2529478 301.69483408 -85.65570482 301.95213805 -90.375 302.125 C-93.365625 302.24875 -96.35625 302.3725 -99.4375 302.5 C-99.4375 313.06 -99.4375 323.62 -99.4375 334.5 C-93.8275 334.5 -88.2175 334.5 -82.4375 334.5 C-81.90125 332.994375 -81.365 331.48875 -80.8125 329.9375 C-77.34172758 321.40518446 -73.04175954 317.31180704 -64.70703125 313.4453125 C-57.10153052 310.27744472 -46.18784215 310.03950894 -38.4375 313 C-36.9525 313.7425 -36.9525 313.7425 -35.4375 314.5 C-31.4775 310.54 -27.5175 306.58 -23.4375 302.5 C-23.9325 301.51 -24.4275 300.52 -24.9375 299.5 C-27.92236309 291.47371742 -27.74152827 280.94024251 -24.8125 272.9375 C-19.98032227 263.00745779 -13.09297712 259.32773856 -3.4375 254.5 C-3.4375 248.89 -3.4375 243.28 -3.4375 237.5 C-4.96375 236.943125 -6.49 236.38625 -8.0625 235.8125 C-15.9226357 232.63075255 -20.63354842 228.1216856 -24.4375 220.5 C-26.32396532 215.85285373 -26.78763856 211.59328928 -26.75 206.625 C-26.74871094 205.92117187 -26.74742187 205.21734375 -26.74609375 204.4921875 C-26.64757811 199.17234273 -25.8010847 195.2271694 -23.4375 190.5 C-27.3975 186.54 -31.3575 182.58 -35.4375 178.5 C-36.613125 178.995 -37.78875 179.49 -39 180 C-48.118825 183.00604799 -58.59171893 182.92726825 -67.30078125 178.73828125 C-75.84276304 173.78799199 -79.09548853 167.18402294 -83.4375 158.5 C-88.7175 158.5 -93.9975 158.5 -99.4375 158.5 Z M124.5625 206.5 C124.5625 232.9 124.5625 259.3 124.5625 286.5 C150.9625 286.5 177.3625 286.5 204.5625 286.5 C204.5625 260.1 204.5625 233.7 204.5625 206.5 C178.1625 206.5 151.7625 206.5 124.5625 206.5 Z M-99.4375 207.5 C-99.4375 212.78 -99.4375 218.06 -99.4375 223.5 C-97.1275 223.4175 -94.8175 223.335 -92.4375 223.25 C-85.10060803 223.17041391 -80.09311672 224.03332526 -74.69921875 229.1484375 C-68.75948573 235.64103349 -67.97458071 241.36316138 -68.12890625 250.05078125 C-68.71410995 256.5917289 -71.08202743 260.50062765 -75.875 264.875 C-80.98531415 269.1197621 -85.74979331 269.78546387 -92.25 269.625 C-94.621875 269.58375 -96.99375 269.5425 -99.4375 269.5 C-99.4375 274.78 -99.4375 280.06 -99.4375 285.5 C-86.14017992 285.95460923 -76.11147981 285.41034345 -65.50390625 276.47265625 C-57.26946488 268.61180012 -52.48348456 260.1098474 -51.96679688 248.58056641 C-51.79756834 236.5625202 -55.09520339 227.23876219 -63.4375 218.5 C-71.85354355 210.46578073 -80.59641584 207.13183611 -92.125 207.25 C-94.538125 207.3325 -96.95125 207.415 -99.4375 207.5 Z M-259.4375 208.5 C-259.51198116 213.78357911 -259.56625795 219.06684863 -259.60229492 224.35083008 C-259.61732716 226.14613167 -259.63775857 227.94139688 -259.66381836 229.73657227 C-259.70044786 232.32577526 -259.7172821 234.91449028 -259.73046875 237.50390625 C-259.74595261 238.29898087 -259.76143646 239.09405548 -259.77738953 239.91322327 C-259.7791449 245.80282579 -258.8754356 250.76246268 -254.81640625 255.3203125 C-228.45239838 274.25704073 -186.36349711 272.81909597 -155.6875 268.25 C-142.32538868 266.05833824 -127.64302148 262.88126591 -117.875 252.875 C-114.97930737 248.09081217 -115.30509241 243.25442822 -115.33984375 237.796875 C-115.3412587 236.95908508 -115.34267365 236.12129517 -115.34413147 235.25811768 C-115.34971803 232.58870843 -115.36226806 229.9193838 -115.375 227.25 C-115.38001674 225.43750121 -115.38457934 223.62500111 -115.38867188 221.8125 C-115.39968306 217.37496752 -115.41693845 212.93749809 -115.4375 208.5 C-116.37198975 208.90774658 -117.30647949 209.31549316 -118.26928711 209.7355957 C-119.52191037 210.27830133 -120.77459945 210.82085507 -122.02734375 211.36328125 C-122.64009155 211.63112427 -123.25283936 211.89896729 -123.88415527 212.17492676 C-143.09052579 220.46959486 -163.831745 222.02640836 -184.52148438 221.89111328 C-187.4366734 221.87500457 -190.35047685 221.89109341 -193.265625 221.91015625 C-216.64040591 221.93691068 -238.20517611 218.48566757 -259.4375 208.5 Z M-96.8125 241.125 C-98.92456506 244.21186432 -99.04945145 245.8282913 -98.4375 249.5 C-96.9375 252 -96.9375 252 -94.4375 253.5 C-90.7657913 254.11195145 -89.14936432 253.98706506 -86.0625 251.875 C-83.95043494 248.78813568 -83.82554855 247.1717087 -84.4375 243.5 C-85.9375 241 -85.9375 241 -88.4375 239.5 C-92.1092087 238.88804855 -93.72563568 239.01293494 -96.8125 241.125 Z M-259.4375 272.5 C-259.51198116 277.78357911 -259.56625795 283.06684863 -259.60229492 288.35083008 C-259.61732716 290.14613167 -259.63775857 291.94139688 -259.66381836 293.73657227 C-259.70044786 296.32577526 -259.7172821 298.91449028 -259.73046875 301.50390625 C-259.74595261 302.29898087 -259.76143646 303.09405548 -259.77738953 303.91322327 C-259.7791449 309.80282579 -258.8754356 314.76246268 -254.81640625 319.3203125 C-228.45239838 338.25704073 -186.36349711 336.81909597 -155.6875 332.25 C-142.32538868 330.05833824 -127.64302148 326.88126591 -117.875 316.875 C-114.97930737 312.09081217 -115.30509241 307.25442822 -115.33984375 301.796875 C-115.3412587 300.95908508 -115.34267365 300.12129517 -115.34413147 299.25811768 C-115.34971803 296.58870843 -115.36226806 293.9193838 -115.375 291.25 C-115.38001674 289.43750121 -115.38457934 287.62500111 -115.38867188 285.8125 C-115.39968306 281.37496752 -115.41693845 276.93749809 -115.4375 272.5 C-116.37198975 272.90774658 -117.30647949 273.31549316 -118.26928711 273.7355957 C-119.52191037 274.27830133 -120.77459945 274.82085507 -122.02734375 275.36328125 C-122.64009155 275.63112427 -123.25283936 275.89896729 -123.88415527 276.17492676 C-143.09052579 284.46959486 -163.831745 286.02640836 -184.52148438 285.89111328 C-187.4366734 285.87500457 -190.35047685 285.89109341 -193.265625 285.91015625 C-216.64040591 285.93691068 -238.20517611 282.48566757 -259.4375 272.5 Z M124.5625 334.5 C124.5625 360.9 124.5625 387.3 124.5625 414.5 C150.9625 414.5 177.3625 414.5 204.5625 414.5 C204.5625 388.1 204.5625 361.7 204.5625 334.5 C178.1625 334.5 151.7625 334.5 124.5625 334.5 Z M-259.4375 336.5 C-259.51198116 341.78357911 -259.56625795 347.06684863 -259.60229492 352.35083008 C-259.61732716 354.14613167 -259.63775857 355.94139688 -259.66381836 357.73657227 C-259.70044786 360.32577526 -259.7172821 362.91449028 -259.73046875 365.50390625 C-259.74595261 366.29898087 -259.76143646 367.09405548 -259.77738953 367.91322327 C-259.7791449 373.80282579 -258.8754356 378.76246268 -254.81640625 383.3203125 C-228.45239838 402.25704073 -186.36349711 400.81909597 -155.6875 396.25 C-142.32538868 394.05833824 -127.64302148 390.88126591 -117.875 380.875 C-114.97930737 376.09081217 -115.30509241 371.25442822 -115.33984375 365.796875 C-115.3412587 364.95908508 -115.34267365 364.12129517 -115.34413147 363.25811768 C-115.34971803 360.58870843 -115.36226806 357.9193838 -115.375 355.25 C-115.38001674 353.43750121 -115.38457934 351.62500111 -115.38867188 349.8125 C-115.39968306 345.37496752 -115.41693845 340.93749809 -115.4375 336.5 C-116.37198975 336.90774658 -117.30647949 337.31549316 -118.26928711 337.7355957 C-119.52191037 338.27830133 -120.77459945 338.82085507 -122.02734375 339.36328125 C-122.64009155 339.63112427 -123.25283936 339.89896729 -123.88415527 340.17492676 C-143.09052579 348.46959486 -163.831745 350.02640836 -184.52148438 349.89111328 C-187.4366734 349.87500457 -190.35047685 349.89109341 -193.265625 349.91015625 C-216.64040591 349.93691068 -238.20517611 346.48566757 -259.4375 336.5 Z M-16.8125 465.125 C-18.92456506 468.21186432 -19.04945145 469.8282913 -18.4375 473.5 C-16.9375 476 -16.9375 476 -14.4375 477.5 C-10.7657913 478.11195145 -9.14936432 477.98706506 -6.0625 475.875 C-3.95043494 472.78813568 -3.82554855 471.1717087 -4.4375 467.5 C-5.9375 465 -5.9375 465 -8.4375 463.5 C-12.1092087 462.88804855 -13.72563568 463.01293494 -16.8125 465.125 Z " fill="#68CBED" transform="translate(283.4375,9.5)"/>
<path d="M0 0 C15.84 0 31.68 0 48 0 C48 5.28 48 10.56 48 16 C32.16 16 16.32 16 0 16 C0 10.72 0 5.44 0 0 Z " fill="#D4FAFE" transform="translate(424,392)"/>
<path d="M0 0 C15.84 0 31.68 0 48 0 C48 5.28 48 10.56 48 16 C32.16 16 16.32 16 0 16 C0 10.72 0 5.44 0 0 Z " fill="#005AB0" transform="translate(424,360)"/>
<path d="M0 0 C15.84 0 31.68 0 48 0 C48 5.28 48 10.56 48 16 C32.16 16 16.32 16 0 16 C0 10.72 0 5.44 0 0 Z " fill="#D4FAFE" transform="translate(424,264)"/>
<path d="M0 0 C15.84 0 31.68 0 48 0 C48 5.28 48 10.56 48 16 C32.16 16 16.32 16 0 16 C0 10.72 0 5.44 0 0 Z " fill="#005AB0" transform="translate(424,232)"/>
<path d="M0 0 C15.84 0 31.68 0 48 0 C48 5.28 48 10.56 48 16 C32.16 16 16.32 16 0 16 C0 10.72 0 5.44 0 0 Z " fill="#D4FAFE" transform="translate(424,136)"/>
<path d="M0 0 C15.84 0 31.68 0 48 0 C48 5.28 48 10.56 48 16 C32.16 16 16.32 16 0 16 C0 10.72 0 5.44 0 0 Z " fill="#005AB0" transform="translate(424,104)"/>
</svg>
