<svg xmlns="http://www.w3.org/2000/svg" viewBox="0 0 500 500"><defs><clipPath id="a"><circle cx="111.17" cy="337.79" r="33.29" style="fill:#68cbed" transform="rotate(-76.72 111.152 337.782)"/></clipPath></defs><path d="M342.83 389.66a4.88 4.88 0 0 0-2.17-2.34c-2.14-1-4.37-.62-6.69-.3s-4.94 1.8-7.32 2.9c-1.16.55-2.21 1.13-3.3 1.58a31 31 0 0 1-3.41 1.18c-2.26.63-4.92 1-6.7.51a.7.7 0 0 0-.19-.06 4 4 0 0 1-.41-.2 2.4 2.4 0 0 1-.45-.33 1.6 1.6 0 0 1-.51-.67.52.52 0 0 1 .07-.33 2.2 2.2 0 0 1 .61-.59c.92-.53 3.1-1.8 3.38-4.3a5.38 5.38 0 0 0-2.83-5 8.7 8.7 0 0 0-4.74-1.07 17.5 17.5 0 0 0-3.87.51 29.3 29.3 0 0 0-6.47 2.36c-1.72.88-3.1 1.75-4.38 2.5a17 17 0 0 0-2.15-1c-29.6-1.63-45.65 5.78-54.82 17.79-4.06 3.74 1.49 8 7.43 8.95 6.23 1 23.3-.3 39.92-7.6 10.4-4.56 14.05-10.93 13.58-14a3.2 3.2 0 0 0-.3-.89c.91-.56 1.86-1.13 2.84-1.64a25 25 0 0 1 5.39-2 17 17 0 0 1 3-.47 5.3 5.3 0 0 1 2.26.27c.9.5 1 .9 1 .92s0 .21-.24.45a3 3 0 0 1-.4.36l-.75.49a6 6 0 0 0-2 2.23 4.38 4.38 0 0 0-.19 3.46 5.43 5.43 0 0 0 1.85 2.38 7 7 0 0 0 1.2.73c.17.07.26.12.49.2l.74.23c3.38.65 6.05-.13 8.68-.94a29 29 0 0 0 3.73-1.57c1.2-.62 2.29-1.33 3.31-1.91a27.6 27.6 0 0 1 6.21-2.53c2-.53 4.16-.82 5.7-.28.95.37 2.41 1.29 1.38 2.35a7 7 0 0 1-.85.78c-1.09.86-2.57 1.2-3.46 2.27a1.4 1.4 0 0 0 1.12 0c1.94-.8 6.08-2.5 4.71-5.38M191.36 363a1.88 1.88 0 0 0-2.57-.69l-7.66 4.42a15.12 15.12 0 0 1-13.44 0c-1.42-.82-2.23-1.84-2.23-2.79s.81-2 2.23-2.79c2.65-1.53 4.11-3.68 4.11-6.06s-1.46-4.52-4.11-6.05c-4.83-2.79-14.07-1.82-21 2.21l-2.78 1.6c-1.52-3.14-4.41-6.09-8.68-8.56-13.27-7.66-34.78-7.66-48 0s-13.27 20.08 0 27.74 34.78 7.66 48.05 0c7.35-4.24 10.62-9.94 9.83-15.49l3.51-2c5.72-3.3 13.63-4.31 17.27-2.21 1.42.82 2.23 1.84 2.23 2.79s-.81 2-2.23 2.79c-2.65 1.54-4.12 3.69-4.12 6.06s1.47 4.52 4.12 6.06A18.76 18.76 0 0 0 183 370l7.66-4.43a1.86 1.86 0 0 0 .7-2.57" style="fill:#a7c8e9"/><ellipse cx="297.95" cy="263.55" rx="127.16" ry="69.49" style="fill:#a7c8e9"/><path d="M112.65 237.71 123 231.8s5-27.32 1.25-50.8c-5.21-33-27.69-44.4-35.85-41.12S78.29 152.94 93 172c8.74 11.27 19.93 35.07 19.65 65.71" style="fill:#68cbed"/><path d="M112.65 237.71 123 231.8s5-27.32 1.25-50.8c-5.21-33-27.69-44.4-35.85-41.12S78.29 152.94 93 172c8.74 11.27 19.93 35.07 19.65 65.71" style="opacity:.1"/><path d="M116.39 224.6h-.1a.75.75 0 0 1-.63-.83c4.27-30.91-8.16-64.78-22.12-78.43a.74.74 0 1 1 1-1.05c14.22 13.9 26.89 48.31 22.55 79.68a.73.73 0 0 1-.7.63" style="fill:#a7c8e9"/><path d="M84 254.28c-1.63.93-5-1.12-6.29-2a15.66 15.66 0 0 1-5.18-6 14.64 14.64 0 0 1-1.3-8.77 36 36 0 0 1 1.11-4.67c.43-1.51.87-3 1.3-4.53a11.55 11.55 0 0 0 .67-4.56c-.4-3.1-3.15-5.27-5.65-7.14-2.76-2.07-5.64-4.8-5.62-8.53 0-2.87 1.5-5.55 3.28-7.8s3.9-4.26 5.51-6.64a9.13 9.13 0 0 0 1.88-5.79 9.5 9.5 0 0 0-1.27-3.62c-1.31-2.43-3-4.65-4-7.26s-.77-5.85 1.26-7.71c1.67-1.54 4.15-1.75 6.42-1.6a14.7 14.7 0 0 1 6 2.1c5.92 3.29 9.3 10.3 15.58 12.83 2.42 1 5.07 1.19 7.6 1.86s5.1 2 6.27 4.29c2.3 4.61-2 10.28-.35 15.17 1.43 4.32 5.63 6 8 9.88a9.22 9.22 0 0 1 1.11 5.66 27.4 27.4 0 0 1-2.39 9.57 68 68 0 0 1-5.25 8.62c-.14.17-28.47 16.49-28.69 16.64" style="fill:#68cbed"/><path d="M100.75 245.34a.75.75 0 0 1-.72-.77c1.22-29.26-12.57-61.56-22.59-70.94a.74.74 0 0 1 1-1.08c10.22 9.57 24.29 42.41 23.06 72.08a.75.75 0 0 1-.75.71" style="fill:#a7c8e9"/><path d="M96.37 210.77a.8.8 0 0 1-.22 0c-9.4-2.91-21.12-3.42-21.23-3.43a.73.73 0 0 1-.71-.76.72.72 0 0 1 .77-.71c.12 0 12 .53 21.6 3.49a.74.74 0 0 1-.21 1.44Z" style="fill:#a7c8e9"/><path d="M174.41 368.49a17.45 17.45 0 0 1-8.61-2.09c-2.65-1.53-4.12-3.68-4.12-6.06s1.47-4.52 4.12-6c1.42-.82 2.23-1.84 2.23-2.79s-.81-2-2.23-2.79c-3.64-2.11-11.55-1.09-17.27 2.21L137 357.56a1.89 1.89 0 1 1-1.89-3.27l11.5-6.64c7-4 16.21-5 21-2.21 2.65 1.53 4.11 3.68 4.11 6.06s-1.46 4.52-4.11 6.06c-1.42.81-2.23 1.83-2.23 2.78s.81 2 2.23 2.8a15.12 15.12 0 0 0 13.44 0l7.66-4.43a1.89 1.89 0 0 1 1.88 3.27L183 366.4a17.44 17.44 0 0 1-8.59 2.09" style="fill:#68cbed"/><path d="M174.41 368.49a17.45 17.45 0 0 1-8.61-2.09c-2.65-1.53-4.12-3.68-4.12-6.06s1.47-4.52 4.12-6c1.42-.82 2.23-1.84 2.23-2.79s-.81-2-2.23-2.79c-3.64-2.11-11.55-1.09-17.27 2.21L137 357.56a1.89 1.89 0 1 1-1.89-3.27l11.5-6.64c7-4 16.21-5 21-2.21 2.65 1.53 4.11 3.68 4.11 6.06s-1.46 4.52-4.11 6.06c-1.42.81-2.23 1.83-2.23 2.78s.81 2 2.23 2.8a15.12 15.12 0 0 0 13.44 0l7.66-4.43a1.89 1.89 0 0 1 1.88 3.27L183 366.4a17.44 17.44 0 0 1-8.59 2.09" style="opacity:.1"/><circle cx="111.17" cy="337.79" r="33.29" style="fill:#68cbed" transform="rotate(-76.72 111.152 337.782)"/><g style="clip-path:url(#a)"><path d="M154.6 367.94a71.5 71.5 0 0 1-22.17-10.56 46 46 0 0 0 5.29.84c4 .47 8.87 1.21 12.05-1.71.6-.55-.28-1-.76-.92a86 86 0 0 1-12.22.6 18.45 18.45 0 0 1-12.41-5.9c-.67-.71-1.33-1.45-2-2.2a31.6 31.6 0 0 0 9.69 2.44c7.73.65 13.64-1.84 18.88-7.35.59-.63 0-1.36-.75-1.22-1.44.27-2.22 1.06-3.4 2-3.78 2.81-7 3.7-11.66 3.85a26.1 26.1 0 0 1-9.66-1.57c-1.57-.59-3-1.48-4.49-2.2a9.2 9.2 0 0 1-3.85-3.24 31 31 0 0 1-1.86-3.66c6.09 3.67 16.18 3 22.35 2.06 6.52-1 12.57-3.61 15.73-9.59.56-1.06-1-1.26-1.57-.67a28.9 28.9 0 0 1-6.57 5.37A23.1 23.1 0 0 1 136 337c-6.89.77-15.61.72-21.86-2.78a43 43 0 0 1-1.09-3.56c5.53 1.38 11.55.68 17-.76a26.1 26.1 0 0 0 9.08-4.16c1.73-1.25 4.93-3.09 5.43-5.3.23-1.05-1.3-1-1.77-.41-3.32 4-8.57 6.37-13.5 7.78 1.16-4.44 2.43-8.2 5.38-12a54 54 0 0 1 4.6-5c.51-.52 1.1-1 1.18-1.71.12-1.09-1.71-.54-2 .14.06-.18-1 .24-1 .27a10.3 10.3 0 0 0-2.47 2.42 40 40 0 0 0-3.47 4.09c-2.75 3.83-4 7.9-4.88 12.43a41 41 0 0 1-7.08.54c-.49-1.4.12-3.77.25-5.15a43 43 0 0 1 .76-6.17c1.14-4.75 4.55-9 5.42-13.62.1-.54-1-.59-1.23-.26a37.9 37.9 0 0 0-7.08 16.34c-.36 2.31-1.23 6.17-.83 8.93a6.7 6.7 0 0 1-1.78-.15 5.8 5.8 0 0 1-1.82-.61c-1.3-.77-1.23-2.36-1.4-3.7a41 41 0 0 1-.34-4.7 36.4 36.4 0 0 1 1.49-11.32c1-3 3.11-5.78 3.53-9 .2-1.53-2-1.31-2.36-.12-.94 3.18-3.36 5.73-4.39 9a41.9 41.9 0 0 0-1.62 13.36 46.4 46.4 0 0 0 5.68 20.58A59.5 59.5 0 0 0 136 364.62a61 61 0 0 1-26.28-22.13c-7.36-11.09-11.19-27.28-6.32-40.11.18-.49-.73-.77-1-.43-4.22 5.1-4 13.7-3 19.86 1.17 7 2.77 14 6.6 20.16 4.18 6.68 8.94 12.54 15.41 17.16 2.52 1.79 5.21 3.66 8 5.27a44.2 44.2 0 0 1-11.41-5.09 68.7 68.7 0 0 1-12-10.84 46.8 46.8 0 0 1-11.79-22 50.3 50.3 0 0 1-1-10.74c0-3.43-.59-7.72.73-10.92.29-.73-1.23-.76-1.52-.25a18 18 0 0 0-2 8.11c-.09 1.56 0 3.1 0 4.65a7.2 7.2 0 0 1-.86 4.14 16.5 16.5 0 0 1-2.39 2.48c-.74.78-1.52 1.53-2.28 2.32a41.7 41.7 0 0 0-4.24 5.22c-4.14 5.92-4.85 13-4.94 20.06 0 .74 1.4.53 1.57 0 2-6.75 1.67-13.48 6.18-19.37 2.25-2.93 5-5.14 7.74-7.54v.31c.28 1.75.65 3.5 1.1 5.22.37 1.37.78 2.91-.24 4.12a19.4 19.4 0 0 1-2.48 2 25 25 0 0 0-2.5 2.54c-1.36 1.53-2.59 3.17-3.87 4.77-4.16 5.2-7.5 13.21-6.38 20a.68.68 0 0 0 .72.48 14.5 14.5 0 0 0-.07 5 .58.58 0 0 0 1.14 0 35.8 35.8 0 0 1 6.71-13.9c2.62 4.3 8.19 7.71 12.56 9.08a34.2 34.2 0 0 0 10.35 1.72 28.8 28.8 0 0 0 11.29-2 34.06 34.06 0 0 0 15.4 4.36 1.54 1.54 0 0 0 1.24-.79 25 25 0 0 0 3.68.9 1.57 1.57 0 0 0 1.5-1.24 34 34 0 0 0 12.53 2.41c.79-.09 1.92-1.31.72-1.67m-55.43-23c.73 1 1.5 2 2.33 3 1.7 2 3.53 4 5.46 5.92-.14-.14-1.24 0-1.46 0h-1.56a18.6 18.6 0 0 1-3-.33 13.9 13.9 0 0 1-5.3-2.11 11.1 11.1 0 0 1-2-2c-.49-.59-.66-1.37.1-1.83.54-.33 1.09-.65 1.65-.95A33 33 0 0 1 99 345Zm-19.71 13.7a35.35 35.35 0 0 1 6.08-13.44 55.7 55.7 0 0 1 8.83-9 19 19 0 0 0 1.38 3c.36.71 1.54 2.16 1.31 3a.8.8 0 0 1-.28.4 3.2 3.2 0 0 1-1 .55A30.1 30.1 0 0 0 84 352a35 35 0 0 0-4.54 6.62Zm30.32 4.52a29.3 29.3 0 0 1-9.21-1.21c-4.64-1.31-10.64-4.58-13.24-9.11a32 32 0 0 1 3.06-2.84c1.29 2.23 4.26 4.13 6.2 5 3.52 1.55 9 2.71 12.67 1a63 63 0 0 0 8.12 6.26 37 37 0 0 1-7.6.88Z" style="opacity:.1"/></g><path d="M287.62 389.9s-.08-.31-.1-.65a4 4 0 0 1 0-1.38c.1-1 1-1.2 2-1.84l3.56-2.1c1.38-.79 2.87-1.75 4.77-2.73a29.3 29.3 0 0 1 6.47-2.36 18.8 18.8 0 0 1 3.87-.51 8.8 8.8 0 0 1 4.74 1.08 5.38 5.38 0 0 1 2.83 5c-.28 2.49-2.46 3.77-3.38 4.3a2 2 0 0 0-.61.59.5.5 0 0 0-.07.32 1.56 1.56 0 0 0 .51.68 4 4 0 0 0 .45.33 4 4 0 0 0 .41.19l.19.06c1.78.49 4.44.13 6.7-.51a29 29 0 0 0 3.41-1.18c1.09-.44 2.14-1 3.3-1.58a26.7 26.7 0 0 1 7.06-2.23c2.33-.33 4.65-.51 6.79.47a5.8 5.8 0 0 1 2.6 2.3c.82 1.72-.39 3.65-1.82 4.6-.29.2-4.48 2.6-4.65 2.18-.06-.16.07-.33.19-.45a34 34 0 0 1 3.37-2.49c1-.79 2.32-1.89 1.49-3.31a3.7 3.7 0 0 0-1.81-1.42c-1.54-.54-3.67-.26-5.7.28a27.1 27.1 0 0 0-6.19 2.56c-1 .58-2.11 1.29-3.31 1.9a26 26 0 0 1-3.73 1.57c-2.63.81-5.3 1.59-8.68.95l-.74-.23c-.23-.08-.32-.14-.49-.21a6.4 6.4 0 0 1-1.2-.73A5.46 5.46 0 0 1 308 391a4.37 4.37 0 0 1 .19-3.46 5.9 5.9 0 0 1 2-2.23l.75-.5a2.4 2.4 0 0 0 .4-.36c.21-.23.26-.4.24-.44s-.07-.42-1-.92a5.5 5.5 0 0 0-2.26-.28 16.3 16.3 0 0 0-3 .48 25 25 0 0 0-5.39 2c-1.59.83-3.12 1.83-4.49 2.64l-3.54 2.14c-1 .53-1.61 1.29-2.57.88a4.3 4.3 0 0 1-1.21-.66c-.27-.17-.51-.42-.5-.39" style="fill:#ffa8a7"/><path d="M294.77 386c0-3.35-1.66-11.59-8-15.33-7-4.16-15.41-6.24-26.41 0-10.47 5.93-23.62 23.88-24 30.38v.32c-.06 1.87.9 3.46 3.21 4.8 7 4.06 25.5.25 38.48-4.8C288 397.5 296.09 392 294.77 386" style="fill:#a7c8e9"/><path d="M240.34 401.33c-1-.48-1.18-2.07-.81-2.91 1.14-2.54 6.26.51 5.09 1.94a3.79 3.79 0 0 1-4.28.97" style="fill:#ffa8a7"/><path d="M242.75 388.12s-4.27-2.11-4.32-6.29 3.46-6.05 6.95-5.13c4.64 1.22 4 7.27 1.76 10.19 0 0-.39.77-2.31 1.23a5.3 5.3 0 0 1-2.08 0" style="fill:#a7c8e9"/><path d="M244.54 387.32c-1.86.3-4.08-2.37-4.2-4.1s1.1-3.15 3.31-3.58 3.59.42 3.82 2.71c.14 1.48-.33 4.54-2.93 4.97" style="fill:#ffa8a7"/><path d="M255.93 390.58s-.85-4.68 2.48-7.21 6.92-.83 8.26 2.52c1.79 4.45-3.44 7.56-7.14 7.49 0 0-.85.14-2.36-1.13a5.3 5.3 0 0 1-1.24-1.67" style="fill:#a7c8e9"/><path d="M257.64 391.54c-1.35-1.31-.53-4.68.79-5.81s3.19-1 4.84.52 1.81 3.14.1 4.69c-1.1.99-3.84 2.44-5.73.6" style="fill:#ffa8a7"/><path d="m251.77 393.24 1 .68a1.76 1.76 0 0 1 .88 1.33 3.37 3.37 0 0 1-1.83 3.33 1.85 1.85 0 0 1-1.65 0l-.94-.64.15-.29a2 2 0 0 1-.2-.62 3.39 3.39 0 0 1 1.83-3.33 2.3 2.3 0 0 1 .53-.16Z" style="fill:#37474f"/><path d="M252.71 394.6a3.35 3.35 0 0 1-1.83 3.33 1.68 1.68 0 0 1-2.53-1.3 3.37 3.37 0 0 1 1.83-3.33 1.68 1.68 0 0 1 2.53 1.3" style="fill:#455a64"/><path d="M250.54 394.5a.64.64 0 0 1-.34.62.31.31 0 0 1-.47-.24.63.63 0 0 1 .34-.62.32.32 0 0 1 .47.24M251.79 395.07a.61.61 0 0 1-.34.62.31.31 0 0 1-.47-.24.64.64 0 0 1 .34-.62.31.31 0 0 1 .47.24M249.82 395.69a.63.63 0 0 1-.34.62.32.32 0 0 1-.47-.24.64.64 0 0 1 .34-.62.31.31 0 0 1 .47.24M251.08 396.26a.63.63 0 0 1-.34.61.31.31 0 0 1-.47-.24.6.6 0 0 1 .34-.61.31.31 0 0 1 .47.24M241.44 389.12l1 .69a1.74 1.74 0 0 1 .88 1.33 3.37 3.37 0 0 1-1.83 3.33 1.86 1.86 0 0 1-1.64 0l-.94-.64.15-.29a2.4 2.4 0 0 1-.2-.62 3.37 3.37 0 0 1 1.83-3.33 2.3 2.3 0 0 1 .53-.16Z" style="fill:#37474f"/><path d="M242.38 390.49a3.35 3.35 0 0 1-1.83 3.33 1.68 1.68 0 0 1-2.53-1.3 3.37 3.37 0 0 1 1.83-3.33 1.68 1.68 0 0 1 2.53 1.3" style="fill:#455a64"/><path d="M240.21 390.39a.64.64 0 0 1-.34.62.31.31 0 0 1-.47-.24.63.63 0 0 1 .34-.62.32.32 0 0 1 .47.24M241.46 391a.61.61 0 0 1-.34.62.32.32 0 0 1-.47-.24.64.64 0 0 1 .34-.62.31.31 0 0 1 .47.24M239.49 391.58a.61.61 0 0 1-.34.62.32.32 0 0 1-.47-.25.63.63 0 0 1 .34-.61.31.31 0 0 1 .47.24M240.75 392.15a.63.63 0 0 1-.34.61.31.31 0 0 1-.47-.24.6.6 0 0 1 .34-.61.31.31 0 0 1 .47.24" style="fill:#37474f"/><path d="M447.36 192.76a19.24 19.24 0 0 1-14.52-6.53c-9.93-10.94-11.16-34.47-3.21-61.41 6-20.24 5.59-36.56-1-44.77-3.32-4.12-8.24-6-14.62-5.5-10.3.77-12.87 5.71-16.41 12.55-1.57 3-2.76 6.51-.69 8.46-3.22 3.44-13.21 7.15-20 7.35a7.06 7.06 0 1 1-.42-14.12c4-.12 5.2-1.66 8.6-8.2 3.88-7.48 9.74-18.77 27.91-20.12 10.95-.82 20.42 3 26.65 10.7 9.73 12 11 32.52 3.6 57.64-7.31 24.78-5.06 42.21.12 47.92a5.37 5.37 0 0 0 5.58 1.75 7.06 7.06 0 1 1 2.67 13.87 22.4 22.4 0 0 1-4.26.41" style="fill:#031326"/><path d="M447.36 192.76a19.24 19.24 0 0 1-14.52-6.53c-9.93-10.94-11.16-34.47-3.21-61.41 6-20.24 5.59-36.56-1-44.77-3.32-4.12-8.24-6-14.62-5.5-10.3.77-12.87 5.71-16.41 12.55-1.57 3-2.76 6.51-.69 8.46-3.22 3.44-13.21 7.15-20 7.35a7.06 7.06 0 1 1-.42-14.12c4-.12 5.2-1.66 8.6-8.2 3.88-7.48 9.74-18.77 27.91-20.12 10.95-.82 20.42 3 26.65 10.7 9.73 12 11 32.52 3.6 57.64-7.31 24.78-5.06 42.21.12 47.92a5.37 5.37 0 0 0 5.58 1.75 7.06 7.06 0 1 1 2.67 13.87 22.4 22.4 0 0 1-4.26.41" style="opacity:.5"/><path d="M240.63 230.77c-3.29 10.38-9.26 16.7-21.15 24.16s-25 17.79-29 23.62c-3.69 5.45-4.28 9.45-1.8 11.45 0 0 1 4.49 6.11 2.17 0 0 2.52 3 5.59 1.33 3.72-2 5.51-6.5 8.42-10.2a28.85 28.85 0 0 1 13.3-9.12c5.72-1.92 32.8-9.44 41.18-21.31s9.64-16.57 13.59-27.08" style="fill:#031326"/><path d="M240.63 230.77c-3.29 10.38-9.26 16.7-21.15 24.16s-25 17.79-29 23.62c-3.69 5.45-4.28 9.45-1.8 11.45 0 0 1 4.49 6.11 2.17 0 0 2.52 3 5.59 1.33 3.72-2 5.51-6.5 8.42-10.2a28.85 28.85 0 0 1 13.3-9.12c5.72-1.92 32.8-9.44 41.18-21.31s9.64-16.57 13.59-27.08" style="opacity:.7000000000000001"/><path d="M270.83 250.24c-3.3 10.38-9.26 16.71-21.15 24.17s-25 17.78-29 23.61c-3.73 5.44-4.32 9.45-1.83 11.42 0 0 1 4.5 6.1 2.17 0 0 2.53 3 5.6 1.34 3.72-2 5.51-6.5 8.42-10.2a28.8 28.8 0 0 1 13.29-9.12c5.73-1.92 36-7.54 44.36-19.41s12.92-17 17.57-27.61" style="fill:#68cbed"/><path d="M417.61 131.82c0-22-17.69-40.37-39.58-42.8-16.35-1.82-32.4 3.92-41.67 18.93a328 328 0 0 0-15.71 28.94c-8.3 16.91-21.65 50.11-46.23 43.47l-3 44.2-25.34 8.85c9.81-.51 10.89 14.48 27.49 22.74s27 9.14 37.79-3.71c8.44-10 36.66-16.17 56.95-37.07 11.43-11.78 13.19-20.86 13.19-20.86a112 112 0 0 0 11.93 20.34c3.43 4.33-.28 21.48-.58 27.66-6.72 3.29-8.38 7.25-2.69 10.33 4.22 2.28 8.39.89 11.71-1.45a7.9 7.9 0 0 0 2.61-3.62c4.52-11.24 15.52-43.58 8.52-49.1-5-3.91 1.81-39.43 3.5-52.63a113 113 0 0 0 1.11-14.22" style="fill:#68cbed"/><path d="M378.67 201.58a29 29 0 0 0 2.86-7.07c-4.22-5.07-4.71-36-4.71-36s-6.58 21.49 1.85 43.07M327.39 242s-2.62 1.33-3.82-2.42 3.82-13.83 3.82-13.83-11.06 19.29-16 26.68c3.11-3.68 8.91-6.85 16-10.43" style="opacity:.5"/><path d="M237.44 167.3s-7.25-7.41-15.14-10.05-11-2.86-13-2.09c-3.78 1.48 6.23 16.31 6.23 28.06Z" style="fill:#031326"/><path d="M237.44 167.3s-7.25-7.41-15.14-10.05-11-2.86-13-2.09c-3.78 1.48 6.23 16.31 6.23 28.06Z" style="opacity:.7000000000000001"/><path d="M215.53 159.28c-4.39-2.93-6.68-3.65-7.05-2.8-.41 4.15 7.05 16.59 7.05 26.74l9.93-7.21c.39-5.47-5.46-13.74-9.93-16.73" style="fill:#e0e0e0"/><path d="M279 177.15c-5.81-6.8-15.71-11.76-22.46-12.17-16.68-1-28.24 3.36-37.72 14.1s-7.78 16.77-7.4 22-2.12 13.45-1.59 19.11 8.84 14.29 14.25 16c7.6 2.33 18.07 1.46 25-1.46s24.53-4.28 28 4.94l14.2-38.54c-6.82-7.99-5.4-15.92-12.28-23.98" style="fill:#68cbed"/><path d="M417.61 131.82c0-22-17.69-40.37-39.58-42.8-16.35-1.82-32.4 3.92-41.67 18.93a328 328 0 0 0-15.71 28.94c-7.43 15.13-18.87 43.29-38.83 44.3a26 26 0 0 0-2.83-4c-5.81-6.8-15.71-11.76-22.46-12.17-16.68-1-28.24 3.36-37.72 14.1s-7.78 16.77-7.4 22-2.12 13.45-1.59 19.11 8.84 14.29 14.25 16c7.6 2.33 18.07 1.46 25-1.46.34-.15.72-.29 1.12-.43 5.81 2.85 8.78 12.57 19.38 19.58-3.5 8.35-9.38 14-19.84 20.61-11.89 7.46-25 17.78-29 23.61-3.73 5.44-4.32 9.45-1.83 11.42 0 0 1 4.5 6.1 2.17 0 0 2.53 3 5.6 1.34 3.72-2 5.51-6.5 8.42-10.2a28.8 28.8 0 0 1 13.29-9.12c5.73-1.92 36-7.54 44.36-19.41 6.68-9.47 10.92-14.68 14.73-21.77 8.44-10 36.66-16.17 56.95-37.07 11.43-11.78 13.19-20.86 13.19-20.86a112 112 0 0 0 11.93 20.34c3.43 4.33-.28 21.48-.58 27.66-6.72 3.29-8.38 7.25-2.69 10.33 4.22 2.28 8.39.89 11.71-1.45a7.9 7.9 0 0 0 2.61-3.62C409 236.53 420 204.19 413 198.67c-5-3.91 1.81-39.43 3.5-52.63a113 113 0 0 0 1.11-14.22" style="fill:#031326"/><path d="M285.19 161.7c-1.88-2.16-10.25-4.26-31.42 8l1 10.68s11.24-.79 17.35 1.71a17.9 17.9 0 0 1 8 6.71 12 12 0 0 1 .65 1.11s9.02-23.75 4.42-28.21" style="fill:#031326"/><path d="M285.19 161.7c-1.88-2.16-10.25-4.26-31.42 8l1 10.68s11.24-.79 17.35 1.71a17.9 17.9 0 0 1 8 6.71 12 12 0 0 1 .65 1.11s9.02-23.75 4.42-28.21" style="opacity:.7000000000000001"/><path d="M282.65 161c-8.75.89-27.87 19.31-27.87 19.31s11.24-.79 17.35 1.71a17.9 17.9 0 0 1 8 6.71v.05c1.87-5.08 9.37-27 2.52-27.78" style="fill:#e0e0e0"/><path d="M242 206.89c0-.24 1.41-5.34 5.4-5.84a6 6 0 0 1 5.87 2.92 6.22 6.22 0 0 1-4.38 4.95c-4.08 1.39-6.89-2.03-6.89-2.03M220.89 205a5.47 5.47 0 0 0-2.57-5.7 3.4 3.4 0 0 0-2.06-.43 3.76 3.76 0 0 0-2.81 5.54 3.9 3.9 0 0 0 1.51 1.45 4.84 4.84 0 0 0 5.93-.86M255.15 218.51a1 1 0 0 1-.23 0 28.73 28.73 0 0 0-18.94 0 .71.71 0 1 1-.57-1.31c.36-.16 8.89-3.75 20 0a.73.73 0 0 1 .45.91.71.71 0 0 1-.71.4M253.85 227.5a.71.71 0 0 1-.54-.24c-6.54-7.32-18.05-5.92-18.16-5.9a.73.73 0 0 1-.8-.62.71.71 0 0 1 .61-.8c.5-.06 12.38-1.51 19.42 6.36a.73.73 0 0 1-.06 1 .7.7 0 0 1-.47.2M213.5 216.93a1 1 0 0 1-.55-.17 22.52 22.52 0 0 0-16.48-4.4.69.69 0 0 1-.79-.63.72.72 0 0 1 .63-.79 24.1 24.1 0 0 1 17.28 4.54.8.8 0 0 1 .23.14l.07.06a1.1 1.1 0 0 1 .25.28.71.71 0 0 1-.27.84.56.56 0 0 1-.37.13M197 219.53a.69.69 0 0 1-.63-.39.71.71 0 0 1 .31-1 19.16 19.16 0 0 1 16.62-.13.71.71 0 0 1 .31 1 .73.73 0 0 1-1 .31c-.08 0-7.57-3.82-15.31.13a.64.64 0 0 1-.3.08" style="fill:#263238"/><path d="M231.34 229.07a9.7 9.7 0 0 1-5.31-1.53 5.8 5.8 0 0 1-2.37-2.48 14.76 14.76 0 0 1 1-7.57.57.57 0 1 1 1 .46 13.9 13.9 0 0 0-.86 6.93c.23.51 3.48 4.24 9.4 2.66a.57.57 0 0 1 .3 1.1 12 12 0 0 1-3.16.43" style="fill:#37474f"/><path d="M224.62 214.55c-4.47.08-5.23 1.84-4.58 4a6.05 6.05 0 0 0 4.54 3.7c1.61.14 5.86-1 6.46-3.27.45-1.75-1.04-4.52-6.42-4.43" style="fill:#ffa8a7"/><path d="M220.65 227.41a8 8 0 0 1-1.39-.14.57.57 0 0 1-.45-.67.58.58 0 0 1 .67-.46c3.14.6 4.19-1.34 4.23-1.43a.58.58 0 0 1 .77-.25.57.57 0 0 1 .26.76 4.45 4.45 0 0 1-4.09 2.19" style="fill:#37474f"/></svg>