<svg xmlns="http://www.w3.org/2000/svg" xml:space="preserve" fill="#A6C7E9" viewBox="0 0 512 512"><path d="M384 284.92v94.65h-54.85v-88.33c0-22.17-7.92-37.3-27.8-37.3-15.15 0-24.2 10.2-28.15 20.07-1.45 3.52-1.83 8.45-1.83 13.35v92.2h-54.9s.75-149.55 0-165.05h54.9v23.38l-.35.53h.35v-.5c7.3-11.28 20.3-27.3 49.45-27.3 36.1.01 63.18 23.63 63.18 74.3M159.07 134.93c-18.77 0-31.07 12.35-31.07 28.52 0 15.88 11.95 28.55 30.35 28.55h.35c19.15 0 31.05-12.7 31.05-28.55-.35-16.18-11.9-28.52-30.68-28.52m-27.8 244.65h54.88V214.52h-54.88z"/><path d="M102.4 51.2c-28.28 0-51.2 22.92-51.2 51.2v307.2c0 28.27 22.92 51.2 51.2 51.2h307.2c28.3 0 51.2-22.92 51.2-51.2V102.4c0-28.28-22.9-51.2-51.2-51.2zm0-51.2h307.2C466.17 0 512 45.85 512 102.4v307.2c0 56.55-45.83 102.4-102.4 102.4H102.4C45.85 512 0 466.15 0 409.6V102.4C0 45.85 45.85 0 102.4 0"/></svg>