<svg xmlns="http://www.w3.org/2000/svg" width="588.032" height="630.731"><path fill="#e8989b" d="m302.782 124.673-23.495 21.234-12.399-13.718 23.496-21.235c.165-4.703 2.438-9.68 6.623-13.463 7.324-6.619 17.702-7.071 23.18-1.01s3.981 16.34-3.342 22.96c-4.186 3.783-9.367 5.542-14.063 5.232"/><path fill="#68CBED" d="m201.414 178.224 80.888-69.58 21.005 24.28-92.398 90.487"/><path fill="#e8989b" d="m179.493 218.85-11.73 46.355 81-1-9.27-42.356zM164.51 377.223l-17.587 76.94-32.367 154.042 15 3 103.1-229.586z"/><path fill="#e8989b" d="m198.368 394.749 32.484 71.929 47.704 144.527 20-5L255.32 357.07z"/><path fill="#090814" d="M172.311 246.12s-36.164 63.68-29.569 134.025c0 0 53.315 40.37 138.964 3l-35.257-140.69zM112.051 626.571c-1.722-1.411-2.651-2.987-2.762-4.684-.127-1.941.832-4.024 2.85-6.19.049-.623.675-8.346 2.071-9.73-.117-.413-.828-3.154.338-4.933.549-.839 1.434-1.327 2.63-1.453l.053-.005.025.046c.034.06 3.431 6.035 8.54 6.56 2.93.3 5.863-1.226 8.719-4.538.102-.244.909-4.278 1.43-6.948l.02-.107 27.842 14.818 16.275 4.56c2.045.573 3.474 2.474 3.474 4.623 0 1.832-1.054 3.53-2.685 4.323l-7.889 3.84a24.4 24.4 0 0 1-10.629 2.452h-42.79c-2.773 0-5.44-.935-7.512-2.634M271.051 626.571c-1.722-1.411-2.651-2.987-2.762-4.684-.127-1.941.832-4.024 2.85-6.19.049-.623.675-8.346 2.071-9.73-.117-.413-.828-3.154.338-4.933.549-.839 1.434-1.327 2.63-1.453l.053-.005.025.046c.034.06 3.431 6.035 8.54 6.56 2.93.3 5.863-1.226 8.719-4.538.102-.244.909-4.278 1.43-6.948l.02-.107 27.842 14.818 16.275 4.56c2.045.573 3.474 2.474 3.474 4.623 0 1.832-1.054 3.53-2.685 4.323l-7.889 3.84a24.4 24.4 0 0 1-10.629 2.452h-42.79c-2.773 0-5.44-.935-7.512-2.634"/><path fill="#e8989b" d="M191.132 75c0-18.045 14.627-32.672 32.67-32.672s32.672 14.627 32.672 32.671c0 14.634-9.621 27.019-22.883 31.178l-6.316 41.74-32.197-26.83s6.955-8.86 10.686-18.85c-8.817-5.851-14.632-15.864-14.632-27.238"/><path fill="#68CBED" d="m192.012 107.251 38.48 24.598 17.763 31.368a43.88 43.88 0 0 1 4.899 29.948l-8.161 42.218h-85.086l13.444-88.081a74.06 74.06 0 0 1 12.514-31.258z"/><path fill="#090814" d="M180.642 117.926s1.525 11.575 15.66 11.953l28.673.766s-24.238-58.987-14.272-52.342c9.967 6.646 36.544-21.214 36.544-21.214l7.842 14.708s18.736-6.784-2.028-23.398c0 0-24.774-19.153-51.074-7.651-26.301 11.501-21.345 77.178-21.345 77.178"/><path fill="#e8989b" d="m198.596 327.527-.687-31.662 18.486-.4.687 31.661c3.45 3.202 5.726 8.177 5.848 13.818.214 9.869-6.233 18.013-14.401 18.19-8.168.178-14.963-7.68-15.177-17.549-.122-5.64 1.937-10.71 5.244-14.058"/><path fill="#68CBED" d="M224.117 169.057v153.469h-32.105l-9.489-152.173"/><path fill="#ccc" d="M413.6 629.54c0 .66-.53 1.19-1.19 1.19H1.19c-.66 0-1.19-.53-1.19-1.19s.53-1.19 1.19-1.19h411.22c.66 0 1.19.53 1.19 1.19"/><ellipse cx="440.853" cy="163.052" fill="#d6d6e3" rx="134" ry="107.17" transform="rotate(-43.502 440.853 163.052)"/><path fill="none" stroke="#d6d6e3" stroke-miterlimit="10" stroke-width="3" d="M318.656 295.295c-56.232-59.252-41.759-164.282 32.327-234.592s179.73-79.273 235.961-20.021"/><path fill="#090814" d="M492.733 117.735H378.646c-11.022 0-19.957 8.935-19.957 19.957v50.087c0 11.022 8.935 19.956 19.957 19.956h19.41l2.52 16.771c.457 3.042 3.9 4.6 6.488 2.936l30.639-19.707h55.03c11.021 0 19.956-8.934 19.956-19.956v-50.087c0-11.022-8.935-19.957-19.956-19.957"/><circle cx="509.689" cy="114.735" r="26" fill="#68CBED"/></svg>