<svg xmlns="http://www.w3.org/2000/svg" width="692" height="998"><path fill="#f9fafb" d="m152.613 82.794 6.133.02c9.972.045 9.972.045 12.254 1.186 1.49.144 2.983.255 4.477.348 5.66.522 10.594 2.12 15.898 4.09l2.652.947C197.803 90.748 201.433 92.15 205 94v2l2.75.875c2.572.89 4.863 1.84 7.25 3.125v2h2v2l2.875.75c3.125 1.25 3.125 1.25 4.5 3.375L225 110h2v2l2.875.75c3.125 1.25 3.125 1.25 4.5 3.375L235 118h2v2h2v2l6 2v2h2v2h2v2h2l1 2 3 1.438c3 1.563 3 1.563 4 4.563h2v2h2v2l6 2v2h2v2h2v2h2l1 2 3 1.438c3 1.563 3 1.563 4 4.563h2v2h2v2l6 2v2h2v2h2v2h2l1 2 3 1.438c3 1.563 3 1.563 4 4.563h2v2h2v2l6 2v2h2v2h2v2h2v2l6 2v2h2v2h2v2h2v2l6 2v2h2v2h2v2h2v2l6 2v2h2v2h2v2h2v2l6 2v2h2v2h2v2h2l1 2 3 1.438c3 1.563 3 1.563 4 4.563h2v2h2v2l6 2v2h2v2h2v2h2l1 2 3 1.438c3 1.563 3 1.563 4 4.563h2v2h2v2l6 2v2h2v2h2v2h2l1 2 3 1.438c3 1.563 3 1.563 4 4.563h2v2h2v2l6 2v2h2v2h2v2h2l1 2 3 1.438c3 1.563 3 1.563 4 4.563h2v2h2v2l6 2v2h2v2h2v2h2l1 2 3 1.438c3 1.563 3 1.563 4 4.563h2v2h2v2l6 2v2h2v2h2v2h2l1 2 3 1.438c3 1.563 3 1.563 4 4.563h2v2h2v2l6 2v2h2v2h2v2h2l1 2 3 1.438c3 1.563 3 1.563 4 4.563h2v2h2v2l6 2v2h2v2h2v2h2v2l2.875.75c3.125 1.25 3.125 1.25 4.5 3.375L547 378h2v2h2v2l6 2v2h2v2h2v2h2l1 2 2.875 1.438c2.678 1.339 4.308 2.24 6.125 4.563v2h2v2l6 2v2h2v2h2v2h2l1 2 2.625 1.188c4.19 2.25 7.372 5.125 10.375 8.813v2l1.672.695c2.99 1.676 5.139 3.776 7.578 6.18l2.703 2.617C615 436 615 436 615 440h2v2h2v4l4 2v4h2v6h2c1.591 4.177 2.213 7.532 2 12h2v12h2v31h-2l.105 2.379c.166 6.436-.23 10.763-3.105 16.621-.819 2.802-1.545 5.617-2.254 8.449-.694 2.374-1.564 4.385-2.746 6.551h-2v2h-2l-1 5-3 1-1 5-3 1-.812 1.672c-1.765 3.46-4.44 5.869-7.187 8.578l-1.656 1.68c-4.09 4.07-4.09 4.07-6.344 4.07l-2 4h-2v2h-4v2h-2l-.75 1.75c-1.457 2.622-2.934 4.343-5.25 6.25h-4l-.625 1.625c-1.898 3.278-4.284 6.156-7.375 8.375h-4v2h-2l-.75 1.75c-1.457 2.622-2.934 4.343-5.25 6.25h-4l-.625 1.625c-1.898 3.278-4.284 6.156-7.375 8.375h-4v2h-2l-.75 1.75c-1.457 2.622-2.934 4.343-5.25 6.25h-4l-.625 1.625c-1.898 3.278-4.284 6.156-7.375 8.375h-4v2h-2l-.75 1.75c-1.457 2.622-2.934 4.343-5.25 6.25h-4l-.625 1.625c-1.898 3.278-4.284 6.156-7.375 8.375h-4v2h-2l-.75 1.75c-1.457 2.622-2.934 4.343-5.25 6.25h-4l-.625 1.625c-1.898 3.278-4.284 6.156-7.375 8.375h-4v2h-2l-.75 1.75c-1.457 2.622-2.934 4.343-5.25 6.25h-4l-.625 1.625c-1.898 3.278-4.284 6.156-7.375 8.375h-4v2h-2l-.75 1.75c-1.457 2.622-2.934 4.343-5.25 6.25h-4l-.625 1.625c-1.898 3.278-4.284 6.156-7.375 8.375h-4v2h-2l-.75 1.75c-1.457 2.622-2.934 4.343-5.25 6.25h-4l-.75 1.75c-1.433 2.579-3.034 4.311-5.25 6.25h-2v2h-4v2h-2l-.75 1.75c-1.457 2.622-2.934 4.343-5.25 6.25h-4l-.75 1.75c-1.433 2.579-3.034 4.311-5.25 6.25h-2v2h-4v2h-2l-.75 1.75c-1.457 2.622-2.934 4.343-5.25 6.25h-4l-.625 1.625c-1.898 3.278-4.284 6.156-7.375 8.375h-4l-.625 1.625c-1.898 3.278-4.284 6.156-7.375 8.375h-4l-.625 1.625c-1.898 3.278-4.284 6.156-7.375 8.375h-4l-.625 1.625c-1.898 3.278-4.284 6.156-7.375 8.375h-4l-.625 1.625c-1.898 3.278-4.284 6.156-7.375 8.375h-4l-.625 1.625c-1.898 3.278-4.284 6.156-7.375 8.375h-4l-.625 1.625c-1.898 3.278-4.284 6.156-7.375 8.375h-4l-.625 1.625c-1.898 3.278-4.284 6.156-7.375 8.375h-4l-.625 1.625c-1.898 3.278-4.284 6.156-7.375 8.375h-4l-.625 1.625c-1.898 3.278-4.284 6.156-7.375 8.375h-4l-.625 1.625c-1.898 3.278-4.284 6.156-7.375 8.375h-4l-.75 1.75c-1.457 2.622-2.934 4.343-5.25 6.25h-4v2h-2l-.75 1.875c-1.494 2.54-2.498 3.154-5.25 4.125h-4l-2 4h-4v2h-6v2h-6v2c-5.879 2.613-11.707 2.183-18 2v2l-13.19.055-4.49.021-6.441.022-3.92.016C138 913 138 913 137 912a123 123 0 0 0-5.562-.562l-3.066-.254L126 911v-2h-6v-2h-6v-2h-6v-2h-4v-2h-2v-2h-4v-2h-2v-2h-4v-2h-2v-2h-2v-2h-2v-2h-2v-2h-2v-2h-2v-2h-2c-2.317-3.041-3.892-5.662-5.062-9.312L72 869l-3-1c-1.027-2.082-1.027-2.082-1.937-4.812l-1.016-3.016L65 857l-1.109-3.047c-2.04-5.707-3.372-10.931-3.715-16.992-.062-2.039-.062-2.039-1.176-3.961a171 171 0 0 1-.098-6.977l.004-2.077.031-6.572.014-4.453L59 802h2v-12h2v-6h2l-.562-1.875C64 780 64 780 65 778h2l.078-1.828c.472-6.649.472-6.649 2.859-9.422L72 765l.813-2.25c3.366-7.795 11.362-14.163 17.25-20.125l2.354-2.441C99.48 733.042 99.48 733.042 105 732v-2h2l2-4h2v-2l6-2v-2h2v-2h2l.625-1.875c1.923-2.972 4.041-3.255 7.375-4.125v-2h2v-2h2v-2h2v-2l6-2v-2h2v-2h2l.625-1.875c1.923-2.972 4.041-3.255 7.375-4.125v-2h2v-2h2v-2h2v-2l6-2v-2h2v-2h2l.625-1.875c1.923-2.972 4.041-3.255 7.375-4.125v-2h2v-2h2v-2h2l1-3 2.375-.25L189 662l2-4c1.621-1.703 1.621-1.703 3.438-3.25l1.809-1.578C198 652 198 652 201 652v-2h2l.813-1.812c1.223-2.254 2.167-3.616 4.188-5.187l2.563-.437L213 642l2-4c1.621-1.703 1.621-1.703 3.438-3.25l1.809-1.578C222 632 222 632 225 632v-2h2l.813-1.812c1.223-2.254 2.167-3.616 4.188-5.187l2.563-.437L237 622l2-4c1.621-1.703 1.621-1.703 3.438-3.25l1.809-1.578C246 612 246 612 249 612v-2h2l2-4h2l1-3 2.375-.25L261 602l2-4c1.621-1.703 1.621-1.703 3.438-3.25l1.809-1.578C270 592 270 592 273 592v-2h2l2-4h2l1-3 2.375-.25L285 582l2-4c1.621-1.703 1.621-1.703 3.438-3.25l1.809-1.578C294 572 294 572 297 572v-2h2l2-4h2l1-3 2.375-.25L309 562l2-4c1.621-1.703 1.621-1.703 3.438-3.25l1.809-1.578C318 552 318 552 321 552v-2h2l2-4h2v-2l2.875-.75c3.175-.904 3.175-.904 4.25-3.125L335 538c2-2.25 2-2.25 4-4h2v-2h4v-2h2l2-4h2v-2l2.875-.75c3.175-.904 3.175-.904 4.25-3.125L359 518c2-2.25 2-2.25 4-4h2v-2h4v-2h2l2-4h2v-2h2v-4h2l-.84-1.645-1.098-2.168-1.09-2.145C375 492 375 492 374 489c-2-1.209-2-1.209-4-2v-2h-2v-2h-4v-2l-4-2v-2l-3-1-1-2-2.5-.937L351 472l-1-3h-2v-2h-2v-2h-2v-2h-4v-2l-4-2v-2l-3-1-1-2-2.5-.937L327 452l-1-3h-2v-2h-2v-2h-2v-2h-4v-2l-4-2v-2l-3-1-1-2-2.5-.937L303 432l-1-3h-2v-2h-2v-2h-2v-2h-4v-2l-4-2v-2l-3-1-1-2-2.5-.937L279 412l-1-3h-2v-2h-2v-2h-2v-2h-4v-2l-4-2v-2l-3-1-1-2-2.5-.937L255 392l-1-3h-2v-2h-2v-2h-2v-2h-4v-2l-4-2v-2l-3-1-1-2-2.5-.937L231 372l-1-3h-2v-2h-2v-2h-2v-2h-4v-2l-4-2v-2l-4-2v-2l-5-1-1-3h-2v-2h-2v-2h-2v-2h-4v-2l-4-2v-2l-4-2v-2l-5-1-1-3h-2v-2h-2v-2h-2v-2h-4v-2l-4-2v-2l-3-1-1-2-2.5-.937L159 312l-1-3h-2v-2h-2v-2h-2v-2h-4v-2l-4-2v-2l-3-1-1-2-2.5-.937L135 292l-1-3h-2v-2h-2v-2h-2v-2h-4v-2l-4-2v-2l-3-1-1-2-2.5-.937L111 272l-1-3h-2v-2h-2v-2h-2v-2h-4v-2l-4-2v-2l-4-2v-2h-2v-2h-2v-2h-2v-2h-2v-2h-2v-2h-2v-2h-2c-2.317-3.041-3.892-5.662-5.062-9.312L72 229l-3-1c-.756-2.028-1.489-4.067-2.109-6.141-1.035-3.323-2.279-6.543-3.516-9.797-1.854-5.123-2.982-9.734-3.234-15.172-.027-1.98-.027-1.98-1.141-3.891a171 171 0 0 1-.098-6.977l.004-2.077.031-6.572.014-4.453L59 162h2v-10h2v-8h2l-.75-1.562c-.334-3.252 1.025-5.009 2.703-7.711 1.303-2.149 2.146-4.384 3.047-6.727 4.659-9.926 14.237-23.102 24.5-27.5l2.5-.5v-2c8.719-4.611 17.075-8.697 26.621-11.309 2.313-.465 2.313-.465 3.379-1.691 8.471-2.06 16.936-2.288 25.613-2.206"/><path fill="#847374" d="m152.613 82.794 6.133.02c9.972.045 9.972.045 12.254 1.186 1.49.144 2.983.255 4.477.348 5.66.522 10.594 2.12 15.898 4.09l2.652.947C197.803 90.748 201.433 92.15 205 94v2l2.75.875c2.572.89 4.863 1.84 7.25 3.125v2h2v2l2.875.75c3.125 1.25 3.125 1.25 4.5 3.375L225 110h2v2l2.875.75c3.125 1.25 3.125 1.25 4.5 3.375L235 118h2v2h2v2l6 2v2h2v2h2v2h2l1 2 3 1.438c3 1.563 3 1.563 4 4.563h2v2h2v2l6 2v2h2v2h2v2h2l1 2 3 1.438c3 1.563 3 1.563 4 4.563h2v2h2v2l6 2v2h2v2h2v2h2l1 2 3 1.438c3 1.563 3 1.563 4 4.563h2v2h2v2l6 2v2h2v2h2v2h2v2l6 2v2h2v2h2v2h2v2l6 2v2h2v2h2v2h2v2l6 2v2h2v2h2v2h2v2l6 2v2h2v2h2v2h2l1 2 3 1.438c3 1.563 3 1.563 4 4.563h2v2h2v2l6 2v2h2v2h2v2h2l1 2 3 1.438c3 1.563 3 1.563 4 4.563h2v2h2v2l6 2v2h2v2h2v2h2l1 2 3 1.438c3 1.563 3 1.563 4 4.563h2v2h2v2l6 2v2h2v2h2v2h2l1 2 3 1.438c3 1.563 3 1.563 4 4.563h2v2h2v2l6 2v2h2v2h2v2h2l1 2 3 1.438c3 1.563 3 1.563 4 4.563h2v2h2v2l6 2v2h2v2h2v2h2l1 2 3 1.438c3 1.563 3 1.563 4 4.563h2v2h2v2l6 2v2h2v2h2v2h2l1 2 3 1.438c3 1.563 3 1.563 4 4.563h2v2h2v2l6 2v2h2v2h2v2h2v2l2.875.75c3.125 1.25 3.125 1.25 4.5 3.375L547 378h2v2h2v2l6 2v2h2v2h2v2h2l1 2 2.875 1.438c2.678 1.339 4.308 2.24 6.125 4.563v2h2v2l6 2v2h2v2h2v2h2l1 2 2.625 1.188c4.19 2.25 7.372 5.125 10.375 8.813v2l1.672.695c2.99 1.676 5.139 3.776 7.578 6.18l2.703 2.617C615 436 615 436 615 440h2v2h2v4l4 2v4h2v6h2c1.591 4.177 2.213 7.532 2 12h2v12h2v31h-2l.105 2.379c.166 6.436-.23 10.763-3.105 16.621-.819 2.802-1.545 5.617-2.254 8.449-.694 2.374-1.564 4.385-2.746 6.551h-2v2h-2l-1 5-3 1-1 5-3 1-.812 1.672c-1.765 3.46-4.44 5.869-7.187 8.578l-1.656 1.68c-4.09 4.07-4.09 4.07-6.344 4.07l-2 4h-2v2h-4v2h-2l-.75 1.75c-1.457 2.622-2.934 4.343-5.25 6.25h-4l-.625 1.625c-1.898 3.278-4.284 6.156-7.375 8.375h-4v2h-2l-.75 1.75c-1.457 2.622-2.934 4.343-5.25 6.25h-4l-.625 1.625c-1.898 3.278-4.284 6.156-7.375 8.375h-4v2h-2l-.75 1.75c-1.457 2.622-2.934 4.343-5.25 6.25h-4l-.625 1.625c-1.898 3.278-4.284 6.156-7.375 8.375h-4v2h-2l-.75 1.75c-1.457 2.622-2.934 4.343-5.25 6.25h-4l-.625 1.625c-1.898 3.278-4.284 6.156-7.375 8.375h-4v2h-2l-.75 1.75c-1.457 2.622-2.934 4.343-5.25 6.25h-4l-.625 1.625c-1.898 3.278-4.284 6.156-7.375 8.375h-4v2h-2l-.75 1.75c-1.457 2.622-2.934 4.343-5.25 6.25h-4l-.625 1.625c-1.898 3.278-4.284 6.156-7.375 8.375h-4v2h-2l-.75 1.75c-1.457 2.622-2.934 4.343-5.25 6.25h-4l-.625 1.625c-1.898 3.278-4.284 6.156-7.375 8.375h-4v2h-2l-.75 1.75c-1.457 2.622-2.934 4.343-5.25 6.25h-4l-.75 1.75c-1.433 2.579-3.034 4.311-5.25 6.25h-2v2h-4v2h-2l-.75 1.75c-1.457 2.622-2.934 4.343-5.25 6.25h-4l-.75 1.75c-1.433 2.579-3.034 4.311-5.25 6.25h-2v2h-4v2h-2l-.75 1.75c-1.457 2.622-2.934 4.343-5.25 6.25h-4l-.625 1.625c-1.898 3.278-4.284 6.156-7.375 8.375h-4l-.625 1.625c-1.898 3.278-4.284 6.156-7.375 8.375h-4l-.625 1.625c-1.898 3.278-4.284 6.156-7.375 8.375h-4l-.625 1.625c-1.898 3.278-4.284 6.156-7.375 8.375h-4l-.625 1.625c-1.898 3.278-4.284 6.156-7.375 8.375h-4l-.625 1.625c-1.898 3.278-4.284 6.156-7.375 8.375h-4l-.625 1.625c-1.898 3.278-4.284 6.156-7.375 8.375h-4l-.625 1.625c-1.898 3.278-4.284 6.156-7.375 8.375h-4l-.625 1.625c-1.898 3.278-4.284 6.156-7.375 8.375h-4l-.625 1.625c-1.898 3.278-4.284 6.156-7.375 8.375h-4l-.625 1.625c-1.898 3.278-4.284 6.156-7.375 8.375h-4l-.75 1.75c-1.457 2.622-2.934 4.343-5.25 6.25h-4v2h-2l-.75 1.875c-1.494 2.54-2.498 3.154-5.25 4.125h-4l-2 4h-4v2h-6v2h-6v2c-5.879 2.613-11.707 2.183-18 2v2l-13.19.055-4.49.021-6.441.022-3.92.016C138 913 138 913 137 912a123 123 0 0 0-5.562-.562l-3.066-.254L126 911v-2h-6v-2h-6v-2h-6v-2h-4v-2h-2v-2h-4v-2h-2v-2h-4v-2h-2v-2h-2v-2h-2v-2h-2v-2h-2v-2h-2v-2h-2c-2.317-3.041-3.892-5.662-5.062-9.312L72 869l-3-1c-1.027-2.082-1.027-2.082-1.937-4.812l-1.016-3.016L65 857l-1.109-3.047c-2.04-5.707-3.372-10.931-3.715-16.992-.062-2.039-.062-2.039-1.176-3.961a171 171 0 0 1-.098-6.977l.004-2.077.031-6.572.014-4.453L59 802h2v-12h2v-6h2l-.562-1.875C64 780 64 780 65 778h2l.078-1.828c.472-6.649.472-6.649 2.859-9.422L72 765l.813-2.25c3.366-7.795 11.362-14.163 17.25-20.125l2.354-2.441C99.48 733.042 99.48 733.042 105 732v-2h2l2-4h2v-2l6-2v-2h2v-2h2l.625-1.875c1.923-2.972 4.041-3.255 7.375-4.125v-2h2v-2h2v-2h2v-2l6-2v-2h2v-2h2l.625-1.875c1.923-2.972 4.041-3.255 7.375-4.125v-2h2v-2h2v-2h2v-2l6-2v-2h2v-2h2l.625-1.875c1.923-2.972 4.041-3.255 7.375-4.125v-2h2v-2h2v-2h2l1-3 2.375-.25L189 662l2-4c1.621-1.703 1.621-1.703 3.438-3.25l1.809-1.578C198 652 198 652 201 652v-2h2l.813-1.812c1.223-2.254 2.167-3.616 4.188-5.187l2.563-.437L213 642l2-4c1.621-1.703 1.621-1.703 3.438-3.25l1.809-1.578C222 632 222 632 225 632v-2h2l.813-1.812c1.223-2.254 2.167-3.616 4.188-5.187l2.563-.437L237 622l2-4c1.621-1.703 1.621-1.703 3.438-3.25l1.809-1.578C246 612 246 612 249 612v-2h2l2-4h2l1-3 2.375-.25L261 602l2-4c1.621-1.703 1.621-1.703 3.438-3.25l1.809-1.578C270 592 270 592 273 592v-2h2l2-4h2l1-3 2.375-.25L285 582l2-4c1.621-1.703 1.621-1.703 3.438-3.25l1.809-1.578C294 572 294 572 297 572v-2h2l2-4h2l1-3 2.375-.25L309 562l2-4c1.621-1.703 1.621-1.703 3.438-3.25l1.809-1.578C318 552 318 552 321 552v-2h2l2-4h2v-2l2.875-.75c3.175-.904 3.175-.904 4.25-3.125L335 538c2-2.25 2-2.25 4-4h2v-2h4v-2h2l2-4h2v-2l2.875-.75c3.175-.904 3.175-.904 4.25-3.125L359 518c2-2.25 2-2.25 4-4h2v-2h4v-2h2l2-4h2v-2h2v-4h2l-.84-1.645-1.098-2.168-1.09-2.145C375 492 375 492 374 489c-2-1.209-2-1.209-4-2v-2h-2v-2h-4v-2l-4-2v-2l-3-1-1-2-2.5-.937L351 472l-1-3h-2v-2h-2v-2h-2v-2h-4v-2l-4-2v-2l-3-1-1-2-2.5-.937L327 452l-1-3h-2v-2h-2v-2h-2v-2h-4v-2l-4-2v-2l-3-1-1-2-2.5-.937L303 432l-1-3h-2v-2h-2v-2h-2v-2h-4v-2l-4-2v-2l-3-1-1-2-2.5-.937L279 412l-1-3h-2v-2h-2v-2h-2v-2h-4v-2l-4-2v-2l-3-1-1-2-2.5-.937L255 392l-1-3h-2v-2h-2v-2h-2v-2h-4v-2l-4-2v-2l-3-1-1-2-2.5-.937L231 372l-1-3h-2v-2h-2v-2h-2v-2h-4v-2l-4-2v-2l-4-2v-2l-5-1-1-3h-2v-2h-2v-2h-2v-2h-4v-2l-4-2v-2l-4-2v-2l-5-1-1-3h-2v-2h-2v-2h-2v-2h-4v-2l-4-2v-2l-3-1-1-2-2.5-.937L159 312l-1-3h-2v-2h-2v-2h-2v-2h-4v-2l-4-2v-2l-3-1-1-2-2.5-.937L135 292l-1-3h-2v-2h-2v-2h-2v-2h-4v-2l-4-2v-2l-3-1-1-2-2.5-.937L111 272l-1-3h-2v-2h-2v-2h-2v-2h-4v-2l-4-2v-2l-4-2v-2h-2v-2h-2v-2h-2v-2h-2v-2h-2v-2h-2v-2h-2c-2.317-3.041-3.892-5.662-5.062-9.312L72 229l-3-1c-.756-2.028-1.489-4.067-2.109-6.141-1.035-3.323-2.279-6.543-3.516-9.797-1.854-5.123-2.982-9.734-3.234-15.172-.027-1.98-.027-1.98-1.141-3.891a171 171 0 0 1-.098-6.977l.004-2.077.031-6.572.014-4.453L59 162h2v-10h2v-8h2l-.75-1.562c-.334-3.252 1.025-5.009 2.703-7.711 1.303-2.149 2.146-4.384 3.047-6.727 4.659-9.926 14.237-23.102 24.5-27.5l2.5-.5v-2c8.719-4.611 17.075-8.697 26.621-11.309 2.313-.465 2.313-.465 3.379-1.691 8.471-2.06 16.936-2.288 25.613-2.206m-52.074 41.116A138 138 0 0 0 95 132l-2.187 3.25c-8.699 15.961-10.527 36.412-5.785 53.836A90 90 0 0 0 93.001 203l1.352 2.602c6.908 12.009 18.075 21.671 28.852 30.168 3.281 2.617 6.441 5.354 9.609 8.105a344 344 0 0 0 14.438 11.813c4.975 3.854 9.698 7.881 14.336 12.141 3.398 3.057 6.945 5.914 10.496 8.789l9.418 7.883 14.699 12.195 9.113 7.68c4.537 3.87 9.162 7.596 13.875 11.25 4.932 3.826 9.594 7.832 14.188 12.063 3.11 2.74 6.347 5.277 9.625 7.813a225 225 0 0 1 14.586 12.328c3.398 3.057 6.945 5.914 10.496 8.789l9.418 7.883 12 10 13.664 11.414 13.035 10.781 9.113 7.68c4.537 3.87 9.162 7.597 13.875 11.25 4.959 3.845 9.64 7.879 14.258 12.133 2.893 2.539 5.919 4.867 8.992 7.18 5.261 3.963 10.126 8.216 14.957 12.699 3.204 2.906 6.556 5.575 9.957 8.246 3.02 2.414 5.96 4.916 8.898 7.43 5.148 4.397 10.421 8.603 15.773 12.749 4.283 3.337 8.343 6.859 12.305 10.576 1.571 1.574 1.571 1.574 3.672 1.363-3.965 4.134-8.221 7.732-12.687 11.313l-2.159 1.744-11.341 9.069c-4.384 3.494-8.658 7.107-12.927 10.739L375.802 531.7l-9.113 7.68c-4.559 3.888-9.206 7.637-13.937 11.313a230 230 0 0 0-13.559 11.363c-3.322 2.955-6.786 5.73-10.238 8.531L319.5 578.5l-14.687 12.188-10.979 9.229-10.271 8.521c-4.246 3.455-8.415 6.989-12.562 10.563l-15.223 12.723-9.277 7.777-14.687 12.188-9.312 7.813-14.687 12.188-9.312 7.813-14.699 12.195-9.113 7.68c-4.559 3.888-9.206 7.637-13.937 11.313a230 230 0 0 0-13.559 11.363c-3.322 2.955-6.786 5.73-10.238 8.531l-11.11 9.329a454 454 0 0 1-10.531 8.651C99.62 761.427 89.22 775.976 85 796c-1.676 22.756 1.972 39.777 16.746 57.336 11.075 12.669 25.933 23.066 43.076 24.979 14.482.853 28.358-.025 41.178-7.315v-2l2.238-.84c7.466-3.136 13.341-8.436 19.23-13.871 3.215-2.908 6.58-5.587 9.98-8.273 6.982-5.517 13.808-11.21 20.551-17.016 5.922-5.099 11.936-10.07 18-15l26.535-22.307c4.721-4.111 9.595-7.984 14.548-11.811 4.286-3.331 8.295-6.888 12.288-10.566 3.71-3.269 7.613-6.269 11.521-9.296 4.121-3.206 8.05-6.56 11.917-10.071 3.322-2.955 6.786-5.73 10.238-8.531l9.453-7.918 14.754-12.254L376 714l11.438-9.437 13.729-11.479 10.271-8.521c4.191-3.407 8.292-6.903 12.375-10.437 5.282-4.568 10.697-8.917 16.218-13.191 4.302-3.352 8.332-6.926 12.344-10.622 3.687-3.248 7.568-6.222 11.453-9.227A160 160 0 0 0 474 632.5c4.421-4.072 9.079-7.74 13.828-11.414A160 160 0 0 0 498 612.5c3.853-3.549 7.86-6.798 12-10a225 225 0 0 0 14.59-12.332c3.377-3.038 6.907-5.871 10.438-8.727 3.31-2.719 6.548-5.512 9.785-8.316a334 334 0 0 1 14.125-11.562c6.442-4.988 12.607-10.255 18.719-15.641a155 155 0 0 1 5.75-4.844c12.981-10.405 21.944-28.5 23.928-44.827 1.203-19.277-2.668-37.923-15.615-52.888-4.923-5.087-10.277-9.598-15.801-14.016-3.186-2.563-6.305-5.196-9.418-7.848l-12-10-12-10-14.434-12-29.249-24.382c-3.988-3.435-8.065-6.734-12.196-9.997-3.863-3.126-7.613-6.381-11.377-9.627-4.428-3.813-8.926-7.53-13.463-11.213l-9.344-7.844a523 523 0 0 0-14.191-11.621 158 158 0 0 1-5.996-5.129c-3.586-3.187-7.336-6.124-11.125-9.062-5.038-3.911-9.811-7.993-14.504-12.316-3.088-2.72-6.303-5.232-9.559-7.746-4.356-3.365-8.526-6.812-12.562-10.562-4.623-4.296-9.462-8.18-14.449-12.035-4.043-3.136-7.869-6.433-11.652-9.879-3.001-2.61-6.128-5.029-9.273-7.461-5.336-4.13-10.332-8.494-15.277-13.09-3.769-3.355-7.734-6.418-11.727-9.5a157 157 0 0 1-10.121-8.535c-3.853-3.549-7.86-6.798-12-10-5-3.868-9.727-7.906-14.379-12.191-3.088-2.72-6.303-5.232-9.559-7.746-4.38-3.383-8.568-6.852-12.625-10.625-4.343-4.037-8.869-7.633-13.602-11.188-4.599-3.487-8.797-7.319-13.023-11.25-2.999-2.666-6.107-5.092-9.312-7.5-4.173-3.136-8.108-6.378-11.937-9.937-19.617-18.16-39.833-30.846-67.266-30.406-18.497.801-35.973 11.318-47.758 25.254z"/><path fill="#cacacf" d="M192 110c7.657 5.37 14.693 11.498 21.574 17.816 5.14 4.627 10.566 8.925 15.992 13.211 4.211 3.328 8.294 6.714 12.246 10.348 3.725 3.404 7.596 6.53 11.625 9.563 5.287 3.981 10.169 8.261 15.023 12.766 2.926 2.646 5.986 5.029 9.125 7.414 2.871 2.239 5.645 4.583 8.414 6.945l15.438 12.875 17.746 14.945c3.992 3.437 8.072 6.74 12.207 10.004 3.18 2.575 6.267 5.247 9.359 7.926 5.325 4.609 10.78 9.004 16.344 13.319 4.051 3.156 7.911 6.466 11.715 9.919 3.326 2.958 6.793 5.736 10.25 8.539l9.254 7.785c4.514 3.852 9.119 7.556 13.813 11.188 5.25 4.067 10.16 8.379 15.027 12.902 3.767 3.354 7.73 6.414 11.72 9.496 4.42 3.433 8.583 7.074 12.706 10.86 4.331 3.898 8.888 7.521 13.422 11.18l19.806 16.556c4.414 3.796 8.897 7.497 13.417 11.167l9.277 7.777 14.684 12.184 9.379 7.879c3.768 3.205 7.56 6.364 11.438 9.438 4.453 3.529 8.787 7.182 13.113 10.863L556.5 413.5l13.653 11.407a509 509 0 0 0 10.659 8.78C594.27 444.765 604.189 458.386 607 476c1.191 12.282 1.094 24.592-4 36l-.83 1.908c-8.692 19.698-23.197 32.019-39.893 44.924-5.118 3.978-10.002 8.199-14.878 12.469-4.48 3.919-9.041 7.717-13.665 11.465l-9.109 7.609-1.642 1.392-6.665 5.665-16.255 13.505c-4.742 3.755-9.313 7.689-13.89 11.64-4.106 3.535-8.294 6.94-12.547 10.297-3.266 2.644-6.445 5.38-9.625 8.125-3.946 3.407-7.907 6.769-12 10-4.698 3.71-9.226 7.599-13.758 11.508-4.404 3.792-8.882 7.482-13.395 11.145l-9.91 8.41a433 433 0 0 1-14.379 11.879c-3.066 2.467-6.063 5.007-9.059 7.559-3.767 3.208-7.554 6.37-11.437 9.438-4.742 3.755-9.313 7.689-13.89 11.64-4.106 3.535-8.294 6.94-12.547 10.297-3.266 2.644-6.445 5.38-9.625 8.125a432 432 0 0 1-14.445 11.945c-3.613 2.906-7.137 5.914-10.668 8.918L308.5 770.5l-13.666 11.416-10.271 8.521c-4.27 3.473-8.457 7.031-12.625 10.625a430 430 0 0 1-14.316 11.816c-3.863 3.126-7.613 6.381-11.377 9.627-4.428 3.813-8.926 7.53-13.463 11.213l-9.344 7.844a497 497 0 0 1-13.898 11.395c-2.419 1.947-4.788 3.945-7.153 5.957C190.502 869 190.502 869 186 869v2l-4.875 2.375-2.742 1.336c-16.371 6.238-35.396 5.214-51.27-1.727-19.055-8.982-32.254-24.709-40.055-44.023-2.344-6.555-2.278-12.596-2.309-19.523l-.062-3.424c-.087-18.896 8.169-36.172 21.375-49.514 5.537-5.457 11.494-10.244 17.668-14.953 2.889-2.216 5.593-4.576 8.27-7.047 4.443-4.091 9.122-7.784 13.892-11.48 4.121-3.206 8.05-6.56 11.917-10.071 3.322-2.955 6.786-5.73 10.238-8.531l9.453-7.918 14.688-12.187 9.313-7.812 14.688-12.187 9.313-7.812 14.688-12.187 9.313-7.812 14.688-12.187 9.313-7.812 14.688-12.187 9.313-7.812 14.688-12.187 9.313-7.812 14.699-12.195 9.113-7.68c4.537-3.87 9.163-7.596 13.875-11.25 4.994-3.876 9.74-7.924 14.398-12.203 3.401-3.06 6.952-5.92 10.508-8.797l7.596-6.364c8.465-7.232 17.181-14.122 26.048-20.855l1.818-1.385 3.445-2.6c2.956-2.182 2.956-2.182 4.998-5.172l-1.691-.754c-2.709-1.462-4.878-3.215-7.246-5.184l-2.934-2.434-11.291-9.541L394.5 461.5c-7.597-6.189-15.129-12.472-22.437-19-3.527-3.117-7.222-5.99-10.937-8.875-4.179-3.245-8.23-6.538-12.125-10.125-3.779-3.476-7.694-6.673-11.75-9.812-5.545-4.294-10.906-8.756-16.208-13.345-4.358-3.77-8.792-7.433-13.265-11.065L298.5 381.5l-12-10-13.664-11.414L262.5 351.5l-13.664-11.414L238.5 331.5l-13.664-11.414L214.5 311.5l-13.664-11.414L190.5 291.5l-13.664-11.414L166.5 271.5l-13.664-11.414L142.5 251.5l-13.664-11.418c-3.395-2.887-6.845-5.686-10.336-8.457C101.681 217.85 87.64 201.379 85 179c-1.474-21.389 3.13-40.802 17.466-57.372C125.919 96.099 162.79 91.72 192 110m-49-7-5.812.188c-5.373.402-8.31 1.641-12.273 5.242C123 110 123 110 120.191 111.359c-3.75 1.928-6.693 4.283-9.879 7.016l-1.721 1.422c-3.292 2.794-5.551 5.338-7.592 9.203l-1.5 2.395c-3.15 5.078-5.714 9.906-7.5 15.605l-.844 2.344c-5.355 16.461-2.333 34.644 5.375 49.81 5.182 9.483 12.007 16.623 21.469 21.846 2.258 1.746 2.258 1.746 4.125 3.438l2.047 1.848c2.33 2.185 4.569 4.456 6.828 6.715 10.662 10.665 10.662 10.665 23.008 18.941 2.862 1.521 4.75 3.732 6.992 6.059l5.5 5.063 2.781 2.535c4.883 4.49 4.883 4.49 10.719 7.402a180 180 0 0 1 5 5l5.5 5.063 2.781 2.535c4.303 4.445 4.303 4.445 9.719 6.402v2h2v2h4l.803 1.814c1.24 2.264 2.399 3.502 4.349 5.167l1.854 1.588 1.932 1.619 1.92 1.654c3.712 3.171 3.712 3.171 8.143 5.158l1 3c1.399.964 2.805 1.92 4.244 2.822 3.93 2.636 7.365 5.97 10.896 9.107 2.989 3.018 2.989 3.018 6.859 4.07v2h2v2h4l.801 1.812c1.248 2.277 2.426 3.527 4.387 5.204l1.867 1.602L266 346.25l1.945 1.68c3.119 3.025 3.119 3.025 7.055 4.07v2h2v2h4l.801 1.812c1.248 2.277 2.426 3.527 4.387 5.204l1.867 1.602L290 366.25l1.945 1.68c3.119 3.025 3.119 3.025 7.055 4.07v2h2v2h4l.803 1.814c1.24 2.264 2.399 3.502 4.349 5.167l1.854 1.588 1.932 1.619 1.92 1.654c3.712 3.171 3.712 3.171 8.143 5.158l1 3c1.398.965 2.803 1.923 4.246 2.82 2.586 1.739 4.837 3.818 7.141 5.91 1.703 1.487 1.703 1.487 4.613 2.27l4 5 3 1 1 3 4.063 2.637c2.482 1.746 4.641 3.747 6.875 5.801 2.882 2.644 5.721 5.148 8.938 7.375C372 434 372 434 374.063 436.125c1.919 2.06 1.919 2.06 4.875 3.25 3.082 1.635 4.543 3.265 6.633 6.004 2.251 2.552 4.98 4.382 7.758 6.324C395 453 395 453 396 455l2.313.813c3.33 1.471 4.427 3.358 6.688 6.188a109 109 0 0 0 4.938 4.063l2.527 1.973L415 470c4.645 3.638 4.645 3.638 6.426 5.457 2.383 2.336 5.082 4.252 7.762 6.23l1.693 1.26L435 486c-.75 4.877-2.231 6.745-6 10l-2.34 1.348c-3.015 1.873-5.391 4.032-7.973 6.465-3.795 3.51-7.617 6.733-11.793 9.77-5.021 3.758-9.52 8-13.832 12.543-3.334 3.4-6.67 5.501-10.887 7.656-4.073 2.282-7.509 5.431-10.684 8.836C370 544 370 544 367 545a175 175 0 0 0-4 4l-8 7-4.312 3.75-1.926 1.672c-1.741 1.5-1.741 1.5-3.055 3.031C344 566 344 566 340.84 567.664c-4.893 2.705-8.448 6.699-12.277 10.711-4.685 4.884-9.276 9.416-14.821 13.323-1.751 1.309-3.201 2.757-4.742 4.302l-2.187 1.25c-3.21 1.997-5.8 4.357-8.555 6.934C296 606 296 606 292.715 607.75c-4.518 2.5-7.764 6.084-11.277 9.813-4.256 4.516-7.728 7.817-13.437 10.438-2.628 2.059-2.628 2.059-5.062 4.375l-2.602 2.398a177 177 0 0 0-5.273 5.227C253 642 253 642 250 643v2h-3v2l-1.77.809c-6.625 3.539-11.871 9.768-16.957 15.176-2.576 2.284-5.195 3.496-8.273 5.016-2.527 1.957-2.527 1.957-4.875 4.188l-2.602 2.395a212 212 0 0 0-8.539 8.691c-2.446 2.128-5.089 3.279-7.984 4.727-2.527 1.957-2.527 1.957-4.875 4.188l-2.602 2.395a212 212 0 0 0-8.539 8.691C178 705 178 705 175.082 706.453c-3.248 1.63-5.489 3.455-8.145 5.922l-2.609 2.41-5.141 5.027c-3.219 3.219-6.323 5.741-10.379 7.836-4.534 2.562-7.826 6.151-11.371 9.914-4.256 4.516-7.728 7.817-13.437 10.438-2.628 2.059-2.628 2.059-5.062 4.375l-2.605 2.402a173 173 0 0 0-5.207 5.16C109 762 109 762 107 762.938c-6.046 3.212-8.963 10.41-11.75 16.313l-1.207 2.41C91.271 787.476 90.217 792.583 90 799l-.098 2.643-.089 8.044-.037 2.721c-.016 7.337 1.353 12.902 4.377 19.635 1.01 2.332 1.887 4.705 2.785 7.082 3.144 7.871 8.947 13.008 15.125 18.625l1.973 1.797c2.048 1.515 3.507 1.939 5.965 2.453q1.532 1.47 3 3c3.086 1.891 4.173 2 8 2v2c5.875 2.556 11.649 2.342 17.938 2.313l3.359-.004c8.559-.1 16.445-1.053 24.703-3.309l1-3c2.419-.887 4.847-1.397 7.359-1.961 3.417-1.345 5.145-3.371 7.641-6.039a226 226 0 0 1 4.938-4.062c4.363-3.527 8.635-7.138 12.875-10.812a334 334 0 0 1 14.125-11.562c5.727-4.433 11.215-9.093 16.663-13.863 4.477-3.916 9.035-7.713 13.657-11.458l9.242-7.742 11.938-9.937c4.864-3.958 9.621-8.028 14.371-12.121 4.39-3.775 8.853-7.449 13.348-11.098L314 756l12.5-10.5a577 577 0 0 0 12.375-10.375l1.8-1.547 3.588-3.085C382.245 697.877 382.245 697.877 388 695v-2l1.668-.734c2.849-1.546 5.152-3.443 7.645-5.516l2.934-2.426a256 256 0 0 0 8.121-7.133C410 676 410 676 412.23 675.234c4.03-1.796 6.945-4.617 10.207-7.547l3.871-3.426 1.886-1.682a156 156 0 0 1 5.028-4.185c2.659-2.293 4.608-4.651 6.777-7.395a116 116 0 0 1 4.938-4.125l2.934-2.352 1.546-1.239c2.732-2.217 5.405-4.503 8.083-6.784l14.688-12.187 9.313-7.812 14.688-12.187 9.313-7.812 14.688-12.187 9.313-7.812c15.696-13.319 15.696-13.319 21.688-17.437L554 557v-2l1.813-.875c2.381-1.172 2.381-1.172 5.188-3.125v-2l5-2v-2l1.734-.812c2.344-1.229 4.39-2.613 6.516-4.187l2.141-1.562L578 537v-2l1.875-.75c2.476-1.456 3.076-2.628 4.125-5.25h2c3.303-3.452 3.303-3.452 4-8h2c9.688-18.713 13.133-37.899 7.258-58.617-4.667-13.256-16.287-23.588-27.262-31.824-2.543-1.985-4.717-4.28-6.996-6.559l-6-4c-5.463-4.064-10.491-8.048-14.551-13.555-1.912-1.907-3.947-2.446-6.449-3.445-5.864-4.191-11.311-8.757-15.586-14.59-1.385-1.576-1.385-1.576-3.66-2.25-3.775-1.59-6.408-4.078-9.441-6.785-3.666-3.804-3.666-3.804-8.312-5.375v-2l-2.875-1.875C495 368 495 368 494.086 366.102c-1.402-2.714-3.164-4.011-5.586-5.852l-2.406-1.859c-1.953-1.575-1.953-1.575-4.094-1.391v-2h-3l-1-3h-2l-.75-1.937c-1.066-2.25-1.066-2.25-3.375-2.812L470 347v-2h-3l-.75-1.75c-1.451-2.612-2.978-4.312-5.25-6.25l-2.062-.5c-2.695-.695-3.369-2.29-4.937-4.5h-2l-1-3a121 121 0 0 0-4.277-2.852c-2.399-1.599-4.497-3.475-6.664-5.371-5.154-4.45-10.471-8.72-15.801-12.957-1.895-1.528-3.542-3.104-5.258-4.82-2.37-1.951-4.786-3.835-7.219-5.707l-2.406-1.855-2.289-1.754c-1.831-1.478-3.443-3.005-5.086-4.684l-3.375-2.937-1.711-1.465L390 279l-8.281-6.781-5.469-4.406c-1.893-1.525-3.536-3.099-5.25-4.812l-5-4-8.477-7.074c-2.441-2.078-2.441-2.078-5.523-2.926v-2c-3.48-3.636-3.48-3.636-8-5v-2l-4.227-2.809c-3.142-2.11-5.928-4.64-8.773-7.128l-3.562-3.09-1.745-1.515c-4.107-3.538-8.304-6.968-12.505-10.395l-12.473-10.238-4.421-3.639-9.758-8.084-2.973-2.477-2.559-2.148c-1.857-1.674-1.857-1.674-4.004-1.477l-1-3c-2.114-1.951-2.114-1.951-4.687-3.875-2.993-2.321-5.953-4.641-8.812-7.125-2.227-2.208-2.227-2.208-4.5-2v-2c-3.056-3.025-3.056-3.025-7-4v-2h-2v-2l-5-2v-2c-1.715-1.588-1.715-1.588-3.875-3.125l-2.18-1.633c-1.842-1.422-1.842-1.422-3.945-1.242v-2c-3.056-3.025-3.056-3.025-7-4v-2l-1.937-.312L223 142l-1-3c-2.147-1.985-2.147-1.985-4.75-3.937l-2.609-2.027L212 131l-2.703-2.254c-2.081-1.948-2.081-1.948-4.297-1.746v-2c-8.602-8.04-17.968-14.404-28.812-18.922C174 105 174 105 173 103c-2.941-.98-4.866-1.129-7.93-1.133l-2.91-.004-3.035.012-3.012-.012-2.918.004-2.656.003c-2.603.133-4.994.59-7.54 1.129z"/><path fill="#dad9dd" d="M192 110c7.657 5.37 14.693 11.498 21.574 17.816 5.14 4.627 10.566 8.925 15.992 13.211 4.211 3.328 8.294 6.714 12.246 10.348 3.725 3.404 7.596 6.53 11.625 9.563 5.287 3.981 10.169 8.261 15.023 12.766 2.926 2.646 5.986 5.029 9.125 7.414 2.871 2.239 5.645 4.583 8.414 6.945l15.438 12.875 17.746 14.945c3.992 3.437 8.072 6.74 12.207 10.004 3.18 2.575 6.267 5.247 9.359 7.926 5.325 4.609 10.78 9.004 16.344 13.319 4.051 3.156 7.911 6.466 11.715 9.919 3.326 2.958 6.793 5.736 10.25 8.539l9.254 7.785c4.514 3.852 9.119 7.556 13.813 11.188 5.25 4.067 10.16 8.379 15.027 12.902 3.767 3.354 7.73 6.414 11.72 9.496 4.42 3.433 8.583 7.074 12.706 10.86 4.331 3.898 8.888 7.521 13.422 11.18l19.806 16.556c4.414 3.796 8.897 7.497 13.417 11.167l9.277 7.777 14.684 12.184 9.379 7.879c3.768 3.205 7.56 6.364 11.438 9.438 4.453 3.529 8.787 7.182 13.113 10.863L556.5 413.5l13.653 11.407a509 509 0 0 0 10.659 8.78C594.27 444.765 604.189 458.386 607 476c1.204 12.42.964 24.428-4 36l-1.203 3.117c-2.277 5.548-3.594 7.843-8.797 10.883-2.784 2.579-5.343 5.39-7.92 8.174-3.498 3.64-6.748 5.855-11.333 7.952-2.18 1.091-3.477 2.37-4.934 4.312l-1.434 1.813L566 550c-1.604 1.777-3.231 3.379-5 5h-2l-1 3c-1.934 1.727-1.934 1.727-4.437 3.625-3.629 2.82-7.109 5.71-10.5 8.813-4.265 3.887-8.666 7.556-13.152 11.184l-9.285 7.816a272 272 0 0 1-13.187 10.563c-5.603 4.215-10.712 8.812-15.781 13.652C489 616 489 616 486.543 617.461c-3.306 2.001-5.954 4.569-8.73 7.227-4.755 4.479-9.614 8.694-14.789 12.691-2 1.529-2 1.529-3.484 3.148C458 642 458 642 455.652 643.375c-3.094 1.895-5.465 4.121-8.09 6.625-4.943 4.644-10.106 8.867-15.477 13.003-4.48 3.468-8.68 7.169-12.847 11.009-2.071 1.84-4.184 3.489-6.426 5.113-3.436 2.492-6.332 5.299-9.289 8.336-2.432 2.457-4.584 4.199-7.844 5.379-2.97 1.286-4.962 2.82-7.43 4.91l-2.902 2.434-1.605 1.355-5.747 4.747-22.093 18.513-10.84 9.076-2.668 2.176-4.383 3.555a63.6 63.6 0 0 0-8.387 8.332c-3.041 3.565-6.301 6.293-10.047 9.09-3.073 2.351-6.012 4.835-8.953 7.348L298.5 774.438c-4.338 3.532-8.506 7.217-12.625 11l-1.725 1.578c-2.967 2.681-2.967 2.681-5.15 5.985l-1.684.313c-3.442 1.022-5.74 3.352-8.379 5.688l-3.508 3.035-1.759 1.528c-2.332 2.005-4.717 3.941-7.108 5.875-4.246 3.455-8.415 6.99-12.562 10.563l-15.277 12.781c-6.466 5.269-12.912 10.56-19.098 16.156-3.016 2.669-5.982 4.317-9.625 6.063-3.475 2.427-6.803 5.046-10.117 7.688C188 864 188 864 186 864v2l-7 3-1.93.832c-8.842 3.604-18.08 3.35-27.508 3.355l-3.236.037c-6.684.012-12.834-.622-19.326-2.225l2-1v-2l-2-1h4v2c13.996 3.008 32.378 2.797 46-2 1.634-1.473 1.634-1.473 3-3 1.93-.799 3.864-1.372 5.867-1.961 2.987-1.455 4.839-3.654 7.133-6.039a226 226 0 0 1 4.938-4.062c4.363-3.527 8.635-7.138 12.875-10.812a334 334 0 0 1 14.125-11.562c5.727-4.433 11.215-9.093 16.663-13.863 4.477-3.916 9.035-7.713 13.657-11.458l9.242-7.742 11.938-9.937c4.864-3.958 9.621-8.028 14.371-12.121 4.39-3.775 8.853-7.449 13.348-11.098L314 755l12.5-10.5a577 577 0 0 0 12.375-10.375l1.8-1.547 3.588-3.085 29.814-24.917 5.158-4.244 2.703-2.207 2.277-1.867C386 695 386 695 388 695v-2c1.512-1.34 1.512-1.34 3.688-2.937 2.954-2.219 5.835-4.482 8.629-6.898l1.722-1.489 3.355-2.943c2.259-1.955 4.221-3.585 7.029-4.658 4.003-1.668 6.877-4.572 10.078-7.449l3.906-3.461 1.864-1.658c1.486-1.294 3.022-2.529 4.566-3.752 2.32-1.749 2.32-1.749 4.289-4.441 3.103-3.854 6.932-6.746 10.781-9.824 3.245-2.61 6.424-5.287 9.594-7.988l14.688-12.187 9.313-7.812 14.688-12.187 9.313-7.812 14.688-12.187 9.313-7.812L547 561l2.688-2.254C552 557 552 557 554 557v-2c4.471-4 4.471-4 7-4v-2l5-2v-2c2.117-1.945 2.117-1.945 4.875-4.125l2.742-2.195C576 537 576 537 578 537v-2l5-4 1-2h2l.875-1.75L590 521h2l.352-1.699c.726-2.576 1.813-4.726 3.023-7.113 7.4-16.129 7.882-35.603 2-52.312-5.035-11.638-15.406-20.794-25.344-28.281-2.551-2.002-4.741-4.303-7.031-6.594l-4.129-2.711c-5.673-3.908-11.509-8.253-15.746-13.727-1.864-2.674-1.864-2.674-4.383-3.426-3.411-1.414-5.964-3.517-8.742-5.887l-3.062-2.547c-2.138-1.968-3.751-3.657-5.5-5.906-2.579-2.959-3.875-3.467-7.437-4.797-2.347-1.719-4.509-3.636-6.687-5.562-3.899-3.587-3.899-3.587-8.312-6.437v-2l-1.812-.875c-5.004-2.573-5.004-2.573-6.187-6.125a102 102 0 0 0-5.562-4.062A112 112 0 0 1 482 357v-2h-3c-1.5-1.496-1.5-1.496-3-3.437-2.377-3.067-2.377-3.067-6-4.562v-2h-3c-2.94-2.59-4.751-4.254-6-8l-2.187-.125c-3.328-1.035-4.434-2.617-6.504-5.332-2.044-2.41-4.661-3.848-7.309-5.543-1.684-1.37-3.312-2.796-4.945-4.227-2.502-2.159-5.056-4.247-7.617-6.336l-2.836-2.32-4.641-3.734a98 98 0 0 1-3.961-3.383v-2l-5-2v-2l-2.062-.625c-3.854-1.804-7.015-4.276-9.937-7.375v-2l-2.375-.75c-3.09-1.471-3.162-2.323-4.625-5.25-2.538-1.283-2.538-1.283-5-2v-2l-2.219-.758c-3.009-1.344-4.88-2.876-7.281-5.117-2.475-2.281-4.899-4.435-7.562-6.5L373 266v-2l-5-2v-2l-2.207-.746c-3.082-1.384-5.021-3.015-7.48-5.316-2.927-2.8-2.927-2.8-6.312-4.937v-2l-3-1v-2l-5-2v-2l-2.238-.773c-2.907-1.291-4.644-2.68-6.949-4.852-4.141-3.82-8.466-7.292-12.941-10.711L320 222v-2l-2.254-.785c-2.833-1.253-4.454-2.529-6.684-4.652-3.857-3.549-7.855-6.801-12-10a199 199 0 0 1-14.879-12.687c-2.13-1.943-2.13-1.943-4.648-3.312-2.986-1.84-5.089-4.053-7.535-6.562-2.022-1.799-4.1-3.527-6.187-5.25l-1.615-1.352c-2.931-2.447-2.931-2.447-6.197-4.398v-2l-1.812-.875C254 167 254 167 251 165v-2h-2v-2l-5-2v-2l-1.625-.75c-2.957-1.557-5.672-3.284-8.375-5.25v-2l-1.812-.875C230 147 230 147 227 145v-2l-1.687-.187c-3.261-1.146-4.891-3.36-7.312-5.812l-5.687-4.75-2.887-2.359C207.165 128 207.165 128 205 127v-2l-3-1v-2l-1.777-.828c-2.162-1.14-3.884-2.395-5.785-3.922-5.516-4.214-11.65-7.904-18.207-10.234L174 106l-1-3-12.187-.062-3.486-.025-3.369-.01-3.094-.016c-2.737.109-5.192.534-7.863 1.114l-5.812.188c-5.373.402-8.31 1.641-12.273 5.242C123 111 123 111 120.188 112.367c-3.711 1.901-6.647 4.198-9.812 6.883l-1.695 1.371c-4.034 3.397-6.254 6.698-8.68 11.379l-1.562 2.563c-9.229 15.649-10.921 33.404-6.598 50.898C96.58 199.92 104.219 212.734 118 220c4.953 4.017 9.563 8.424 14 13l1 1c.141 2.671.042 5.324 0 8-4.357-1.421-6.999-3.556-10.312-6.687-3.228-3.016-6.452-6.006-9.812-8.875-14.874-13.052-26.606-29.034-28.012-49.424-.959-20.747 3.711-39.328 17.603-55.385C125.919 96.099 162.79 91.72 192 110"/><path fill="#b6b4ba" d="M597 523c-5.41 15.378-22.315 26.241-34.723 35.832-5.118 3.978-10.002 8.199-14.878 12.469-4.48 3.919-9.041 7.717-13.665 11.465l-9.109 7.609-1.642 1.392-6.665 5.665-16.255 13.505c-4.742 3.755-9.313 7.689-13.89 11.64-4.106 3.535-8.294 6.94-12.547 10.297-3.266 2.644-6.445 5.38-9.625 8.125-3.946 3.407-7.907 6.769-12 10-4.698 3.71-9.226 7.599-13.758 11.508-4.404 3.792-8.882 7.482-13.395 11.145l-9.91 8.41a433 433 0 0 1-14.379 11.879c-3.066 2.467-6.063 5.007-9.059 7.559-3.767 3.208-7.554 6.37-11.437 9.438-4.742 3.755-9.313 7.689-13.89 11.64-4.106 3.535-8.294 6.94-12.547 10.297-3.266 2.644-6.445 5.38-9.625 8.125a432 432 0 0 1-14.445 11.945c-3.613 2.906-7.137 5.914-10.668 8.918L308.5 770.5l-13.666 11.416-10.271 8.521c-4.27 3.473-8.457 7.031-12.625 10.625a430 430 0 0 1-14.316 11.816c-3.863 3.126-7.613 6.381-11.377 9.627-4.428 3.813-8.926 7.53-13.463 11.213l-9.344 7.844a497 497 0 0 1-13.898 11.395c-2.419 1.947-4.788 3.945-7.153 5.957C190.502 869 190.502 869 186 869v2l-4.875 2.375-2.742 1.336c-16.366 6.237-35.343 5.191-51.23-1.687a89 89 0 0 1-15.152-9.023l4-1v2l2.336.402 3.039.535 3.023.527C127 867 127 867 129 868v2c6.889 2.113 13.262 2.269 20.438 2.188l3.275-.002c8.548-.047 16.549-.29 24.662-3.186l3.023-1.062L183 867l3-1v-2c1.941-1.551 1.941-1.551 4.563-3.312l2.766-1.879L196 857l3.813-2.75C203 852 203 852 205.438 850.625c3.05-1.934 5.589-4.215 8.277-6.617 2.444-2.148 4.947-4.206 7.473-6.258L233.5 827.5l11.938-9.937c4.944-4.023 9.79-8.153 14.617-12.314L265 801l1.677-1.447c2.775-2.364 4.7-3.95 8.323-4.553 3.121-1.19 3.121-1.19 4.934-3.875 3.282-6.54 10.478-11.189 16.043-15.672l9.523-7.953 12.313-10.25c8.55-6.806 8.55-6.806 16.063-14.687 3.019-3.649 6.515-6.388 10.246-9.285 3.225-2.551 6.334-5.211 9.441-7.902 8.031-6.932 16.228-13.656 24.438-20.375l3.348-2.746L389 696l2.484-2.117C394 692 394 692 396.523 691.004c3.001-1.217 4.755-2.842 7.102-5.066 5.277-4.886 10.78-9.422 16.375-13.937 9.975-8.077 19.777-16.352 29.375-24.875a100 100 0 0 1 7.25-5.812c9.542-7.03 18.34-15.153 26.973-23.254C486 616 486 616 488.445 614.555c3.158-1.922 5.706-4.33 8.367-6.867 3.901-3.649 7.818-7.055 12.152-10.187 7.625-5.62 14.736-11.937 21.904-18.121a314 314 0 0 1 10.381-8.567c4.331-3.419 8.42-7.059 12.496-10.777a146 146 0 0 1 5.566-4.785c3.308-2.769 6.401-5.626 9.086-9.016l1.477-1.859 1.305-1.727C573 541 573 541 576.207 539.77c4.911-1.956 8.048-5.666 11.605-9.457l3.957-4.137 1.738-1.846C595 523 595 523 597 523"/><path fill="#d9d5d7" d="m192 110-2 4-2.23-1.242-2.957-1.633-2.918-1.617c-2.823-1.553-2.823-1.553-5.695-2.516L174 106l-1-3-12.187-.062-3.486-.025-3.369-.01-3.094-.016c-2.737.109-5.192.534-7.863 1.114l-5.812.188c-5.373.402-8.31 1.641-12.273 5.242C123 111 123 111 120.188 112.367c-3.711 1.901-6.647 4.198-9.812 6.883l-1.695 1.371c-4.034 3.397-6.254 6.698-8.68 11.379l-1.562 2.563c-9.229 15.649-10.921 33.404-6.598 50.898C96.58 199.92 104.219 212.734 118 220c4.953 4.017 9.563 8.424 14 13l1 1c.141 2.671.042 5.324 0 8-4.357-1.421-6.999-3.556-10.312-6.687-3.228-3.016-6.452-6.006-9.812-8.875-14.874-13.052-26.606-29.034-28.012-49.424-.959-20.747 3.711-39.328 17.603-55.385C126.748 95.196 161.821 93.079 192 110"/><path fill="#c8c9ce" d="m551 560 3 1a382 382 0 0 1-18.012 15.547c-3.396 2.788-6.725 5.645-10.051 8.516-6.251 5.386-12.592 10.636-19.164 15.629-5.352 4.076-10.296 8.462-15.195 13.074C489 616 489 616 486.559 617.441c-3.307 2.014-5.964 4.584-8.746 7.246-4.755 4.479-9.614 8.694-14.789 12.691-2 1.529-2 1.529-3.484 3.148C458 642 458 642 455.652 643.375c-3.094 1.895-5.465 4.121-8.09 6.625-4.943 4.644-10.106 8.867-15.477 13.003-4.48 3.468-8.68 7.169-12.847 11.009-2.071 1.84-4.184 3.489-6.426 5.113-3.431 2.489-6.327 5.285-9.27 8.328-1.718 1.722-3.532 3.18-5.543 4.547l-2-1 2.23-1.977c5.93-5.251 5.93-5.251 11.27-11.086 3.115-3.66 6.656-6.45 10.402-9.445 3.269-2.63 6.468-5.331 9.66-8.055 3.746-3.187 7.516-6.325 11.375-9.375 4.111-3.255 8.094-6.637 12.063-10.062a433 433 0 0 1 14.445-11.945c3.613-2.906 7.137-5.914 10.668-8.918L488.5 611.5l12-10 14.688-12.187 9.313-7.812L542 567l2.578-2.148 2.422-1.977 2.125-1.758z"/><path fill="#dcdde1" d="m410 675 2 1c-5.304 6.468-10.863 11.696-17.484 16.745-4.384 3.344-8.603 6.829-12.766 10.443-3.862 3.347-7.737 6.646-11.75 9.813-4.698 3.71-9.226 7.599-13.758 11.508L345.5 733.5c-4.959 4.025-9.811 8.165-14.643 12.34L326 750l-2.539 2.168C321 754 321 754 318.156 755.352c-4.095 2.139-7.232 4.952-10.656 8.023l-3.844 3.398-1.852 1.644c-2.56 2.246-5.177 4.417-7.805 6.583l-2-1c6.223-5.765 12.525-11.326 19.125-16.66l9.25-7.715 1.644-1.394L327 744l18.375-15.375c4.398-3.574 8.674-7.268 12.938-11 6.033-5.275 12.225-10.29 18.566-15.187a171 171 0 0 0 6.398-5.25C386 695 386 695 388 695v-2c1.512-1.34 1.512-1.34 3.688-2.937 4.247-3.202 8.327-6.554 12.375-10l1.77-1.506z"/><path fill="#ccccd1" d="M95 196c2.19 1.862 3.258 3.486 4.625 6.063 3.431 6.178 8.535 12.737 14.875 16.063 6.765 3.624 12.183 9.392 17.5 14.875l1 1c.141 2.671.042 5.324 0 8-4.357-1.421-6.999-3.556-10.312-6.687-3.228-3.016-6.452-6.006-9.812-8.875C104.554 219.136 97.544 211.684 92 202v-2h2z"/><path fill="#b7b5bc" d="m390 695 2 1c-6.767 6.446-13.57 12.599-21.052 18.211-4.112 3.101-8.052 6.36-11.948 9.727l-1.743 1.505L352 730l-7.25 6.25-1.664 1.449C339.227 741 339.227 741 337 741l-.812 1.813c-1.193 2.198-2.434 3.434-4.187 5.188l-1.312 2.328C325.632 758.333 316.411 764.253 309 770l-2.039 1.789C305 773 305 773 302.75 772.688L301 772c4.19-4.432 8.559-8.295 13.406-11.988 7.542-5.85 14.78-11.764 20.883-19.133 2.661-2.922 5.748-5.222 8.867-7.637 3.216-2.536 6.311-5.187 9.406-7.867 10.992-9.488 22.275-18.63 33.531-27.801 1.797-1.433 1.797-1.433 2.906-2.574zm-92 80 1 2-2-1z"/><path fill="#d2d2d7" d="m218 835 2 1-1.723 1.469c-3.809 3.307-7.404 6.549-10.59 10.469-4.457 5.294-10.095 9.063-15.687 13.063l-2.238 1.762C188 864 188 864 186 864v2l-7 3-1.93.832c-8.842 3.604-18.08 3.35-27.508 3.355l-3.236.037c-6.684.012-12.834-.622-19.326-2.225l2-1v-2l-2-1h4v2c13.996 3.008 32.378 2.797 46-2 1.634-1.473 1.634-1.473 3-3 1.93-.799 3.864-1.372 5.867-1.961 2.987-1.455 4.839-3.654 7.133-6.039a226 226 0 0 1 4.938-4.062c6.808-5.506 13.433-11.218 20.063-16.937z"/><path fill="#ebebea" d="m152.902 101.867 2.947-.004 3.088.012 3.076-.012 2.951.004 2.707.003C170 102 170 102 173 103l2 3c3.054 1.213 3.054 1.213 6 2-3.684 1.228-5.215.293-8.672-1.211-11.66-3.952-25.836-2.599-37.328 1.211l-3.277 1.066c-16.655 5.889-26.822 16.342-34.398 32.012C95.696 144.671 94.29 148.273 93 152h-1c.398-12.146 7.31-21.86 15.375-30.562L110 119l1.914-1.789c3.609-3.285 6.499-5.491 11.086-7.211l3.375-3.062c4.977-3.943 10.357-3.705 16.43-3.832 3.61-.119 6.394-1.234 10.098-1.238z"/><path fill="#c1bfc5" d="m201 853 2 1c-5.846 6.346-10.99 11.707-19.102 15.098-2.078.749-2.078.749-2.898 2.902-9.481 3.219-19.725 3.359-29.639 3.475l-6.004.117c-12.895.005-23.097-3.877-33.357-11.592l4-1v2l2.336.402 3.039.535 3.023.527C127 867 127 867 129 868v2c6.889 2.113 13.262 2.269 20.438 2.188l3.275-.002c8.548-.047 16.549-.29 24.662-3.186l3.023-1.062L183 867l3-1v-2c2.012-1.586 2.012-1.586 4.688-3.375 3.559-2.418 7.004-4.868 10.313-7.625z"/><path fill="#cacacf" d="M600 458c7.046 7.046 7.528 20.365 7.563 29.688-.11 8.759-1.047 16.215-4.562 24.313l-1.379 3.223a231 231 0 0 1-3.621 7.777h-3c-2.17 1.44-2.17 1.44-4 3 1.049-3.243 2.058-5.061 4.438-7.562 3.194-3.615 3.849-7.707 4.789-12.34C601 503 601 503 602.563 499.77c2.053-4.607 1.876-9.176 1.813-14.145l.035-2.711c-.024-5.396-.741-9.837-2.7-14.873-1.148-3.298-1.395-6.573-1.71-10.041z"/><path fill="#c9cad0" d="m330 745 2 1a385 385 0 0 1-18.082 15.617l-11.068 9.288a530 530 0 0 1-10.725 8.845c-7.515 5.786-7.515 5.786-13.125 13.25l-3-1c6.199-9.248 14.531-15.932 23.219-22.75a219 219 0 0 0 6.313-5.312l1.864-1.626 3.607-3.188c3.483-3.047 6.802-5.101 10.997-7.124 2.334-1.774 2.334-1.774 4.375-3.687l2.086-1.887z"/><path fill="#aca5aa" d="m196 864-3.875 2.5-2.18 1.406C188 869 188 869 186 869v2l-4.875 2.375-2.742 1.336c-8.267 3.15-16.42 3.608-25.195 3.539l-3.061.023-2.959-.008-2.648-.007c-2.799-.287-4.966-1.105-7.52-2.259v-1l2.396-.06 10.917-.315 3.768-.094c6.669-.21 13.014-.701 19.542-2.116 2.504-.438 4.841-.485 7.378-.416l1-3c2.398-1.641 2.398-1.641 5.375-3.25l2.961-1.641C193 863 193 863 196 864"/><path fill="#d7d7db" d="m91 794-.032 2.276-.093 10.287-.051 3.58c-.043 7.717.635 13.262 3.676 20.357 1.498 3.495 2.527 6.834 3.5 10.5-2.511-1.255-2.871-2.501-4-5h-2l-.875-2.312C90.037 830.85 90.037 830.85 88 828c-1.68-7.415-2.219-15.039-2.375-22.625l-.086-3.977C86 798 86 798 87.961 795.539 90 794 90 794 91 794"/><path fill="#d7d8dc" d="m596 521 1 2-2-1zm-6 4 2 2c-11.512 12.203-11.512 12.203-16.375 14.313-4.534 2.111-6.595 4.842-9.625 8.688-1.604 1.777-3.231 3.379-5 5h-2l-1 3-3 2-3-1c1.49-3.794 3.691-5.683 7-8h2v-2l5-2v-2c2.117-1.945 2.117-1.945 4.875-4.125l2.742-2.195C576 537 576 537 578 537v-2l5-4 1-2a159 159 0 0 1 5-3z"/><path fill="#d9d6da" d="M571 426c26.456 18.675 26.456 18.675 29 32-2 0-2 0-3.48-1.469l-1.707-2.031-1.895-2.219-3.617-4.312c-3.796-4.459-7.862-8.306-12.277-12.148-2.329-2.095-4.3-4.198-6.023-6.82z"/><path fill="#c4c5ca" d="m390 695 2 1c-6.767 6.446-13.57 12.599-21.052 18.211-5.958 4.493-11.557 9.38-17.19 14.269l-8.821 7.52-1.588 1.347a379 379 0 0 1-9.35 7.653l-2-1a378 378 0 0 1 17.961-15.492c3.51-2.896 6.93-5.884 10.352-8.883 5.492-4.804 11.11-9.391 16.879-13.858A213 213 0 0 0 390 695"/><path fill="#dbdce0" d="m218 835 2 1-1.723 1.469c-3.809 3.307-7.404 6.549-10.59 10.469-4.457 5.294-10.095 9.063-15.687 13.063l-2.176 1.684c-2.49 1.797-4.855 2.574-7.824 3.316-2.187-.453-2.187-.453-4-1l2.012-.699 2.676-.988 2.637-.949c3.231-1.646 5.187-3.741 7.676-6.363a226 226 0 0 1 4.938-4.062c6.808-5.506 13.433-11.218 20.063-16.937z"/><path fill="#d5d4d8" d="M89 175h1l.586 2.922.789 3.828.773 3.797c.68 3.316.68 3.316 1.945 5.609 1.139 2.318 1.107 4.028 1.031 6.594l-.055 2.422L95 202l-1-2h-2l-1.937-3.75-1.09-2.109c-1.711-3.766-2.129-7.08-2.16-11.203l-.043-2.598C87 178 87 178 89 175"/><path fill="#e4e6e8" d="m125 747 2 1-2.598 2.379C118.485 755.811 112.617 761.256 107 767l-2.426 2.195c-3.06 3.334-4.83 6.687-6.762 10.742l-1.037 2.092c-1.911 3.915-3.5 7.793-4.775 11.971h-1c.525-5.787 2.182-10.283 4.688-15.5l.99-2.184c3.381-7.15 7.375-12.404 14.322-16.316a139 139 0 0 0 5.063-5c2.843-2.944 5.584-5.646 8.938-8z"/><path fill="#d0cdd1" d="M90 830c4.318 4.112 7.032 8.755 9.816 13.977 1.145 2.154 1.145 2.154 3.184 4.023.4 2.323.74 4.657 1 7-3.924-3.673-6.875-7.47-9.75-12l-1.207-1.828C90.905 837.839 89.322 834.986 89 831z"/><path fill="#c0bfc4" d="M595 523h2l-1 3-3-1zm-15 17-4.988 4.262-3.93 3.508-1.832 1.668-1.672 1.559L566 552l-3-1 2.188-1.625c2.177-1.838 3.615-3.301 5.313-5.5 2.697-3.102 5.377-5.937 9.5-3.875zm-14 12 1 3-3-1z"/><path fill="#dcdade" d="M501 372c6.383 0 9.534 2.537 14.109 6.855 2.249 2.551 3.304 4.792 3.891 8.145-3.693-1.607-6.487-3.922-9.562-6.5-2.767-2.312-5.436-4.499-8.437-6.5z"/><path fill="#cfccce" d="M587 440c5.931 4.508 9.706 9.292 13 16v2c-2 0-2 0-3.586-1.574L591 450l-2.437-2.687c-1.812-2.682-1.925-4.14-1.562-7.312z"/><path fill="#b3adb2" d="M112 863h4v2l2.336.402 3.039.535 3.023.527C127 867 127 867 129 868v2l7 4c-2 1-2 1-4.723.215-6.966-2.664-13.458-5.463-19.277-10.215z"/><path fill="#bbb6ba" d="M600 458c6.569 6.569 7.284 18.622 7.347 27.347L607 499h-1l-.078-3.664c-.29-9.307-1.123-17.463-4-26.355-1.141-3.687-1.615-7.144-1.922-10.98z"/><path fill="#e7e8e9" d="M91 152h1l-.016 2.32-.047 10.555-.025 3.648c-.019 6.894.212 13.636 1.088 20.477-4.419-6.629-4.195-15.059-4.25-22.812l-.028-2.172c.025-4.379.668-7.947 2.278-12.015z"/><path fill="#c7c4c8" d="m85 160 3 2c1.559 7.876 1.246 15.338-1 23h-1c-1.109-5.329-1.115-10.463-1.062-15.875l.014-2.664z"/><path fill="#d1d1d6" d="m596 521 1 2-2-1zm-6 4 2 2-5.687 5.875-1.607 1.684c-3.03 3.086-5.446 5.193-9.705 6.441 1.99-4.609 3.977-7.036 8-10l1-2a159 159 0 0 1 5-3z"/><path fill="#d2d0d4" d="M517 381c6.526 4.768 12.774 9.849 19 15l-2 1c-2.625-.937-2.625-.937-5-2v-3l-2.187-.25c-4.646-1.239-7.188-3.814-9.812-7.75z"/><path fill="#b3acb0" d="M85 796h1l.148 3.375A334 334 0 0 0 89 830c-2-1-2-1-3.117-3.723-1.509-5.779-1.092-11.791-1.008-17.715l.027-3.662z"/><path fill="#dddbde" d="M526 392h3v3l1.898.48c6.756 1.929 6.756 1.929 8.602 5.082L540 403l1 2c-3.714-1.627-6.616-3.947-9.75-6.5l-2.984-2.406L526 394z"/><path fill="#e0e0e3" d="M90 820h1l.813 3.063c.742 2.617 1.606 4.913 2.688 7.438 1.498 3.495 2.527 6.834 3.5 10.5-2.511-1.255-2.871-2.501-4-5h-2c-2.271-5.395-2.204-10.262-2-16z"/><path fill="#dbd9dc" d="m557 418 1.563.813 6 2.688c6.066 2.647 6.066 2.647 7.5 5.938L573 430l2 3c-2.721-1.069-3.961-1.949-5.75-4.312-2.53-3.022-5.045-4.565-8.445-6.477C559 421 559 421 557 418"/><path fill="#cec9ca" d="m112 113 2 1-1.269 1.253-5.668 5.622-1.998 1.973-1.904 1.895-1.761 1.746c-1.5 1.478-1.5 1.478-2.4 3.511l-2-1c9.226-11.706 9.226-11.706 15-16"/><path fill="#dddfe0" d="m421 500 2 1c-5.781 5.331-11.591 10.435-18 15l-1-2 2.703-2.047 3.547-2.703 1.777-1.344c3.216-2.458 6.185-4.953 8.973-7.906"/><path fill="#aeaab0" d="m196 864-3.875 2.5-2.18 1.406C188 869 188 869 186 869v2l-6 2c1.489-4.043 3.71-5.318 7.438-7.312l2.934-1.613C193 863 193 863 196 864"/><path fill="#c0c0c7" d="m285 783 2 1-1.496 1.461-1.941 1.914-1.934 1.898c-1.708 1.644-1.708 1.644-2.629 3.727l-3-1c2.501-4.169 4.494-6.984 9-9"/><path fill="#bab9bf" d="m412 678 2 1-7 8-3-1zm-11 11 1 3-4 1z"/><path fill="#bebac0" d="M112 863h4v2l2.336.367 3.039.508 3.023.492C127 867 127 867 129 869c-6.181.378-11.155-.522-15.937-4.687z"/><path fill="#cfc9cb" d="m139 101-1 3c-1.996.695-1.996.695-4.437 1.125-3.39.606-3.39.606-6.562 1.875l-2-2 4.75-2 2.672-1.125C135 101 135 101 139 101"/><path fill="#b9b9c0" d="m308 765 2 1-1.375 1.25c-1.685 1.814-2.618 3.503-3.625 5.75l-4-1zm-10 10 1 2-2-1z"/><path fill="#cecbcf" d="M554 412c8.446 6.15 8.446 6.15 12 10-4.914-.434-7.527-2.606-11-6-.672-2.168-.672-2.168-1-4"/><path fill="#c5bfc2" d="m90 830 1.438 1.5c1.322 1.615 1.322 1.615 2.563 1.5l1 10c-3.55-3.905-4.818-6.977-6-12l1-1z"/><path fill="#afacb3" d="m301 773 3 1-4.375 4-2.461 2.25C295 782 295 782 293 782c.75-1.937.75-1.937 2-4l4-1c1.284-1.984 1.284-1.984 2-4"/><path fill="#afacb2" d="m325 753 3 1-4.375 4-2.461 2.25C319 762 319 762 317 762c.75-1.937.75-1.937 2-4l4-1c1.284-1.984 1.284-1.984 2-4"/><path fill="#c3bec0" d="M594 448c3.483 3.019 4.792 5.569 6 10-2 0-2 0-4.125-1.625-2.352-2.98-2.212-4.672-1.875-8.375"/><path fill="#e8e7e9" d="M501 372c2.938.75 2.938.75 6 2 .625 2 .625 2 1 4 1.967 1.15 1.967 1.15 4 2l1 2c-2.993-1.402-5.595-3.034-8.25-5l-2.141-1.562L501 374z"/><path fill="#c7c8cd" d="m573 541 2 1-9 10-3-1 2.188-1.625c3.06-2.584 5.325-5.247 7.813-8.375z"/><path fill="#c1bfc5" d="m601 511 2 1-5 11-2-3 1.938-2.812c2.149-3.03 2.149-3.03 3.063-6.187z"/><path fill="#ccc8cd" d="m571 426 3.938 2.875 2.215 1.617C579 432 579 432 580 434c-3.186-.354-4.791-.83-7.312-2.875C571 429 571 429 571 426"/><path fill="#e7e5e5" d="M137 104v2c-6.286 2.429-6.286 2.429-10 1 3.318-3.063 5.552-3.303 10-3"/><path fill="#afabb1" d="m385 703 3 1-8 7-1-3 1.875-.25c2.309-.563 2.309-.563 3.375-2.812z"/><path fill="#e3e2e5" d="M548 411c2.813.125 2.813.125 6 1 1.875 3.063 1.875 3.063 3 6-3.817-1.555-6.192-4.036-9-7"/><path fill="#e6e5e8" d="M526 392h3v3l1.813.75c2.474 1.414 3.621 2.901 5.188 5.25-3.957-1.674-6.845-4.131-10-7z"/><path fill="#cac5c8" d="M87 151c2 3 2 3 1.758 5.043L87 162h-1c-.125-7.625-.125-7.625 1-11"/><path fill="#aeaaaf" d="m407 685 3 1-8 6 1-4 4-1z"/></svg>