<svg xmlns="http://www.w3.org/2000/svg" viewBox="0 0 500 500"><ellipse cx="250" cy="416.24" rx="193.89" ry="11.32" style="fill:#f5f5f5"/><path d="M369.4 418.01h37.61l5-36.58H364.4z" style="fill:#031326"/><path d="M388.68 381.49s5.27-24.89-4.32-38.37 8.67-.16 10.77 12.46c0 0 3.14-22.56-6.16-38.43s8.1-2.84 9.58 13.51c0 0 2.85-20.13-1.42-31.44s3.16-4 6 3.06-.9 24.64-.9 24.64 7.46-32.46 14.53-29.88-10.56 23.86-13 34.92c0 0 8.33-14.89 14.65-11.79s-9.78 4.64-17.16 26.85l-2.59 10.41s7.67-14.7 12.68-10.06-14.85 12.63-19.47 34.91Z" style="fill:#a7c8e9"/><path d="M389.71 382.92s1.11-31.38 16.61-44.67S396 335.49 389.71 350c0 0 3-28 18.83-44.2s-8.86-5.8-15.54 13.31c0 0 2.58-25 11.07-37.24s-2.58-5.78-8.12 1.87-6.28 29.78-6.28 29.78.74-41.1-8.49-40.11 5.54 31.71 5.17 45.7c0 0-5.54-20.32-14-18.49s10.33 8.47 12.55 37.27v13.24s-4.8-19.89-12.19-15.83 14 19.56 12.92 47.62Z" style="fill:#a7c8e9"/><path d="M389.71 382.92s1.11-31.38 16.61-44.67S396 335.49 389.71 350c0 0 3-28 18.83-44.2s-8.86-5.8-15.54 13.31c0 0 2.58-25 11.07-37.24s-2.58-5.78-8.12 1.87-6.28 29.78-6.28 29.78.74-41.1-8.49-40.11 5.54 31.71 5.17 45.7c0 0-5.54-20.32-14-18.49s10.33 8.47 12.55 37.27v13.24s-4.8-19.89-12.19-15.83 14 19.56 12.92 47.62Z" style="fill:#fff;opacity:.2;isolation:isolate"/><path d="M416.73 378.46v3.48a4.22 4.22 0 0 1-4.21 4.21h-49.1a4.22 4.22 0 0 1-4.21-4.21v-3.48Z" style="fill:#031326"/><path d="M416.73 378.46v3.48a4.22 4.22 0 0 1-4.21 4.21h-49.1a4.22 4.22 0 0 1-4.21-4.21v-3.48Z" style="fill:#fff;opacity:.2;isolation:isolate"/><path d="M250.68 330.43a.49.49 0 0 1-.48-.36.51.51 0 0 1 .35-.62s2.45-.85.55-6.95c-1.47-4.7-.43-8.16 1-9.83a3.34 3.34 0 0 1 3-1.31.5.5 0 0 1 .4.58.49.49 0 0 1-.57.41 2.37 2.37 0 0 0-2.09 1c-1.28 1.46-2.17 4.57-.83 8.87 1 3.08 1 5.41.21 6.91a2.65 2.65 0 0 1-1.44 1.31Z" style="fill:#a7c8e9"/><path d="m264 318.43 4.34 2a4.52 4.52 0 0 0 3.54-2.59l1.64-3.58a4.53 4.53 0 0 0-.26-4.25l-4.58-2.1a4.53 4.53 0 0 0-3.39 2.58l-1.64 3.58a4.52 4.52 0 0 0 .35 4.36" style="fill:#031326"/><path d="m273.53 314.25-1.65 3.58-.19.38a4.7 4.7 0 0 1-.63.84l-.25.24a4.3 4.3 0 0 1-.82.58l-.1.06a4.3 4.3 0 0 1-1 .38 3.5 3.5 0 0 1-.54.11l-4.34-2a4.52 4.52 0 0 1-.53-3.91 4 4 0 0 1 .18-.46l1.64-3.58a2.6 2.6 0 0 1 .2-.37 4.2 4.2 0 0 1 .82-1.05 4 4 0 0 1 .3-.24 3.8 3.8 0 0 1 .92-.56 2.6 2.6 0 0 1 .43-.17 6 6 0 0 1 .72-.19l4.58 2.1a4.46 4.46 0 0 1 .38 3.93 3 3 0 0 1-.12.33" style="opacity:.30000000000000004"/><path d="M267.54 308.26a3.8 3.8 0 0 0-.92.56 25.65 25.65 0 0 0 4.44 10.23 4.7 4.7 0 0 0 .63-.84 25.7 25.7 0 0 1-4.15-9.95m-1.22.8a4.2 4.2 0 0 0-.82 1.05 26.7 26.7 0 0 0 4.49 9.76 4.3 4.3 0 0 0 .82-.58 24.9 24.9 0 0 1-4.49-10.23m-2.84 5.46a4.52 4.52 0 0 0 .53 3.91l1.11.51a12.5 12.5 0 0 1-1.64-4.42m1.8-4-.76 1.67a17.3 17.3 0 0 0 4.37 8.13 4.3 4.3 0 0 0 1-.38c-3.4-3.68-4.44-7.03-4.61-9.43Zm-.68 2.89c-.11-.3-.2-.56-.28-.8l-.6 1.32a42.5 42.5 0 0 0 2.12 5.35l1.59.73a31 31 0 0 1-2.83-6.61Zm4.4-5.35-.31-.15a6 6 0 0 0-.72.19c.73 2.46 2.44 7.08 4.18 9.16l.47-1a32.4 32.4 0 0 1-3.62-8.21Zm1.71 1c.19.33.37.67.55 1a31 31 0 0 0 2.39 3.91 4.5 4.5 0 0 0 .28-1.3c-.59-.91-1.24-2.09-1.79-3.1v-.06l-2.69-1.23a28.7 28.7 0 0 0 3.34 7.05l.17.27.49-1.09a32 32 0 0 1-2.74-5.51Z" style="fill:#031326"/><path d="M279.54 310h-4.78a4.53 4.53 0 0 0-2.11 3.84v4a4.54 4.54 0 0 0 2 3.74h5a4.54 4.54 0 0 0 2-3.77v-3.94a4.52 4.52 0 0 0-2.11-3.87" style="fill:#a7c8e9"/><path d="M272.68 317.85v-3.94a3 3 0 0 1 0-.43 4.6 4.6 0 0 1 .22-1 2 2 0 0 1 .12-.33 4 4 0 0 1 .5-.86.3.3 0 0 1 .07-.1 3.9 3.9 0 0 1 .74-.77 3.4 3.4 0 0 1 .44-.33h4.78a4.54 4.54 0 0 1 2.13 3.32v4.43a3 3 0 0 1 0 .42 4.3 4.3 0 0 1-.3 1.29 2.3 2.3 0 0 1-.17.35 4.2 4.2 0 0 1-.59.9 2 2 0 0 1-.33.33 5 5 0 0 1-.57.48h-5a4.44 4.44 0 0 1-1.7-2.1 4 4 0 0 1-.3-1.29 2 2 0 0 1-.04-.37" style="fill:#fff;opacity:.30000000000000004"/><g style="opacity:.30000000000000004"><path d="M280.65 320.74a4.2 4.2 0 0 0 .59-.9c-1.67-2.18-4.66-5.57-8.35-7.39a4.6 4.6 0 0 0-.22 1c3.54 1.85 6.44 5.25 7.98 7.29m.76-1.25a4.3 4.3 0 0 0 .3-1.29 26.7 26.7 0 0 0-8.2-6.94 4 4 0 0 0-.5.86 25 25 0 0 1 8.4 7.37m.26-6.14a4.54 4.54 0 0 0-2.13-3.32h-1.23a12.4 12.4 0 0 1 3.36 3.32m.06 4.39v-1.83a17.3 17.3 0 0 0-7.4-5.52 3.9 3.9 0 0 0-.74.77c4.62 1.89 6.98 4.48 8.14 6.58m-.6-2.9.59.6V314a41.5 41.5 0 0 0-4.19-3.95h-1.75a31.2 31.2 0 0 1 5.35 4.79m-1.72 6.71h.34a5 5 0 0 0 .57-.48c-1.7-1.92-5.2-5.38-7.66-6.52v1.13a32.3 32.3 0 0 1 6.75 5.87m-2-.16-.93-.67a31 31 0 0 0-3.81-2.53 4 4 0 0 0 .3 1.29c.91.58 2 1.37 2.93 2h3a28.8 28.8 0 0 0-6-5 2 2 0 0 1-.26-.16v1.19a32 32 0 0 1 4.81 3.88Z" style="fill:#fff"/></g><path d="m284 309.63-3.68 3a4.52 4.52 0 0 0 .79 4.31l2.51 3a4.52 4.52 0 0 0 3.93 1.62l3.89-3.21a4.54 4.54 0 0 0-.84-4.17l-2.51-3a4.53 4.53 0 0 0-4.09-1.55" style="fill:#031326"/><path d="m283.57 320-2.51-3-.26-.34a4.6 4.6 0 0 1-.48-.93c0-.11-.07-.22-.11-.34a4.6 4.6 0 0 1-.16-1 .5.5 0 0 1 0-.12 3.8 3.8 0 0 1 .1-1.06 3.3 3.3 0 0 1 .13-.54l3.69-3a4.52 4.52 0 0 1 3.75 1.24 2.3 2.3 0 0 1 .33.36l2.51 3a3 3 0 0 1 .24.35 3.9 3.9 0 0 1 .59 1.19c0 .12.07.25.09.38a4.3 4.3 0 0 1 .1 1.07 2.3 2.3 0 0 1 0 .46 6 6 0 0 1-.14.73l-3.89 3.2a4.53 4.53 0 0 1-2.65-.55 4.3 4.3 0 0 1-1.05-.82 1.4 1.4 0 0 1-.28-.28" style="fill:#fff;opacity:.30000000000000004"/><g style="opacity:.30000000000000004"><path d="M291.57 317.25a4.3 4.3 0 0 0-.1-1.07 25.7 25.7 0 0 0-11.15-.47 4.6 4.6 0 0 0 .48.93 25.8 25.8 0 0 1 10.77.61m-.19-1.45a3.9 3.9 0 0 0-.59-1.19 26.6 26.6 0 0 0-10.74-.22 4.6 4.6 0 0 0 .16 1 25 25 0 0 1 11.17.41m-3.67-4.93a4.52 4.52 0 0 0-3.75-1.24l-.95.78a12.6 12.6 0 0 1 4.7.46m2.81 3.36-1.16-1.41a17.3 17.3 0 0 0-9.22.39 3.8 3.8 0 0 0-.1 1.06c4.79-1.46 8.26-.93 10.48-.04m-2.29-1.87.83.1-.92-1.12a40 40 0 0 0-5.74-.42l-1.35 1.08a31.2 31.2 0 0 1 7.18.36m2.89 6.29.27-.21a6 6 0 0 0 .14-.73c-2.53-.42-7.43-.9-10.06-.23l.72.87a32.8 32.8 0 0 1 8.93.3m-1.62 1.12c-.38 0-.77 0-1.14.06a32 32 0 0 0-4.56.44 4.3 4.3 0 0 0 1.05.82c1.07-.13 2.41-.2 3.57-.26h.06l2.28-1.88a28.8 28.8 0 0 0-7.8-.07 3 3 0 0 1-.31 0l.76.92a32.3 32.3 0 0 1 6.09-.03" style="fill:#fff"/></g><path d="m259.59 321.5 4.27-2.14a4.52 4.52 0 0 0 .2-4.37l-1.76-3.53a4.49 4.49 0 0 0-3.47-2.46l-4.51 2.25a4.53 4.53 0 0 0-.11 4.25L256 319a4.53 4.53 0 0 0 3.59 2.5" style="fill:#a7c8e9"/><path d="m262.3 311.46 1.76 3.53a3 3 0 0 1 .17.39 4.6 4.6 0 0 1 .26 1 2 2 0 0 1 0 .35 3.7 3.7 0 0 1-.06 1 .6.6 0 0 1 0 .12 4 4 0 0 1-.33 1 3 3 0 0 1-.25.49l-4.27 2.14a4.54 4.54 0 0 1-3.38-2.05 4 4 0 0 1-.2-.43l-1.76-3.53a4 4 0 0 1-.16-.39 4.2 4.2 0 0 1-.3-1.29 2.5 2.5 0 0 1 0-.39 3.8 3.8 0 0 1 .14-1.06 1.7 1.7 0 0 1 .15-.45 3.7 3.7 0 0 1 .3-.67l4.51-2.25a4.55 4.55 0 0 1 2.45 1.13 4.5 4.5 0 0 1 .84 1 1.4 1.4 0 0 1 .13.36" style="opacity:.30000000000000004"/><path d="M253.88 312.37a3.8 3.8 0 0 0-.14 1.06c2.46 1.23 6.64 3 10.75 3a4.6 4.6 0 0 0-.26-1c-3.97-.13-8.08-1.91-10.35-3.06m-.14 1.45a4.2 4.2 0 0 0 .3 1.29 26.6 26.6 0 0 0 10.42 2.63 3.7 3.7 0 0 0 .06-1 24.8 24.8 0 0 1-10.78-2.92m2.47 5.63a4.54 4.54 0 0 0 3.38 2.05l1.1-.55a12.6 12.6 0 0 1-4.48-1.5m-2-3.91.82 1.64a17.36 17.36 0 0 0 9.07 1.69 4 4 0 0 0 .33-1c-4.98.33-8.24-.96-10.21-2.33Zm1.82 2.34-.79-.28.64 1.29a41 41 0 0 0 5.5 1.71l1.57-.78a32 32 0 0 1-6.95-1.94Zm-1.41-6.78-.3.15a3.7 3.7 0 0 0-.3.67c2.36 1 7 2.55 9.74 2.49l-.5-1a32.3 32.3 0 0 1-8.63-2.31Zm1.83-.73 1.13.2a32 32 0 0 0 4.54.6 4.5 4.5 0 0 0-.84-1c-1.07-.11-2.4-.34-3.54-.55h-.06l-2.64 1.32a29 29 0 0 0 7.58 1.82h.31l-.53-1.07a31.2 31.2 0 0 1-5.94-1.32Z" style="fill:#a7c8e9"/><path d="M254.13 317H292v1.74a12.46 12.46 0 0 1-12.46 12.46h-12.95a12.46 12.46 0 0 1-12.46-12.46z" style="fill:#a7c8e9"/><path d="M292 317v1.74c0 .39 0 .77-.05 1.14v.06a12.26 12.26 0 0 1-2.32 6.1 2.6 2.6 0 0 1-.29.39 11.4 11.4 0 0 1-1.33 1.45l-.31.29a12 12 0 0 1-1.41 1l-.26.17a11 11 0 0 1-1.38.72 12.4 12.4 0 0 1-5.1 1.09h-12.96a12.4 12.4 0 0 1-5.1-1.09 12 12 0 0 1-1.39-.73l-.25-.16a11 11 0 0 1-1.41-1.06l-.31-.28a11.4 11.4 0 0 1-1.33-1.44c-.11-.13-.2-.25-.3-.39a12.3 12.3 0 0 1-2.31-6.11s0 0 0-.06c0-.37-.05-.75-.05-1.14V317Z" style="fill:#fff;opacity:.5"/><path d="M291.89 317.5h-37.66a1 1 0 0 1-.95-.95.94.94 0 0 1 .95-.95h37.66a1 1 0 0 1 .95.95 1 1 0 0 1-.95.95" style="fill:#a7c8e9"/><path d="M291.89 317.5h-37.66a1 1 0 0 1-.95-.95.94.94 0 0 1 .95-.95h37.66a1 1 0 0 1 .95.95 1 1 0 0 1-.95.95" style="fill:#fff;opacity:.6000000000000001"/><path d="M289.79 322.94c-.47.61-1 1.19-1.48 1.75-.5-.56-1-1.14-1.47-1.75l-.22-.29a18 18 0 0 0 1.58-2.91c-.56.9-1.16 1.77-1.79 2.61-.63-.84-1.24-1.71-1.79-2.61a18 18 0 0 0 1.57 2.91 3 3 0 0 1-.22.29c-.47.61-1 1.19-1.47 1.75-.51-.56-1-1.14-1.47-1.75a3 3 0 0 1-.22-.29 18 18 0 0 0 1.57-2.91c-.56.9-1.16 1.77-1.79 2.61a36 36 0 0 1-1.79-2.61 19 19 0 0 0 1.57 2.91l-.21.29c-.47.61-1 1.19-1.48 1.75-.5-.56-1-1.14-1.47-1.75l-.22-.29a18 18 0 0 0 1.58-2.91c-.56.9-1.16 1.77-1.79 2.61-.63-.84-1.24-1.71-1.79-2.61a18 18 0 0 0 1.57 2.91 3 3 0 0 1-.22.29c-.47.61-1 1.19-1.47 1.75-.51-.56-1-1.14-1.47-1.75a3 3 0 0 1-.22-.29 18 18 0 0 0 1.57-2.91c-.56.9-1.16 1.77-1.79 2.61a36 36 0 0 1-1.79-2.61 19 19 0 0 0 1.57 2.91l-.21.29c-.47.61-1 1.19-1.48 1.75-.51-.56-1-1.14-1.47-1.75l-.22-.29a17.4 17.4 0 0 0 1.57-2.91c-.55.9-1.16 1.77-1.78 2.61-.63-.84-1.24-1.71-1.79-2.61a18 18 0 0 0 1.57 2.91c-.08.1-.14.2-.22.29-.47.61-1 1.19-1.47 1.75-.51-.56-1-1.14-1.48-1.75l-.21-.29a18 18 0 0 0 1.57-2.91c-.56.9-1.16 1.77-1.79 2.61a36 36 0 0 1-1.79-2.61 18 18 0 0 0 1.57 2.91l-.21.29c-.48.61-1 1.19-1.48 1.75-.51-.56-1-1.14-1.47-1.75-.08-.09-.14-.19-.22-.29a18 18 0 0 0 1.57-2.91c-.55.9-1.16 1.77-1.78 2.61-.63-.84-1.24-1.71-1.79-2.61a18 18 0 0 0 1.57 2.91c-.08.1-.14.2-.22.29-.47.61-1 1.19-1.47 1.75-.51-.56-1-1.14-1.48-1.75l-.21-.29a18 18 0 0 0 1.57-2.91c-.56.9-1.16 1.77-1.79 2.61a36 36 0 0 1-1.79-2.61 18 18 0 0 0 1.57 2.91l-.21.29c-.48.61-1 1.19-1.48 1.75-.51-.56-1-1.14-1.47-1.75a34 34 0 0 1-2.14-3.07s0 0 0 .06a18.4 18.4 0 0 0 1.82 3.24 20 20 0 0 0 1.46 1.86c-.25.28-.5.56-.77.82a2 2 0 0 1-.2.19c.1.14.19.26.3.39l.25-.23c.26-.26.5-.54.74-.81.25.27.49.55.74.81s.54.48.82.71c-.39.34-.8.66-1.22 1l.31.28a14 14 0 0 0 1.26-.93 16 16 0 0 0 1.57 1.15 16 16 0 0 1-1.42.84l.25.16a10.5 10.5 0 0 0 1.46-.73h.05a14 14 0 0 0 1.58.79c-.49.24-1 .46-1.5.67a13 13 0 0 0 1.78-.56 13 13 0 0 0 1.79.56c-.51-.21-1-.43-1.5-.67a14 14 0 0 0 1.58-.79h.05a12 12 0 0 0 1.58.79c-.5.24-1 .46-1.51.67a12.4 12.4 0 0 0 1.79-.56 12.4 12.4 0 0 0 1.79.56c-.51-.21-1-.43-1.5-.67a13 13 0 0 0 1.57-.79h.05a14 14 0 0 0 1.58.79c-.49.24-1 .46-1.5.67a13 13 0 0 0 1.79-.56 13 13 0 0 0 1.78.56c-.51-.21-1-.43-1.5-.67a14 14 0 0 0 1.58-.79h.05a12 12 0 0 0 1.58.79c-.5.24-1 .46-1.51.67a12.4 12.4 0 0 0 1.79-.56 13 13 0 0 0 1.79.56c-.51-.21-1-.43-1.5-.67a13 13 0 0 0 1.57-.79h.05a14 14 0 0 0 1.58.79c-.49.24-1 .46-1.5.67a13 13 0 0 0 1.79-.56 12.4 12.4 0 0 0 1.79.56c-.52-.21-1-.43-1.51-.67a14 14 0 0 0 1.58-.79h.05a13 13 0 0 0 1.58.79c-.49.24-1 .46-1.51.67a12.4 12.4 0 0 0 1.79-.56 13 13 0 0 0 1.79.56c-.51-.21-1-.43-1.5-.67a13 13 0 0 0 1.57-.79h.05a13 13 0 0 0 1.46.74l.26-.17a14 14 0 0 1-1.42-.84 18 18 0 0 0 1.57-1.15c.41.33.83.65 1.26.94l.31-.29c-.42-.3-.82-.62-1.22-1 .27-.23.55-.46.81-.71s.5-.54.74-.81c.25.27.49.55.75.81l.25.22a2.6 2.6 0 0 0 .29-.39l-.19-.18c-.27-.26-.52-.54-.78-.82a20 20 0 0 0 1.47-1.86 18.4 18.4 0 0 0 1.82-3.24s0 0 0-.06a37 37 0 0 1-1.84 3.07m-7.32.23.12-.19a2 2 0 0 0 .13.19 19 19 0 0 0 1.46 1.86c-.26.28-.5.56-.77.82s-.54.5-.82.74c-.27-.24-.56-.48-.81-.74s-.52-.54-.78-.82a20 20 0 0 0 1.47-1.86m-3.82 0a2 2 0 0 1 .13-.19l.12.19a22 22 0 0 0 1.46 1.86c-.25.28-.5.56-.77.82s-.54.5-.81.74c-.28-.24-.56-.48-.82-.74s-.52-.54-.77-.82a20 20 0 0 0 1.46-1.86m-3.81 0 .16-.17a2 2 0 0 0 .13.19 19 19 0 0 0 1.46 1.86c-.26.28-.5.56-.77.82s-.54.5-.82.74c-.27-.24-.56-.48-.81-.74s-.52-.54-.78-.82a20 20 0 0 0 1.43-1.88m-3.82 0a2 2 0 0 1 .13-.19l.12.19a22 22 0 0 0 1.46 1.86c-.25.28-.5.56-.77.82s-.54.5-.81.74c-.28-.24-.56-.48-.82-.74s-.52-.54-.77-.82a20 20 0 0 0 1.44-1.86Zm-3.81 0 .12-.19a2 2 0 0 0 .13.19 19 19 0 0 0 1.46 1.86c-.26.28-.51.56-.78.82s-.54.5-.81.74c-.27-.24-.56-.48-.81-.74s-.52-.54-.78-.82a20 20 0 0 0 1.47-1.86m-3.82 0a2 2 0 0 1 .13-.19l.12.19a20 20 0 0 0 1.46 1.83c-.25.28-.5.56-.77.82s-.54.5-.81.74c-.28-.24-.56-.48-.82-.74s-.52-.54-.77-.82a20 20 0 0 0 1.46-1.83m-4.5 2.68c-.27-.26-.52-.54-.78-.82a19 19 0 0 0 1.46-1.86 2 2 0 0 0 .13-.19l.12.19a20 20 0 0 0 1.47 1.86c-.26.28-.51.56-.78.82s-.54.5-.81.74c-.27-.24-.56-.48-.81-.74m2.72 2.27c-.54-.38-1.06-.78-1.56-1.21.27-.23.56-.46.81-.71s.5-.54.75-.81c.24.27.48.55.74.81s.54.48.81.71c-.5.43-1.02.83-1.55 1.21m1.9 1.17a15 15 0 0 1-1.56-.92 19 19 0 0 0 1.57-1.15 17 17 0 0 0 1.56 1.15 14 14 0 0 1-1.57.92m1.91-1.17c-.53-.38-1.05-.78-1.55-1.21.27-.23.55-.46.81-.71s.5-.54.74-.81c.25.27.49.55.74.81s.55.48.82.71c-.5.43-.98.83-1.56 1.21m1.91 1.17a17 17 0 0 1-1.57-.92 16 16 0 0 0 1.57-1.15 16 16 0 0 0 1.57 1.15 17 17 0 0 1-1.57.92m1.91-1.17c-.54-.38-1.06-.78-1.56-1.21.28-.23.56-.46.82-.71s.49-.54.74-.81c.24.27.48.55.74.81s.54.48.81.71c-.5.43-1.02.83-1.55 1.21m1.91 1.17a14 14 0 0 1-1.57-.92 19 19 0 0 0 1.57-1.15 17 17 0 0 0 1.56 1.15 15 15 0 0 1-1.56.92m1.9-1.17c-.53-.38-1.05-.78-1.55-1.21.27-.23.55-.46.81-.71s.5-.54.74-.81c.25.27.49.55.75.81s.54.48.81.71c-.5.43-1.02.83-1.56 1.21m1.91 1.17a17 17 0 0 1-1.57-.92 16 16 0 0 0 1.57-1.15 18 18 0 0 0 1.57 1.15 15 15 0 0 1-1.53.92Zm1.91-1.17c-.54-.38-1.05-.78-1.56-1.21.28-.23.56-.46.82-.71s.49-.54.74-.81c.25.27.48.55.74.81s.54.48.81.71c-.5.43-1.02.83-1.55 1.21m1.91 1.17a15 15 0 0 1-1.57-.92 18 18 0 0 0 1.57-1.15 17 17 0 0 0 1.56 1.15 15 15 0 0 1-1.56.92m1.9-1.17c-.53-.38-1.05-.78-1.55-1.21.27-.23.55-.46.81-.71s.5-.54.74-.81c.25.27.49.55.75.81s.54.48.81.71c-.5.43-1.02.83-1.56 1.21m1.91 1.17a17 17 0 0 1-1.57-.92 16 16 0 0 0 1.57-1.15 18 18 0 0 0 1.57 1.15 15 15 0 0 1-1.57.92m1.91-1.17c-.54-.38-1.05-.78-1.55-1.21.27-.23.55-.46.81-.71s.49-.54.74-.81c.25.27.49.55.74.81s.54.48.81.71c-.5.43-1.05.83-1.55 1.21m2.72-2.27c-.26.26-.54.5-.81.74-.28-.24-.56-.48-.82-.74s-.51-.54-.77-.82a19 19 0 0 0 1.46-1.86 2 2 0 0 1 .13-.19l.12.19A20 20 0 0 0 288 325c-.26.31-.51.59-.78.85" style="opacity:.2;isolation:isolate"/><path d="M282.85 332.7h8.18v76.26h-8.18z" style="fill:#031326"/><path d="M282.85 332.7h8.18v76.26h-8.18z" style="fill:#fff;opacity:.1"/><path d="M243.92 332.7h86v6.74a1.84 1.84 0 0 1-1.84 1.84h-82.32a1.84 1.84 0 0 1-1.84-1.84zM323.91 418l-1.32-4.34a1.44 1.44 0 0 0-1.83-.94 20.6 20.6 0 0 1-6.91.85c-6.88-.15-14.41-9.29-26-10.23v-.09h-2v.09c-11.54.94-19.07 10.08-26 10.23a20.6 20.6 0 0 1-6.91-.85 1.44 1.44 0 0 0-1.83.94L250 418h20s5.6-5.53 17-5.84c11.42.31 17 5.84 17 5.84Z" style="fill:#031326"/><path d="M243.92 332.7h86v6.74a1.84 1.84 0 0 1-1.84 1.84h-82.32a1.84 1.84 0 0 1-1.84-1.84zM323.91 418l-1.32-4.34a1.44 1.44 0 0 0-1.83-.94 20.6 20.6 0 0 1-6.91.85c-6.88-.15-14.41-9.29-26-10.23v-.09h-2v.09c-11.54.94-19.07 10.08-26 10.23a20.6 20.6 0 0 1-6.91-.85 1.44 1.44 0 0 0-1.83.94L250 418h20s5.6-5.53 17-5.84c11.42.31 17 5.84 17 5.84Z" style="fill:#fff;opacity:.2"/><rect width="97.92" height="5.68" x="237.98" y="328.52" rx="1.15" style="fill:#031326"/><rect width="97.92" height="5.68" x="237.98" y="328.52" rx="1.15" style="fill:#fff;opacity:.30000000000000004"/><path d="M146.42 411.48s6.53 3.17 11.08 0 .15-17.92-12.39-21-15.31-11.61-12.34-13.78 5.66-1.18 4.15 3.95 7.76 4.23 16 9.83 13.92 15.25 8 23-17.7 2.12-17.7 2.12Z" style="fill:#031326"/><path d="M89.06 417.88h60.67s10.52-6.51-5.21-17.39-41.84-3.76-48.56 2.77c.04 0-15.96 4.91-6.9 14.62" style="fill:#031326"/><path d="M149.73 417.88h-27.06a1.1 1.1 0 0 1 .58-1.64c1.29-.58 12.46-1.5 12.46-1.5s-1.78-5.94-1.58-7.92 5.85-4.35 5.85-4.35-6.54 1.19-7.63 3.9 1.39 5.89.4 6.49-5.88.61-5.88.61c1.28-2.38-2.13-5.46-2.13-5.46 1.69 3.94-3.58 9.5-10.55 9.87h-10.56c10.94-1.59 11.38-8 10-10.26s-5.54-5.94-5.54-5.94v-4.48c10.89-3.22 25.94-3.94 36.4 3.29 15.76 10.88 5.24 17.39 5.24 17.39" style="fill:#fff;opacity:.1"/><path d="M98.92 398.25s.53-3.4 7-6.06a15.3 15.3 0 0 1 .13 7.51s1.19 1.94 2.64 4.8c.6 1.18.62 3.4.42 5.59a9.12 9.12 0 0 1-6.22 7.89s-12.22-1.71-13.82-3.86a43 43 0 0 1-3.59-6.94 14.7 14.7 0 0 1-4.88-4.84 20.2 20.2 0 0 1 9.4-1.45s5.63-2.51 8.92-2.64" style="fill:#031326"/><path d="M108.68 404.5c-1.45-2.86-2.64-4.8-2.64-4.8a15.3 15.3 0 0 0-.13-7.51c-6.46 2.66-7 6.06-7 6.06-3.29.13-9 2.64-9 2.64a20.2 20.2 0 0 0-9.37 1.45 14.7 14.7 0 0 0 4.88 4.84 43 43 0 0 0 3.59 6.94c1.6 2.15 13.82 3.86 13.82 3.86a9.12 9.12 0 0 0 6.22-7.89c.25-2.19.23-4.41-.37-5.59m-16.78 7.66s4.35 1.29 7-1.08c.02 0-1.44 4.08-7 1.08m12.36 3.66-2.47-1.08 3.32-1.09Zm-1.68-6.13s4.19 1.05 5-3.32c.05 0-.05 5.2-5 3.32" style="fill:#fff;opacity:.1"/></svg>