<svg xmlns="http://www.w3.org/2000/svg" width="512" height="512"><path fill="#68CBED" d="m99 26.438 3.523-.034c9.444.081 9.444.081 13.153 2.229 2.79 2.842 3.498 4.975 4.511 8.805 1.695 4.913 1.695 4.913 5.325 8.453 2.796 1.266 5.55 2.227 8.488 3.109l3.5 1.625c4.029.432 5.314-.292 8.875-2.062 4.459-2.215 7.565-3.336 12.508-2.395 4.185 1.645 7.024 4.66 10.117 7.832l2.207 2.102c8.032 7.728 8.032 7.728 8.23 13.96-.042 5.123-2.13 8.748-4.734 13.067-.835 3.412-.351 4.051 1.253 7.05l1.144 2.172L178 94l1.923.003a119368 119368 0 0 1 126.446.26l2.727.006q21.841.051 43.683.081 22.422.033 44.844.099 13.828.04 27.657.05 9.49.01 18.981.047c3.647.014 7.294.023 10.941.019 3.964-.004 7.927.015 11.89.036l3.455-.014c12.339.108 23.074 2.38 32.2 11.077 5.34 5.834 9.37 13.002 9.387 21.019l.014 2.934v3.23l.01 3.427q.015 5.714.019 11.427l.02 8.17c.02 8.187.03 16.374.039 24.561q.007 5.785.015 11.57a50473 50473 0 0 1 .044 48.45l.002 2.506c.008 13.391.033 26.783.066 40.175q.049 20.629.054 41.257c.002 7.72.01 15.44.036 23.16q.034 9.864.02 19.729-.007 5.03.017 10.059c.018 3.642.01 7.283-.002 10.926l.033 3.183c-.089 10.182-3.355 19.164-10.521 26.553-9.75 7.977-18.545 9.443-30.852 9.34q-2.085 0-4.17.002c-3.754 0-7.508-.017-11.261-.038-3.93-.019-7.861-.02-11.791-.024-7.434-.01-14.868-.034-22.301-.064-8.467-.034-16.934-.05-25.4-.065-17.409-.031-34.817-.084-52.225-.151l1.446 3.699 1.902 4.877.95 2.429a488 488 0 0 1 7.14 19.62l1.06 3.078Q357.754 464.35 359 468l2.966.012c3.638.022 7.276.077 10.913.14q2.36.036 4.72.044c2.265.009 4.527.05 6.792.097l2.124-.012c3.712.11 5.217.461 7.93 3.076 1.917 3.259 2.176 4.919 1.555 8.643-1.552 2.648-1.552 2.648-4 5-2.76.501-4.909.673-7.667.628l-2.353.022c-2.605.017-5.208 0-7.812-.019q-2.799.008-5.598.022c-5.07.018-10.14.005-15.21-.014-5.302-.017-10.604-.008-15.906-.003-8.904.005-17.809-.011-26.713-.04-10.3-.031-20.599-.031-30.899-.014-9.901.016-19.802.01-29.704-.008q-6.325-.01-12.65.002-7.446.01-14.892-.032a709 709 0 0 0-5.472 0c-2.486.009-4.97-.007-7.457-.03l-2.196.026c-3.404-.057-5.17-.306-7.892-2.424-1.896-2.541-2.503-3.937-2.579-7.116 2.277-5.639 2.277-5.639 5-7a175 175 0 0 1 7.414-.098l2.211.005c2.333.005 4.667.018 7 .03q2.37.009 4.742.014 5.816.017 11.633.049l.316-2.471c.812-4.188 2.152-7.997 3.625-11.99a2708.915 2708.915 0 0 1 3.621-9.914l1.866-5.121Q246.706 433.249 249 427l-2.158.011q-26.043.134-52.085.196c-8.396.02-16.792.049-25.188.095q-10.981.06-21.964.074c-3.873.006-7.747.018-11.62.047q-5.479.039-10.958.03c-1.966.001-3.932.022-5.898.045-10.722-.05-20.003-2.587-27.906-10.213-7.285-7.777-10.344-15.897-10.354-26.456l-.007-2.192q-.007-3.636-.004-7.272l-.01-5.214q-.012-5.617-.017-11.233-.01-8.889-.041-17.778l-.029-9.17c-.042-13.795-.075-27.59-.087-41.386q-.011-13.959-.07-27.918c-.019-4.922-.031-9.844-.026-14.766q.005-6.95-.037-13.903-.011-2.542 0-5.086c.031-8.186.055-15.53-3.685-23.043C76 210 76 210 76 207l-1.652-.297c-4.397-.872-7.874-1.926-11.785-4.14-2.902-1.388-3.955-1.773-7.036-.708a209 209 0 0 0-5.043 2.875C46.718 206.655 43.1 207.054 39 206c-4.462-2.605-8.035-5.738-11.687-9.375l-2.825-2.773c-2.967-3.4-5.27-6.54-5.703-11.125.65-4.922 1.884-8.645 4.473-12.903.981-2.412.568-3.368-.258-5.824l-.77-3.059c-2.027-6.912-2.027-6.912-7.054-11.726a123 123 0 0 0-6.352-2.235C4.495 145.478 2.062 143.123 0 139c-.325-4.243-.325-8.496-.375-12.75l-.113-3.578c-.1-9.77-.1-9.77 2.605-13.371 3.158-2.52 5.488-3.385 9.383-4.364 4.188-1.444 6.022-2.185 8.422-5.964C21.189 95.66 22.197 92.453 23 89l.766-2.574c.314-3.254-.716-4.89-2.266-7.739-1.99-4.171-3.336-7.204-2.328-11.796C20.925 62.889 23.94 60.042 27 57l2.29-2.434C36.083 47.465 36.083 47.465 41 46c5.6.184 9.276 1.348 14.043 4.258 2.69 1.02 4.196.494 6.957-.258l3.156-.734c6.976-2.036 6.976-2.036 11.59-7.313 1.23-3.406 1.23-3.406 2.031-6.797 3.72-9.604 11.168-8.904 20.223-8.718M94 43l-.734 2.484-2 6.5c-1.96 4.671-4.042 6.446-8.621 8.578q-1.91.735-3.832 1.438-2.023.766-4.043 1.54l-1.967.746c-2.323.92-4.557 1.995-6.803 3.089-3.908 1.722-6.679 2.295-11 1.625-3.767-1.477-7.391-3.173-11-5l-7 7c.36.713.722 1.426 1.094 2.16l1.406 2.903 1.406 2.847c2.088 5.898 1.318 10.371-1.19 15.888l-.966 2.014q-.984 2.11-1.96 4.223l-.953 2.051c-1.092 2.498-1.887 5.068-2.712 7.664-1.46 3.768-2.885 5.078-6.562 6.75A142 142 0 0 1 22 119l-5 2v11c.82.23 1.64.461 2.484.7 1.078.325 2.156.651 3.266.988l3.234.949c4.708 2.128 6.427 4.93 8.36 9.633l1.156 3.542c1.37 4.065 2.73 7.874 4.813 11.625C42.23 163.488 42.62 165.577 42 170a78 78 0 0 1-3.223 6.887c-.939 2.552-.802 3.618.223 6.113 2.48 2.73 2.48 2.73 5 5 4.062-1.268 4.062-1.268 7.914-3.043 3.92-1.798 7.879-1.554 12.086-.957 2.57 1.005 4.875 2.223 7.277 3.578 3.117 1.628 6.275 2.716 9.598 3.86 3.88 1.47 5.856 2.28 8.75 5.312 1.708 4.036 3.103 8.054 4.375 12.25h10l.953-2.484 1.297-3.266 1.266-3.234c3.075-6.248 7.083-7.942 13.359-10.078q2.091-.732 4.18-1.473l2.033-.721c2.168-.805 2.168-.805 5.115-2.4 4.293-2.063 8.132-2.042 12.797-1.344a39.4 39.4 0 0 1 6.21 3.32c1.835.92 1.835.92 3.876-.07 2.289-1.495 4.053-3.256 5.914-5.25-1.271-4.065-1.271-4.065-3.04-7.926-1.836-3.965-1.623-7.816-.96-12.074 1.28-3.393 2.786-6.571 4.418-9.809 1.43-2.884 2.561-5.727 3.644-8.754 2.056-5.15 4.358-7.303 9.481-9.554A209 209 0 0 1 182 131v-10l-2.703-.883-3.547-1.242-3.516-1.195c-6.067-3.151-7.745-8.519-9.797-14.743-1.139-3.44-2.157-6.483-4.062-9.57-2.31-3.977-2.034-7.903-1.375-12.367a39.3 39.3 0 0 1 3.32-6.21c.922-1.837.922-1.837-.09-3.872-1.548-2.414-2.95-4.159-5.23-5.918-3.26.088-5.325 1.162-8.25 2.625-5.935 2.176-10.098 1.477-15.898-.934a349 349 0 0 1-6.692-3.214c-2.749-1.285-5.308-2.18-8.222-2.977-3.157-1.008-3.915-1.475-6.25-4.062-2.161-4.402-3.953-8.851-5.688-13.438zm104 69 .08 2.383c.104 3.58.168 7.16.232 10.742l.127 3.75c.139 10.28.139 10.28-2.763 13.92-3.044 2.508-5.299 3.24-9.113 4.143-4.189 1.445-6.652 2.627-8.778 6.5-2.63 5.874-4.531 11.109-2.785 17.562l1.563 2.75c2.005 4.533 2.475 8.379 1.437 13.25-1.883 3.161-4.334 5.489-7 8l-2.398 2.46c-7.49 7.684-7.49 7.684-13.227 7.852-4.638-.013-7.541-1.005-11.39-3.535-2.926-1.146-4.954-.474-7.985.223l-3.254.734c-6.938 2.076-6.938 2.076-11.559 7.348-1.286 3.434-1.286 3.434-2.16 6.86-1.133 3.375-2.274 4.846-5.027 7.058-5.099 1.7-10.641 1.588-16 2v116h398l.125-105 .055-33.16c.007-9.805.007-9.805.01-19.61q.005-6.553.021-13.106.02-8.361.015-16.722 0-3.067.012-6.135c.01-2.765.008-5.53.003-8.295l.017-2.416c-.036-6.812-.675-13.58-5.383-18.869l-1.633-1.925c-6.621-5.203-13.824-5.188-21.872-5.123l-3.498-.008c-3.186-.004-6.371.006-9.557.02-3.442.014-6.885.01-10.327.007q-8.937-.001-17.874.025c-8.614.024-17.228.032-25.842.036q-20.966.01-41.932.055a37329 37329 0 0 1-55.861.075q-52.24.049-104.479.151M98 358c-3.166 24.977-3.166 24.977 5.816 47.84l1.746 1.098 1.754 1.152c3.662 1.98 6.725 2.039 10.81 2.047l3.908.015 4.32.002 4.569.013q6.294.017 12.589.022 6.782.01 13.565.029 16.387.034 32.775.052l9.255.011a85966 85966 0 0 0 74.103.071c17.867.013 35.735.046 53.603.088q27.507.063 55.014.071c10.299.004 20.598.015 30.896.048 8.77.028 17.54.04 26.31.028 4.475-.005 8.95-.002 13.425.022q6.147.033 12.293.003 2.222-.005 4.444.018c10.048.096 15.882-.966 23.18-7.88C499.538 390.628 496 368.423 496 358zm170 69c-4.01 9.565-4.01 9.565-7.676 19.227l-1.318 3.683-1.318 3.715q-.69 1.916-1.377 3.832l-1.3 3.645-1.172 3.291c-.941 2.468-.941 2.468-.839 4.607h88c-7.364-21.05-7.364-21.05-15-42z"/><path fill="#38EAFA" d="m287.629 190.637 2.158-.002a470 470 0 0 1 4.49.029c2.282.023 4.564.02 6.846.014 13.53.051 13.53.051 18.991 3.757 2.958 4.023 2.411 7.975 2.34 12.841l.002 3.165a1252 1252 0 0 1-.065 10.356q-.012 3.59-.018 7.18c-.015 6.3-.054 12.599-.098 18.899-.041 6.428-.06 12.856-.08 19.284A12194 12194 0 0 1 322 304h40l-.105-17.29a9603 9603 0 0 1-.041-10.855 4335 4335 0 0 0-.08-17.223c-.033-4.63-.05-9.259-.059-13.888q-.008-2.648-.032-5.294c-.022-2.475-.025-4.95-.024-7.425l-.032-2.202c.028-4.674.865-7.874 3.373-11.823 3.864-2.576 7.127-2.342 11.613-2.371l2.567-.027q2.69-.022 5.38-.028c2.732-.011 5.463-.06 8.196-.111q2.616-.015 5.232-.022l2.463-.059c4.116.033 6.767.364 10.05 2.965 3.94 4.183 3.64 7.895 3.613 13.337v2.366c0 2.581-.009 5.162-.016 7.743l-.005 5.368q-.006 7.065-.024 14.13-.014 7.209-.02 14.418-.016 14.145-.049 28.291l2.124-.08c3.187-.104 6.375-.168 9.563-.233l3.342-.126c8.18-.124 8.18-.124 12.201 2.74 2.346 3.578 2.52 5.498 1.77 9.699-2.046 2.988-3.672 4.737-7.309 5.458-2.999.187-5.96.203-8.964.17l-3.492.022c-3.195.014-6.389.006-9.583-.011-3.447-.013-6.893.002-10.34.014-6.75.018-13.5.01-20.25-.008q-8.228-.02-16.457-.015l-2.365.002q-2.379 0-4.757.003c-14.023.008-28.046-.008-42.069-.038q-20.415-.044-40.828-.02a19220 19220 0 0 1-51.546-.006 7376 7376 0 0 0-16.439.005q-10.016.011-20.03-.024a1471 1471 0 0 0-10.222-.008c-3.692.009-7.384-.007-11.076-.03l-3.27.026c-4.46-.05-7.228-.091-11.141-2.357-2.622-3.074-2.932-5.173-2.862-9.183 1.766-2.802 3.03-4.515 6-6 1.813-.085 3.63-.107 5.445-.098l3.262.01 3.418.026 3.441.013q4.218.018 8.434.049l-.034-2.358q-.15-11.012-.225-22.025a1394 1394 0 0 0-.118-11.323 961 961 0 0 1-.097-10.932q-.015-2.084-.055-4.166a318 318 0 0 1-.039-5.845l-.033-3.358c.795-3.96 2.551-5.443 5.601-7.993 3.18-1.59 6.62-1.184 10.113-1.203l2.444-.017q2.564-.014 5.127-.02c2.608-.01 5.215-.04 7.822-.072q2.49-.01 4.982-.016l2.356-.038c4.574.02 7.545.49 11.156 3.366 2.35 3.526 2.244 4.952 2.227 9.124v3.821l-.032 4.13-.008 4.224c-.008 3.704-.028 7.408-.05 11.111-.02 3.78-.03 7.561-.04 11.342-.02 7.416-.059 14.832-.097 22.248h40l-.048-9.56c-.05-10.417-.082-20.834-.107-31.252-.016-6.317-.037-12.633-.071-18.95-.033-6.095-.05-12.19-.059-18.285q-.008-3.489-.032-6.979c-.022-3.256-.025-6.512-.024-9.768l-.032-2.92c.022-4.894.097-8.363 3.373-12.286 4.557-3.01 8.234-3.375 13.629-3.363M288 208v96h17v-96zm91 25v71h18v-71zm-182 19v52h17v-52z"/><path fill="#D4FAFE" d="M308.5 135.625c3.856 2.632 6.383 5.141 8.5 9.375l.42 2.97c1.872 3.59 2.53 3.707 6.242 4.92q3.046.827 6.111 1.575l3.259.856q3.413.888 6.834 1.74c3.495.873 6.979 1.782 10.462 2.699q3.315.856 6.633 1.705l3.166.82 2.953.73 2.592.652c4.255.609 6.907-.858 10.39-3.167 5.535-3.654 10.396-4.304 16.938-3.5 5.86 1.888 10.84 4.643 14.098 9.988 2.764 6.163 3.622 12.303 1.78 18.844-2.316 5.714-5.579 9.869-11.128 12.668-6.098 2.31-12.438 2.655-18.562.25-6.12-3.36-9.189-6.53-12.188-12.75v-4l-2.559-.559a460 460 0 0 1-22.742-5.746l-2.217-.619q-5.59-1.561-11.167-3.166l-4.206-1.18-3.782-1.08c-3.292-.643-5.17-.692-8.327.35a1049 1049 0 0 0-5 4c-4.878 2.217-9.72 2.767-15 2a55 55 0 0 1-6.762-3.32c-5.169-1.57-11.073 2.545-15.734 4.77-.71.335-1.421.67-2.153 1.017q-3.397 1.606-6.788 3.22l-6.667 3.155a1489 1489 0 0 0-4.395 2.091 351 351 0 0 1-10.886 4.992l-2.1.93q-1.958.865-3.932 1.689c-2.78 1.237-4.342 2.002-5.793 4.735-.464 2.168-.464 2.168-.563 4.448-.406 4.074-2.662 7.175-5.227 10.273-7.041 5.492-13.327 5.588-22 5-6.107-2.072-10.13-6.149-13.312-11.687-2.803-6.04-2.478-11.818-.5-18.063 3.848-6.9 6.876-9.936 14.335-12.555 6.626-1.86 11.05-.318 17.047 2.528 5.264 1.684 9.862-1.213 14.54-3.54l2.06-1.006q3.294-1.611 6.58-3.24 4.48-2.214 8.96-4.421l2.202-1.085c3.934-1.925 7.88-3.736 11.94-5.384 7.413-2.66 7.413-2.66 12.57-8.184.752-2.835.752-2.835 1.07-5.675.894-4.732 3.933-7.643 7.508-10.688 7.558-4.742 16.794-4.712 24.5-.375m-15.312 15.625c-1.414 1.685-1.414 1.685-1 3.813.747 2.124.747 2.124 2.812 3.937 3.307-.29 3.307-.29 6-2 .25-2.458.25-2.458 0-5l-2-2c-3.818-.378-3.818-.378-5.812 1.25M386 174c-1.79 2.427-1.79 2.427-3 5l3 4c3.29-.379 3.29-.379 6-2 .25-2.458.25-2.458 0-5l-2-2zm-183.75 20.188c-1.534 1.808-1.534 1.808-1 4.437.527 2.306.527 2.306 1.75 3.375 2.458.25 2.458.25 5 0l2-2c-.33-3.297-.623-4.623-3-7-2.939-.28-2.939-.28-4.75 1.188"/><path fill="#005AB0" d="M122.375 86.875c10.19 6.663 17.429 14.738 20.965 26.586 2.551 13.677 1.26 26.176-5.965 38.164-7.02 9.818-16.5 16.782-28.375 19.375-14.155 1.238-26.379-.284-38-9-2.625-2.375-2.625-2.375-5-5l-1.496-1.555c-8.08-8.745-11.017-19.817-10.754-31.55C54.89 110.694 60.35 100.005 70 91c15.159-11.68 35.701-13.81 52.375-4.125M76 110c-4.135 6.202-5.707 12.602-5 20 1.82 8.837 6.26 15.365 13.688 20.438C91.493 154.75 98.093 154.833 106 154c8.479-2.595 14.67-7.223 19-15 2.923-7.253 3.353-15.35 1.16-22.887-3.59-7.893-9.226-13.042-17.097-16.55C95.755 94.842 85.096 99.89 76 110"/></svg>