<svg xmlns="http://www.w3.org/2000/svg" xml:space="preserve" width="800" height="800" fill="#A6C7E9" viewBox="0 0 504.4 504.4"><path d="M254.8 265.4h-.8l-42 122.4c29.6 8.4 58.4 7.6 86.8-2-14.8-40.4-29.2-80.4-44-120.4M123.2 195.4h-.8c-15.6 37.2-16.4 74.8-.4 112.4 13.6 32 36.4 55.6 67.6 71.6.4 0 .4-.4.8-.4-22.4-61.6-44.8-122.4-67.2-183.6"/><path d="M338.8 211.8c-3.2-6-6.8-11.6-10.4-17.6-3.2-5.6-5.6-11.6-6.4-18-1.6-13.2 7.2-25.6 20.4-28 1.2-.4 2.8-.4 5.2-.8-39.2-32.8-82.8-44.4-131.6-32-34.8 8.8-61.6 28.8-82.4 59.2h20.8c8.4-.4 16.8-1.2 25.2-1.6 4-.4 6.4 1.6 6.8 4.8.4 3.6-1.2 6-5.6 6.4-1.2.4-2.4.4-3.6.4-4 .4-7.6.8-12 1.2 17.2 51.2 34.4 102 51.2 152.4q1.2-.6 1.2-1.2c10-29.6 20-59.2 29.6-89.2.4-1.2 0-3.2-.4-4.4-6.4-18.4-13.2-36.4-20-54.8-.8-2.4-2-3.2-4.4-3.2-4 0-8-.8-12-1.2-3.2-.4-4.8-2.8-4.8-6 .4-3.2 2.4-5.2 5.6-5.2 1.6 0 2.8.4 4.4.4 15.2.4 30.8.8 46 1.2 8 0 16.4-.8 24.4-1.2 3.6 0 6 2 6.4 5.2s-1.6 5.6-4.8 6c-1.6.4-2.8.4-4.4.4l-12 1.2c17.2 50.8 34 100.8 51.2 152 .4-1.2.8-1.6.8-2 7.2-23.6 14-47.2 21.2-70.8 5.6-18.8 4-36.8-5.6-53.6"/><path d="M377.6.2H126.4C56.8.2 0 57 0 126.6v251.6c0 69.2 56.8 126 126.4 126H378c69.6 0 126.4-56.8 126.4-126.4V126.6C504 57 447.2.2 377.6.2m30.4 260v3.2c-1.2 20.8-6.4 40.8-16 59.2-25.2 47.6-64 75.6-117.6 84.4q-7.2 1.2-14.4 1.2h-19.2c-20.8-1.2-40.4-6-58.4-15.6-48-25.2-76-64-84.8-117.6-1.2-5.2-1.6-9.6-1.6-14.8V241c1.2-21.2 6.4-41.2 16.4-59.6 25.2-47.2 64-74.8 116.8-83.6 4.8-.8 10-1.2 14.8-1.2h19.2c20.4 1.2 40 6 58.4 15.6 48 25.2 76.4 64 85.2 118q1.2 7.2 1.2 14.4z"/><path d="M376.8 185.4c.4 10.8.4 20.8-1.2 31.2-2 11.6-5.6 22.8-9.6 34-14 38.8-27.2 77.6-40.4 116.4-.8 2-1.6 4.4-2 6.4.4 0 .4.4.8.4 38-23.6 61.2-57.6 68-102q6.6-45.6-15.6-86.4"/></svg>